<?xml version="1.0" standalone="no"?>
<!DOCTYPE svg PUBLIC "-//W3C//DTD SVG 1.1//EN" "http://www.w3.org/Graphics/SVG/1.1/DTD/svg11.dtd" >
<svg>
<metadata>
Created by FontForge 20120731 at Thu Oct  6 02:41:36 2016
 By ,,,
Copyright (c) 2012 by Fontsmith Ltd. All rights reserved.
</metadata>
<defs>
<font id="FSTrumanWeb" horiz-adv-x="897" >
  <font-face 
    font-family="FS Truman Web"
    font-weight="400"
    font-stretch="normal"
    units-per-em="2048"
    panose-1="2 0 5 3 4 0 0 2 0 4"
    ascent="1597"
    descent="-451"
    x-height="1206"
    cap-height="1595"
    bbox="-241.485 -637 2781 2580"
    underline-thickness="40"
    underline-position="-231"
    unicode-range="U+000D-FB04"
  />
<missing-glyph horiz-adv-x="1308" 
d="M123 0v1419h1063v-1419h-1063zM229 193l363 518l-363 516v-1034zM293 102h723l-361 516zM293 1319l362 -518l361 518h-723zM717 711l364 -518v1034z" />
    <glyph glyph-name="f_f" unicode="ff" horiz-adv-x="1597" 
d="M45 1036v148q0 22 23 22h180v92q0 116 26.5 184t90.5 117q98 74 297 74q48 0 113 -8t95 -16q17 -6 17 -23v-125q0 -23 -27 -20q-99 12 -153 12q-135 0 -183 -51q-22 -24 -31.5 -58.5t-9.5 -99.5v-78h521v92q0 116 26 184t90 117q98 74 297 74q48 0 113.5 -8t95.5 -16
q16 -5 16 -23v-125q0 -23 -26 -20q-99 12 -154 12q-134 0 -182 -51q-22 -24 -31.5 -58.5t-9.5 -99.5v-78h303q15 0 20.5 -5t4.5 -17l-13 -148q-3 -22 -22 -22h-293v-987q0 -27 -27 -27h-184q-24 0 -24 27v987h-521v-987q0 -27 -26 -27h-185q-24 0 -24 27v987h-180
q-23 0 -23 22z" />
    <glyph glyph-name="fi" unicode="fi" horiz-adv-x="1335" 
d="M45 1036v148q0 22 23 22h180v78q0 219 141 307q122 78 359 78q160 0 290 -29q21 -5 21 -22v-133q0 -27 -25 -21q-126 23 -233 23q-173 0 -248 -47q-35 -22 -52.5 -56.5t-17.5 -95.5v-82h666q29 0 29 -26v-1153q0 -27 -29 -27h-180q-27 0 -27 27v987h-459v-987
q0 -27 -26 -27h-185q-24 0 -24 27v987h-180q-23 0 -23 22z" />
    <glyph glyph-name="fl" unicode="fl" horiz-adv-x="1431" 
d="M45 1036v148q0 22 23 22h180v78q0 219 141 307q122 78 359 78q95 0 207.5 -13.5t179.5 -33.5q17 -4 23.5 -14t6.5 -31v-1270q0 -119 107 -119q14 0 82 5q13 2 19 -4.5t5 -20.5l-10 -129q-3 -17 -10.5 -25.5t-24.5 -11.5q-59 -12 -139 -12q-131 0 -197.5 76.5t-66.5 240.5
v1166q-72 14 -166 14q-160 0 -217 -45q-64 -48 -64 -168v-68h303q15 0 20.5 -5t4.5 -17l-12 -148q-3 -22 -23 -22h-293v-987q0 -27 -26 -27h-185q-24 0 -24 27v987h-180q-23 0 -23 22z" />
    <glyph glyph-name="f_f_i" unicode="ffi" horiz-adv-x="2029" 
d="M45 1036v148q0 22 23 22h180v92q0 116 26.5 184t90.5 117q98 74 297 74q48 0 113 -8t95 -16q17 -6 17 -23v-125q0 -23 -27 -20q-99 12 -153 12q-135 0 -183 -51q-22 -24 -31.5 -58.5t-9.5 -99.5v-78h459v78q0 219 141 307q122 78 359 78q160 0 291 -29q20 -5 20 -22v-133
q0 -27 -24 -21q-126 23 -234 23q-173 0 -248 -47q-35 -22 -52 -56.5t-17 -95.5v-82h665q29 0 29 -26v-1153q0 -27 -29 -27h-180q-27 0 -27 27v987h-458v-987q0 -27 -27 -27h-184q-25 0 -25 27v987h-459v-987q0 -27 -26 -27h-185q-24 0 -24 27v987h-180q-23 0 -23 22z" />
    <glyph glyph-name="f_f_l" unicode="ffl" horiz-adv-x="2125" 
d="M45 1036v148q0 22 23 22h180v92q0 116 26.5 184t90.5 117q98 74 297 74q48 0 113 -8t95 -16q17 -6 17 -23v-125q0 -23 -27 -20q-99 12 -153 12q-135 0 -183 -51q-22 -24 -31.5 -58.5t-9.5 -99.5v-78h459v78q0 219 141 307q122 78 359 78q95 0 207.5 -13.5t179.5 -33.5
q31 -8 31 -45v-1270q0 -119 106 -119q14 0 82 5q13 2 19.5 -4.5t5.5 -20.5l-11 -129q-3 -17 -10 -25.5t-24 -11.5q-58 -12 -140 -12q-131 0 -197.5 76.5t-66.5 240.5v1166q-72 14 -166 14q-160 0 -217 -45q-63 -47 -63 -168v-68h303q15 0 20.5 -5t3.5 -17l-12 -148
q-3 -22 -23 -22h-292v-987q0 -27 -27 -27h-184q-25 0 -25 27v987h-459v-987q0 -27 -26 -27h-185q-24 0 -24 27v987h-180q-23 0 -23 22z" />
    <glyph glyph-name=".notdef" horiz-adv-x="1308" 
d="M123 0v1419h1063v-1419h-1063zM229 193l363 518l-363 516v-1034zM293 102h723l-361 516zM293 1319l362 -518l361 518h-723zM717 711l364 -518v1034z" />
    <glyph glyph-name=".null" horiz-adv-x="0" 
 />
    <glyph glyph-name=".null" horiz-adv-x="0" 
 />
    <glyph glyph-name="nonmarkingreturn" horiz-adv-x="682" 
 />
    <glyph glyph-name="CR" unicode="&#xd;" horiz-adv-x="450" 
 />
    <glyph glyph-name="space" unicode=" " horiz-adv-x="450" 
 />
    <glyph glyph-name="exclam" unicode="!" horiz-adv-x="575" 
d="M160 25v206q0 25 28 25h199q27 0 27 -25v-206q0 -25 -27 -25h-199q-28 0 -28 25zM160 1573q0 24 30 24h195q31 0 31 -24l-35 -1079q0 -27 -25 -27h-137q-26 0 -26 29z" />
    <glyph glyph-name="quotedbl" unicode="&#x22;" horiz-adv-x="942" 
d="M127 1749q0 20 18 20h217q21 0 21 -20l-14 -496q0 -22 -25 -22h-174q-25 0 -25 22zM559 1749q0 20 19 20h219q18 0 18 -20l-14 -496q0 -22 -25 -22h-174q-24 0 -24 22z" />
    <glyph glyph-name="numbersign" unicode="#" horiz-adv-x="1533" 
d="M27 410v137q0 14 14 14h319v420h-319q-14 0 -14 14v138q0 14 14 14h319v379q0 16 19 16h162q18 0 18 -16v-379h416v379q0 16 18 16h162q19 0 19 -16v-379h319q14 0 14 -14v-138q0 -14 -14 -14h-319v-420h319q14 0 14 -14v-137q0 -15 -14 -15h-319v-379q0 -16 -19 -16
h-162q-18 0 -18 16v379h-416v-379q0 -16 -18 -16h-162q-19 0 -19 16v379h-319q-14 0 -14 15zM559 561h416v420h-416v-420z" />
    <glyph glyph-name="dollar" unicode="$" horiz-adv-x="1218" 
d="M106 260q0 14 8 20t19 1q84 -39 189 -65t202 -26q134 0 211.5 66.5t77.5 179.5v13q0 107 -45.5 157.5t-179.5 95.5l-84 29q-181 62 -272 177.5t-91 273.5v26q0 157 104.5 266t291.5 136v207q0 16 16 16h145q17 0 17 -16v-201q123 -6 229 -37q20 -6 26.5 -14.5t6.5 -24.5
v-156q0 -34 -43 -20q-129 47 -266 47q-128 0 -199.5 -56t-71.5 -159v-6q0 -87 50.5 -149.5t164.5 -100.5l84 -29q187 -64 278 -163.5t91 -274.5v-14q0 -175 -95 -294t-253 -163v-207q0 -16 -17 -16h-145q-16 0 -16 16v182h-2q-89 0 -186 16t-167 42q-17 7 -24.5 18.5
t-12.5 32.5z" />
    <glyph glyph-name="percent" unicode="%" horiz-adv-x="2002" 
d="M90 1032v230q0 187 86.5 271.5t272.5 84.5t274 -84.5t88 -271.5v-230q0 -187 -88 -271.5t-274 -84.5t-272.5 84.5t-86.5 271.5zM287 1026q0 -96 35 -137t127 -41q93 0 128 41.5t35 136.5v242q0 95 -35 136.5t-128 41.5q-92 0 -127 -41t-35 -137v-242zM600 25l590 1546
q13 26 37 26h153q11 0 17 -6.5t2 -17.5l-592 -1546q-10 -27 -43 -27h-146q-25 0 -18 25zM1192 334v229q0 187 87 272t273 85q185 0 273 -85t88 -272v-229q0 -187 -88 -272t-273 -85q-186 0 -273 85t-87 272zM1391 328q0 -96 34.5 -137t126.5 -41q93 0 128.5 41.5t35.5 136.5
v241q0 95 -35.5 137t-128.5 42q-92 0 -126.5 -41.5t-34.5 -137.5v-241z" />
    <glyph glyph-name="ampersand" unicode="&#x26;" horiz-adv-x="1484" 
d="M125 356v21q0 134 98 247.5t240 184.5q-149 156 -201.5 248t-52.5 190v17q0 106 64 190.5t182 126.5q101 37 243 37q125 0 227.5 -38.5t167 -118.5t64.5 -189v-15q0 -76 -27 -142t-81 -123.5t-116.5 -104t-152.5 -99.5l305 -339q66 121 66 282q0 13 9 22t20 9l157 31
q25 0 25 -25q0 -261 -139 -473l235 -262q14 -13 11 -23t-21 -10h-191q-56 0 -88 37l-88 98q-196 -158 -454 -158q-226 0 -364 104.5t-138 274.5zM379 375q0 -94 67.5 -149.5t198.5 -55.5q173 0 305 109l-362 403q-93 -55 -151 -132t-58 -159v-16zM459 1243
q0 -68 43.5 -137.5t159.5 -187.5q247 155 247 323v10q0 81 -62 132t-161 51q-104 0 -165.5 -49.5t-61.5 -131.5v-10z" />
    <glyph glyph-name="quotesingle" unicode="'" horiz-adv-x="526" 
d="M135 1749q0 20 19 20h219q18 0 18 -20l-14 -496q0 -22 -25 -22h-174q-24 0 -24 22z" />
    <glyph glyph-name="parenleft" unicode="(" horiz-adv-x="806" 
d="M162 670q0 284 82.5 537t236.5 442q14 20 60 20h168q10 0 15 -8.5t-1 -15.5q-320 -413 -320 -975q0 -284 78 -514t242 -455q12 -19 7 -25t-19 -6h-174q-39 0 -62 33q-143 199 -228 447t-85 520z" />
    <glyph glyph-name="parenright" unicode=")" horiz-adv-x="804" 
d="M76 -307q154 219 240.5 471t86.5 506q0 540 -323 975q-7 7 -3 15.5t17 8.5h185q28 0 45 -20q140 -175 229.5 -440.5t89.5 -538.5q0 -495 -319 -977q-16 -23 -43 -23h-187q-13 0 -18 7.5t0 15.5z" />
    <glyph glyph-name="asterisk" unicode="*" horiz-adv-x="1001" 
d="M109 1096q-14 25 14 39l229 94l-229 94q-28 14 -14 39l63 111q14 22 39 8l205 -129l-15 247q-3 25 23 25h154q25 0 22 -25l-14 -247l205 129q21 14 38 -8l64 -111q14 -25 -14 -39l-230 -94l230 -94q28 -14 14 -39l-64 -111q-17 -22 -38 -8l-205 129l14 -248
q3 -24 -22 -24h-154q-26 0 -23 24l15 248l-205 -129q-25 -14 -39 8z" />
    <glyph glyph-name="plus" unicode="+" horiz-adv-x="1335" 
d="M133 547v158q0 22 21 22h409v383q0 20 21 20h166q22 0 22 -20v-383h410q20 0 20 -22v-158q0 -21 -20 -21h-410v-387q0 -20 -22 -20h-166q-21 0 -21 20v387h-409q-21 0 -21 21z" />
    <glyph glyph-name="comma" unicode="," horiz-adv-x="581" 
d="M104 -283q54 197 54 369v135q0 19 7.5 26t29.5 7h182q20 0 27.5 -7t7.5 -26v-121q0 -100 -27.5 -211t-67.5 -178q-20 -35 -63 -35h-113q-24 -1 -33 10t-4 31z" />
    <glyph glyph-name="hyphen" unicode="-" horiz-adv-x="671" 
d="M106 653v152q0 11 3.5 14.5t13.5 3.5h424q11 0 14.5 -3.5t3.5 -14.5v-152q0 -16 -18 -16h-424q-17 0 -17 16z" />
    <glyph glyph-name="period" unicode="." horiz-adv-x="583" 
d="M166 29v196q0 29 31 29h190q31 0 31 -29v-196q0 -29 -31 -29h-190q-31 0 -31 29z" />
    <glyph glyph-name="slash" unicode="/" horiz-adv-x="884" 
d="M92 39l463 1526q9 30 41 30h168q19 0 26.5 -11.5t2.5 -27.5l-463 -1525q-9 -31 -41 -31h-170q-18 0 -25 11.5t-2 27.5z" />
    <glyph glyph-name="zero" unicode="0" horiz-adv-x="1339" 
d="M135 614v365q0 183 33 306t106 196q132 135 396 135q263 0 395 -135q139 -142 139 -502v-365q0 -361 -139 -503q-131 -134 -395 -134q-265 0 -396 134q-73 73 -106 196.5t-33 306.5zM385 633q0 -91 6 -154.5t23.5 -123t48.5 -94.5t82.5 -56t124.5 -21q151 0 217 88
q67 89 67 361v328q0 90 -6 153.5t-23.5 123t-48.5 94.5t-82.5 56t-123.5 21t-123.5 -21t-82.5 -56.5t-49 -94.5t-24 -122.5t-6 -153.5v-328z" />
    <glyph glyph-name="one" unicode="1" horiz-adv-x="919" 
d="M18 1294q5 14 19 21q227 123 436 258q23 14 34.5 18t33.5 4h137q37 0 37 -32v-1534q0 -16 -6.5 -22.5t-24.5 -6.5h-186q-31 0 -31 29v1282q-162 -105 -328 -191q-30 -15 -45 15l-74 133q-7 12 -2 26z" />
    <glyph glyph-name="two" unicode="2" horiz-adv-x="1193" 
d="M90 35v129q0 45 33 78l254 245q256 247 354 391t98 283v10q0 112 -70.5 169t-203.5 57q-193 0 -381 -66q-19 -6 -26 -0.5t-7 23.5v157q0 30 27 39q182 66 399 66q245 0 378.5 -111.5t133.5 -312.5v-16q0 -169 -109.5 -348.5t-320.5 -383.5l-233 -225h606q32 0 29 -22
l-33 -172q-4 -25 -29 -25h-856q-25 0 -34 7.5t-9 27.5z" />
    <glyph glyph-name="three" unicode="3" horiz-adv-x="1189" 
d="M72 256q0 17 9 23t23 0q171 -82 396 -82q164 0 255 71.5t91 212.5v15q0 129 -70 188q-34 28 -85.5 39.5t-143.5 11.5h-189q-20 0 -28 8.5t-8 28.5v66q0 31 8.5 49t34.5 51q250 301 374 438h-614q-27 0 -27 29v162q0 28 27 28h870q18 0 25.5 -6.5t7.5 -21.5v-119
q0 -67 -27 -94q-224 -234 -376 -428q43 4 98 4q172 0 273.5 -111.5t101.5 -300.5v-24q0 -126 -45 -225.5t-123.5 -162.5t-182.5 -96t-225 -33q-213 0 -377 58q-34 10 -43 53z" />
    <glyph glyph-name="four" unicode="4" horiz-adv-x="1384" 
d="M96 383v119q0 45 19 90l532 975q11 28 43 28h209q21 0 27.5 -6.5t-0.5 -25.5l-549 -996h469v463q0 26 31 31l184 18q33 6 33 -22v-490h206q25 0 19 -24l-35 -168q-6 -29 -24 -29h-166v-317q0 -13 -8 -21t-23 -8h-186q-31 0 -31 29v317h-705q-25 0 -35 8.5t-10 28.5z" />
    <glyph glyph-name="five" unicode="5" horiz-adv-x="1179" 
d="M88 256q-3 13 8.5 20.5t24.5 2.5q80 -33 182.5 -57.5t196.5 -24.5q344 0 344 297v8q0 155 -80 216.5t-248 61.5q-156 0 -309 -30q-55 -12 -55 45l47 759q1 24 11 32.5t34 8.5h735q20 0 25.5 -6.5t1.5 -25.5l-35 -156q-6 -31 -37 -31h-524l-27 -399q102 18 221 18
q245 0 369 -118q123 -116 123 -357v-12q0 -260 -153.5 -395.5t-436.5 -135.5q-84 0 -182 18.5t-166 43.5q-16 6 -21 13.5t-10 29.5z" />
    <glyph glyph-name="six" unicode="6" horiz-adv-x="1265" 
d="M135 504v540q0 268 154.5 421t458.5 153q152 0 284 -33q31 -7 31 -41v-158q0 -26 -31 -18q-127 31 -268 31q-191 0 -286 -92.5t-95 -262.5v-96q149 78 346 78q101 0 181.5 -26.5t142 -81.5t94.5 -147t33 -216v-55q0 -248 -142 -385.5t-391 -137.5q-512 0 -512 527z
M383 502q0 -156 67.5 -230.5t204.5 -74.5q138 0 205.5 75.5t67.5 231.5v18q0 153 -63 220t-206 67q-69 0 -145 -19t-131 -49v-239z" />
    <glyph glyph-name="seven" unicode="7" horiz-adv-x="1064" 
d="M0 1403v166q0 15 5 20.5t22 5.5h952q39 0 39 -34v-95q0 -61 -23 -106q-154 -324 -311.5 -686t-261.5 -633q-14 -41 -70 -41h-192q-22 0 -28.5 13.5t3.5 33.5q316 749 615 1329h-723q-15 0 -21 6t-6 21z" />
    <glyph glyph-name="eight" unicode="8" horiz-adv-x="1298" 
d="M92 422v18q0 148 72 243.5t196 135.5q-225 104 -225 375v14q0 195 140.5 302.5t373.5 107.5q225 0 366.5 -105t141.5 -294v-15q0 -275 -246 -381q295 -78 295 -383v-18q0 -138 -73 -240t-196.5 -153.5t-279.5 -51.5q-124 0 -224.5 25.5t-178 77.5t-120 139t-42.5 203z
M344 428q0 -118 78 -181t235 -63q137 0 217 64t80 176v22q0 120 -81 188t-250 93q-141 -20 -210 -88t-69 -188v-23zM379 1174q0 -113 68.5 -177.5t211.5 -87.5q254 68 254 271v24q0 103 -70 155t-194 52q-130 0 -200 -53t-70 -156v-28z" />
    <glyph glyph-name="nine" unicode="9" horiz-adv-x="1282" 
d="M88 1071v25q0 254 147 388t396 134q263 0 389.5 -134.5t126.5 -406.5v-518q0 -296 -136.5 -439t-426.5 -143q-205 0 -338 50q-16 6 -22 13t-11 23l-29 179q-3 14 6.5 20t26.5 0q72 -28 168.5 -46.5t181.5 -18.5q178 0 258 77q76 71 76 263v135q-47 -40 -135 -66t-176 -26
q-250 0 -376 126.5t-126 364.5zM340 1083q0 -151 64 -219.5t208 -68.5q89 0 169 25t120 65v168q0 172 -62.5 259t-209.5 87q-141 0 -215 -76.5t-74 -232.5v-7z" />
    <glyph glyph-name="colon" unicode=":" horiz-adv-x="581" 
d="M166 29v196q0 29 31 29h190q31 0 31 -29v-196q0 -29 -31 -29h-190q-31 0 -31 29zM166 670v196q0 29 31 29h190q31 0 31 -29v-196q0 -29 -31 -29h-190q-31 0 -31 29z" />
    <glyph glyph-name="semicolon" unicode=";" horiz-adv-x="581" 
d="M104 -283q54 197 54 369v135q0 19 7.5 26t29.5 7h182q20 0 27.5 -7t7.5 -26v-121q0 -100 -27.5 -211t-67.5 -178q-20 -35 -63 -35h-113q-24 -1 -33 10t-4 31zM158 670v196q0 29 30 29h191q31 0 31 -29v-196q0 -29 -31 -29h-191q-30 0 -30 29z" />
    <glyph glyph-name="less" unicode="&#x3c;" horiz-adv-x="1337" 
d="M145 535v184q0 22 21 31l932 354q30 12 39 -14l45 -142q7 -20 -15 -26l-796 -299l796 -277q22 -6 15 -27l-45 -145q-9 -26 -39 -14l-926 338q-27 8 -27 37z" />
    <glyph glyph-name="equal" unicode="=" horiz-adv-x="1335" 
d="M133 293v158q0 22 21 22h1028q20 0 20 -22v-158q0 -21 -20 -21h-1028q-21 0 -21 21zM133 805v158q0 22 21 22h1028q20 0 20 -22v-158q0 -21 -20 -21h-1028q-21 0 -21 21z" />
    <glyph glyph-name="greater" unicode="&#x3e;" horiz-adv-x="1337" 
d="M158 319q-7 21 14 27l797 277l-797 299q-20 8 -14 26l45 142q9 26 39 14l932 -354q20 -9 20 -31v-184q0 -29 -27 -37l-925 -338q-30 -12 -39 14z" />
    <glyph glyph-name="question" unicode="?" horiz-adv-x="1077" 
d="M78 1380v142q0 30 37 43q161 59 397 59q75 0 142.5 -10.5t132 -36t111 -64.5t75 -100t28.5 -139q0 -104 -44.5 -181t-170.5 -175l-71 -56q-103 -80 -134.5 -149.5t-31.5 -180.5v-40q0 -25 -23 -25h-164q-26 0 -26 25v88q0 125 40 220t146 173l64 47q81 60 116 109t35 118
q0 79 -61.5 120.5t-198.5 41.5q-196 0 -360 -47q-39 -10 -39 18zM317 25v206q0 25 27 25h201q26 0 26 -25v-206q0 -25 -26 -25h-201q-27 0 -27 25z" />
    <glyph glyph-name="at" unicode="@" horiz-adv-x="1855" 
d="M113 801q0 178 58 329.5t166 262t272.5 173t367.5 62.5q130 0 246 -30t212.5 -91t166.5 -146.5t108.5 -202t38.5 -253.5q0 -248 -101.5 -393t-256.5 -145q-189 0 -236 145h-6q-31 -76 -95 -111.5t-167 -35.5q-142 0 -221.5 74.5t-79.5 224.5v241q0 150 80.5 229.5
t210.5 79.5q123 0 200 -77l8 53q3 16 19 16h133q18 0 18 -16v-494q0 -86 33.5 -135t95.5 -49q86 0 136.5 104.5t50.5 276.5q0 260 -163.5 411.5t-444.5 151.5q-289 0 -466.5 -176.5t-177.5 -478.5q0 -310 172 -484t523 -174q300 0 563 109q11 6 21.5 2t7.5 -18l-29 -115
q-8 -33 -35 -45q-229 -99 -553 -99q-424 0 -650 218.5t-226 605.5zM774 690q0 -92 31 -132t108 -40q82 0 117 48t35 151v287q-63 57 -150 57q-76 0 -108.5 -40.5t-32.5 -139.5v-191z" />
    <glyph glyph-name="A" unicode="A" horiz-adv-x="1353" 
d="M74 35q194 794 413 1519q7 24 21 32.5t45 8.5h246q31 0 44.5 -8t20.5 -33q156 -519 416 -1519q2 -9 2 -15q0 -8 -3 -12q-6 -8 -26 -8h-188q-19 0 -26.5 6.5t-12.5 24.5l-74 311h-565l-72 -311q-5 -18 -12.5 -24.5t-26.5 -6.5h-176q-20 0 -26 8q-3 4 -2 11q0 7 2 16z
M438 541h463q-97 414 -225 845h-12q-120 -417 -226 -845z" />
    <glyph glyph-name="B" unicode="B" horiz-adv-x="1327" 
d="M160 37v1528q0 30 30 30h472q124 0 209.5 -18t149.5 -61t94 -118.5t30 -187.5v-20q0 -126 -49 -213.5t-138 -124.5v-8q263 -60 263 -363v-18q0 -128 -37 -218t-111 -143.5t-176 -77.5t-240 -24h-456q-23 0 -32 9t-9 28zM406 205h249q165 0 241.5 55.5t76.5 196.5v12
q0 131 -69.5 190.5t-219.5 59.5h-278v-514zM406 924h241q78 0 126 17.5t81 55.5q45 50 45 172v11q0 120 -57 166q-32 27 -80.5 36t-140.5 9h-215v-467z" />
    <glyph glyph-name="C" unicode="C" horiz-adv-x="1134" 
d="M119 545v506q0 154 34.5 260.5t110.5 177.5q144 129 424 129q190 0 336 -39q33 -9 33 -41v-156q0 -29 -43 -18q-136 35 -299 35q-170 0 -252 -64q-54 -41 -75 -112.5t-21 -188.5v-475q0 -120 24.5 -195t87.5 -116q80 -51 250 -51q154 0 295 53q22 8 35 2q9 -4 9 -13
q0 -3 -1 -8l-29 -161q-7 -24 -14.5 -34t-26.5 -16q-131 -43 -301 -43q-306 0 -441.5 132t-135.5 436z" />
    <glyph glyph-name="D" unicode="D" horiz-adv-x="1400" 
d="M160 31v1532q0 17 8.5 24.5t28.5 7.5h438q346 0 496.5 -162t150.5 -524v-184q0 -188 -34.5 -321.5t-111 -225t-199.5 -135t-298 -43.5h-442q-37 0 -37 31zM408 211h227q66 0 118.5 7.5t92.5 25.5t69.5 41t50 60.5t33 76.5t19.5 97t9.5 115t2.5 136v98q0 107 -9.5 183
t-34.5 142.5t-68.5 106.5t-112.5 62t-166 22h-231v-1173z" />
    <glyph glyph-name="E" unicode="E" horiz-adv-x="1173" 
d="M160 27v1542q0 26 30 26h846q31 0 31 -26l-23 -166q0 -27 -30 -27h-606v-465h550q31 0 31 -26l-22 -166q0 -27 -29 -27h-530v-473h624q29 0 29 -26l-21 -166q0 -27 -30 -27h-820q-30 0 -30 27z" />
    <glyph glyph-name="F" unicode="F" horiz-adv-x="1122" 
d="M160 25v1544q0 26 24 26h834q14 0 19 -5.5t5 -18.5l-22 -170q0 -14 -5 -19.5t-22 -5.5h-587v-465h534q25 0 25 -24l-23 -170q0 -14 -5 -19.5t-22 -5.5h-509v-667q0 -14 -6 -19.5t-23 -5.5h-193q-24 0 -24 25z" />
    <glyph glyph-name="G" unicode="G" horiz-adv-x="1323" 
d="M119 522v527q0 296 146 432.5t474 136.5q172 0 351 -39q15 -3 23.5 -14.5t8.5 -26.5v-152q0 -15 -7 -19.5t-25 -0.5q-161 37 -336 37q-217 0 -302 -81t-85 -286v-491q0 -190 69 -262q43 -46 107 -66t168 -20q124 0 241 20v432h-233q-16 0 -22.5 6.5t-8.5 20.5l-20 166
q-3 26 32 26h469q31 0 31 -26v-711q0 -40 -9 -57t-44 -31q-66 -26 -197 -46t-237 -20q-218 0 -349 59.5t-188 177t-57 308.5z" />
    <glyph glyph-name="H" unicode="H" horiz-adv-x="1411" 
d="M160 27v1542q0 26 30 26h187q31 0 31 -26v-658h596v658q0 26 30 26h187q30 0 30 -26v-1542q0 -27 -30 -27h-187q-30 0 -30 27v667h-596v-667q0 -27 -31 -27h-187q-30 0 -30 27z" />
    <glyph glyph-name="I" unicode="I" horiz-adv-x="927" 
d="M135 18v158q0 19 21 19h184v1206h-184q-21 0 -21 18v158q0 18 21 18h620q21 0 21 -18l-19 -158q0 -18 -18 -18h-172v-1206h184q21 0 21 -19v-158q0 -18 -21 -18h-616q-21 0 -21 18z" />
    <glyph glyph-name="J" unicode="J" horiz-adv-x="851" 
d="M80 170q-1 4 -1 8q0 9 5 14q8 8 22 5q63 -13 107 -13q131 0 178 49q21 22 33.5 49.5t17.5 75t6 81t1 112.5v1018q0 26 30 26h187q30 0 30 -26v-1049q0 -84 -2.5 -133.5t-12.5 -112t-33.5 -110t-61.5 -86.5q-46 -46 -123.5 -73.5t-165.5 -27.5q-82 0 -152 13
q-17 3 -22.5 10.5t-9.5 24.5z" />
    <glyph glyph-name="K" unicode="K" horiz-adv-x="1335" 
d="M160 27v1542q0 26 30 26h187q31 0 31 -26v-664h165q218 344 381 660q10 18 22.5 24t37.5 6h188q39 0 23 -32q-196 -357 -459 -760q276 -391 506 -768q6 -10 6 -17q0 -4 -2 -8q-6 -10 -25 -10h-204q-44 0 -64 33q-159 273 -397 616q-14 22 -30.5 29.5t-45.5 7.5h-102v-659
q0 -27 -33 -27h-185q-30 0 -30 27z" />
    <glyph glyph-name="L" unicode="L" horiz-adv-x="1064" 
d="M160 27v1542q0 26 30 26h187q31 0 31 -26v-1350h546q34 0 31 -26l-24 -166q-2 -14 -8.5 -20.5t-22.5 -6.5h-740q-30 0 -30 27z" />
    <glyph glyph-name="M" unicode="M" horiz-adv-x="1779" 
d="M152 27q8 859 47 1542q0 26 32 26h170q36 0 48 -22l442 -860h10l442 860q12 22 48 22h157q33 0 33 -26q39 -683 47 -1542q0 -27 -31 -27h-174q-28 0 -28 27q0 631 -21 1151h-8l-379 -736q-14 -30 -49 -30h-92q-35 0 -49 30l-379 736h-8q-21 -520 -21 -1151q0 -27 -29 -27
h-178q-30 0 -30 27z" />
    <glyph glyph-name="N" unicode="N" horiz-adv-x="1439" 
d="M160 27v1542q0 26 30 26h201q19 0 27.5 -4.5t15.5 -17.5l643 -1223h6l-34 266v953q0 26 28 26h172q31 0 31 -26v-1542q0 -27 -31 -27h-198q-18 0 -26.5 4.5t-16.5 18.5l-643 1222h-7l35 -266v-952q0 -27 -28 -27h-175q-30 0 -30 27z" />
    <glyph glyph-name="O" unicode="O" horiz-adv-x="1355" 
d="M119 573v449q0 166 39.5 281.5t124.5 189.5q140 125 395 125t395 -125q85 -74 124.5 -189.5t39.5 -281.5v-449q0 -166 -39.5 -281.5t-124.5 -189.5q-140 -125 -395 -125t-395 125q-85 74 -124.5 189.5t-39.5 281.5zM365 610q0 -127 14.5 -199t56.5 -126q79 -99 242 -99
q160 0 242 99q42 54 56.5 126t14.5 199v375q0 127 -14.5 199.5t-56.5 126.5q-81 98 -242 98q-164 0 -242 -98q-42 -54 -56.5 -126.5t-14.5 -199.5v-375z" />
    <glyph glyph-name="P" unicode="P" horiz-adv-x="1243" 
d="M160 27v1542q0 26 30 26h385q292 0 418 -90q79 -59 117.5 -153.5t38.5 -243.5v-18q0 -260 -143.5 -387.5t-415.5 -127.5h-182v-548q0 -27 -29 -27h-189q-30 0 -30 27zM408 782h151q190 0 270 74q70 67 70 236v16q0 152 -74 217q-47 40 -107 52t-177 12h-133v-607z" />
    <glyph glyph-name="Q" unicode="Q" horiz-adv-x="1355" 
d="M119 573v449q0 166 39.5 281.5t124.5 189.5q140 125 395 125t395 -125q85 -74 124.5 -189.5t39.5 -281.5v-449q0 -263 -104.5 -406t-327.5 -177q6 -205 250 -205q71 0 116 10q21 5 31 -1t6 -23l-32 -129q-6 -17 -13 -25t-22 -14q-43 -15 -131 -15q-92 0 -168.5 26
t-122.5 67q-58 51 -92 130t-39 173q-197 19 -305 118q-85 74 -124.5 189.5t-39.5 281.5zM365 610q0 -127 14.5 -199t56.5 -126q79 -99 242 -99q160 0 242 99q42 54 56.5 126t14.5 199v375q0 127 -14.5 199.5t-56.5 126.5q-81 98 -242 98q-164 0 -242 -98
q-42 -54 -56.5 -126.5t-14.5 -199.5v-375z" />
    <glyph glyph-name="R" unicode="R" horiz-adv-x="1265" 
d="M160 27v1538q0 30 30 30h420q265 0 398 -112t133 -363v-35q0 -182 -79 -302t-220 -165q142 -219 348 -593q2 -5 2 -9t-3 -8q-6 -8 -24 -8h-194q-39 0 -53 27q-172 329 -326 567h-184v-567q0 -27 -31 -27h-187q-30 0 -30 27zM408 803h200q150 0 214.5 74t64.5 217v18
q0 144 -67.5 210.5t-225.5 66.5h-186v-586z" />
    <glyph glyph-name="S" unicode="S" horiz-adv-x="1142" 
d="M98 256q0 14 8 19.5t19 0.5q191 -88 379 -88q136 0 215.5 64t79.5 176v12q0 100 -53.5 158.5t-178.5 103.5l-145 54q-301 110 -301 424v14q0 192 140 308t386 116q133 0 277 -39q20 -6 26 -14t6 -25v-147q0 -33 -34 -23q-125 39 -275 39q-137 0 -208.5 -57.5
t-71.5 -157.5v-6q0 -97 52 -151t173 -97l145 -53q149 -54 228 -152.5t79 -261.5v-14q0 -118 -41.5 -211t-115 -151.5t-170.5 -89t-211 -30.5q-86 0 -183.5 19t-160.5 45q-17 7 -24.5 18.5t-12.5 32.5z" />
    <glyph glyph-name="T" unicode="T" horiz-adv-x="1255" 
d="M57 1397v178q0 20 21 20h1116q18 0 18 -20l-34 -180q-3 -19 -25 -19h-401v-1349q0 -27 -31 -27h-186q-31 0 -31 27v1349h-426q-21 0 -21 21z" />
    <glyph glyph-name="U" unicode="U" horiz-adv-x="1392" 
d="M156 518v1051q0 26 30 26h187q30 0 30 -26v-1006q0 -102 15.5 -165t52.5 -113q67 -88 225 -88q159 0 226 88q37 49 52 112t15 166v1006q0 26 29 26h188q31 0 31 -26v-1051q0 -267 -138.5 -404t-402.5 -137q-265 0 -402.5 136.5t-137.5 404.5z" />
    <glyph glyph-name="V" unicode="V" horiz-adv-x="1355" 
d="M55 1571q-2 5 -2 10q0 14 19 14h211q28 0 34 -20q58 -249 167.5 -660t191.5 -690h8q81 275 190.5 686.5t167.5 663.5q6 20 35 20h207q18 0 18 -14q0 -4 -2 -10q-83 -319 -209 -753.5t-229 -762.5q-10 -34 -28.5 -44.5t-61.5 -10.5h-188q-43 0 -61.5 10.5t-28.5 44.5
q-105 332 -231 766t-208 750z" />
    <glyph glyph-name="W" unicode="W" horiz-adv-x="2033" 
d="M59 1571v5q0 19 21 19h213q16 0 23 -5t10 -21q49 -296 126.5 -680.5t145.5 -673.5h14l232 1305q3 20 13.5 28t33.5 8h248q23 0 32.5 -7.5t14.5 -28.5l264 -1305h10q65 269 133 649t115 709q4 22 31 22h219q16 0 16 -18v-6q-56 -342 -153.5 -787.5t-182.5 -734.5
q-9 -30 -23.5 -39.5t-49.5 -9.5h-219q-37 0 -52.5 10.5t-21.5 40.5l-250 1221h-8l-226 -1221q-6 -30 -21 -40.5t-52 -10.5h-228q-35 0 -49.5 9.5t-23.5 39.5q-83 286 -183.5 721t-171.5 801z" />
    <glyph glyph-name="X" unicode="X" horiz-adv-x="1331" 
d="M52 7q-2 3 -2 7q0 5 3 11q210 393 443 782q-263 431 -433 764q-6 11 -1 17.5t20 6.5h203q38 0 51 -26q170 -329 323 -582q192 345 308 582q13 26 51 26h207q15 0 19.5 -6.5t-1.5 -17.5q-115 -218 -430 -764q233 -374 463 -782q4 -7 4 -13q0 -12 -23 -12h-210
q-39 0 -52 27q-225 410 -342 598q-106 -178 -327 -598q-14 -27 -52 -27h-202q-15 0 -20 7z" />
    <glyph glyph-name="Y" unicode="Y" horiz-adv-x="1259" 
d="M57 1569q-3 7 -3 12q0 14 20 14h221q18 0 26.5 -5t12.5 -19q105 -334 295 -785h10q177 420 289 785q4 14 12.5 19t26.5 5h219q19 0 19 -13q0 -5 -3 -13q-196 -545 -448 -1039v-503q0 -27 -31 -27h-186q-31 0 -31 27v503q-248 482 -449 1039z" />
    <glyph glyph-name="Z" unicode="Z" horiz-adv-x="1214" 
d="M82 35v74q0 55 22 98l719 1169h-686q-22 0 -22 25v172q0 22 22 22h961q35 0 35 -32v-70q0 -51 -35 -109l-715 -1165h668q28 0 28 -22l-30 -172q0 -25 -27 -25h-905q-21 0 -28 7t-7 28z" />
    <glyph glyph-name="bracketleft" unicode="[" horiz-adv-x="804" 
d="M178 -291v1923q0 39 39 39h447q38 0 38 -39v-131q0 -39 -38 -39h-246v-1583h258q39 0 39 -39v-131q0 -39 -39 -39h-459q-39 0 -39 39z" />
    <glyph glyph-name="backslash" unicode="\" horiz-adv-x="884" 
d="M92 1556q-5 16 2 27.5t25 11.5h170q32 0 41 -30l463 -1526q5 -16 -2.5 -27.5t-26.5 -11.5h-168q-32 0 -41 31z" />
    <glyph glyph-name="bracketright" unicode="]" horiz-adv-x="804" 
d="M90 -160q0 39 39 39h258v1583h-246q-39 0 -39 39v131q0 39 39 39h447q39 0 39 -39v-1923q0 -39 -39 -39h-459q-39 0 -39 39v131z" />
    <glyph glyph-name="asciicircum" unicode="^" horiz-adv-x="1335" 
d="M201 989l321 496q19 31 58 31h178q38 0 57 -31l322 -496q25 -39 -21 -55l-115 -47q-20 -8 -41 -1.5t-34 27.5l-250 373h-14l-248 -373q-28 -43 -82 -22l-111 43q-45 16 -20 55z" />
    <glyph glyph-name="underscore" unicode="_" horiz-adv-x="948" 
d="M-6 -119q0 21 20 21h920q20 0 20 -21v-137q0 -20 -20 -20h-920q-20 0 -20 20v137z" />
    <glyph glyph-name="grave" unicode="`" horiz-adv-x="899" 
d="M99.5 1721q4.5 12 21.5 12h250q41 0 61 -29l230 -301q7 -9 8.5 -16.5t-4.5 -12t-19 -4.5h-170q-47 0 -80 33l-291 297q-11 9 -6.5 21z" />
    <glyph glyph-name="a" unicode="a" horiz-adv-x="1159" 
d="M82 334v28q0 103 35.5 178t101.5 113q104 58 344 58q88 0 221 -9v91q0 130 -51 184q-60 63 -207 63q-146 0 -319 -47q-29 -7 -29 21v131q0 20 23 29q143 55 350 55q256 0 371 -109q53 -50 76.5 -123.5t23.5 -185.5v-541q0 -115 16 -243v-5q0 -22 -22 -22h-154
q-25 0 -33 23q-12 41 -22 86q-123 -132 -326 -132q-191 0 -295 89.5t-104 267.5zM322 338q0 -87 51.5 -131.5t142.5 -44.5q174 0 268 102v256q-74 8 -211 8q-58 0 -91 -2.5t-68 -12t-52.5 -28t-28.5 -51.5t-11 -82v-14z" />
    <glyph glyph-name="b" unicode="b" horiz-adv-x="1257" 
d="M154 375v1216q0 26 24 31l174 29q6 1 11 1q26 0 26 -26v-485q150 88 342 88q180 0 291 -99q57 -51 88 -147.5t31 -218.5v-320q0 -232 -108 -349.5t-337 -117.5q-178 0 -329 109q-11 -31 -25 -63q-9 -23 -37 -23h-145q-21 0 -21 18zM389 250q136 -72 266 -72q124 0 185 58
q37 36 50 94.5t13 154.5v230q0 87 -9.5 141.5t-36 95.5t-75 58.5t-125.5 17.5q-144 0 -268 -59v-719z" />
    <glyph glyph-name="c" unicode="c" horiz-adv-x="1038" 
d="M115 422v358q0 227 128.5 338t368.5 111q161 0 299 -37q21 -6 21 -33v-131q0 -18 -8 -22.5t-25 0.5q-131 30 -256 30q-159 0 -219 -57q-72 -64 -72 -229v-295q0 -143 61 -214t220 -71q152 0 274 39q18 5 28 -1q8 -5 8 -17q0 -4 -1 -9l-18 -121q-3 -19 -10.5 -29
t-24.5 -16q-45 -17 -122 -28t-149 -11q-257 0 -380 108.5t-123 336.5z" />
    <glyph glyph-name="d" unicode="d" horiz-adv-x="1247" 
d="M115 434v342q0 132 30.5 214.5t92.5 137.5q54 48 138 74.5t167 26.5q191 0 323 -84v446q0 25 25 31l174 29q6 1 11 1q26 0 26 -26v-1294l20 -313q0 -10 -5 -14q-6 -5 -23 -5h-154q-30 0 -39 29q-11 31 -20 82q-57 -63 -143.5 -98.5t-180.5 -35.5q-205 0 -321 101
q-64 58 -92.5 142t-28.5 214zM352 465q0 -92 11 -142.5t47 -86.5q55 -58 184 -58q68 0 140 26.5t132 71.5v678q-109 74 -270 74q-123 0 -184 -55q-35 -32 -47.5 -88.5t-12.5 -151.5v-268z" />
    <glyph glyph-name="e" unicode="e" horiz-adv-x="1167" 
d="M115 446v297q0 229 127.5 357.5t365.5 128.5q213 0 335 -120.5t122 -336.5v-186q0 -32 -12.5 -47t-42.5 -15h-660v-73q0 -145 74.5 -213t234.5 -68q181 0 304 47q18 6 26.5 -0.5t5.5 -26.5l-16 -120q-3 -19 -10.5 -29t-24.5 -16q-45 -20 -137.5 -34t-169.5 -14
q-259 0 -390.5 111.5t-131.5 357.5zM350 700h477v84q0 131 -51.5 200t-171.5 69q-254 0 -254 -283v-70z" />
    <glyph glyph-name="f" unicode="f" horiz-adv-x="845" 
d="M16 1049v135q0 22 23 22h180v92q0 116 26.5 184t90.5 117q98 74 297 74q48 0 113.5 -8t95.5 -16q16 -5 16 -23v-125q0 -23 -27 -20q-99 12 -153 12q-134 0 -182 -51q-22 -24 -31.5 -58.5t-9.5 -99.5v-78h303q15 0 20.5 -5t3.5 -17l-8 -131q-2 -15 -7.5 -21t-18.5 -6h-293
v-999q0 -27 -27 -27h-184q-25 0 -25 27v999h-180q-23 0 -23 23z" />
    <glyph glyph-name="g" unicode="g" horiz-adv-x="1247" 
d="M117 453v323q0 131 31 213.5t92 138.5q113 101 311 101q187 0 330 -107l10 58q3 26 24 26h160q27 0 27 -26v-1104q0 -238 -116.5 -374t-352.5 -136q-162 0 -268 28q-27 9 -33 37l-33 138q-3 12 4 17.5t21 2.5q148 -33 274 -33q142 0 210.5 76.5t68.5 200.5v67
q-51 -55 -135.5 -89t-180.5 -34q-115 0 -205 34.5t-141 94.5q-98 113 -98 347zM352 483q0 -166 51 -231q58 -74 199 -74q65 0 138.5 24.5t125.5 67.5v678q-119 80 -264 80q-129 0 -190 -55q-35 -32 -47.5 -88.5t-12.5 -151.5v-250z" />
    <glyph glyph-name="h" unicode="h" horiz-adv-x="1277" 
d="M154 27v1564q0 26 24 31l174 29q6 1 11 1q26 0 26 -26v-491q147 94 342 94q204 0 303 -98t99 -306v-798q0 -27 -27 -27h-184q-25 0 -25 27v733q0 97 -10 138.5t-47 76.5q-58 53 -187 53q-131 0 -264 -70v-931q0 -27 -29 -27h-182q-24 0 -24 27z" />
    <glyph glyph-name="i" unicode="i" horiz-adv-x="550" 
d="M158 27v1153q0 26 26 26h181q28 0 28 -26v-1153q0 -27 -28 -27h-181q-26 0 -26 27zM158 1380v183q0 27 26 30l174 27q6 1 10 1q25 0 25 -26v-215q0 -26 -26 -26h-183q-26 0 -26 26z" />
    <glyph glyph-name="j" unicode="j" horiz-adv-x="544" 
d="M-160 -252q-1 4 -1 8q0 8 5 12q8 8 21 5q83 -17 141 -17q85 0 123 49q29 38 29 156v1219q0 26 26 26h183q26 0 26 -26v-1196q0 -176 -47 -265q-41 -79 -117 -116t-163 -37q-98 0 -164 16q-18 4 -25 12.5t-10 24.5zM158 1380v183q0 27 26 30l174 27q6 1 10 1q25 0 25 -26
v-215q0 -26 -26 -26h-183q-26 0 -26 26z" />
    <glyph glyph-name="k" unicode="k" horiz-adv-x="1146" 
d="M154 27v1564q0 26 24 31l174 29q6 1 11 1q26 0 26 -26v-876h131q168 211 301 424q21 32 68 32h180q17 0 21 -12t-7 -27q-188 -290 -374 -522q177 -241 397 -604q9 -16 9 -25q1 -4 -1 -6q-4 -10 -29 -10h-180q-47 0 -63 29q-127 230 -307 506q-20 28 -70 28h-76v-536
q0 -27 -27 -27h-184q-24 0 -24 27z" />
    <glyph glyph-name="l" unicode="l" horiz-adv-x="659" 
d="M158 307v1284q0 26 24 31l174 29q6 1 11 1q26 0 26 -26v-1319q0 -119 107 -119q14 0 82 5q13 2 19 -4.5t5 -20.5l-10 -129q-3 -32 -35 -37q-59 -12 -139 -12q-131 0 -197.5 76.5t-66.5 240.5z" />
    <glyph glyph-name="m" unicode="m" horiz-adv-x="2011" 
d="M152 27v1153q0 26 26 26h158q28 0 31 -24l8 -66q69 48 168 80.5t184 32.5q246 0 336 -131q164 131 383 131q92 0 172 -26.5t133 -74.5q115 -98 115 -321v-780q0 -27 -29 -27h-182q-11 0 -19 7t-8 20v743q0 87 -13 130.5t-48 74.5q-59 53 -174 53q-147 0 -265 -74v-927
q0 -27 -28 -27h-182q-11 0 -19 7t-8 20v741q0 87 -11.5 129t-43.5 76q-55 55 -183 55q-139 0 -264 -67v-934q0 -27 -29 -27h-182q-26 0 -26 27z" />
    <glyph glyph-name="n" unicode="n" horiz-adv-x="1277" 
d="M154 27v1153q0 26 24 26h160q28 0 31 -24l8 -66q163 113 354 113q204 0 303 -98t99 -306v-798q0 -27 -27 -27h-184q-25 0 -25 27v733q0 97 -10 138.5t-47 76.5q-58 53 -187 53q-138 0 -264 -76v-925q0 -27 -29 -27h-182q-24 0 -24 27z" />
    <glyph glyph-name="o" unicode="o" horiz-adv-x="1226" 
d="M115 473v262q0 245 122 369.5t377 124.5q254 0 376 -124.5t122 -369.5v-262q0 -245 -121.5 -369t-376.5 -124t-377 124t-122 369zM352 477q0 -157 62 -232t200 -75t200.5 75t62.5 232v254q0 157 -62.5 232t-200.5 75t-200 -75t-62 -232v-254z" />
    <glyph glyph-name="p" unicode="p" horiz-adv-x="1255" 
d="M154 -389v1569q0 26 24 26h160q26 0 31 -24l6 -58q69 48 159.5 76.5t182.5 28.5q112 0 195 -34.5t131.5 -99t72 -147t23.5 -186.5v-326q0 -100 -24 -180.5t-75 -144.5t-139 -99t-207 -35q-85 0 -168 21.5t-137 54.5v-415q0 -26 -29 -31l-176 -21q-4 -1 -7 -1q-9 0 -15 5
q-8 7 -8 21zM389 231q109 -53 268 -53q141 0 193.5 74.5t52.5 232.5v228q0 59 -4.5 101t-19.5 85t-41 69.5t-71.5 43t-109.5 16.5q-144 0 -268 -59v-738z" />
    <glyph glyph-name="q" unicode="q" horiz-adv-x="1255" 
d="M117 440v336q0 131 32 213.5t93 138.5q54 48 136 74.5t165 26.5q214 0 338 -103l10 54q6 26 24 26h160q27 0 27 -26v-1534q0 -26 -27 -31l-176 -29q-5 -1 -8 -1q-10 0 -16 5q-9 7 -9 21v479q-120 -113 -313 -113q-213 0 -324 105q-59 58 -85.5 144t-26.5 214zM352 475
q0 -80 8 -132.5t33 -88.5q54 -76 201 -76q74 0 151.5 25.5t120.5 64.5v688q-113 72 -268 72q-125 0 -186 -55q-35 -32 -47.5 -88.5t-12.5 -151.5v-258z" />
    <glyph glyph-name="r" unicode="r" horiz-adv-x="864" 
d="M154 27v1153q0 26 24 26h154q27 0 30 -26l11 -125q55 76 138 122t187 46q55 0 97 -11q20 -5 20 -26v-135q0 -31 -27 -31q-5 0 -36.5 2t-55.5 2q-84 0 -168.5 -33.5t-138.5 -87.5v-876q0 -27 -27 -27h-184q-24 0 -24 27z" />
    <glyph glyph-name="s" unicode="s" horiz-adv-x="966" 
d="M94 205q-1 12 7 17.5t22 0.5q60 -26 140 -42.5t149 -16.5q117 0 177 40t60 115v9q0 65 -33.5 101.5t-115.5 66.5l-156 57q-250 90 -250 330v12q0 144 117 239t328 95q127 0 256 -39q22 -6 22 -33v-129q0 -18 -9 -22.5t-26 0.5q-140 36 -239 36q-109 0 -164 -37t-55 -102
v-8q0 -55 30.5 -90.5t116.5 -67.5l147 -57q132 -52 194 -126.5t62 -193.5v-18q0 -171 -115 -268t-319 -97q-136 0 -293 50q-29 10 -32 36z" />
    <glyph glyph-name="t" unicode="t" horiz-adv-x="886" 
d="M20 1049v135q0 22 23 22h201v279q0 19 24 24l181 33q7 2 12 2q18 0 18 -18v-320h334q14 0 19 -5t4 -17l-9 -131q-1 -17 -7.5 -22t-22.5 -5h-318v-643q0 -113 33.5 -159t130.5 -46q57 0 152 23q18 5 24.5 -0.5t3.5 -22.5l-22 -133q-5 -31 -31 -43q-55 -25 -172 -25
q-222 0 -301 115q-53 77 -53 252v682h-201q-23 0 -23 23z" />
    <glyph glyph-name="u" unicode="u" horiz-adv-x="1261" 
d="M145 381v799q0 26 27 26h182q27 0 27 -26v-734q0 -94 12.5 -144t44.5 -79q55 -49 170 -49q67 0 141.5 29.5t120.5 77.5v899q0 26 29 26h182q27 0 27 -26v-910q0 -115 16 -243v-5q0 -22 -22 -22h-154q-22 0 -30 23q-10 25 -25 98q-56 -64 -147 -104t-195 -40
q-207 0 -306.5 97.5t-99.5 306.5z" />
    <glyph glyph-name="v" unicode="v" horiz-adv-x="1138" 
d="M39 1178q-1 5 -1 10q0 18 21 18h185q32 0 37 -24q134 -551 286 -1004h11q152 453 286 1004q5 24 37 24h178q22 0 22 -19q0 -4 -1 -9q-61 -241 -166 -567.5t-195 -563.5q-10 -28 -24.5 -37.5t-44.5 -9.5h-195q-30 0 -43.5 9t-25.5 38q-92 232 -196.5 555.5t-170.5 575.5z
" />
    <glyph glyph-name="w" unicode="w" horiz-adv-x="1699" 
d="M39 1180q-1 4 -1 7q0 7 4 12q6 7 21 7h175q19 0 27 -5.5t11 -20.5q93 -549 209 -1002h11l192 967q5 25 15.5 33t41.5 8h205q31 0 42 -8t16 -33l196 -967h10q116 453 209 1002q3 15 11.5 20.5t27.5 5.5h174q14 0 21 -7q5 -5 5 -12q0 -3 -1 -7q-104 -523 -291 -1135
q-7 -25 -22 -35t-41 -10h-195q-33 0 -45.5 9t-17.5 36l-193 963h-12l-193 -963q-5 -27 -17.5 -36t-45.5 -9h-197q-28 0 -42 9.5t-21 35.5q-181 593 -289 1135z" />
    <glyph glyph-name="x" unicode="x" horiz-adv-x="1110" 
d="M49 37q202 320 379 559q-195 282 -371 580q-7 12 -1.5 21t20.5 9h205q39 0 51 -28q121 -240 233 -414q131 197 250 414q9 17 20 22.5t35 5.5h185q37 0 16 -37q-188 -300 -369 -544q185 -263 381 -594q5 -7 5 -13q0 -4 -2 -8q-6 -10 -21 -10h-205q-21 0 -32.5 6t-18.5 23
q-131 258 -244 428q-90 -132 -260 -428q-9 -17 -20.5 -23t-34.5 -6h-184q-24 0 -24 15q0 9 7 22z" />
    <glyph glyph-name="y" unicode="y" horiz-adv-x="1118" 
d="M35 1178q-1 6 -1 10q0 18 21 18h189q29 0 35 -20q180 -692 288 -1010h13q128 450 254 1002q7 28 38 28h185q23 0 23 -18q0 -6 -3 -14q-167 -658 -346 -1194q-43 -130 -83 -208.5t-92.5 -125.5t-113 -63.5t-151.5 -16.5q-86 0 -139 16q-18 6 -24 13t-11 24l-29 129
q-3 13 5 20.5t22 4.5q83 -17 151 -17q94 0 154 46.5t94 144.5l25 69h-84q-52 0 -66 41q-90 235 -188 548.5t-166 572.5z" />
    <glyph glyph-name="z" unicode="z" horiz-adv-x="1032" 
d="M76 33v76q0 21 5 34.5t21 40.5l574 832h-561q-27 0 -27 22v148q0 20 25 20h817q26 0 26 -26v-101q0 -37 -24 -78l-563 -811h561q29 0 20 -30l-41 -135q-8 -25 -32 -25h-766q-35 0 -35 33z" />
    <glyph glyph-name="braceleft" unicode="{" horiz-adv-x="983" 
d="M115 596v147q0 17 4 23.5t20 9.5q117 21 166 72t49 158v360q0 160 71 232.5t226 72.5h203q23 0 23 -18v-135q0 -21 -23 -21h-143q-67 0 -92 -22.5t-25 -83.5v-367q0 -148 -59 -235.5t-199 -112.5v-6q143 -39 200.5 -122t57.5 -235v-362q0 -59 26 -83t91 -24h143
q23 0 23 -20v-135q0 -19 -23 -19h-203q-155 0 -226 72.5t-71 234.5v357q0 108 -48.5 157.5t-166.5 71.5q-12 2 -17.5 6.5t-6 9t-0.5 17.5z" />
    <glyph glyph-name="bar" unicode="|" horiz-adv-x="608" 
d="M178 -375v1948q0 26 27 26h196q29 0 29 -26v-1948q0 -26 -29 -26h-196q-27 0 -27 26z" />
    <glyph glyph-name="braceright" unicode="}" horiz-adv-x="983" 
d="M106 -176q0 20 23 20h143q65 0 91 24t26 83v362q0 152 57.5 235t200.5 122v6q-140 25 -199 112.5t-59 235.5v367q0 61 -25 83.5t-92 22.5h-143q-23 0 -23 21v135q0 18 23 18h203q155 0 226 -72.5t71 -232.5v-360q0 -107 49 -158t166 -72q16 -3 20 -9.5t4 -23.5v-147v-11
t-1 -8t-3.5 -6.5t-7.5 -4t-12 -3.5q-118 -22 -166.5 -71.5t-48.5 -157.5v-357q0 -162 -71 -234.5t-226 -72.5h-203q-23 0 -23 19v135z" />
    <glyph glyph-name="asciitilde" unicode="~" horiz-adv-x="1335" 
d="M90 674q57 143 148 219t206 76q43 0 81.5 -9t64 -20t84.5 -39l78 -37q46 -23 64 -31.5t50 -19t54 -10.5q54 0 83.5 29.5t65.5 103.5q13 21 37 12l123 -51q26 -13 18 -33q-42 -134 -126 -204t-183 -70q-68 0 -120.5 15.5t-123.5 51.5l-69 35q-43 22 -61.5 30.5t-52 20
t-58.5 11.5q-114 0 -179 -150q-9 -21 -36 -12l-136 51q-21 14 -12 31z" />
    <glyph glyph-name="nbspace" unicode="&#xa0;" horiz-adv-x="450" 
 />
    <glyph glyph-name="exclamdown" unicode="&#xa1;" horiz-adv-x="573" 
d="M160 -328l33 1078q0 28 26 28h137q25 0 25 -26l35 -1080q0 -24 -31 -24h-195q-30 0 -30 24zM160 1014v207q0 24 28 24h199q27 0 27 -24v-207q0 -25 -27 -25h-199q-28 0 -28 25z" />
    <glyph glyph-name="cent" unicode="&#xa2;" horiz-adv-x="1052" 
d="M131 422v358q0 388 377 441v196q0 17 18 17h144q16 0 16 -17v-190q124 -6 242 -35q20 -6 20 -33v-131q0 -18 -8 -22.5t-25 0.5q-131 30 -256 30q-159 0 -219 -57q-71 -63 -71 -229v-295q0 -144 60.5 -214.5t219.5 -70.5q153 0 275 39q18 6 27.5 -0.5t6.5 -26.5l-18 -121
q-3 -19 -10.5 -29t-24.5 -16q-82 -27 -200 -36v-177q0 -16 -19 -16h-143q-17 0 -17 16v181q-201 20 -298 127.5t-97 310.5z" />
    <glyph glyph-name="sterling" unicode="&#xa3;" horiz-adv-x="1265" 
d="M135 717v143q0 25 27 25h180q-90 195 -90 317v15q0 183 144.5 292t416.5 109q181 0 332 -41q24 -6 30.5 -14.5t6.5 -28.5v-150q0 -27 -41 -18q-163 35 -301 35q-338 0 -338 -211v-14q0 -36 9 -77.5t19 -69.5t28 -75t26 -69h428q34 0 28 -37l-22 -125q-3 -18 -11 -24.5
t-26 -6.5h-346q6 -44 6 -86v-16q0 -239 -156 -373h699q15 0 22.5 -7.5t3.5 -21.5l-32 -161q-5 -27 -33 -27h-975q-25 0 -25 23v120q0 35 29 50q111 58 175.5 154t64.5 224v13q0 54 -13 108h-241q-25 0 -25 25z" />
    <glyph glyph-name="currency" unicode="&#xa4;" horiz-adv-x="1355" 
d="M127 360l154 148q-68 104 -68 227q0 122 68 226l-154 149q-21 24 4 49l100 90q21 18 45 -2l148 -147q116 69 248 69q139 0 254 -73l153 151q24 20 45 2l101 -90q25 -25 4 -49l-162 -156q66 -106 66 -219q0 -116 -64 -219l160 -156q21 -24 -4 -49l-101 -90q-21 -18 -45 2
l-151 150q-117 -74 -256 -74q-136 0 -248 70l-148 -146q-24 -20 -45 -2l-100 90q-25 25 -4 49zM434 737q0 -107 68.5 -175t173.5 -68q102 0 172 69t70 172q0 101 -70.5 169.5t-175.5 68.5q-102 0 -170 -66.5t-68 -169.5z" />
    <glyph glyph-name="yen" unicode="&#xa5;" horiz-adv-x="1294" 
d="M70 1571q-8 24 18 24h221q18 0 25.5 -4.5t13.5 -19.5q169 -486 301 -787h4q134 318 297 787q4 14 12.5 19t26.5 5h217q11 0 17 -6.5t2 -17.5q-179 -478 -361 -848h258q10 0 15 -4.5t4 -13.5l-23 -132q-3 -16 -24 -16h-322v-160h350q10 0 15 -4.5t4 -13.5l-23 -131
q-3 -17 -24 -17h-322v-204q0 -27 -31 -27h-186q-31 0 -31 27v204h-346q-22 0 -22 17v131q0 18 18 18h350v160h-350q-18 0 -18 16v132q0 18 18 18h260q-147 285 -364 848z" />
    <glyph glyph-name="brokenbar" unicode="&#xa6;" horiz-adv-x="606" 
d="M178 -383v780q0 19 21 19h209q20 0 20 -19v-780q0 -18 -20 -18h-209q-21 0 -21 18zM178 801v780q0 18 21 18h209q20 0 20 -18v-780q0 -19 -20 -19h-209q-21 0 -21 19z" />
    <glyph glyph-name="section" unicode="&#xa7;" horiz-adv-x="1187" 
d="M84 629v10q0 98 61 184.5t164 147.5q-147 101 -147 280v13q0 152 134 253t357 101q153 0 262 -31q23 -4 23 -24v-148q0 -26 -29 -20q-122 32 -247 32q-115 0 -182.5 -42.5t-67.5 -112.5v-6q0 -64 46.5 -104.5t164.5 -84.5l122 -47q191 -72 280 -156.5t89 -211.5v-13
q0 -107 -68 -195t-190 -141q88 -43 138 -121.5t50 -185.5v-12q0 -172 -125.5 -269.5t-349.5 -97.5q-150 0 -280 45q-29 9 -35 37l-33 158q-3 12 5.5 18t21.5 0q68 -31 154.5 -50t158.5 -19q122 0 183 43t61 116v9q0 66 -49 113.5t-160 90.5l-125 54q-104 44 -167 78.5
t-117.5 80t-78.5 101t-24 127.5zM326 666q0 -74 67 -130.5t201 -109.5l74 -29q91 36 146.5 95t55.5 124v9q0 73 -50.5 118.5t-188.5 96.5l-154 53q-69 -30 -110 -91t-41 -128v-8z" />
    <glyph glyph-name="dieresis" unicode="&#xa8;" 
d="M104 1460v207q0 20 8.5 27.5t30.5 7.5h174q21 0 31 -7.5t10 -27.5v-207q0 -20 -10 -27.5t-31 -7.5h-174q-22 0 -30.5 7.5t-8.5 27.5zM535 1460v207q0 20 8 27.5t30 7.5h179q21 0 31 -7.5t10 -27.5v-207q0 -20 -10 -27.5t-31 -7.5h-179q-22 0 -30 7.5t-8 27.5z" />
    <glyph glyph-name="copyright" unicode="&#xa9;" horiz-adv-x="1939" 
d="M139 801q0 231 100 415.5t290.5 293t439.5 108.5q188 0 345 -63t263 -172.5t164.5 -259.5t58.5 -322t-58.5 -322.5t-164 -261.5t-263 -175.5t-345.5 -64.5q-187 0 -344 64.5t-263 175.5t-164.5 261.5t-58.5 322.5zM350 801q0 -135 41.5 -251.5t118.5 -203.5t195.5 -136.5
t263.5 -49.5q194 0 336 86.5t212 230t70 324.5q0 135 -41 250.5t-118 201t-195 134.5t-264 49t-264 -49t-195 -134.5t-118.5 -201t-41.5 -250.5zM639 657v279q0 153 88.5 228t276.5 75q96 0 194 -27q16 -3 16 -22v-117q0 -23 -24 -16q-86 22 -178 22q-105 0 -140.5 -40.5
t-35.5 -147.5v-189q0 -108 38 -148t144 -40q86 0 180 27q23 6 23 -13l-27 -112q-6 -22 -27 -31q-80 -27 -192 -27q-336 0 -336 299z" />
    <glyph glyph-name="ordfeminine" unicode="&#xaa;" horiz-adv-x="763" 
d="M82 1243v21q0 213 260 213q82 0 150 -7v39q0 64 -30.5 88.5t-115.5 24.5q-90 0 -172 -20q-10 -3 -17 0.5t-7 13.5v100q0 18 16 23q93 28 209 28q146 0 219.5 -51.5t73.5 -173.5v-348q0 -80 6 -133q4 -23 -21 -23h-118q-22 0 -27 19l-8 37q-72 -72 -183 -72
q-109 0 -172 57.5t-63 163.5zM264 1249q0 -86 98 -86q78 0 130 49v125q-58 4 -111 4q-64 0 -90.5 -17t-26.5 -69v-6z" />
    <glyph glyph-name="guillemotleft" unicode="&#xab;" horiz-adv-x="1521" 
d="M117 635v61q0 24 18 39l447 363q17 13 30 0l117 -115q15 -18 -2 -31l-352 -286l352 -287q17 -13 2 -31l-117 -115q-13 -13 -30 0l-447 363q-18 15 -18 39zM739 635v61q0 23 19 39l446 363q17 14 31 0l117 -115q15 -18 -2 -31l-353 -286l353 -287q17 -13 2 -31l-117 -115
q-14 -14 -31 0l-446 363q-19 16 -19 39z" />
    <glyph glyph-name="logicalnot" unicode="&#xac;" horiz-adv-x="1335" 
d="M133 553v158q0 22 21 22h1028q20 0 20 -22v-518q0 -15 -16 -15h-164q-16 0 -16 15v339h-852q-21 0 -21 21z" />
    <glyph glyph-name="uni00AD" unicode="&#xad;" horiz-adv-x="671" 
d="M106 653v152q0 11 3.5 14.5t13.5 3.5h424q11 0 14.5 -3.5t3.5 -14.5v-152q0 -16 -18 -16h-424q-17 0 -17 16z" />
    <glyph glyph-name="registered" unicode="&#xae;" horiz-adv-x="1939" 
d="M139 801q0 231 100 415.5t290.5 293t439.5 108.5q188 0 345 -63t263 -172.5t164.5 -259.5t58.5 -322t-58.5 -322.5t-164 -261.5t-263 -175.5t-345.5 -64.5q-187 0 -344 64.5t-263 175.5t-164.5 261.5t-58.5 322.5zM352 801q0 -135 41 -251.5t118 -203.5t195 -136.5
t263 -49.5q194 0 336 86.5t212 230t70 324.5q0 135 -41 250.5t-118 201t-195 134.5t-264 49t-263.5 -49t-194.5 -134.5t-118 -201t-41 -250.5zM674 399v801q0 19 20 19h316q157 0 232 -59t75 -189v-29q0 -97 -45.5 -166t-130.5 -90q71 -105 176 -289q11 -18 -8 -18h-160
q-22 0 -35 20q-67 135 -158 275h-86v-275q0 -9 -6.5 -14.5t-15.5 -5.5h-152q-22 0 -22 20zM870 821h88q90 0 123 25t33 100v19q0 68 -31.5 87t-119.5 19h-93v-250z" />
    <glyph glyph-name="macron" unicode="&#xaf;" 
d="M111 1495v119q0 24 26 24h623q26 0 26 -24v-119q0 -25 -26 -25h-623q-26 0 -26 25z" />
    <glyph glyph-name="degree" unicode="&#xb0;" horiz-adv-x="991" 
d="M121 1247q0 156 100.5 261.5t272.5 105.5q170 0 273 -105.5t103 -261.5q0 -155 -103 -260.5t-273 -105.5q-172 0 -272.5 105t-100.5 261zM311 1247q0 -87 47 -139.5t136 -52.5q90 0 136 52.5t46 139.5q0 84 -46 137.5t-136 53.5q-89 0 -136 -53.5t-47 -137.5z" />
    <glyph glyph-name="plusminus" unicode="&#xb1;" horiz-adv-x="1335" 
d="M133 20v158q0 23 21 23h1028q20 0 20 -23v-158q0 -20 -20 -20h-1028q-21 0 -21 20zM133 807v158q0 22 21 22h409v363q0 20 21 20h166q22 0 22 -20v-363h410q20 0 20 -22v-158q0 -21 -20 -21h-410v-366q0 -21 -22 -21h-166q-21 0 -21 21v366h-409q-21 0 -21 21z" />
    <glyph glyph-name="twosuperior" unicode="&#xb2;" horiz-adv-x="845" 
d="M90 979v90q0 16 5 25t20 22l139 123q141 123 207.5 201t66.5 143v8q0 99 -153 99q-105 0 -228 -45q-15 -6 -23.5 -0.5t-8.5 20.5v129q0 22 18 31q49 22 128.5 35.5t154.5 13.5q148 0 232.5 -68t84.5 -186v-14q0 -95 -54.5 -183.5t-174.5 -191.5l-127 -109h328
q19 0 25.5 -6t2.5 -24l-22 -117q-6 -27 -37 -27h-547q-20 0 -28.5 7t-8.5 24z" />
    <glyph glyph-name="threesuperior" unicode="&#xb3;" horiz-adv-x="845" 
d="M94 1118q-5 18 6 26t31 1q100 -39 211 -39q105 0 158 34t53 95v8q0 62 -35.5 84.5t-118.5 22.5h-118q-23 0 -32 6t-9 24v58q0 24 26 53l183 192h-310q-30 0 -30 27v119q0 29 30 29h547q31 0 31 -29v-76q0 -35 -21 -53l-194 -207q124 0 190 -56.5t66 -183.5v-12
q0 -150 -101 -229.5t-276 -79.5q-103 0 -211 22q-39 8 -45 37z" />
    <glyph glyph-name="acute" unicode="&#xb4;" 
d="M210.5 1386.5q1.5 7.5 8.5 16.5l230 301q20 29 61 29h250q17 0 21 -12t-7 -21l-291 -297q-33 -33 -80 -33h-170q-13 0 -18.5 4.5t-4 12z" />
    <glyph glyph-name="paragraph" unicode="&#xb6;" horiz-adv-x="1533" 
d="M86 1085q0 241 150.5 375.5t404.5 134.5h797q24 0 18 -22l-35 -127q-5 -16 -26 -16h-133v-1829q0 -21 -21 -21h-151q-21 0 -21 21v1829h-268v-1829q0 -21 -21 -21h-153q-23 0 -23 21v995q-144 6 -260.5 65t-187 169.5t-70.5 254.5z" />
    <glyph glyph-name="periodcentered" unicode="&#xb7;" horiz-adv-x="581" 
d="M166 700v197q0 29 31 29h190q31 0 31 -29v-197q0 -28 -31 -28h-190q-31 0 -31 28z" />
    <glyph glyph-name="cedilla" unicode="&#xb8;" horiz-adv-x="899" 
d="M213 -426q-1 7 3.5 10t12.5 0q60 -24 172 -24q109 0 109 69q0 40 -26.5 53t-84.5 13h-137q-30 0 -22 26l45 267q0 8 10 8h137q8 0 10.5 -2t1.5 -8l-22 -150h72q219 0 219 -192q0 -112 -77 -171t-206 -59q-82 0 -166 23q-32 10 -35 31z" />
    <glyph glyph-name="onesuperior" unicode="&#xb9;" horiz-adv-x="845" 
d="M88 1651q-15 29 16 43q119 54 254 139q39 25 95 25h100q33 0 33 -33v-846q0 -15 -6 -23t-25 -8h-137q-31 0 -31 31v666q-91 -64 -201 -117q-25 -11 -41 16z" />
    <glyph glyph-name="ordmasculine" unicode="&#xba;" horiz-adv-x="786" 
d="M88 1288v213q0 138 77 202t228 64q305 0 305 -266v-213q0 -266 -305 -266q-151 0 -228 64t-77 202zM264 1307q0 -76 27.5 -108t101.5 -32t101.5 32t27.5 108v176q0 75 -27.5 107t-101.5 32t-101.5 -32t-27.5 -107v-176z" />
    <glyph glyph-name="guillemotright" unicode="&#xbb;" horiz-adv-x="1527" 
d="M170 352q-15 18 2 31l352 287l-352 286q-17 13 -2 31l117 115q13 13 30 0l447 -363q18 -15 18 -39v-61q0 -24 -18 -39l-447 -362q-17 -13 -30 0zM801 352q-15 18 2 31l352 287l-352 286q-17 13 -2 31l117 115q13 13 30 0l447 -363q18 -15 18 -39v-61q0 -24 -18 -39
l-447 -362q-17 -13 -30 0z" />
    <glyph glyph-name="onequarter" unicode="&#xbc;" horiz-adv-x="1974" 
d="M92 1395q-15 29 17 43q116 52 253 139q39 25 95 25h100q33 0 33 -33v-846q0 -15 -6 -23t-25 -8h-137q-31 0 -31 31v666q-91 -64 -201 -117q-24 -11 -40 16zM537 25l589 1546q13 26 37 26h154q11 0 16.5 -6.5t1.5 -17.5l-590 -1546q-13 -27 -43 -27h-147q-25 0 -18 25z
M1051 303q-8 23 14 66l272 524q5 16 25 16h172q20 0 12 -18l-272 -520h270v223q0 19 21 22l153 17q25 3 25 -17v-245h96q22 0 19 -19l-21 -139q-3 -16 -25 -16h-69v-177q0 -20 -23 -20h-153q-23 0 -23 20v177h-434q-30 0 -35 24z" />
    <glyph glyph-name="onehalf" unicode="&#xbd;" horiz-adv-x="1974" 
d="M92 1395q-15 29 17 43q116 52 253 139q39 25 95 25h100q33 0 33 -33v-846q0 -15 -6 -23t-25 -8h-137q-31 0 -31 31v666q-91 -64 -201 -117q-24 -11 -40 16zM537 25l589 1546q13 26 37 26h154q11 0 16.5 -6.5t1.5 -17.5l-590 -1546q-13 -27 -43 -27h-147q-25 0 -18 25z
M1196 31v90q0 16 5 25t20 22l139 123q141 123 207.5 201t66.5 143v8q0 98 -153 98q-105 0 -228 -45q-15 -6 -23.5 0t-8.5 21v129q0 22 18 31q49 22 128.5 35.5t154.5 13.5q148 0 232.5 -68t84.5 -186v-15q0 -95 -54 -183t-175 -191l-127 -109h327q19 0 26 -6.5t3 -24.5
l-22 -116q-6 -27 -37 -27h-547q-20 0 -28.5 7t-8.5 24z" />
    <glyph glyph-name="threequarters" unicode="&#xbe;" horiz-adv-x="1972" 
d="M86 862q-5 18 6 26t31 1q100 -39 211 -39q105 0 158 34t53 95v8q0 62 -35.5 84.5t-118.5 22.5h-119q-23 0 -32 6t-9 24v58q0 23 27 53l182 192h-309q-31 0 -31 27v119q0 29 31 29h547q31 0 31 -29v-76q0 -35 -21 -53l-194 -207q124 0 190 -56.5t66 -183.5v-12
q0 -150 -101 -229.5t-276 -79.5q-103 0 -211 22q-39 8 -45 37zM567 25l590 1546q13 26 37 26h154q11 0 16.5 -6.5t1.5 -17.5l-590 -1546q-14 -27 -43 -27h-147q-26 0 -19 25zM1083 303q-8 22 15 66l291 524q8 16 22 16h186q21 0 13 -18l-303 -520h270v223q0 20 20 22l154 17
q25 3 25 -17v-245h96q12 0 16 -4t2 -15l-20 -139q-3 -16 -25 -16h-69v-177q0 -20 -23 -20h-154q-22 0 -22 20v177h-434q-30 0 -35 24z" />
    <glyph glyph-name="questiondown" unicode="&#xbf;" horiz-adv-x="1001" 
d="M55 -29q0 104 44.5 181.5t170.5 175.5l72 55q103 80 134.5 149.5t31.5 180.5v41q0 24 22 24h164q27 0 27 -24v-88q0 -125 -40 -220.5t-146 -173.5l-64 -47q-82 -60 -117 -109t-35 -118q0 -162 261 -162q196 0 360 47q39 10 39 -18v-141q0 -30 -37 -43q-164 -60 -397 -60
q-75 0 -142.5 10.5t-132.5 36t-111.5 64.5t-75 100t-28.5 139zM485 1014v207q0 24 27 24h201q26 0 26 -24v-207q0 -25 -26 -25h-201q-27 0 -27 25z" />
    <glyph glyph-name="Agrave" unicode="&#xc0;" horiz-adv-x="1353" 
d="M74 35q194 794 413 1519q7 24 21 32.5t45 8.5h246q31 0 44.5 -8t20.5 -33q156 -519 416 -1519q5 -19 -1 -27t-26 -8h-188q-19 0 -26.5 6.5t-12.5 24.5l-74 311h-565l-72 -311q-5 -18 -12.5 -24.5t-26.5 -6.5h-176q-20 0 -25.5 8t-0.5 27zM280 2089q4 12 21 12h250
q42 0 61 -28l230 -301q11 -14 7.5 -23.5t-22.5 -9.5h-170q-46 0 -79 33l-291 296q-11 9 -7 21zM438 541h463q-97 414 -225 845h-12q-120 -417 -226 -845z" />
    <glyph glyph-name="Aacute" unicode="&#xc1;" horiz-adv-x="1353" 
d="M74 35q194 794 413 1519q7 24 21 32.5t45 8.5h246q31 0 44.5 -8t20.5 -33q156 -519 416 -1519q5 -19 -1 -27t-26 -8h-188q-19 0 -26.5 6.5t-12.5 24.5l-74 311h-565l-72 -311q-5 -18 -12.5 -24.5t-26.5 -6.5h-176q-20 0 -25.5 8t-0.5 27zM438 541h463q-97 414 -225 845
h-12q-120 -417 -226 -845zM500 1748.5q-3 9.5 8 23.5l229 301q19 28 62 28h250q17 0 21 -12t-7 -21l-291 -296q-33 -33 -80 -33h-170q-19 0 -22 9.5z" />
    <glyph glyph-name="Acircumflex" unicode="&#xc2;" horiz-adv-x="1353" 
d="M74 35q194 794 413 1519q7 24 21 32.5t45 8.5h246q31 0 44.5 -8t20.5 -33q156 -519 416 -1519q5 -19 -1 -27t-26 -8h-188q-19 0 -26.5 6.5t-12.5 24.5l-74 311h-565l-72 -311q-5 -18 -12.5 -24.5t-26.5 -6.5h-176q-20 0 -25.5 8t-0.5 27zM309 1815q-2 11 6 20l215 260
q11 14 37 14h219q26 0 37 -14l215 -260q8 -9 6.5 -20t-14.5 -17l-110 -61q-29 -15 -46 2l-188 203h-18l-189 -203q-16 -16 -45 -2l-110 61q-13 6 -15 17zM438 541h463q-97 414 -225 845h-12q-120 -417 -226 -845z" />
    <glyph glyph-name="Atilde" unicode="&#xc3;" horiz-adv-x="1353" 
d="M74 35q194 794 413 1519q7 24 21 32.5t45 8.5h246q31 0 44.5 -8t20.5 -33q156 -519 416 -1519q5 -19 -1 -27t-26 -8h-188q-19 0 -26.5 6.5t-12.5 24.5l-74 311h-565l-72 -311q-5 -18 -12.5 -24.5t-26.5 -6.5h-176q-20 0 -25.5 8t-0.5 27zM279 1882q39 89 108.5 142
t151.5 53q43 0 76.5 -12.5t78.5 -41.5l33 -20q2 -1 13.5 -8t14 -8t11.5 -6t13 -6t11.5 -3.5t13.5 -3t13 -0.5q59 0 109 86q10 17 37 4l104 -57q18 -13 12 -29q-36 -87 -105 -140.5t-153 -53.5q-82 0 -155 47l-39 24q-56 35 -92 35q-37 0 -64 -19t-51 -65q-14 -21 -41 -8
l-92 53q-19 13 -8 37zM438 541h463q-97 414 -225 845h-12q-120 -417 -226 -845z" />
    <glyph glyph-name="Adieresis" unicode="&#xc4;" horiz-adv-x="1353" 
d="M74 35q194 794 413 1519q7 24 21 32.5t45 8.5h246q31 0 44.5 -8t20.5 -33q156 -519 416 -1519q5 -19 -1 -27t-26 -8h-188q-19 0 -26.5 6.5t-12.5 24.5l-74 311h-565l-72 -311q-5 -18 -12.5 -24.5t-26.5 -6.5h-176q-20 0 -25.5 8t-0.5 27zM332 1821v207q0 20 8.5 27
t30.5 7h174q21 0 31 -7.5t10 -26.5v-207q0 -20 -10 -27.5t-31 -7.5h-174q-22 0 -30.5 7.5t-8.5 27.5zM438 541h463q-97 414 -225 845h-12q-120 -417 -226 -845zM762 1821v207q0 20 8.5 27t30.5 7h178q21 0 31 -7.5t10 -26.5v-207q0 -20 -10 -27.5t-31 -7.5h-178
q-22 0 -30.5 7.5t-8.5 27.5z" />
    <glyph glyph-name="Aring" unicode="&#xc5;" horiz-adv-x="1353" 
d="M74 35q194 794 413 1519q7 24 21 32.5t45 8.5h246q31 0 44.5 -8t20.5 -33q156 -519 416 -1519q5 -19 -1 -27t-26 -8h-188q-19 0 -26.5 6.5t-12.5 24.5l-74 311h-565l-72 -311q-5 -18 -12.5 -24.5t-26.5 -6.5h-176q-20 0 -25.5 8t-0.5 27zM438 541h463q-97 414 -225 845
h-12q-120 -417 -226 -845zM449 1942q0 102 62 167.5t171 65.5q104 0 164.5 -66t60.5 -167q0 -99 -60.5 -165.5t-164.5 -66.5q-109 0 -171 66.5t-62 165.5zM590 1942q0 -40 22 -67.5t70 -27.5q84 0 84 95q0 98 -84 98q-49 0 -70.5 -27.5t-21.5 -70.5z" />
    <glyph glyph-name="AE" unicode="&#xc6;" horiz-adv-x="2080" 
d="M69.5 8q-4.5 8 0.5 19q424 852 815 1529q12 23 25 31t40 8h994q17 0 23.5 -6t6.5 -20l-20 -166q0 -27 -31 -27h-606v-465h551q28 0 28 -26l-20 -166q0 -27 -31 -27h-528v-473h622q31 0 31 -26l-20 -166q0 -27 -31 -27h-819q-31 0 -31 27v315h-553q-95 -179 -158 -315
q-14 -27 -39 -27h-231q-14 0 -18.5 8zM608 541h461v835h-29q-270 -500 -432 -835z" />
    <glyph glyph-name="Ccedilla" unicode="&#xc7;" horiz-adv-x="1134" 
d="M119 545v506q0 154 34.5 260.5t110.5 177.5q144 129 424 129q190 0 336 -39q33 -9 33 -41v-156q0 -29 -43 -18q-136 35 -299 35q-170 0 -252 -64q-54 -41 -75 -112.5t-21 -188.5v-475q0 -120 24.5 -195t87.5 -116q80 -51 250 -51q154 0 295 53q22 7 35 1.5t8 -20.5
l-29 -161q-7 -24 -14.5 -34t-26.5 -16q-128 -40 -295 -43l-20 -141h72q219 0 219 -192q0 -112 -77 -171t-206 -59q-82 0 -166 23q-32 10 -35 31l-16 106q-1 7 3.5 10t12.5 0q60 -24 173 -24q108 0 108 69q0 40 -26.5 53t-84.5 13h-137q-30 0 -22 26l45 267
q-227 28 -326.5 160.5t-99.5 396.5z" />
    <glyph glyph-name="Egrave" unicode="&#xc8;" horiz-adv-x="1173" 
d="M160 27v1542q0 26 30 26h846q31 0 31 -26l-23 -166q0 -27 -30 -27h-606v-465h550q31 0 31 -26l-22 -166q0 -27 -29 -27h-530v-473h624q29 0 29 -26l-21 -166q0 -27 -30 -27h-820q-30 0 -30 27zM255 2089q4 12 21 12h250q43 0 62 -28l229 -301q11 -14 8 -23.5t-22 -9.5
h-170q-47 0 -80 33l-291 296q-11 9 -7 21z" />
    <glyph glyph-name="Eacute" unicode="&#xc9;" horiz-adv-x="1173" 
d="M160 27v1542q0 26 30 26h846q31 0 31 -26l-23 -166q0 -27 -30 -27h-606v-465h550q31 0 31 -26l-22 -166q0 -27 -29 -27h-530v-473h624q29 0 29 -26l-21 -166q0 -27 -30 -27h-820q-30 0 -30 27zM502 1748.5q-3 9.5 8 23.5l229 301q19 28 62 28h250q17 0 21 -12t-7 -21
l-291 -296q-33 -33 -80 -33h-170q-19 0 -22 9.5z" />
    <glyph glyph-name="Ecircumflex" unicode="&#xca;" horiz-adv-x="1173" 
d="M160 27v1542q0 26 30 26h846q31 0 31 -26l-23 -166q0 -27 -30 -27h-606v-465h550q31 0 31 -26l-22 -166q0 -27 -29 -27h-530v-473h624q29 0 29 -26l-21 -166q0 -27 -30 -27h-820q-30 0 -30 27zM272.5 1815q-1.5 11 6.5 20l215 260q11 14 36 14h220q25 0 36 -14l215 -260
q8 -9 6.5 -20t-14.5 -17l-110 -61q-29 -14 -45 2l-189 203h-18l-189 -203q-16 -16 -45 -2l-110 61q-13 6 -14.5 17z" />
    <glyph glyph-name="Edieresis" unicode="&#xcb;" horiz-adv-x="1173" 
d="M160 27v1542q0 26 30 26h846q31 0 31 -26l-23 -166q0 -27 -30 -27h-606v-465h550q31 0 31 -26l-22 -166q0 -27 -29 -27h-530v-473h624q29 0 29 -26l-21 -166q0 -27 -30 -27h-820q-30 0 -30 27zM295 1821v207q0 20 8.5 27t30.5 7h174q21 0 31 -7.5t10 -26.5v-207
q0 -20 -10 -27.5t-31 -7.5h-174q-22 0 -30.5 7.5t-8.5 27.5zM725 1821v207q0 20 8.5 27t30.5 7h178q21 0 31 -7.5t10 -26.5v-207q0 -20 -10 -27.5t-31 -7.5h-178q-22 0 -30.5 7.5t-8.5 27.5z" />
    <glyph glyph-name="Igrave" unicode="&#xcc;" horiz-adv-x="927" 
d="M32 2089q4 12 21 12h250q43 0 62 -28l229 -301q11 -14 8 -23.5t-22 -9.5h-170q-47 0 -80 33l-291 296q-11 9 -7 21zM135 18v158q0 19 21 19h184v1206h-184q-21 0 -21 18v158q0 18 21 18h620q21 0 21 -18l-19 -158q0 -18 -18 -18h-172v-1206h184q21 0 21 -19v-158
q0 -18 -21 -18h-616q-21 0 -21 18z" />
    <glyph glyph-name="Iacute" unicode="&#xcd;" horiz-adv-x="927" 
d="M135 18v158q0 19 21 19h184v1206h-184q-21 0 -21 18v158q0 18 21 18h620q21 0 21 -18l-19 -158q0 -18 -18 -18h-172v-1206h184q21 0 21 -19v-158q0 -18 -21 -18h-616q-21 0 -21 18zM303.5 1748.5q-3.5 9.5 7.5 23.5l230 301q19 28 61 28h250q17 0 21 -12t-7 -21
l-291 -296q-33 -33 -79 -33h-170q-19 0 -22.5 9.5z" />
    <glyph glyph-name="Icircumflex" unicode="&#xce;" horiz-adv-x="927" 
d="M100 1815q-2 11 6 20l216 260q11 14 36 14h220q25 0 36 -14l215 -260q8 -9 6.5 -20t-14.5 -17l-110 -61q-29 -14 -45 2l-189 203h-18l-189 -203q-16 -16 -45 -2l-110 61q-13 6 -15 17zM135 18v158q0 19 21 19h184v1206h-184q-21 0 -21 18v158q0 18 21 18h620q21 0 21 -18
l-19 -158q0 -18 -18 -18h-172v-1206h184q21 0 21 -19v-158q0 -18 -21 -18h-616q-21 0 -21 18z" />
    <glyph glyph-name="Idieresis" unicode="&#xcf;" horiz-adv-x="927" 
d="M123 1821v207q0 20 8.5 27t30.5 7h174q21 0 31 -7.5t10 -26.5v-207q0 -20 -10 -27.5t-31 -7.5h-174q-22 0 -30.5 7.5t-8.5 27.5zM135 18v158q0 19 21 19h184v1206h-184q-21 0 -21 18v158q0 18 21 18h620q21 0 21 -18l-19 -158q0 -18 -18 -18h-172v-1206h184q21 0 21 -19
v-158q0 -18 -21 -18h-616q-21 0 -21 18zM553 1821v207q0 20 8.5 27t30.5 7h178q21 0 31 -7.5t10 -26.5v-207q0 -20 -10 -27.5t-31 -7.5h-178q-22 0 -30.5 7.5t-8.5 27.5z" />
    <glyph glyph-name="Eth" unicode="&#xd0;" horiz-adv-x="1396" 
d="M-41 729v137q0 20 7 27.5t30 7.5h160v662q0 17 8.5 24.5t28.5 7.5h438q346 0 496.5 -162t150.5 -524v-184q0 -188 -34.5 -321.5t-111 -225t-199.5 -135t-298 -43.5h-442q-37 0 -37 31v663h-160q-22 0 -29.5 7.5t-7.5 27.5zM403 211h228q66 0 118.5 7.5t92.5 25.5t69.5 41
t50 60.5t33 76.5t19.5 97t9.5 115t2.5 136v98q0 107 -9.5 183t-34.5 142.5t-68.5 106.5t-112.5 62t-166 22h-232v-483h213q37 0 37 -35v-137q0 -19 -8 -27t-29 -8h-213v-483z" />
    <glyph glyph-name="Ntilde" unicode="&#xd1;" horiz-adv-x="1439" 
d="M160 27v1542q0 26 30 26h201q19 0 27.5 -4.5t15.5 -17.5l643 -1223h6l-34 266v953q0 26 28 26h172q31 0 31 -26v-1542q0 -27 -31 -27h-198q-18 0 -26.5 4.5t-16.5 18.5l-643 1222h-7l35 -266v-952q0 -27 -28 -27h-175q-30 0 -30 27zM326 1882q39 89 108.5 142t151.5 53
q43 0 76.5 -12.5t78.5 -41.5l33 -20q2 -1 13.5 -8t14 -8t11.5 -6t13 -6t11.5 -3.5t13.5 -3t13 -0.5q59 0 109 86q10 17 37 4l104 -57q18 -13 12 -29q-36 -87 -105 -140.5t-153 -53.5q-82 0 -155 47l-39 24q-56 35 -92 35t-63.5 -19t-51.5 -65q-14 -21 -41 -8l-92 53
q-19 13 -8 37z" />
    <glyph glyph-name="Ograve" unicode="&#xd2;" horiz-adv-x="1355" 
d="M119 573v449q0 166 39.5 281.5t124.5 189.5q140 125 395 125t395 -125q85 -74 124.5 -189.5t39.5 -281.5v-449q0 -166 -39.5 -281.5t-124.5 -189.5q-140 -125 -395 -125t-395 125q-85 74 -124.5 189.5t-39.5 281.5zM321 2089q4 12 21 12h250q42 0 61 -28l230 -301
q11 -14 7.5 -23.5t-22.5 -9.5h-170q-47 0 -80 33l-290 296q-11 9 -7 21zM365 610q0 -127 14.5 -199t56.5 -126q79 -99 242 -99q160 0 242 99q42 54 56.5 126t14.5 199v375q0 127 -14.5 199.5t-56.5 126.5q-81 98 -242 98q-164 0 -242 -98q-42 -54 -56.5 -126.5t-14.5 -199.5
v-375z" />
    <glyph glyph-name="Oacute" unicode="&#xd3;" horiz-adv-x="1355" 
d="M119 573v449q0 166 39.5 281.5t124.5 189.5q140 125 395 125t395 -125q85 -74 124.5 -189.5t39.5 -281.5v-449q0 -166 -39.5 -281.5t-124.5 -189.5q-140 -125 -395 -125t-395 125q-85 74 -124.5 189.5t-39.5 281.5zM365 610q0 -127 14.5 -199t56.5 -126q79 -99 242 -99
q160 0 242 99q42 54 56.5 126t14.5 199v375q0 127 -14.5 199.5t-56.5 126.5q-81 98 -242 98q-164 0 -242 -98q-42 -54 -56.5 -126.5t-14.5 -199.5v-375zM533 1748.5q-3 9.5 8 23.5l229 301q19 28 61 28h250q17 0 21.5 -12t-6.5 -21l-291 -296q-33 -33 -80 -33h-170
q-19 0 -22 9.5z" />
    <glyph glyph-name="Ocircumflex" unicode="&#xd4;" horiz-adv-x="1355" 
d="M119 573v449q0 166 39.5 281.5t124.5 189.5q140 125 395 125t395 -125q85 -74 124.5 -189.5t39.5 -281.5v-449q0 -166 -39.5 -281.5t-124.5 -189.5q-140 -125 -395 -125t-395 125q-85 74 -124.5 189.5t-39.5 281.5zM329.5 1815q-1.5 11 6.5 20l215 260q11 14 37 14h219
q26 0 37 -14l215 -260q8 -9 6.5 -20t-14.5 -17l-111 -61q-29 -14 -45 2l-188 203h-19l-188 -203q-16 -16 -45 -2l-111 61q-13 6 -14.5 17zM365 610q0 -127 14.5 -199t56.5 -126q79 -99 242 -99q160 0 242 99q42 54 56.5 126t14.5 199v375q0 127 -14.5 199.5t-56.5 126.5
q-81 98 -242 98q-164 0 -242 -98q-42 -54 -56.5 -126.5t-14.5 -199.5v-375z" />
    <glyph glyph-name="Otilde" unicode="&#xd5;" horiz-adv-x="1355" 
d="M119 573v449q0 166 39.5 281.5t124.5 189.5q140 125 395 125t395 -125q85 -74 124.5 -189.5t39.5 -281.5v-449q0 -166 -39.5 -281.5t-124.5 -189.5q-140 -125 -395 -125t-395 125q-85 74 -124.5 189.5t-39.5 281.5zM297 1882q39 89 108.5 142t151.5 53q43 0 77 -12.5
t79 -41.5l32 -20q2 -1 11 -6t11 -6.5t9.5 -5.5t10 -5t9 -4t10 -3.5t9.5 -2t11 -2t10 -0.5q58 0 108 86q10 17 37 4l104 -57q19 -14 13 -29q-36 -87 -105 -140.5t-153 -53.5q-83 0 -156 47l-39 24q-56 35 -92 35q-37 0 -64 -19t-51 -65q-14 -21 -41 -8l-92 53q-19 13 -8 37z
M365 610q0 -127 14.5 -199t56.5 -126q79 -99 242 -99q160 0 242 99q42 54 56.5 126t14.5 199v375q0 127 -14.5 199.5t-56.5 126.5q-81 98 -242 98q-164 0 -242 -98q-42 -54 -56.5 -126.5t-14.5 -199.5v-375z" />
    <glyph glyph-name="Odieresis" unicode="&#xd6;" horiz-adv-x="1355" 
d="M119 573v449q0 166 39.5 281.5t124.5 189.5q140 125 395 125t395 -125q85 -74 124.5 -189.5t39.5 -281.5v-449q0 -166 -39.5 -281.5t-124.5 -189.5q-140 -125 -395 -125t-395 125q-85 74 -124.5 189.5t-39.5 281.5zM352 1821v207q0 20 8.5 27t30.5 7h174q21 0 31 -7.5
t10 -26.5v-207q0 -20 -10 -27.5t-31 -7.5h-174q-22 0 -30.5 7.5t-8.5 27.5zM365 610q0 -127 14.5 -199t56.5 -126q79 -99 242 -99q160 0 242 99q42 54 56.5 126t14.5 199v375q0 127 -14.5 199.5t-56.5 126.5q-81 98 -242 98q-164 0 -242 -98q-42 -54 -56.5 -126.5
t-14.5 -199.5v-375zM782 1821v207q0 20 8.5 27t30.5 7h178q21 0 31 -7.5t10 -26.5v-207q0 -20 -10 -27.5t-31 -7.5h-178q-22 0 -30.5 7.5t-8.5 27.5z" />
    <glyph glyph-name="multiply" unicode="&#xd7;" horiz-adv-x="1335" 
d="M219 313q-17 14 0 29l295 285l-295 284q-17 15 0 29l117 113q14 17 31 0l299 -285l297 283q14 14 30 0l117 -111q15 -19 0 -31l-297 -282l303 -285q19 -16 0 -29l-117 -112q-16 -14 -30 0l-303 282l-299 -282q-15 -15 -33 0z" />
    <glyph glyph-name="Oslash" unicode="&#xd8;" horiz-adv-x="1355" 
d="M119 573v447q0 166 39.5 281.5t124.5 189.5q140 125 395 125q168 0 287 -55l82 163q12 30 47 17l82 -33q32 -14 18 -47l-94 -195q137 -146 137 -446v-447q0 -166 -39.5 -281.5t-124.5 -189.5q-140 -125 -395 -125q-160 0 -283 54l-73 -154q-9 -17 -20 -20.5t-30 4.5
l-82 33q-36 14 -20 47l88 182q-139 145 -139 450zM365 610q0 -155 20 -229l479 977q-71 49 -186 49q-164 0 -242 -98q-42 -54 -56.5 -126.5t-14.5 -199.5v-373zM496 231q70 -45 182 -45q160 0 242 99q42 54 56.5 126t14.5 199v373q0 150 -20 221z" />
    <glyph glyph-name="Ugrave" unicode="&#xd9;" horiz-adv-x="1392" 
d="M156 518v1051q0 26 30 26h187q30 0 30 -26v-1006q0 -102 15.5 -165t52.5 -113q67 -88 225 -88q159 0 226 88q37 49 52 112t15 166v1006q0 26 29 26h188q31 0 31 -26v-1051q0 -267 -138.5 -404t-402.5 -137q-265 0 -402.5 136.5t-137.5 404.5zM312.5 2089q4.5 12 21.5 12
h250q42 0 61 -28l229 -301q11 -14 8 -23.5t-22 -9.5h-170q-47 0 -80 33l-291 296q-11 9 -6.5 21z" />
    <glyph glyph-name="Uacute" unicode="&#xda;" horiz-adv-x="1392" 
d="M156 518v1051q0 26 30 26h187q30 0 30 -26v-1006q0 -102 15.5 -165t52.5 -113q67 -88 225 -88q159 0 226 88q37 49 52 112t15 166v1006q0 26 29 26h188q31 0 31 -26v-1051q0 -267 -138.5 -404t-402.5 -137q-265 0 -402.5 136.5t-137.5 404.5zM549 1748.5q-3 9.5 8 23.5
l229 301q19 28 62 28h250q17 0 21 -12t-7 -21l-291 -296q-33 -33 -80 -33h-170q-19 0 -22 9.5z" />
    <glyph glyph-name="Ucircumflex" unicode="&#xdb;" horiz-adv-x="1392" 
d="M156 518v1051q0 26 30 26h187q30 0 30 -26v-1006q0 -102 15.5 -165t52.5 -113q67 -88 225 -88q159 0 226 88q37 49 52 112t15 166v1006q0 26 29 26h188q31 0 31 -26v-1051q0 -267 -138.5 -404t-402.5 -137q-265 0 -402.5 136.5t-137.5 404.5zM333.5 1815q-1.5 11 6.5 20
l215 260q11 14 37 14h219q26 0 37 -14l215 -260q8 -9 6.5 -20t-14.5 -17l-111 -61q-29 -14 -45 2l-188 203h-19l-188 -203q-16 -16 -45 -2l-111 61q-13 6 -14.5 17z" />
    <glyph glyph-name="Udieresis" unicode="&#xdc;" horiz-adv-x="1392" 
d="M156 518v1051q0 26 30 26h187q30 0 30 -26v-1006q0 -102 15.5 -165t52.5 -113q67 -88 225 -88q159 0 226 88q37 49 52 112t15 166v1006q0 26 29 26h188q31 0 31 -26v-1051q0 -267 -138.5 -404t-402.5 -137q-265 0 -402.5 136.5t-137.5 404.5zM350 1821v207q0 20 8.5 27
t30.5 7h174q21 0 31 -7.5t10 -26.5v-207q0 -20 -10 -27.5t-31 -7.5h-174q-22 0 -30.5 7.5t-8.5 27.5zM780 1821v207q0 20 8.5 27t30.5 7h178q21 0 31 -7.5t10 -26.5v-207q0 -20 -10 -27.5t-31 -7.5h-178q-22 0 -30.5 7.5t-8.5 27.5z" />
    <glyph glyph-name="Yacute" unicode="&#xdd;" horiz-adv-x="1259" 
d="M57 1569q-10 26 17 26h221q18 0 26.5 -5t12.5 -19q105 -334 295 -785h10q177 420 289 785q4 14 12.5 19t26.5 5h219q27 0 16 -26q-196 -545 -448 -1039v-503q0 -27 -31 -27h-186q-31 0 -31 27v503q-248 482 -449 1039zM465 1748.5q-3 9.5 8 23.5l229 301q19 28 62 28h250
q17 0 21 -12t-7 -21l-291 -296q-33 -33 -80 -33h-170q-19 0 -22 9.5z" />
    <glyph glyph-name="Thorn" unicode="&#xde;" horiz-adv-x="1247" 
d="M154 27v1542q0 26 30 26h187q30 0 30 -26v-232h205q276 0 412 -100q147 -109 147 -389v-25q0 -257 -138.5 -381.5t-420.5 -124.5h-205v-290q0 -27 -30 -27h-187q-30 0 -30 27zM401 524h172q103 0 164.5 17t102.5 55q73 70 73 233v17q0 85 -21.5 141t-68 87t-107.5 43.5
t-151 12.5h-164v-606z" />
    <glyph glyph-name="germandbls" unicode="&#xdf;" horiz-adv-x="1353" 
d="M154 25v1183q0 230 139.5 348.5t404.5 118.5q232 0 362 -97.5t130 -289.5v-20q0 -156 -57.5 -241t-186.5 -128v-6q92 -9 151.5 -36.5t102.5 -80.5q82 -97 82 -287v-61q0 -102 -26.5 -191t-73.5 -143q-106 -117 -320 -117q-118 0 -213 25q-7 2 -10.5 4t-6 6.5t-3 6
t-2.5 10.5l-29 151q-2 13 5 19t20 2q93 -33 198 -33q132 0 187 84q39 61 39 178v55q0 162 -74.5 223.5t-245.5 61.5h-45q-20 0 -20 23v106q0 31 26 39q134 39 197 114t63 201v13q0 219 -250 219q-309 0 -309 -293v-1167q0 -25 -27 -25h-182q-26 0 -26 25z" />
    <glyph glyph-name="agrave" unicode="&#xe0;" horiz-adv-x="1159" 
d="M82 334v28q0 103 35.5 178t101.5 113q104 58 344 58q88 0 221 -9v91q0 130 -51 184q-60 63 -207 63q-146 0 -319 -47q-29 -7 -29 21v131q0 20 23 29q143 55 350 55q256 0 371 -109q53 -50 76.5 -123.5t23.5 -185.5v-541q0 -115 16 -243q3 -27 -22 -27h-154q-25 0 -33 23
q-12 41 -22 86q-123 -132 -326 -132q-191 0 -295 89.5t-104 267.5zM206 1721q4 12 21 12h250q42 0 62 -29l229 -301q7 -9 8.5 -16.5t-4 -12t-18.5 -4.5h-170q-47 0 -80 33l-291 297q-11 9 -7 21zM322 338q0 -87 51.5 -131.5t142.5 -44.5q174 0 268 102v256q-74 8 -211 8
q-58 0 -91 -2.5t-68 -12t-52.5 -28t-28.5 -51.5t-11 -82v-14z" />
    <glyph glyph-name="aacute" unicode="&#xe1;" horiz-adv-x="1159" 
d="M82 334v28q0 103 35.5 178t101.5 113q104 58 344 58q88 0 221 -9v91q0 130 -51 184q-60 63 -207 63q-146 0 -319 -47q-29 -7 -29 21v131q0 20 23 29q143 55 350 55q256 0 371 -109q53 -50 76.5 -123.5t23.5 -185.5v-541q0 -115 16 -243q3 -27 -22 -27h-154q-25 0 -33 23
q-12 41 -22 86q-123 -132 -326 -132q-191 0 -295 89.5t-104 267.5zM322 338q0 -87 51.5 -131.5t142.5 -44.5q174 0 268 102v256q-74 8 -211 8q-58 0 -91 -2.5t-68 -12t-52.5 -28t-28.5 -51.5t-11 -82v-14zM409.5 1386.5q1.5 7.5 8.5 16.5l229 301q20 29 62 29h249
q17 0 21.5 -12t-6.5 -21l-291 -297q-33 -33 -80 -33h-170q-13 0 -18.5 4.5t-4 12z" />
    <glyph glyph-name="acircumflex" unicode="&#xe2;" horiz-adv-x="1159" 
d="M82 334v28q0 103 35.5 178t101.5 113q104 58 344 58q88 0 221 -9v91q0 130 -51 184q-60 63 -207 63q-146 0 -319 -47q-29 -7 -29 21v131q0 20 23 29q143 55 350 55q256 0 371 -109q53 -50 76.5 -123.5t23.5 -185.5v-541q0 -115 16 -243q3 -27 -22 -27h-154q-25 0 -33 23
q-12 41 -22 86q-123 -132 -326 -132q-191 0 -295 89.5t-104 267.5zM227 1466l215 260q12 15 37 15h219q25 0 37 -15l215 -260q18 -22 -8 -36l-111 -62q-29 -14 -45 2l-188 203h-18l-189 -203q-16 -16 -45 -2l-110 62q-26 16 -9 36zM322 338q0 -87 51.5 -131.5t142.5 -44.5
q174 0 268 102v256q-74 8 -211 8q-58 0 -91 -2.5t-68 -12t-52.5 -28t-28.5 -51.5t-11 -82v-14z" />
    <glyph glyph-name="atilde" unicode="&#xe3;" horiz-adv-x="1159" 
d="M82 334v28q0 103 35.5 178t101.5 113q104 58 344 58q88 0 221 -9v91q0 130 -51 184q-60 63 -207 63q-146 0 -319 -47q-29 -7 -29 21v131q0 20 23 29q143 55 350 55q256 0 371 -109q53 -50 76.5 -123.5t23.5 -185.5v-541q0 -115 16 -243q3 -27 -22 -27h-154q-25 0 -33 23
q-12 41 -22 86q-123 -132 -326 -132q-191 0 -295 89.5t-104 267.5zM186 1513q39 89 108.5 142t151.5 53q43 0 77.5 -12.5t78.5 -40.5l33 -21q2 -1 13.5 -8t14 -8t11.5 -6t13 -6t11.5 -3.5t13.5 -3t13 -0.5q59 0 109 87q10 17 36 4l105 -58q18 -13 12 -28q-36 -87 -105 -141
t-153 -54q-83 0 -156 47l-38 25q-56 35 -93 35q-36 0 -63 -19t-51 -65q-15 -22 -41 -9l-92 54q-19 13 -9 36zM322 338q0 -87 51.5 -131.5t142.5 -44.5q174 0 268 102v256q-74 8 -211 8q-58 0 -91 -2.5t-68 -12t-52.5 -28t-28.5 -51.5t-11 -82v-14z" />
    <glyph glyph-name="adieresis" unicode="&#xe4;" horiz-adv-x="1159" 
d="M82 334v28q0 103 35.5 178t101.5 113q104 58 344 58q88 0 221 -9v91q0 130 -51 184q-60 63 -207 63q-146 0 -319 -47q-29 -7 -29 21v131q0 20 23 29q143 55 350 55q256 0 371 -109q53 -50 76.5 -123.5t23.5 -185.5v-541q0 -115 16 -243q3 -27 -22 -27h-154q-25 0 -33 23
q-12 41 -22 86q-123 -132 -326 -132q-191 0 -295 89.5t-104 267.5zM246 1460v207q0 20 8.5 27.5t30.5 7.5h174q21 0 31 -7.5t10 -27.5v-207q0 -20 -10 -27.5t-31 -7.5h-174q-22 0 -30.5 7.5t-8.5 27.5zM322 338q0 -87 51.5 -131.5t142.5 -44.5q174 0 268 102v256
q-74 8 -211 8q-58 0 -91 -2.5t-68 -12t-52.5 -28t-28.5 -51.5t-11 -82v-14zM676 1460v207q0 20 8.5 27.5t30.5 7.5h178q21 0 31 -7.5t10 -27.5v-207q0 -20 -10 -27.5t-31 -7.5h-178q-22 0 -30.5 7.5t-8.5 27.5z" />
    <glyph glyph-name="aring" unicode="&#xe5;" horiz-adv-x="1159" 
d="M82 334v28q0 103 35.5 178t101.5 113q104 58 344 58q88 0 221 -9v91q0 130 -51 184q-60 63 -207 63q-146 0 -319 -47q-29 -7 -29 21v131q0 20 23 29q143 55 350 55q256 0 371 -109q53 -50 76.5 -123.5t23.5 -185.5v-541q0 -115 16 -243q3 -27 -22 -27h-154q-25 0 -33 23
q-12 41 -22 86q-123 -132 -326 -132q-191 0 -295 89.5t-104 267.5zM322 338q0 -87 51.5 -131.5t142.5 -44.5q174 0 268 102v256q-74 8 -211 8q-58 0 -91 -2.5t-68 -12t-52.5 -28t-28.5 -51.5t-11 -82v-14zM369 1573q0 101 65.5 167t175.5 66q105 0 168.5 -66t63.5 -167
q0 -98 -64 -165t-168 -67q-109 0 -175 67t-66 165zM510 1575q0 -47 24.5 -79t75.5 -32q92 0 92 111t-92 111q-52 0 -76 -31.5t-24 -79.5z" />
    <glyph glyph-name="ae" unicode="&#xe6;" horiz-adv-x="1824" 
d="M82 334v28q0 103 35.5 178t101.5 113q104 58 344 58q88 0 221 -9v91q0 130 -51 184q-60 63 -207 63q-146 0 -319 -47q-29 -7 -29 21v131q0 20 23 29q143 55 350 55q265 0 375 -113q132 113 354 113q224 0 337.5 -117.5t113.5 -339.5v-188q0 -62 -56 -62h-653v-71
q0 -144 76.5 -212.5t236.5 -68.5q170 0 293 47q18 6 28 -0.5t7 -26.5l-18 -120q-3 -19 -10.5 -29t-24.5 -16q-45 -20 -133 -34t-164 -14q-299 0 -430 148q-156 -148 -402 -148q-191 0 -295 89.5t-104 267.5zM322 338q0 -176 202 -176q172 0 283 108q-23 73 -23 176v74
q-74 8 -211 8q-58 0 -91 -2.5t-68 -12t-52.5 -28t-28.5 -51.5t-11 -82v-14zM1022 698h473v86q0 123 -37 185q-57 84 -182 84q-254 0 -254 -283v-72z" />
    <glyph glyph-name="ccedilla" unicode="&#xe7;" horiz-adv-x="1038" 
d="M115 422v358q0 227 128.5 338t368.5 111q161 0 299 -37q21 -6 21 -33v-131q0 -18 -8 -22.5t-25 0.5q-131 30 -256 30q-159 0 -219 -57q-72 -64 -72 -229v-295q0 -143 61 -214t220 -71q152 0 274 39q18 6 28 -0.5t7 -26.5l-18 -121q-3 -19 -10.5 -29t-24.5 -16
q-45 -17 -122 -28t-149 -11h-30l-21 -141h72q219 0 219 -192q0 -112 -77 -171t-206 -59q-85 0 -165 23q-34 10 -37 31l-15 106q-1 7 4 10t11 0q63 -24 172 -24q110 0 110 69q0 40 -26.5 53t-85.5 13h-135q-13 0 -20.5 6t-2.5 20l47 275q-161 34 -239 138.5t-78 287.5z" />
    <glyph glyph-name="egrave" unicode="&#xe8;" horiz-adv-x="1167" 
d="M115 446v297q0 229 127.5 357.5t365.5 128.5q213 0 335 -120.5t122 -336.5v-186q0 -32 -12.5 -47t-42.5 -15h-660v-73q0 -145 74.5 -213t234.5 -68q181 0 304 47q18 6 26.5 -0.5t5.5 -26.5l-16 -120q-3 -19 -10.5 -29t-24.5 -16q-45 -20 -137.5 -34t-169.5 -14
q-259 0 -390.5 111.5t-131.5 357.5zM194 1721q4 12 21 12h250q41 0 61 -29l230 -301q7 -9 8.5 -16.5t-4.5 -12t-19 -4.5h-170q-46 0 -79 33l-291 297q-11 9 -7 21zM350 700h477v84q0 131 -51.5 200t-171.5 69q-254 0 -254 -283v-70z" />
    <glyph glyph-name="eacute" unicode="&#xe9;" horiz-adv-x="1167" 
d="M115 446v297q0 229 127.5 357.5t365.5 128.5q213 0 335 -120.5t122 -336.5v-186q0 -32 -12.5 -47t-42.5 -15h-660v-73q0 -145 74.5 -213t234.5 -68q181 0 304 47q18 6 26.5 -0.5t5.5 -26.5l-16 -120q-3 -19 -10.5 -29t-24.5 -16q-45 -20 -137.5 -34t-169.5 -14
q-259 0 -390.5 111.5t-131.5 357.5zM350 700h477v84q0 131 -51.5 200t-171.5 69q-254 0 -254 -283v-70zM469.5 1380q-3.5 10 7.5 23l230 301q20 29 61 29h250q17 0 21 -12t-7 -21l-291 -297q-33 -33 -79 -33h-170q-19 0 -22.5 10z" />
    <glyph glyph-name="ecircumflex" unicode="&#xea;" horiz-adv-x="1167" 
d="M115 446v297q0 229 127.5 357.5t365.5 128.5q213 0 335 -120.5t122 -336.5v-186q0 -32 -12.5 -47t-42.5 -15h-660v-73q0 -145 74.5 -213t234.5 -68q181 0 304 47q18 6 26.5 -0.5t5.5 -26.5l-16 -120q-3 -19 -10.5 -29t-24.5 -16q-45 -20 -137.5 -34t-169.5 -14
q-259 0 -390.5 111.5t-131.5 357.5zM246 1466l215 260q12 15 37 15h219q25 0 37 -15l215 -260q18 -22 -8 -36l-111 -62q-29 -14 -45 2l-189 203h-18l-188 -203q-16 -16 -45 -2l-111 62q-25 16 -8 36zM350 700h477v84q0 131 -51.5 200t-171.5 69q-254 0 -254 -283v-70z" />
    <glyph glyph-name="edieresis" unicode="&#xeb;" horiz-adv-x="1167" 
d="M115 446v297q0 229 127.5 357.5t365.5 128.5q213 0 335 -120.5t122 -336.5v-186q0 -32 -12.5 -47t-42.5 -15h-660v-73q0 -145 74.5 -213t234.5 -68q181 0 304 47q18 6 26.5 -0.5t5.5 -26.5l-16 -120q-3 -19 -10.5 -29t-24.5 -16q-45 -20 -137.5 -34t-169.5 -14
q-259 0 -390.5 111.5t-131.5 357.5zM260 1460v207q0 20 8.5 27.5t30.5 7.5h174q21 0 31 -7.5t10 -27.5v-207q0 -20 -10 -27.5t-31 -7.5h-174q-22 0 -30.5 7.5t-8.5 27.5zM350 700h477v84q0 131 -51.5 200t-171.5 69q-254 0 -254 -283v-70zM690 1460v207q0 20 8.5 27.5
t30.5 7.5h178q21 0 31 -7.5t10 -27.5v-207q0 -20 -10 -27.5t-31 -7.5h-178q-22 0 -30.5 7.5t-8.5 27.5z" />
    <glyph glyph-name="igrave" unicode="&#xec;" horiz-adv-x="550" 
d="M-173 1721q4 12 21 12h250q42 0 62 -29l229 -301q7 -9 8.5 -16.5t-4 -12t-18.5 -4.5h-170q-47 0 -80 33l-291 297q-11 9 -7 21zM158 27v1153q0 26 26 26h181q28 0 28 -26v-1153q0 -27 -28 -27h-181q-26 0 -26 27z" />
    <glyph glyph-name="iacute" unicode="&#xed;" horiz-adv-x="550" 
d="M155.5 1386.5q1.5 7.5 8.5 16.5l229 301q20 29 62 29h250q17 0 21 -12t-7 -21l-291 -297q-33 -33 -80 -33h-170q-13 0 -18.5 4.5t-4 12zM158 27v1153q0 26 26 26h181q28 0 28 -26v-1153q0 -27 -28 -27h-181q-26 0 -26 27z" />
    <glyph glyph-name="icircumflex" unicode="&#xee;" horiz-adv-x="550" 
d="M-92 1466l215 260q12 15 37 15h219q25 0 37 -15l215 -260q18 -22 -8 -36l-111 -62q-29 -14 -45 2l-188 203h-19l-188 -203q-16 -16 -45 -2l-111 62q-25 16 -8 36zM158 27v1153q0 26 26 26h181q28 0 28 -26v-1153q0 -27 -28 -27h-181q-26 0 -26 27z" />
    <glyph glyph-name="idieresis" unicode="&#xef;" horiz-adv-x="550" 
d="M-70 1460v207q0 20 8.5 27.5t30.5 7.5h174q21 0 31 -7.5t10 -27.5v-207q0 -20 -10 -27.5t-31 -7.5h-174q-22 0 -30.5 7.5t-8.5 27.5zM158 27v1153q0 26 26 26h181q28 0 28 -26v-1153q0 -27 -28 -27h-181q-26 0 -26 27zM360 1460v207q0 20 8.5 27.5t30.5 7.5h179
q21 0 30.5 -7.5t9.5 -27.5v-207q0 -20 -9.5 -27.5t-30.5 -7.5h-179q-22 0 -30.5 7.5t-8.5 27.5z" />
    <glyph glyph-name="eth" unicode="&#xf0;" horiz-adv-x="1247" 
d="M115 500v114q0 256 103 382t343 126q79 0 166 -23.5t145 -56.5q-12 84 -75.5 176t-147.5 150l-209 -113q-28 -14 -43 11l-47 82q-15 23 15 38l147 80q-23 15 -129 74q-15 7 -13.5 20t19.5 23l107 62q31 18 69 2q58 -28 133 -72l144 78q32 18 47 -8l47 -78q19 -29 -12 -45
l-88 -47q93 -75 151 -156.5t90.5 -190.5t44 -231.5t11.5 -304.5v-45q0 -149 -23 -256t-84 -178q-117 -136 -401 -136q-278 0 -394 122.5t-116 400.5zM352 508q0 -178 57 -254t212 -76q70 0 118.5 14.5t79 41t47.5 73t23 100.5t6 134v61q0 211 -6 248q-119 65 -260 65
q-145 0 -205 -57q-39 -37 -55.5 -94.5t-16.5 -157.5v-98z" />
    <glyph glyph-name="ntilde" unicode="&#xf1;" horiz-adv-x="1275" 
d="M154 27v1153q0 26 24 26h160q28 0 31 -24l8 -66q163 113 354 113q204 0 303 -98t99 -306v-798q0 -27 -27 -27h-184q-25 0 -25 27v733q0 97 -10 138.5t-47 76.5q-58 53 -187 53q-138 0 -264 -76v-925q0 -27 -29 -27h-182q-24 0 -24 27zM258 1513q39 89 108.5 142t151.5 53
q43 0 77.5 -12.5t78.5 -40.5l33 -21q2 -1 13.5 -8t14 -8t11.5 -6t13 -6t11.5 -3.5t13.5 -3t13 -0.5q58 0 108 87q10 17 37 4l105 -58q18 -13 12 -28q-36 -87 -105 -141t-153 -54q-83 0 -156 47l-39 25q-56 35 -92 35t-63.5 -19t-51.5 -65q-15 -22 -41 -9l-92 54
q-19 12 -8 36z" />
    <glyph glyph-name="ograve" unicode="&#xf2;" horiz-adv-x="1226" 
d="M115 473v262q0 245 122 369.5t377 124.5q254 0 376 -124.5t122 -369.5v-262q0 -245 -121.5 -369t-376.5 -124t-377 124t-122 369zM212 1721q4 12 21 12h250q42 0 62 -29l229 -301q7 -9 8.5 -16.5t-4 -12t-18.5 -4.5h-170q-47 0 -80 33l-291 297q-11 9 -7 21zM352 477
q0 -157 62 -232t200 -75t200.5 75t62.5 232v254q0 157 -62.5 232t-200.5 75t-200 -75t-62 -232v-254z" />
    <glyph glyph-name="oacute" unicode="&#xf3;" horiz-adv-x="1226" 
d="M115 473v262q0 245 122 369.5t377 124.5q254 0 376 -124.5t122 -369.5v-262q0 -245 -121.5 -369t-376.5 -124t-377 124t-122 369zM352 477q0 -157 62 -232t200 -75t200.5 75t62.5 232v254q0 157 -62.5 232t-200.5 75t-200 -75t-62 -232v-254zM489.5 1386.5
q1.5 7.5 8.5 16.5l229 301q20 29 61 29h250q17 0 21.5 -12t-6.5 -21l-291 -297q-33 -33 -80 -33h-170q-13 0 -18.5 4.5t-4 12z" />
    <glyph glyph-name="ocircumflex" unicode="&#xf4;" horiz-adv-x="1226" 
d="M115 473v262q0 245 122 369.5t377 124.5q254 0 376 -124.5t122 -369.5v-262q0 -245 -121.5 -369t-376.5 -124t-377 124t-122 369zM256 1466l215 260q12 15 37 15h219q25 0 37 -15l215 -260q18 -22 -8 -36l-111 -62q-29 -14 -45 2l-188 203h-19l-188 -203q-16 -16 -45 -2
l-111 62q-25 16 -8 36zM352 477q0 -157 62 -232t200 -75t200.5 75t62.5 232v254q0 157 -62.5 232t-200.5 75t-200 -75t-62 -232v-254z" />
    <glyph glyph-name="otilde" unicode="&#xf5;" horiz-adv-x="1226" 
d="M115 473v262q0 245 122 369.5t377 124.5q254 0 376 -124.5t122 -369.5v-262q0 -245 -121.5 -369t-376.5 -124t-377 124t-122 369zM217 1513q39 89 108.5 142t151.5 53q43 0 77.5 -12.5t78.5 -40.5l33 -21q2 -1 13.5 -8t14 -8t11.5 -6t13 -6t11.5 -3.5t13.5 -3t13 -0.5
q58 0 108 87q10 17 37 4l105 -58q18 -13 12 -28q-36 -87 -105 -141t-153 -54q-83 0 -156 47l-39 25q-56 35 -92 35q-37 0 -64 -19t-51 -65q-15 -22 -41 -9l-92 54q-19 12 -8 36zM352 477q0 -157 62 -232t200 -75t200.5 75t62.5 232v254q0 157 -62.5 232t-200.5 75t-200 -75
t-62 -232v-254z" />
    <glyph glyph-name="odieresis" unicode="&#xf6;" horiz-adv-x="1226" 
d="M115 473v262q0 245 122 369.5t377 124.5q254 0 376 -124.5t122 -369.5v-262q0 -245 -121.5 -369t-376.5 -124t-377 124t-122 369zM272 1460v207q0 20 8.5 27.5t30.5 7.5h174q21 0 31 -7.5t10 -27.5v-207q0 -20 -10 -27.5t-31 -7.5h-174q-22 0 -30.5 7.5t-8.5 27.5z
M352 477q0 -157 62 -232t200 -75t200.5 75t62.5 232v254q0 157 -62.5 232t-200.5 75t-200 -75t-62 -232v-254zM702 1460v207q0 20 8.5 27.5t30.5 7.5h179q21 0 31 -7.5t10 -27.5v-207q0 -20 -10 -27.5t-31 -7.5h-179q-22 0 -30.5 7.5t-8.5 27.5z" />
    <glyph glyph-name="divide" unicode="&#xf7;" horiz-adv-x="1335" 
d="M133 547v158q0 22 21 22h1028q20 0 20 -22v-158q0 -21 -20 -21h-1028q-21 0 -21 21zM551 104v205q0 19 27 19h190q27 0 27 -19v-205q0 -18 -27 -18h-190q-27 0 -27 18zM551 944v205q0 18 27 18h190q27 0 27 -18v-205q0 -18 -27 -18h-190q-27 0 -27 18z" />
    <glyph glyph-name="oslash" unicode="&#xf8;" horiz-adv-x="1226" 
d="M86 -8l111 158q-82 122 -82 323v262q0 245 122 369.5t377 124.5q180 0 297 -66l84 121q24 38 58 14l71 -43q32 -19 13 -47l-107 -151q82 -119 82 -322v-262q0 -245 -121.5 -369t-376.5 -124q-186 0 -297 63l-90 -129q-11 -18 -25 -19.5t-32 9.5l-72 41q-33 20 -12 47z
M352 477q0 -51 6 -98l430 610q-64 49 -174 49q-138 0 -200 -75t-62 -232v-254zM440 217q58 -47 174 -47q138 0 200.5 75t62.5 232v254q0 53 -9 96z" />
    <glyph glyph-name="ugrave" unicode="&#xf9;" horiz-adv-x="1261" 
d="M145 381v799q0 26 27 26h182q27 0 27 -26v-734q0 -94 12.5 -144t44.5 -79q55 -49 170 -49q67 0 141.5 29.5t120.5 77.5v899q0 26 29 26h182q27 0 27 -26v-910q0 -115 16 -243q3 -27 -22 -27h-154q-22 0 -30 23q-10 25 -25 98q-56 -64 -147 -104t-195 -40
q-207 0 -306.5 97.5t-99.5 306.5zM196 1721q4 12 21 12h250q41 0 61 -29l230 -301q7 -9 8.5 -16.5t-4.5 -12t-19 -4.5h-170q-46 0 -79 33l-291 297q-11 9 -7 21z" />
    <glyph glyph-name="uacute" unicode="&#xfa;" horiz-adv-x="1261" 
d="M145 381v799q0 26 27 26h182q27 0 27 -26v-734q0 -94 12.5 -144t44.5 -79q55 -49 170 -49q67 0 141.5 29.5t120.5 77.5v899q0 26 29 26h182q27 0 27 -26v-910q0 -115 16 -243q3 -27 -22 -27h-154q-22 0 -30 23q-10 25 -25 98q-56 -64 -147 -104t-195 -40
q-207 0 -306.5 97.5t-99.5 306.5zM479.5 1380q-3.5 10 7.5 23l230 301q20 29 61 29h250q17 0 21 -12t-7 -21l-290 -297q-33 -33 -80 -33h-170q-19 0 -22.5 10z" />
    <glyph glyph-name="ucircumflex" unicode="&#xfb;" horiz-adv-x="1261" 
d="M145 381v799q0 26 27 26h182q27 0 27 -26v-734q0 -94 12.5 -144t44.5 -79q55 -49 170 -49q67 0 141.5 29.5t120.5 77.5v899q0 26 29 26h182q27 0 27 -26v-910q0 -115 16 -243q3 -27 -22 -27h-154q-22 0 -30 23q-10 25 -25 98q-56 -64 -147 -104t-195 -40
q-207 0 -306.5 97.5t-99.5 306.5zM268 1466l215 260q12 15 37 15h219q25 0 37 -15l215 -260q18 -22 -8 -36l-111 -62q-29 -14 -45 2l-188 203h-18l-189 -203q-16 -16 -45 -2l-111 62q-25 16 -8 36z" />
    <glyph glyph-name="udieresis" unicode="&#xfc;" horiz-adv-x="1261" 
d="M145 381v799q0 26 27 26h182q27 0 27 -26v-734q0 -94 12.5 -144t44.5 -79q55 -49 170 -49q67 0 141.5 29.5t120.5 77.5v899q0 26 29 26h182q27 0 27 -26v-910q0 -115 16 -243q3 -27 -22 -27h-154q-22 0 -30 23q-10 25 -25 98q-56 -64 -147 -104t-195 -40
q-207 0 -306.5 97.5t-99.5 306.5zM293 1460v207q0 20 8.5 27.5t30.5 7.5h174q21 0 31 -7.5t10 -27.5v-207q0 -20 -10 -27.5t-31 -7.5h-174q-22 0 -30.5 7.5t-8.5 27.5zM723 1460v207q0 20 8.5 27.5t30.5 7.5h178q21 0 31 -7.5t10 -27.5v-207q0 -20 -10 -27.5t-31 -7.5h-178
q-22 0 -30.5 7.5t-8.5 27.5z" />
    <glyph glyph-name="yacute" unicode="&#xfd;" horiz-adv-x="1118" 
d="M35 1178q-7 28 20 28h189q29 0 35 -20q180 -692 288 -1010h13q128 450 254 1002q7 28 38 28h185q30 0 20 -32q-167 -658 -346 -1194q-43 -130 -83 -208.5t-92.5 -125.5t-113 -63.5t-151.5 -16.5q-86 0 -139 16q-18 6 -24 13t-11 24l-29 129q-3 13 5 20.5t22 4.5
q83 -17 151 -17q94 0 154 46.5t94 144.5l25 69h-84q-52 0 -66 41q-90 235 -188 548.5t-166 572.5zM409.5 1386.5q1.5 7.5 8.5 16.5l229 301q20 29 62 29h249q17 0 21.5 -12t-6.5 -21l-291 -297q-33 -33 -80 -33h-170q-13 0 -18.5 4.5t-4 12z" />
    <glyph glyph-name="thorn" unicode="&#xfe;" horiz-adv-x="1255" 
d="M154 -389v1972q0 26 24 31l174 37q37 6 37 -25v-491q67 44 153.5 69t174.5 25q112 0 195 -34.5t131.5 -99t72 -147t23.5 -186.5v-326q0 -100 -24 -180.5t-75 -144.5t-139 -99t-207 -35q-86 0 -169 21t-136 53v-413q0 -26 -29 -31l-176 -21q-13 -3 -21.5 4t-8.5 21z
M389 231q109 -53 268 -53q141 0 193.5 74.5t52.5 232.5v228q0 59 -4.5 101t-19.5 85t-41 69.5t-71.5 43t-109.5 16.5q-144 0 -268 -59v-738z" />
    <glyph glyph-name="ydieresis" unicode="&#xff;" horiz-adv-x="1118" 
d="M35 1178q-7 28 20 28h189q29 0 35 -20q180 -692 288 -1010h13q128 450 254 1002q7 28 38 28h185q30 0 20 -32q-167 -658 -346 -1194q-43 -130 -83 -208.5t-92.5 -125.5t-113 -63.5t-151.5 -16.5q-86 0 -139 16q-18 6 -24 13t-11 24l-29 129q-3 13 5 20.5t22 4.5
q83 -17 151 -17q94 0 154 46.5t94 144.5l25 69h-84q-52 0 -66 41q-90 235 -188 548.5t-166 572.5zM227 1460v207q0 20 8.5 27.5t30.5 7.5h174q21 0 31 -7.5t10 -27.5v-207q0 -20 -10 -27.5t-31 -7.5h-174q-22 0 -30.5 7.5t-8.5 27.5zM657 1460v207q0 20 8.5 27.5t30.5 7.5
h178q21 0 31 -7.5t10 -27.5v-207q0 -20 -10 -27.5t-31 -7.5h-178q-22 0 -30.5 7.5t-8.5 27.5z" />
    <glyph glyph-name="Amacron" unicode="&#x100;" horiz-adv-x="1353" 
d="M74 35q194 794 413 1519q7 24 21 32.5t45 8.5h246q31 0 44.5 -8t20.5 -33q156 -519 416 -1519q5 -19 -1 -27t-26 -8h-188q-19 0 -26.5 6.5t-12.5 24.5l-74 311h-565l-72 -311q-5 -18 -12.5 -24.5t-26.5 -6.5h-176q-20 0 -25.5 8t-0.5 27zM332 1864v118q0 25 26 25h623
q12 0 19.5 -7t7.5 -18v-118q0 -25 -27 -25h-623q-26 0 -26 25zM438 541h463q-97 414 -225 845h-12q-120 -417 -226 -845z" />
    <glyph glyph-name="amacron" unicode="&#x101;" horiz-adv-x="1159" 
d="M82 334v28q0 103 35.5 178t101.5 113q104 58 344 58q88 0 221 -9v91q0 130 -51 184q-60 63 -207 63q-146 0 -319 -47q-29 -7 -29 21v131q0 20 23 29q143 55 350 55q256 0 371 -109q53 -50 76.5 -123.5t23.5 -185.5v-541q0 -115 16 -243q3 -27 -22 -27h-154q-25 0 -33 23
q-12 41 -22 86q-123 -132 -326 -132q-191 0 -295 89.5t-104 267.5zM252 1495v119q0 24 27 24h622q12 0 19.5 -6.5t7.5 -17.5v-119q0 -25 -27 -25h-622q-27 0 -27 25zM322 338q0 -87 51.5 -131.5t142.5 -44.5q174 0 268 102v256q-74 8 -211 8q-58 0 -91 -2.5t-68 -12
t-52.5 -28t-28.5 -51.5t-11 -82v-14z" />
    <glyph glyph-name="Abreve" unicode="&#x102;" horiz-adv-x="1353" 
d="M74 35q194 794 413 1519q7 24 21 32.5t45 8.5h246q31 0 44.5 -8t20.5 -33q156 -519 416 -1519q5 -19 -1 -27t-26 -8h-188q-19 0 -26.5 6.5t-12.5 24.5l-74 311h-565l-72 -311q-5 -18 -12.5 -24.5t-26.5 -6.5h-176q-20 0 -25.5 8t-0.5 27zM356 2044q0 18 17 18h135
q16 0 18 -12q9 -50 46.5 -79t97.5 -29q57 0 92.5 28.5t44.5 79.5q2 12 16 12h144q18 0 18 -18q-6 -120 -94 -186t-221 -66q-136 0 -223 65.5t-91 186.5zM438 541h463q-97 414 -225 845h-12q-120 -417 -226 -845z" />
    <glyph glyph-name="abreve" unicode="&#x103;" horiz-adv-x="1159" 
d="M82 334v28q0 103 35.5 178t101.5 113q104 58 344 58q88 0 221 -9v91q0 130 -51 184q-60 63 -207 63q-146 0 -319 -47q-29 -7 -29 21v131q0 20 23 29q143 55 350 55q256 0 371 -109q53 -50 76.5 -123.5t23.5 -185.5v-541q0 -115 16 -243q3 -27 -22 -27h-154q-25 0 -33 23
q-12 41 -22 86q-123 -132 -326 -132q-191 0 -295 89.5t-104 267.5zM297 1675q0 19 16 19h136q15 0 18 -13q9 -51 46 -79.5t97 -28.5q57 0 93 29t45 79q3 13 16 13h143q19 0 19 -19q-6 -120 -94.5 -186t-221.5 -66q-135 0 -222 65.5t-91 186.5zM322 338q0 -87 51.5 -131.5
t142.5 -44.5q174 0 268 102v256q-74 8 -211 8q-58 0 -91 -2.5t-68 -12t-52.5 -28t-28.5 -51.5t-11 -82v-14z" />
    <glyph glyph-name="Aogonek" unicode="&#x104;" horiz-adv-x="1351" 
d="M74 35q194 794 413 1519q7 24 21 32.5t45 8.5h246q31 0 44.5 -8t20.5 -33q156 -519 416 -1519q6 -27 -10 -35q-94 -43 -146.5 -111t-52.5 -159q0 -121 107 -121q37 0 73 8q22 4 17 -16l-25 -119q-5 -22 -24 -27q-51 -14 -129 -14q-120 0 -187 65t-67 170q0 96 54.5 187
t141.5 141q-51 234 -80 338h-565q-45 -173 -72 -311q-3 -18 -11 -24.5t-28 -6.5h-176q-20 0 -25.5 8t-0.5 27zM438 541h463q-97 414 -225 845h-12q-120 -417 -226 -845z" />
    <glyph glyph-name="aogonek" unicode="&#x105;" horiz-adv-x="1159" 
d="M82 334v28q0 103 35.5 178t101.5 113q104 58 344 58q88 0 221 -9v91q0 130 -51 184q-60 63 -207 63q-146 0 -319 -47q-29 -7 -29 21v131q0 20 23 29q143 55 350 55q256 0 371 -109q53 -50 76.5 -123.5t23.5 -185.5v-541q0 -115 16 -243q3 -20 -16 -31
q-92 -54 -146.5 -123t-54.5 -145q0 -59 30.5 -89t82.5 -30q36 0 72 8q18 4 16 -16l-25 -119q-3 -20 -16 -23q-55 -18 -145 -18q-119 0 -181.5 62.5t-62.5 172.5q0 116 65 206t170 147l-20 80q-123 -132 -326 -132q-191 0 -295 89.5t-104 267.5zM322 338q0 -87 51.5 -131.5
t142.5 -44.5q174 0 268 102v256q-74 8 -211 8q-58 0 -91 -2.5t-68 -12t-52.5 -28t-28.5 -51.5t-11 -82v-14z" />
    <glyph glyph-name="Cacute" unicode="&#x106;" horiz-adv-x="1134" 
d="M119 545v506q0 154 34.5 260.5t110.5 177.5q144 129 424 129q190 0 336 -39q33 -9 33 -41v-156q0 -29 -43 -18q-136 35 -299 35q-170 0 -252 -64q-54 -41 -75 -112.5t-21 -188.5v-475q0 -120 24.5 -195t87.5 -116q80 -51 250 -51q154 0 295 53q22 7 35 1.5t8 -20.5
l-29 -161q-7 -24 -14.5 -34t-26.5 -16q-131 -43 -301 -43q-306 0 -441.5 132t-135.5 436zM486 1748.5q-3 9.5 8 23.5l229 301q19 28 61 28h250q17 0 21.5 -12t-6.5 -21l-291 -296q-33 -33 -80 -33h-170q-19 0 -22 9.5z" />
    <glyph glyph-name="cacute" unicode="&#x107;" horiz-adv-x="1038" 
d="M115 422v358q0 227 128.5 338t368.5 111q161 0 299 -37q21 -6 21 -33v-131q0 -18 -8 -22.5t-25 0.5q-131 30 -256 30q-159 0 -219 -57q-72 -64 -72 -229v-295q0 -143 61 -214t220 -71q152 0 274 39q18 6 28 -0.5t7 -26.5l-18 -121q-3 -19 -10.5 -29t-24.5 -16
q-45 -17 -122 -28t-149 -11q-257 0 -380 108.5t-123 336.5zM397.5 1386.5q1.5 7.5 8.5 16.5l229 301q20 29 61 29h250q17 0 21.5 -12t-6.5 -21l-291 -297q-33 -33 -80 -33h-170q-13 0 -18.5 4.5t-4 12z" />
    <glyph glyph-name="Ccircumflex" unicode="&#x108;" horiz-adv-x="1134" 
d="M119 545v506q0 154 34.5 260.5t110.5 177.5q144 129 424 129q190 0 336 -39q33 -9 33 -41v-156q0 -29 -43 -18q-136 35 -299 35q-170 0 -252 -64q-54 -41 -75 -112.5t-21 -188.5v-475q0 -120 24.5 -195t87.5 -116q80 -51 250 -51q154 0 295 53q22 7 35 1.5t8 -20.5
l-29 -161q-7 -24 -14.5 -34t-26.5 -16q-131 -43 -301 -43q-306 0 -441.5 132t-135.5 436zM311 1815q-2 11 6 20l215 260q11 14 37 14h219q26 0 37 -14l215 -260q8 -9 6.5 -20t-14.5 -17l-110 -61q-29 -14 -45 2l-189 203h-18l-189 -203q-16 -16 -45 -2l-110 61q-13 6 -15 17
z" />
    <glyph glyph-name="ccircumflex" unicode="&#x109;" horiz-adv-x="1038" 
d="M115 422v358q0 227 128.5 338t368.5 111q161 0 299 -37q21 -6 21 -33v-131q0 -18 -8 -22.5t-25 0.5q-131 30 -256 30q-159 0 -219 -57q-72 -64 -72 -229v-295q0 -143 61 -214t220 -71q152 0 274 39q18 6 28 -0.5t7 -26.5l-18 -121q-3 -19 -10.5 -29t-24.5 -16
q-45 -17 -122 -28t-149 -11q-257 0 -380 108.5t-123 336.5zM240 1466l215 260q12 15 37 15h219q25 0 37 -15l215 -260q18 -21 -9 -36l-110 -62q-29 -14 -45 2l-189 203h-18l-189 -203q-16 -16 -45 -2l-110 62q-25 16 -8 36z" />
    <glyph glyph-name="Cdotaccent" unicode="&#x10a;" horiz-adv-x="1134" 
d="M119 545v506q0 154 34.5 260.5t110.5 177.5q144 129 424 129q190 0 336 -39q33 -9 33 -41v-156q0 -29 -43 -18q-136 35 -299 35q-170 0 -252 -64q-54 -41 -75 -112.5t-21 -188.5v-475q0 -120 24.5 -195t87.5 -116q80 -51 250 -51q154 0 295 53q22 7 35 1.5t8 -20.5
l-29 -161q-7 -24 -14.5 -34t-26.5 -16q-131 -43 -301 -43q-306 0 -441.5 132t-135.5 436zM549 1835v209q0 19 8.5 26t30.5 7h186q41 0 41 -33v-209q0 -35 -41 -35h-186q-22 0 -30.5 8t-8.5 27z" />
    <glyph glyph-name="cdotaccent" unicode="&#x10b;" horiz-adv-x="1038" 
d="M115 422v358q0 227 128.5 338t368.5 111q161 0 299 -37q21 -6 21 -33v-131q0 -18 -8 -22.5t-25 0.5q-131 30 -256 30q-159 0 -219 -57q-72 -64 -72 -229v-295q0 -143 61 -214t220 -71q152 0 274 39q18 6 28 -0.5t7 -26.5l-18 -121q-3 -19 -10.5 -29t-24.5 -16
q-45 -17 -122 -28t-149 -11q-257 0 -380 108.5t-123 336.5zM479 1466v209q0 19 8.5 26t30.5 7h187q40 0 40 -33v-209q0 -34 -40 -34h-187q-22 0 -30.5 7.5t-8.5 26.5z" />
    <glyph glyph-name="Ccaron" unicode="&#x10c;" horiz-adv-x="1134" 
d="M119 545v506q0 154 34.5 260.5t110.5 177.5q144 129 424 129q190 0 336 -39q33 -9 33 -41v-156q0 -29 -43 -18q-136 35 -299 35q-170 0 -252 -64q-54 -41 -75 -112.5t-21 -188.5v-475q0 -120 24.5 -195t87.5 -116q80 -51 250 -51q154 0 295 53q22 7 35 1.5t8 -20.5
l-29 -161q-7 -24 -14.5 -34t-26.5 -16q-131 -43 -301 -43q-306 0 -441.5 132t-135.5 436zM319.5 2023q1.5 11 14.5 17l110 61q29 14 45 -2l189 -203h18l189 203q16 16 45 2l110 -61q13 -6 15 -17t-6 -20l-215 -260q-11 -14 -37 -14h-219q-26 0 -37 14l-215 260q-8 9 -6.5 20
z" />
    <glyph glyph-name="ccaron" unicode="&#x10d;" horiz-adv-x="1038" 
d="M115 422v358q0 227 128.5 338t368.5 111q161 0 299 -37q21 -6 21 -33v-131q0 -18 -8 -22.5t-25 0.5q-131 30 -256 30q-159 0 -219 -57q-72 -64 -72 -229v-295q0 -143 61 -214t220 -71q152 0 274 39q18 6 28 -0.5t7 -26.5l-18 -121q-3 -19 -10.5 -29t-24.5 -16
q-45 -17 -122 -28t-149 -11q-257 0 -380 108.5t-123 336.5zM245.5 1654q1.5 11 14.5 17l111 62q29 14 45 -2l188 -203h19l188 203q16 16 45 2l111 -62q13 -6 14.5 -17t-6.5 -20l-215 -260q-11 -14 -37 -14h-219q-26 0 -37 14l-215 260q-8 9 -6.5 20z" />
    <glyph glyph-name="Dcaron" unicode="&#x10e;" horiz-adv-x="1400" 
d="M160 31v1532q0 17 8.5 24.5t28.5 7.5h438q346 0 496.5 -162t150.5 -524v-184q0 -188 -34.5 -321.5t-111 -225t-199.5 -135t-298 -43.5h-442q-37 0 -37 31zM270 2023q2 11 15 17l110 61q29 14 45 -2l189 -203h18l189 203q16 16 45 2l110 -61q13 -6 14.5 -17t-6.5 -20
l-215 -260q-11 -14 -36 -14h-220q-25 0 -36 14l-216 260q-8 9 -6 20zM408 211h227q66 0 118.5 7.5t92.5 25.5t69.5 41t50 60.5t33 76.5t19.5 97t9.5 115t2.5 136v98q0 107 -9.5 183t-34.5 142.5t-68.5 106.5t-112.5 62t-166 22h-231v-1173z" />
    <glyph glyph-name="dcaron" unicode="&#x10f;" horiz-adv-x="1443" 
d="M115 434v342q0 132 30.5 214.5t92.5 137.5q54 48 138 74.5t167 26.5q191 0 323 -84v446q0 25 25 31l174 29q37 6 37 -25v-1294q0 -162 20 -309q1 -13 -5 -18t-23 -5h-154q-30 0 -39 29q-11 31 -20 82q-57 -63 -143.5 -98.5t-180.5 -35.5q-205 0 -321 101
q-64 58 -92.5 142t-28.5 214zM352 465q0 -92 11 -142.5t47 -86.5q55 -58 184 -58q68 0 140 26.5t132 71.5v678q-109 74 -270 74q-123 0 -184 -55q-35 -32 -47.5 -88.5t-12.5 -151.5v-268zM1233 1251l125 365q14 37 57 37h164q21 0 27 -12t-2 -29l-168 -367q-13 -31 -58 -31
h-121q-37 0 -24 37z" />
    <glyph glyph-name="Dcroat" unicode="&#x110;" horiz-adv-x="1400" 
d="M-37 729v137q0 20 7 27.5t30 7.5h160v662q0 17 8.5 24.5t28.5 7.5h438q346 0 496.5 -162t150.5 -524v-184q0 -188 -34.5 -321.5t-111 -225t-199.5 -135t-298 -43.5h-442q-37 0 -37 31v663h-160q-22 0 -29.5 7.5t-7.5 27.5zM408 211h227q66 0 118.5 7.5t92.5 25.5t69.5 41
t50 60.5t33 76.5t19.5 97t9.5 115t2.5 136v98q0 107 -9.5 183t-34.5 142.5t-68.5 106.5t-112.5 62t-166 22h-231v-483h213q36 0 36 -35v-137q0 -19 -7.5 -27t-28.5 -8h-213v-483z" />
    <glyph glyph-name="dcroat" unicode="&#x111;" horiz-adv-x="1259" 
d="M115 434v342q0 132 30.5 214.5t92.5 137.5q54 48 138 74.5t167 26.5q191 0 323 -84v162h-204q-23 0 -23 22v135q0 23 23 23h204v104q0 25 25 31l174 29q37 6 37 -25v-139h117q22 0 22 -23v-135q0 -22 -22 -22h-117v-975q0 -162 20 -309q1 -13 -5 -18t-23 -5h-154
q-30 0 -39 29q-11 31 -20 82q-57 -63 -143.5 -98.5t-180.5 -35.5q-205 0 -321 101q-64 58 -92.5 142t-28.5 214zM352 465q0 -92 11 -142.5t47 -86.5q55 -58 184 -58q68 0 140 26.5t132 71.5v678q-109 74 -270 74q-123 0 -184 -55q-35 -32 -47.5 -88.5t-12.5 -151.5v-268z
" />
    <glyph glyph-name="Emacron" unicode="&#x112;" horiz-adv-x="1173" 
d="M160 27v1542q0 26 30 26h846q31 0 31 -26l-23 -166q0 -27 -30 -27h-606v-465h550q31 0 31 -26l-22 -166q0 -27 -29 -27h-530v-473h624q29 0 29 -26l-21 -166q0 -27 -30 -27h-820q-30 0 -30 27zM268 1864v118q0 25 27 25h623q12 0 19 -7t7 -18v-118q0 -25 -26 -25h-623
q-27 0 -27 25z" />
    <glyph glyph-name="emacron" unicode="&#x113;" horiz-adv-x="1167" 
d="M115 446v297q0 229 127.5 357.5t365.5 128.5q213 0 335 -120.5t122 -336.5v-186q0 -32 -12.5 -47t-42.5 -15h-660v-73q0 -145 74.5 -213t234.5 -68q181 0 304 47q18 6 26.5 -0.5t5.5 -26.5l-16 -120q-3 -19 -10.5 -29t-24.5 -16q-45 -20 -137.5 -34t-169.5 -14
q-259 0 -390.5 111.5t-131.5 357.5zM246 1495v119q0 24 26 24h623q12 0 19.5 -6.5t7.5 -17.5v-119q0 -25 -27 -25h-623q-26 0 -26 25zM350 700h477v84q0 131 -51.5 200t-171.5 69q-254 0 -254 -283v-70z" />
    <glyph glyph-name="Ebreve" unicode="&#x114;" horiz-adv-x="1173" 
d="M160 27v1542q0 26 30 26h846q31 0 31 -26l-23 -166q0 -27 -30 -27h-606v-465h550q31 0 31 -26l-22 -166q0 -27 -29 -27h-530v-473h624q29 0 29 -26l-21 -166q0 -27 -30 -27h-820q-30 0 -30 27zM311 2044q0 18 17 18h135q16 0 18 -12q9 -50 46.5 -79t97.5 -29
q57 0 92.5 28.5t44.5 79.5q2 12 16 12h144q18 0 18 -18q-6 -120 -94 -186t-221 -66q-136 0 -223 65.5t-91 186.5z" />
    <glyph glyph-name="ebreve" unicode="&#x115;" horiz-adv-x="1167" 
d="M115 446v297q0 229 127.5 357.5t365.5 128.5q213 0 335 -120.5t122 -336.5v-186q0 -32 -12.5 -47t-42.5 -15h-660v-73q0 -145 74.5 -213t234.5 -68q181 0 304 47q18 6 26.5 -0.5t5.5 -26.5l-16 -120q-3 -19 -10.5 -29t-24.5 -16q-45 -20 -137.5 -34t-169.5 -14
q-259 0 -390.5 111.5t-131.5 357.5zM268 1675q0 8 5 13.5t12 5.5h135q15 0 18 -13q9 -50 46.5 -79t97.5 -29q57 0 92.5 28.5t44.5 79.5q3 13 16 13h144q18 0 18 -19q-6 -120 -94 -186t-221 -66q-136 0 -223 65.5t-91 186.5zM350 700h477v84q0 131 -51.5 200t-171.5 69
q-254 0 -254 -283v-70z" />
    <glyph glyph-name="Edotaccent" unicode="&#x116;" horiz-adv-x="1173" 
d="M160 27v1542q0 26 30 26h846q31 0 31 -26l-23 -166q0 -27 -30 -27h-606v-465h550q31 0 31 -26l-22 -166q0 -27 -29 -27h-530v-473h624q29 0 29 -26l-21 -166q0 -27 -30 -27h-820q-30 0 -30 27zM504 1835v209q0 19 8.5 26t30.5 7h186q41 0 41 -33v-209q0 -35 -41 -35h-186
q-22 0 -30.5 8t-8.5 27z" />
    <glyph glyph-name="edotaccent" unicode="&#x117;" horiz-adv-x="1167" 
d="M115 446v297q0 229 127.5 357.5t365.5 128.5q213 0 335 -120.5t122 -336.5v-186q0 -32 -12.5 -47t-42.5 -15h-660v-73q0 -145 74.5 -213t234.5 -68q181 0 304 47q18 6 26.5 -0.5t5.5 -26.5l-16 -120q-3 -19 -10.5 -29t-24.5 -16q-45 -20 -137.5 -34t-169.5 -14
q-259 0 -390.5 111.5t-131.5 357.5zM350 700h477v84q0 131 -51.5 200t-171.5 69q-254 0 -254 -283v-70zM451 1466v209q0 19 8 26t30 7h187q41 0 41 -33v-209q0 -34 -41 -34h-187q-22 0 -30 7.5t-8 26.5z" />
    <glyph glyph-name="Eogonek" unicode="&#x118;" horiz-adv-x="1173" 
d="M160 27v1542q0 26 30 26h848q32 0 29 -26l-23 -166q-2 -15 -8 -21t-22 -6h-606v-465h550q34 0 31 -26l-22 -166q-3 -27 -29 -27h-530v-473h624q32 0 29 -26l-21 -166q-3 -23 -26 -33q-87 -39 -139 -109t-52 -164q0 -58 26.5 -85t84.5 -27q34 0 70 8q21 4 16 -16l-25 -119
q-5 -22 -24 -27q-51 -14 -129 -14q-123 0 -188.5 62t-65.5 178q0 99 44 180.5t120 138.5h-562q-30 0 -30 27z" />
    <glyph glyph-name="eogonek" unicode="&#x119;" horiz-adv-x="1167" 
d="M115 446v297q0 229 127.5 357.5t365.5 128.5q213 0 335 -120.5t122 -336.5v-186q0 -32 -12.5 -47t-42.5 -15h-660v-73q0 -145 74.5 -213t234.5 -68q181 0 304 47q18 6 26.5 -0.5t5.5 -26.5l-16 -120q-5 -28 -29 -43q-223 -140 -223 -306q0 -112 113 -112q35 0 71 8
q9 2 13.5 -1.5t3.5 -14.5l-25 -119q-3 -20 -16 -23q-56 -18 -142 -18q-109 0 -178 66.5t-69 179.5q0 173 157 290h-18q-259 0 -390.5 111.5t-131.5 357.5zM350 700h477v84q0 131 -51.5 200t-171.5 69q-254 0 -254 -283v-70z" />
    <glyph glyph-name="Ecaron" unicode="&#x11a;" horiz-adv-x="1173" 
d="M160 27v1542q0 26 30 26h846q31 0 31 -26l-23 -166q0 -27 -30 -27h-606v-465h550q31 0 31 -26l-22 -166q0 -27 -29 -27h-530v-473h624q29 0 29 -26l-21 -166q0 -27 -30 -27h-820q-30 0 -30 27zM255.5 2023q1.5 11 14.5 17l111 61q29 14 45 -2l188 -203h19l188 203
q16 16 45 2l111 -61q13 -6 14.5 -17t-6.5 -20l-215 -260q-11 -14 -37 -14h-219q-26 0 -37 14l-215 260q-8 9 -6.5 20z" />
    <glyph glyph-name="ecaron" unicode="&#x11b;" horiz-adv-x="1167" 
d="M115 446v297q0 229 127.5 357.5t365.5 128.5q213 0 335 -120.5t122 -336.5v-186q0 -32 -12.5 -47t-42.5 -15h-660v-73q0 -145 74.5 -213t234.5 -68q181 0 304 47q18 6 26.5 -0.5t5.5 -26.5l-16 -120q-3 -19 -10.5 -29t-24.5 -16q-45 -20 -137.5 -34t-169.5 -14
q-259 0 -390.5 111.5t-131.5 357.5zM214.5 1654q1.5 11 14.5 17l111 62q29 14 45 -2l188 -203h19l188 203q16 16 45 2l111 -62q13 -6 14.5 -17t-6.5 -20l-215 -260q-11 -14 -37 -14h-219q-26 0 -37 14l-215 260q-8 9 -6.5 20zM350 700h477v84q0 131 -51.5 200t-171.5 69
q-254 0 -254 -283v-70z" />
    <glyph glyph-name="Gcircumflex" unicode="&#x11c;" horiz-adv-x="1323" 
d="M119 522v527q0 296 146 432.5t474 136.5q172 0 351 -39q15 -3 23.5 -14.5t8.5 -26.5v-152q0 -15 -7 -19.5t-25 -0.5q-161 37 -336 37q-217 0 -302 -81t-85 -286v-491q0 -190 69 -262q43 -46 107 -66t168 -20q124 0 241 20v432h-233q-16 0 -22.5 6.5t-8.5 20.5l-20 166
q-3 26 32 26h469q31 0 31 -26v-711q0 -40 -9 -57t-44 -31q-66 -26 -197 -46t-237 -20q-218 0 -349 59.5t-188 177t-57 308.5zM329.5 1815q-1.5 11 6.5 20l215 260q11 14 37 14h219q26 0 37 -14l215 -260q8 -9 6.5 -20t-14.5 -17l-111 -61q-29 -14 -45 2l-188 203h-19
l-188 -203q-16 -16 -45 -2l-111 61q-13 6 -14.5 17z" />
    <glyph glyph-name="gcircumflex" unicode="&#x11d;" horiz-adv-x="1247" 
d="M117 453v323q0 131 31 213.5t92 138.5q113 101 311 101q187 0 330 -107l10 58q3 26 24 26h160q27 0 27 -26v-1104q0 -238 -116.5 -374t-352.5 -136q-162 0 -268 28q-27 9 -33 37l-33 138q-3 12 4 17.5t21 2.5q148 -33 274 -33q142 0 210.5 76.5t68.5 200.5v67
q-51 -55 -135.5 -89t-180.5 -34q-115 0 -205 34.5t-141 94.5q-98 113 -98 347zM262 1466l215 260q12 15 37 15h219q25 0 37 -15l215 -260q18 -22 -8 -36l-111 -62q-29 -14 -45 2l-188 203h-19l-188 -203q-16 -16 -45 -2l-111 62q-25 16 -8 36zM352 483q0 -166 51 -231
q58 -74 199 -74q65 0 138.5 24.5t125.5 67.5v678q-119 80 -264 80q-129 0 -190 -55q-35 -32 -47.5 -88.5t-12.5 -151.5v-250z" />
    <glyph glyph-name="Gbreve" unicode="&#x11e;" horiz-adv-x="1323" 
d="M119 522v527q0 296 146 432.5t474 136.5q172 0 351 -39q15 -3 23.5 -14.5t8.5 -26.5v-152q0 -15 -7 -19.5t-25 -0.5q-161 37 -336 37q-217 0 -302 -81t-85 -286v-491q0 -190 69 -262q43 -46 107 -66t168 -20q124 0 241 20v432h-233q-16 0 -22.5 6.5t-8.5 20.5l-20 166
q-3 26 32 26h469q31 0 31 -26v-711q0 -40 -9 -57t-44 -31q-66 -26 -197 -46t-237 -20q-218 0 -349 59.5t-188 177t-57 308.5zM412 2044q0 18 16 18h135q17 0 19 -12q9 -51 46 -79.5t97 -28.5q57 0 92.5 28.5t44.5 79.5q2 12 17 12h143q18 0 18 -18q-6 -120 -94 -186
t-221 -66q-135 0 -222 65.5t-91 186.5z" />
    <glyph glyph-name="gbreve" unicode="&#x11f;" horiz-adv-x="1247" 
d="M117 453v323q0 131 31 213.5t92 138.5q113 101 311 101q187 0 330 -107l10 58q3 26 24 26h160q27 0 27 -26v-1104q0 -238 -116.5 -374t-352.5 -136q-162 0 -268 28q-27 9 -33 37l-33 138q-3 12 4 17.5t21 2.5q148 -33 274 -33q142 0 210.5 76.5t68.5 200.5v67
q-51 -55 -135.5 -89t-180.5 -34q-115 0 -205 34.5t-141 94.5q-98 113 -98 347zM309 1675q0 8 5 13.5t12 5.5h135q15 0 18 -13q9 -50 46.5 -79t97.5 -29q57 0 92.5 28.5t44.5 79.5q3 13 16 13h144q18 0 18 -19q-6 -120 -94 -186t-221 -66q-136 0 -223 65.5t-91 186.5z
M352 483q0 -166 51 -231q58 -74 199 -74q65 0 138.5 24.5t125.5 67.5v678q-119 80 -264 80q-129 0 -190 -55q-35 -32 -47.5 -88.5t-12.5 -151.5v-250z" />
    <glyph glyph-name="Gdotaccent" unicode="&#x120;" horiz-adv-x="1323" 
d="M119 522v527q0 296 146 432.5t474 136.5q172 0 351 -39q15 -3 23.5 -14.5t8.5 -26.5v-152q0 -15 -7 -19.5t-25 -0.5q-161 37 -336 37q-217 0 -302 -81t-85 -286v-491q0 -190 69 -262q43 -46 107 -66t168 -20q124 0 241 20v432h-233q-16 0 -22.5 6.5t-8.5 20.5l-20 166
q-3 26 32 26h469q31 0 31 -26v-711q0 -40 -9 -57t-44 -31q-66 -26 -197 -46t-237 -20q-218 0 -349 59.5t-188 177t-57 308.5zM608 1835v209q0 19 8.5 26t30.5 7h187q40 0 40 -33v-209q0 -35 -40 -35h-187q-22 0 -30.5 8t-8.5 27z" />
    <glyph glyph-name="gdotaccent" unicode="&#x121;" horiz-adv-x="1247" 
d="M117 453v323q0 131 31 213.5t92 138.5q113 101 311 101q187 0 330 -107l10 58q3 26 24 26h160q27 0 27 -26v-1104q0 -238 -116.5 -374t-352.5 -136q-162 0 -268 28q-27 9 -33 37l-33 138q-3 12 4 17.5t21 2.5q148 -33 274 -33q142 0 210.5 76.5t68.5 200.5v67
q-51 -55 -135.5 -89t-180.5 -34q-115 0 -205 34.5t-141 94.5q-98 113 -98 347zM352 483q0 -166 51 -231q58 -74 199 -74q65 0 138.5 24.5t125.5 67.5v678q-119 80 -264 80q-129 0 -190 -55q-35 -32 -47.5 -88.5t-12.5 -151.5v-250zM489 1466v209q0 19 8.5 26t30.5 7h187
q41 0 41 -33v-209q0 -34 -41 -34h-187q-22 0 -30.5 7.5t-8.5 26.5z" />
    <glyph glyph-name="Gcommaaccent" unicode="&#x122;" horiz-adv-x="1323" 
d="M119 522v527q0 296 146 432.5t474 136.5q172 0 351 -39q15 -3 23.5 -14.5t8.5 -26.5v-152q0 -15 -7 -19.5t-25 -0.5q-161 37 -336 37q-217 0 -302 -81t-85 -286v-491q0 -190 69 -262q43 -46 107 -66t168 -20q124 0 241 20v432h-233q-16 0 -22.5 6.5t-8.5 20.5l-20 166
q-3 26 32 26h469q31 0 31 -26v-711q0 -40 -9 -57t-44 -31q-66 -26 -197 -46t-237 -20q-218 0 -349 59.5t-188 177t-57 308.5zM580 -596q32 122 32 270v115q0 47 50 47h139q26 0 37.5 -11t11.5 -36v-80q0 -167 -70 -307q-17 -39 -59 -39h-109q-43 0 -32 41z" />
    <glyph glyph-name="gcommaaccent" unicode="&#x123;" horiz-adv-x="1247" 
d="M117 453v323q0 131 31 213.5t92 138.5q113 101 311 101q187 0 330 -107l10 58q3 26 24 26h160q27 0 27 -26v-1104q0 -238 -116.5 -374t-352.5 -136q-162 0 -268 28q-27 9 -33 37l-33 138q-3 12 4 17.5t21 2.5q148 -33 274 -33q142 0 210.5 76.5t68.5 200.5v67
q-51 -55 -135.5 -89t-180.5 -34q-115 0 -205 34.5t-141 94.5q-98 113 -98 347zM352 483q0 -166 51 -231q58 -74 199 -74q65 0 138.5 24.5t125.5 67.5v678q-119 80 -264 80q-129 0 -190 -55q-35 -32 -47.5 -88.5t-12.5 -151.5v-250zM498 1462v80q0 169 69 307q17 39 60 39
h108q44 0 33 -41q-33 -125 -33 -270v-115q0 -25 -11.5 -36t-37.5 -11h-139q-26 0 -37.5 11t-11.5 36z" />
    <glyph glyph-name="Hcircumflex" unicode="&#x124;" horiz-adv-x="1411" 
d="M160 27v1542q0 26 30 26h187q31 0 31 -26v-658h596v658q0 26 30 26h187q30 0 30 -26v-1542q0 -27 -30 -27h-187q-30 0 -30 27v667h-596v-667q0 -27 -31 -27h-187q-30 0 -30 27zM337.5 1815q-1.5 11 6.5 20l215 260q11 14 37 14h219q26 0 37 -14l215 -260q8 -9 6.5 -20
t-14.5 -17l-111 -61q-29 -14 -45 2l-188 203h-19l-188 -203q-16 -16 -45 -2l-111 61q-13 6 -14.5 17z" />
    <glyph glyph-name="hcircumflex" unicode="&#x125;" horiz-adv-x="1277" 
d="M-82 1837l215 260q11 14 37 14h219q26 0 37 -14l215 -260q19 -22 -8 -37l-111 -61q-29 -14 -45 2l-188 203h-19l-188 -203q-16 -16 -45 -2l-111 61q-26 16 -8 37zM154 27v1564q0 26 24 31l174 29q37 6 37 -25v-491q147 94 342 94q204 0 303 -98t99 -306v-798
q0 -27 -27 -27h-184q-25 0 -25 27v733q0 97 -10 138.5t-47 76.5q-58 53 -187 53q-131 0 -264 -70v-931q0 -27 -29 -27h-182q-24 0 -24 27z" />
    <glyph glyph-name="Hbar" unicode="&#x126;" horiz-adv-x="1558" 
d="M37 1165v138q0 20 6.5 27t30.5 7h159v232q0 26 31 26h187q30 0 30 -26v-232h596v232q0 26 31 26h186q31 0 31 -26v-232h160q37 0 37 -34v-138q0 -19 -8 -27t-29 -8h-160v-1103q0 -27 -31 -27h-186q-31 0 -31 27v667h-596v-667q0 -27 -30 -27h-187q-31 0 -31 27v1103h-159
q-22 0 -29.5 7.5t-7.5 27.5zM481 911h596v219h-596v-219z" />
    <glyph glyph-name="hbar" unicode="&#x127;" horiz-adv-x="1277" 
d="M14 1329v135q0 23 23 23h117v104q0 26 24 31l174 29q37 6 37 -25v-139h205q22 0 22 -23v-135q0 -22 -22 -22h-205v-172q147 94 342 94q204 0 303 -98t99 -306v-798q0 -27 -27 -27h-184q-25 0 -25 27v733q0 97 -10 138.5t-47 76.5q-58 53 -187 53q-131 0 -264 -70v-931
q0 -27 -29 -27h-182q-24 0 -24 27v1280h-117q-23 0 -23 22z" />
    <glyph glyph-name="Itilde" unicode="&#x128;" horiz-adv-x="927" 
d="M66 1882q39 89 108.5 142t151.5 53q43 0 76.5 -12.5t78.5 -41.5l33 -20q2 -1 13.5 -8t14 -8t11.5 -6t13 -6t11.5 -3.5t13.5 -3t13 -0.5q59 0 109 86q10 17 37 4l104 -57q18 -13 12 -29q-36 -87 -105 -140.5t-153 -53.5q-82 0 -155 47l-39 24q-56 35 -92 35t-63.5 -19
t-51.5 -65q-14 -21 -41 -8l-92 53q-19 13 -8 37zM135 18v158q0 19 21 19h184v1206h-184q-21 0 -21 18v158q0 18 21 18h620q21 0 21 -18l-19 -158q0 -18 -18 -18h-172v-1206h184q21 0 21 -19v-158q0 -18 -21 -18h-616q-21 0 -21 18z" />
    <glyph glyph-name="itilde" unicode="&#x129;" horiz-adv-x="550" 
d="M-123 1513q39 89 108.5 142t151.5 53q43 0 77.5 -12.5t78.5 -40.5l33 -21q2 -1 13.5 -8t14 -8t11.5 -6t13 -6t11.5 -3.5t13.5 -3t13 -0.5q58 0 108 87q10 17 37 4l105 -58q18 -13 12 -28q-36 -87 -105 -141t-153 -54q-83 0 -156 47l-39 25q-56 35 -92 35q-37 0 -64 -19
t-51 -65q-15 -22 -41 -9l-92 54q-19 12 -8 36zM158 27v1153q0 26 26 26h181q28 0 28 -26v-1153q0 -27 -28 -27h-181q-26 0 -26 27z" />
    <glyph glyph-name="Imacron" unicode="&#x12a;" horiz-adv-x="927" 
d="M125 1864v118q0 25 27 25h622q12 0 19.5 -7t7.5 -18v-118q0 -25 -27 -25h-622q-27 0 -27 25zM135 18v158q0 19 21 19h184v1206h-184q-21 0 -21 18v158q0 18 21 18h620q21 0 21 -18l-19 -158q0 -18 -18 -18h-172v-1206h184q21 0 21 -19v-158q0 -18 -21 -18h-616
q-21 0 -21 18z" />
    <glyph glyph-name="imacron" unicode="&#x12b;" horiz-adv-x="550" 
d="M-61 1495v119q0 24 26 24h623q26 0 26 -24v-119q0 -25 -26 -25h-623q-26 0 -26 25zM158 27v1153q0 26 26 26h181q28 0 28 -26v-1153q0 -27 -28 -27h-181q-26 0 -26 27z" />
    <glyph glyph-name="Ibreve" unicode="&#x12c;" horiz-adv-x="927" 
d="M135 18v158q0 19 21 19h184v1206h-184q-21 0 -21 18v158q0 18 21 18h620q21 0 21 -18l-19 -158q0 -18 -18 -18h-172v-1206h184q21 0 21 -19v-158q0 -18 -21 -18h-616q-21 0 -21 18zM150 2044q0 18 16 18h135q16 0 18 -12q9 -50 46.5 -79t97.5 -29q57 0 92.5 28.5
t44.5 79.5q2 12 16 12h144q18 0 18 -18q-6 -120 -94 -186t-221 -66q-135 0 -222 65.5t-91 186.5z" />
    <glyph glyph-name="ibreve" unicode="&#x12d;" horiz-adv-x="550" 
d="M-39 1675q0 19 16 19h136q15 0 18 -13q9 -51 46 -79.5t97 -28.5q57 0 93 29t45 79q3 13 16 13h143q19 0 19 -19q-6 -120 -94.5 -186t-221.5 -66q-135 0 -222 65.5t-91 186.5zM158 27v1153q0 26 26 26h181q28 0 28 -26v-1153q0 -27 -28 -27h-181q-26 0 -26 27z" />
    <glyph glyph-name="Iogonek" unicode="&#x12e;" horiz-adv-x="927" 
d="M135 18v158q0 19 21 19h184v1206h-184q-21 0 -21 18v158q0 18 21 18h622q22 0 19 -20l-19 -154q-3 -20 -24 -20h-166v-1206h184q21 0 21 -19v-158q0 -18 -21 -18h-205q-61 -52 -95 -125t-34 -147q0 -119 111 -119q33 0 69 8q22 4 17 -16l-25 -119q-5 -22 -24 -27
q-51 -14 -119 -14q-126 0 -195 66t-69 196q0 77 43 159t108 138h-198q-21 0 -21 18z" />
    <glyph glyph-name="iogonek" unicode="&#x12f;" horiz-adv-x="550" 
d="M-55 -317q0 98 57.5 184t155.5 147v1166q0 26 26 26h181q28 0 28 -26v-1153q0 -21 -26 -35q-83 -45 -138 -116.5t-55 -147.5q0 -59 30.5 -89t82.5 -30q35 0 71 8q9 2 13.5 -1.5t3.5 -14.5l-25 -119q-3 -20 -16 -23q-56 -18 -135 -18q-120 0 -187 68t-67 174zM158 1380
v183q0 27 26 30l174 27q35 6 35 -25v-215q0 -26 -26 -26h-183q-26 0 -26 26z" />
    <glyph glyph-name="Idotaccent" unicode="&#x130;" horiz-adv-x="927" 
d="M135 18v158q0 19 21 19h184v1206h-184q-21 0 -21 18v158q0 18 21 18h620q21 0 21 -18l-19 -158q0 -18 -18 -18h-172v-1206h184q21 0 21 -19v-158q0 -18 -21 -18h-616q-21 0 -21 18zM330 1835v209q0 19 8.5 26t30.5 7h186q41 0 41 -33v-209q0 -35 -41 -35h-186
q-22 0 -30.5 8t-8.5 27z" />
    <glyph glyph-name="dotlessi" unicode="&#x131;" horiz-adv-x="550" 
d="M158 27v1153q0 26 26 26h181q28 0 28 -26v-1153q0 -27 -28 -27h-181q-26 0 -26 27z" />
    <glyph glyph-name="IJ" unicode="&#x132;" horiz-adv-x="1779" 
d="M135 18v158q0 19 21 19h184v1206h-184q-21 0 -21 18v158q0 18 21 18h620q21 0 21 -18l-19 -158q0 -18 -18 -18h-172v-1206h184q21 0 21 -19v-158q0 -18 -21 -18h-616q-21 0 -21 18zM1008 170q-3 15 4.5 22.5t21.5 4.5q63 -13 107 -13q131 0 178 49q21 22 33.5 49t17.5 76
t5.5 80t0.5 113v1018q0 26 31 26h186q31 0 31 -26v-1049q0 -83 -2.5 -133.5t-13 -112.5t-34 -109.5t-61.5 -86.5q-46 -46 -123 -73.5t-165 -27.5q-82 0 -152 13q-12 2 -19 7.5t-9.5 11t-4.5 16.5z" />
    <glyph glyph-name="ij" unicode="&#x133;" horiz-adv-x="1095" 
d="M158 27v1153q0 26 26 26h181q28 0 28 -26v-1153q0 -27 -28 -27h-181q-26 0 -26 27zM158 1380v183q0 27 26 30l174 27q35 6 35 -25v-215q0 -26 -26 -26h-183q-26 0 -26 26zM391 -252q-4 13 4 20.5t21 4.5q83 -17 141 -17q85 0 123 49q29 38 29 156v1219q0 26 26 26h183
q26 0 26 -26v-1196q0 -176 -47 -265q-41 -79 -117.5 -116t-163.5 -37q-97 0 -163 16q-18 4 -25 12.5t-10 24.5zM709 1380v183q0 27 26 30l174 27q35 6 35 -25v-215q0 -26 -26 -26h-183q-26 0 -26 26z" />
    <glyph glyph-name="Jcircumflex" unicode="&#x134;" horiz-adv-x="851" 
d="M80 170q-3 15 4.5 22.5t21.5 4.5q63 -13 107 -13q131 0 178 49q21 22 33.5 49.5t17.5 75t6 81t1 112.5v1018q0 26 30 26h187q30 0 30 -26v-1049q0 -84 -2.5 -133.5t-12.5 -112t-33.5 -110t-61.5 -86.5q-46 -46 -123.5 -73.5t-165.5 -27.5q-82 0 -152 13q-17 3 -22.5 10.5
t-9.5 24.5zM206.5 1815q-1.5 11 6.5 20l215 260q11 14 37 14h219q26 0 37 -14l215 -260q8 -9 6.5 -20t-14.5 -17l-111 -61q-29 -14 -45 2l-188 203h-19l-188 -203q-16 -16 -45 -2l-111 61q-13 6 -14.5 17z" />
    <glyph glyph-name="jcircumflex" unicode="&#x135;" horiz-adv-x="544" 
d="M-160 -252q-4 13 4 20.5t21 4.5q83 -17 141 -17q85 0 123 49q29 38 29 156v1219q0 26 26 26h183q26 0 26 -26v-1196q0 -176 -47 -265q-41 -79 -117 -116t-163 -37q-98 0 -164 16q-18 4 -25 12.5t-10 24.5zM-88 1466l215 260q12 15 37 15h219q25 0 37 -15l215 -260
q18 -22 -8 -36l-111 -62q-29 -14 -45 2l-188 203h-19l-188 -203q-16 -16 -45 -2l-111 62q-25 16 -8 36z" />
    <glyph glyph-name="Kcommaaccent" unicode="&#x136;" horiz-adv-x="1335" 
d="M160 27v1542q0 26 30 26h187q31 0 31 -26v-664h165q218 344 381 660q10 18 22.5 24t37.5 6h188q39 0 23 -32q-196 -357 -459 -760q276 -391 506 -768q10 -15 4.5 -25t-25.5 -10h-204q-44 0 -64 33q-159 273 -397 616q-14 22 -30.5 29.5t-45.5 7.5h-102v-659
q0 -27 -33 -27h-185q-30 0 -30 27zM524 -596q33 125 33 270v115q0 25 11.5 36t37.5 11h139q50 0 50 -47v-80q0 -167 -70 -307q-17 -39 -59 -39h-109q-44 0 -33 41z" />
    <glyph glyph-name="kcommaaccent" unicode="&#x137;" horiz-adv-x="1146" 
d="M154 27v1564q0 26 24 31l174 29q37 6 37 -25v-876h131q168 211 301 424q21 32 68 32h180q17 0 21 -12t-7 -27q-188 -290 -374 -522q177 -241 397 -604q12 -22 7.5 -31.5t-28.5 -9.5h-180q-47 0 -63 29q-127 230 -307 506q-20 28 -70 28h-76v-536q0 -27 -27 -27h-184
q-24 0 -24 27zM449 -596q32 122 32 270v115q0 25 11.5 36t37.5 11h140q26 0 37.5 -11t11.5 -36v-80q0 -167 -70 -307q-17 -39 -59 -39h-109q-43 0 -32 41z" />
    <glyph glyph-name="kgreenlandic" unicode="&#x138;" horiz-adv-x="1146" 
d="M154 27v1153q0 26 26 26h180q29 0 29 -26v-430h131q168 211 301 424q21 32 68 32h180q17 0 21 -12t-7 -27q-188 -290 -374 -522q177 -241 397 -604q12 -22 7.5 -31.5t-28.5 -9.5h-180q-47 0 -63 29q-127 230 -307 506q-20 28 -70 28h-76v-536q0 -27 -27 -27h-184
q-24 0 -24 27z" />
    <glyph glyph-name="Lacute" unicode="&#x139;" horiz-adv-x="1064" 
d="M160 27v1542q0 26 30 26h187q31 0 31 -26v-1350h546q34 0 31 -26l-24 -166q-2 -14 -8.5 -20.5t-22.5 -6.5h-740q-30 0 -30 27zM160 1748.5q-3 9.5 8 23.5l229 301q19 28 62 28h250q17 0 21 -12t-7 -21l-291 -296q-33 -33 -80 -33h-170q-19 0 -22 9.5z" />
    <glyph glyph-name="lacute" unicode="&#x13a;" horiz-adv-x="659" 
d="M158 307v1284q0 26 24 31l174 29q37 6 37 -25v-1319q0 -119 107 -119q14 0 82 5q13 2 19 -4.5t5 -20.5l-10 -129q-3 -32 -35 -37q-59 -12 -139 -12q-131 0 -197.5 76.5t-66.5 240.5zM164 1762.5q-3 9.5 8 23.5l229 301q20 29 62 29h250q17 0 21 -12t-7 -21l-291 -297
q-33 -33 -80 -33h-170q-19 0 -22 9.5z" />
    <glyph glyph-name="Lcommaaccent" unicode="&#x13b;" horiz-adv-x="1064" 
d="M160 27v1542q0 26 30 26h187q31 0 31 -26v-1350h546q34 0 31 -26l-24 -166q-2 -14 -8.5 -20.5t-22.5 -6.5h-740q-30 0 -30 27zM432 -596q33 125 33 270v115q0 25 11.5 36t37.5 11h139q26 0 37.5 -11t11.5 -36v-80q0 -169 -69 -307q-17 -39 -60 -39h-108q-44 0 -33 41z
" />
    <glyph glyph-name="lcommaaccent" unicode="&#x13c;" horiz-adv-x="659" 
d="M158 307v1284q0 26 24 31l174 29q37 6 37 -25v-1319q0 -119 107 -119q14 0 82 5q13 2 19 -4.5t5 -20.5l-10 -129q-3 -32 -35 -37q-59 -12 -139 -12q-131 0 -197.5 76.5t-66.5 240.5zM211 -596q33 125 33 270v115q0 25 11.5 36t37.5 11h139q26 0 37.5 -11t11.5 -36v-80
q0 -169 -69 -307q-17 -39 -60 -39h-108q-44 0 -33 41z" />
    <glyph glyph-name="Lcaron" unicode="&#x13d;" horiz-adv-x="1064" 
d="M160 27v1542q0 26 30 26h187q31 0 31 -26v-1350h546q34 0 31 -26l-24 -166q-2 -14 -8.5 -20.5t-22.5 -6.5h-740q-30 0 -30 27zM569 1251l125 365q14 37 58 37h163q21 0 27 -12t-2 -29l-168 -367q-13 -31 -57 -31h-121q-17 0 -24 10t-1 27z" />
    <glyph glyph-name="lcaron" unicode="&#x13e;" horiz-adv-x="778" 
d="M158 307v1284q0 26 24 31l174 29q37 6 37 -25v-1319q0 -119 107 -119q14 0 82 5q13 2 19 -4.5t5 -20.5l-10 -129q-3 -32 -35 -37q-59 -12 -139 -12q-131 0 -197.5 76.5t-66.5 240.5zM524 1251l125 365q14 37 58 37h163q21 0 27 -12t-2 -29l-168 -367q-13 -31 -57 -31
h-121q-17 0 -24 10t-1 27z" />
    <glyph glyph-name="Ldot" unicode="&#x13f;" horiz-adv-x="1112" 
d="M160 27v1542q0 26 30 26h187q31 0 31 -26v-1350h546q34 0 31 -26l-24 -166q-2 -14 -8.5 -20.5t-22.5 -6.5h-740q-30 0 -30 27zM705 786v209q0 19 8 26t30 7h187q41 0 41 -33v-209q0 -34 -41 -34h-187q-22 0 -30 7.5t-8 26.5z" />
    <glyph glyph-name="ldot" unicode="&#x140;" horiz-adv-x="901" 
d="M158 307v1284q0 26 24 31l174 29q37 6 37 -25v-1319q0 -119 107 -119q14 0 82 5q13 2 19 -4.5t5 -20.5l-10 -129q-3 -32 -35 -37q-59 -12 -139 -12q-131 0 -197.5 76.5t-66.5 240.5zM602 825v209q0 19 8.5 26t30.5 7h186q41 0 41 -33v-209q0 -34 -41 -34h-186
q-22 0 -30.5 7.5t-8.5 26.5z" />
    <glyph glyph-name="Lslash" unicode="&#x141;" horiz-adv-x="1157" 
d="M37 535v149q0 29 33 45l182 94v746q0 26 31 26h186q31 0 31 -26v-619l288 150q23 10 37.5 4.5t14.5 -21.5v-149q0 -33 -39 -53l-301 -156v-518h544q34 0 31 -27l-22 -153q-2 -14 -8.5 -20.5t-22.5 -6.5h-739q-31 0 -31 27v571l-166 -84q-23 -10 -36 -3t-13 24z" />
    <glyph glyph-name="lslash" unicode="&#x142;" horiz-adv-x="768" 
d="M53 600v139q0 28 33 45l137 70v737q0 25 25 31l174 29q37 6 37 -25v-651l192 98q23 10 37 5t14 -21v-135q0 -33 -38 -54l-205 -104v-457q0 -119 106 -119q15 0 82 5q13 2 19.5 -4.5t5.5 -20.5l-10 -129q-3 -32 -35 -37q-59 -12 -140 -12q-131 0 -197.5 76.5t-66.5 240.5
v336l-119 -59q-23 -11 -37 -5.5t-14 21.5z" />
    <glyph glyph-name="Nacute" unicode="&#x143;" horiz-adv-x="1439" 
d="M160 27v1542q0 26 30 26h201q19 0 27.5 -4.5t15.5 -17.5l643 -1223h6l-34 266v953q0 26 28 26h172q31 0 31 -26v-1542q0 -27 -31 -27h-198q-18 0 -26.5 4.5t-16.5 18.5l-643 1222h-7l35 -266v-952q0 -27 -28 -27h-175q-30 0 -30 27zM608.5 1748.5q-3.5 9.5 7.5 23.5
l230 301q19 28 61 28h250q17 0 21 -12t-7 -21l-290 -296q-33 -33 -80 -33h-170q-19 0 -22.5 9.5z" />
    <glyph glyph-name="nacute" unicode="&#x144;" horiz-adv-x="1277" 
d="M154 27v1153q0 26 24 26h160q28 0 31 -24l8 -66q163 113 354 113q204 0 303 -98t99 -306v-798q0 -27 -27 -27h-184q-25 0 -25 27v733q0 97 -10 138.5t-47 76.5q-58 53 -187 53q-138 0 -264 -76v-925q0 -27 -29 -27h-182q-24 0 -24 27zM493.5 1386.5q1.5 7.5 8.5 16.5
l229 301q20 29 62 29h249q17 0 21.5 -12t-6.5 -21l-291 -297q-33 -33 -80 -33h-170q-13 0 -18.5 4.5t-4 12z" />
    <glyph glyph-name="Ncommaaccent" unicode="&#x145;" horiz-adv-x="1439" 
d="M160 27v1542q0 26 30 26h201q19 0 27.5 -4.5t15.5 -17.5l643 -1223h6l-34 266v953q0 26 28 26h172q31 0 31 -26v-1542q0 -27 -31 -27h-198q-18 0 -26.5 4.5t-16.5 18.5l-643 1222h-7l35 -266v-952q0 -27 -28 -27h-175q-30 0 -30 27zM604 -596q33 125 33 270v115
q0 25 11.5 36t37.5 11h139q26 0 37.5 -11t11.5 -36v-80q0 -169 -69 -307q-17 -39 -60 -39h-108q-44 0 -33 41z" />
    <glyph glyph-name="ncommaaccent" unicode="&#x146;" horiz-adv-x="1277" 
d="M154 27v1153q0 26 24 26h160q28 0 31 -24l8 -66q163 113 354 113q204 0 303 -98t99 -306v-798q0 -27 -27 -27h-184q-25 0 -25 27v733q0 97 -10 138.5t-47 76.5q-58 53 -187 53q-138 0 -264 -76v-925q0 -27 -29 -27h-182q-24 0 -24 27zM512 -596q33 125 33 270v115
q0 25 11.5 36t37.5 11h139q26 0 37.5 -11t11.5 -36v-80q0 -169 -69 -307q-17 -39 -60 -39h-108q-44 0 -33 41z" />
    <glyph glyph-name="Ncaron" unicode="&#x147;" horiz-adv-x="1439" 
d="M160 27v1542q0 26 30 26h201q19 0 27.5 -4.5t15.5 -17.5l643 -1223h6l-34 266v953q0 26 28 26h172q31 0 31 -26v-1542q0 -27 -31 -27h-198q-18 0 -26.5 4.5t-16.5 18.5l-643 1222h-7l35 -266v-952q0 -27 -28 -27h-175q-30 0 -30 27zM352 2023q2 11 15 17l110 61
q29 14 45 -2l189 -203h18l189 203q16 16 45 2l110 -61q13 -6 14.5 -17t-6.5 -20l-215 -260q-11 -14 -37 -14h-219q-26 0 -37 14l-215 260q-8 9 -6 20z" />
    <glyph glyph-name="ncaron" unicode="&#x148;" horiz-adv-x="1277" 
d="M154 27v1153q0 26 24 26h160q28 0 31 -24l8 -66q163 113 354 113q204 0 303 -98t99 -306v-798q0 -27 -27 -27h-184q-25 0 -25 27v733q0 97 -10 138.5t-47 76.5q-58 53 -187 53q-138 0 -264 -76v-925q0 -27 -29 -27h-182q-24 0 -24 27zM270 1654q2 11 15 17l110 62
q29 14 45 -2l189 -203h18l189 203q16 16 45 2l110 -62q13 -6 14.5 -17t-6.5 -20l-215 -260q-11 -14 -36 -14h-220q-25 0 -36 14l-216 260q-8 9 -6 20z" />
    <glyph glyph-name="napostrophe" unicode="&#x149;" horiz-adv-x="1427" 
d="M-98 1233q53 194 53 369v135q0 19 7.5 25.5t29.5 6.5h182q20 0 27.5 -6.5t7.5 -25.5v-121q0 -101 -27 -212t-67 -177q-20 -35 -64 -35h-112q-24 -1 -33 10t-4 31zM303 27v1153q0 26 25 26h159q28 0 31 -24l8 -66q163 113 355 113q204 0 302.5 -98t98.5 -306v-798
q0 -27 -27 -27h-184q-24 0 -24 27v733q0 96 -10.5 137.5t-47.5 77.5q-58 53 -186 53q-138 0 -264 -76v-925q0 -27 -29 -27h-182q-25 0 -25 27z" />
    <glyph glyph-name="Eng" unicode="&#x14a;" horiz-adv-x="1439" 
d="M160 27v1542q0 26 30 26h201q19 0 27.5 -4.5t15.5 -17.5l643 -1161h6l-34 266v891q0 26 28 26h172q31 0 31 -26v-1460q0 -83 -2.5 -133.5t-13 -113t-34 -110t-61.5 -86.5q-46 -46 -123 -73t-165 -27q-87 0 -152 12q-12 2 -19 7.5t-9.5 11t-4.5 16.5l-30 139
q-3 15 4.5 22.5t21.5 4.5q58 -12 107 -12q78 0 128 14t76.5 46t36 72.5t9.5 104.5l-684 1241h-7l35 -266v-952q0 -27 -28 -27h-175q-30 0 -30 27z" />
    <glyph glyph-name="eng" unicode="&#x14b;" horiz-adv-x="1277" 
d="M154 27v1153q0 26 24 26h160q28 0 31 -24l8 -66q163 113 354 113q204 0 303 -98t99 -306v-841q0 -174 -48 -265q-41 -79 -117 -116t-163 -37q-98 0 -164 16q-18 4 -25 12.5t-10 24.5l-26 129q-4 13 4 20.5t20 4.5q83 -17 141 -17q85 0 123 49q29 38 29 156v799
q0 97 -10 138.5t-47 76.5q-58 53 -187 53q-138 0 -264 -76v-925q0 -27 -29 -27h-182q-24 0 -24 27z" />
    <glyph glyph-name="Omacron" unicode="&#x14c;" horiz-adv-x="1355" 
d="M119 573v449q0 166 39.5 281.5t124.5 189.5q140 125 395 125t395 -125q85 -74 124.5 -189.5t39.5 -281.5v-449q0 -166 -39.5 -281.5t-124.5 -189.5q-140 -125 -395 -125t-395 125q-85 74 -124.5 189.5t-39.5 281.5zM340 1864v118q0 25 27 25h622q12 0 19.5 -7t7.5 -18
v-118q0 -25 -27 -25h-622q-27 0 -27 25zM365 610q0 -127 14.5 -199t56.5 -126q79 -99 242 -99q160 0 242 99q42 54 56.5 126t14.5 199v375q0 127 -14.5 199.5t-56.5 126.5q-81 98 -242 98q-164 0 -242 -98q-42 -54 -56.5 -126.5t-14.5 -199.5v-375z" />
    <glyph glyph-name="omacron" unicode="&#x14d;" horiz-adv-x="1226" 
d="M115 473v262q0 245 122 369.5t377 124.5q254 0 376 -124.5t122 -369.5v-262q0 -245 -121.5 -369t-376.5 -124t-377 124t-122 369zM274 1495v119q0 24 27 24h623q26 0 26 -24v-119q0 -25 -26 -25h-623q-27 0 -27 25zM352 477q0 -157 62 -232t200 -75t200.5 75t62.5 232
v254q0 157 -62.5 232t-200.5 75t-200 -75t-62 -232v-254z" />
    <glyph glyph-name="Obreve" unicode="&#x14e;" horiz-adv-x="1355" 
d="M119 573v449q0 166 39.5 281.5t124.5 189.5q140 125 395 125t395 -125q85 -74 124.5 -189.5t39.5 -281.5v-449q0 -166 -39.5 -281.5t-124.5 -189.5q-140 -125 -395 -125t-395 125q-85 74 -124.5 189.5t-39.5 281.5zM362 2044q0 18 17 18h135q16 0 18 -12q9 -50 46.5 -79
t97.5 -29q57 0 92.5 28.5t44.5 79.5q2 12 16 12h144q18 0 18 -18q-6 -120 -94 -186t-221 -66q-136 0 -223 65.5t-91 186.5zM365 610q0 -127 14.5 -199t56.5 -126q79 -99 242 -99q160 0 242 99q42 54 56.5 126t14.5 199v375q0 127 -14.5 199.5t-56.5 126.5q-81 98 -242 98
q-164 0 -242 -98q-42 -54 -56.5 -126.5t-14.5 -199.5v-375z" />
    <glyph glyph-name="obreve" unicode="&#x14f;" horiz-adv-x="1226" 
d="M115 473v262q0 245 122 369.5t377 124.5q254 0 376 -124.5t122 -369.5v-262q0 -245 -121.5 -369t-376.5 -124t-377 124t-122 369zM299 1675q0 19 16 19h136q15 0 18 -13q9 -51 46 -79.5t97 -28.5q57 0 93 29t45 79q3 13 16 13h143q19 0 19 -19q-6 -120 -94.5 -186
t-221.5 -66q-135 0 -222 65.5t-91 186.5zM352 477q0 -157 62 -232t200 -75t200.5 75t62.5 232v254q0 157 -62.5 232t-200.5 75t-200 -75t-62 -232v-254z" />
    <glyph glyph-name="Ohungarumlaut" unicode="&#x150;" horiz-adv-x="1355" 
d="M119 573v449q0 166 39.5 281.5t124.5 189.5q140 125 395 125t395 -125q85 -74 124.5 -189.5t39.5 -281.5v-449q0 -166 -39.5 -281.5t-124.5 -189.5q-140 -125 -395 -125t-395 125q-85 74 -124.5 189.5t-39.5 281.5zM336 1746q-6 7 2 19l207 318q11 18 35 18h249
q20 0 24 -11t-11 -28l-262 -297q-22 -26 -60 -26h-164q-14 0 -20 7zM365 610q0 -127 14.5 -199t56.5 -126q79 -99 242 -99q160 0 242 99q42 54 56.5 126t14.5 199v375q0 127 -14.5 199.5t-56.5 126.5q-81 98 -242 98q-164 0 -242 -98q-42 -54 -56.5 -126.5t-14.5 -199.5
v-375zM790 1746q-6 7 1 19l206 318q11 18 37 18h250q19 0 22 -11t-10 -28l-262 -297q-22 -26 -59 -26h-164q-15 0 -21 7z" />
    <glyph glyph-name="ohungarumlaut" unicode="&#x151;" horiz-adv-x="1226" 
d="M115 473v262q0 245 122 369.5t377 124.5q254 0 376 -124.5t122 -369.5v-262q0 -245 -121.5 -369t-376.5 -124t-377 124t-122 369zM287 1377.5q-6 7.5 2 19.5l207 317q11 19 34 19h250q20 0 24 -11t-11 -28l-263 -297q-23 -27 -59 -27h-164q-14 0 -20 7.5zM352 477
q0 -157 62 -232t200 -75t200.5 75t62.5 232v254q0 157 -62.5 232t-200.5 75t-200 -75t-62 -232v-254zM740.5 1377.5q-6.5 7.5 0.5 19.5l207 317q11 19 37 19h250q19 0 22 -11t-10 -28l-262 -297q-23 -27 -59 -27h-164q-15 0 -21.5 7.5z" />
    <glyph glyph-name="OE" unicode="&#x152;" horiz-adv-x="2009" 
d="M119 553v477q0 165 39 275.5t125 185.5q145 127 383 127q107 0 204 -40.5t140 -102.5v94q0 14 6.5 20t23.5 6h830q34 0 31 -26l-23 -166q-2 -14 -8.5 -20.5t-22.5 -6.5h-606v-465h551q34 0 31 -26l-23 -166q-3 -27 -28 -27h-531v-473h625q33 0 30 -26l-22 -166
q-2 -14 -8.5 -20.5t-22.5 -6.5h-803q-30 0 -30 27v118q-44 -75 -145.5 -121.5t-237.5 -46.5q-508 0 -508 576zM367 543q0 -357 299 -357q164 0 245 88.5t84 247.5v506q0 381 -309 381q-170 0 -244.5 -90.5t-74.5 -267.5v-508z" />
    <glyph glyph-name="oe" unicode="&#x153;" horiz-adv-x="1908" 
d="M115 473v262q0 246 120.5 370t374.5 124q137 0 222 -37.5t159 -118.5q54 75 155 115.5t216 40.5q225 0 339 -117.5t114 -339.5v-188q0 -62 -58 -62h-653v-71q0 -144 77.5 -212.5t237.5 -68.5q171 0 291 47q19 6 28.5 -0.5t6.5 -26.5l-16 -120q-5 -33 -35 -45
q-47 -20 -134.5 -34t-162.5 -14q-134 0 -248.5 43.5t-169.5 110.5q-56 -73 -152.5 -113.5t-222.5 -40.5q-253 0 -371 124.5t-118 371.5zM352 477q0 -159 60 -233t198 -74q137 0 197.5 74.5t60.5 232.5v266q0 151 -61.5 223t-196.5 72q-138 0 -198 -74t-60 -233v-254z
M1104 698h473v86q0 128 -37 185q-53 84 -182 84q-115 0 -184 -66q-37 -37 -53.5 -95t-16.5 -157v-37z" />
    <glyph glyph-name="Racute" unicode="&#x154;" horiz-adv-x="1265" 
d="M160 27v1538q0 30 30 30h420q265 0 398 -112t133 -363v-35q0 -182 -79 -302t-220 -165q142 -219 348 -593q5 -10 -1 -17.5t-24 -7.5h-194q-39 0 -53 27q-172 329 -326 567h-184v-567q0 -27 -31 -27h-187q-30 0 -30 27zM404 1748.5q-3 9.5 8 23.5l229 301q19 28 61 28h250
q17 0 21.5 -12t-6.5 -21l-291 -296q-33 -33 -80 -33h-170q-19 0 -22 9.5zM408 803h200q150 0 214.5 74t64.5 217v18q0 144 -67.5 210.5t-225.5 66.5h-186v-586z" />
    <glyph glyph-name="racute" unicode="&#x155;" horiz-adv-x="864" 
d="M151.5 1386.5q1.5 7.5 8.5 16.5l229 301q20 29 62 29h249q17 0 21.5 -12t-6.5 -21l-291 -297q-33 -33 -80 -33h-170q-13 0 -18.5 4.5t-4 12zM154 27v1153q0 26 24 26h154q27 0 30 -26l11 -125q55 76 138 122t187 46q55 0 97 -11q20 -5 20 -26v-135q0 -31 -27 -31
q-5 0 -36.5 2t-55.5 2q-84 0 -168.5 -33.5t-138.5 -87.5v-876q0 -27 -27 -27h-184q-24 0 -24 27z" />
    <glyph glyph-name="Rcommaaccent" unicode="&#x156;" horiz-adv-x="1265" 
d="M160 27v1538q0 30 30 30h420q265 0 398 -112t133 -363v-35q0 -182 -79 -302t-220 -165q142 -219 348 -593q5 -10 -1 -17.5t-24 -7.5h-194q-39 0 -53 27q-172 329 -326 567h-184v-567q0 -27 -31 -27h-187q-30 0 -30 27zM408 803h200q150 0 214.5 74t64.5 217v18
q0 144 -67.5 210.5t-225.5 66.5h-186v-586zM494 -596q32 122 32 270v115q0 25 11.5 36t37.5 11h140q26 0 37.5 -11t11.5 -36v-80q0 -167 -70 -307q-17 -39 -59 -39h-109q-43 0 -32 41z" />
    <glyph glyph-name="rcommaaccent" unicode="&#x157;" horiz-adv-x="864" 
d="M121 -596q33 125 33 270v115q0 25 11.5 36t37.5 11h139q26 0 37.5 -11t11.5 -36v-80q0 -169 -69 -307q-17 -39 -60 -39h-108q-44 0 -33 41zM154 27v1153q0 26 24 26h154q27 0 30 -26l11 -125q55 76 138 122t187 46q55 0 97 -11q20 -5 20 -26v-135q0 -31 -27 -31
q-5 0 -36.5 2t-55.5 2q-84 0 -168.5 -33.5t-138.5 -87.5v-876q0 -27 -27 -27h-184q-24 0 -24 27z" />
    <glyph glyph-name="Rcaron" unicode="&#x158;" horiz-adv-x="1265" 
d="M160 27v1538q0 30 30 30h420q265 0 398 -112t133 -363v-35q0 -182 -79 -302t-220 -165q142 -219 348 -593q5 -10 -1 -17.5t-24 -7.5h-194q-39 0 -53 27q-172 329 -326 567h-184v-567q0 -27 -31 -27h-187q-30 0 -30 27zM233.5 2023q1.5 11 14.5 17l110 61q29 14 45 -2
l189 -203h18l189 203q16 16 45 2l110 -61q13 -6 15 -17t-6 -20l-215 -260q-11 -14 -37 -14h-219q-26 0 -37 14l-215 260q-8 9 -6.5 20zM408 803h200q150 0 214.5 74t64.5 217v18q0 144 -67.5 210.5t-225.5 66.5h-186v-586z" />
    <glyph glyph-name="rcaron" unicode="&#x159;" horiz-adv-x="864" 
d="M61.5 1654q1.5 11 14.5 17l110 62q29 14 45 -2l189 -203h18l189 203q16 16 45 2l110 -62q13 -6 15 -17t-6 -20l-216 -260q-11 -14 -36 -14h-220q-25 0 -36 14l-215 260q-8 9 -6.5 20zM154 27v1153q0 26 24 26h154q27 0 30 -26l11 -125q55 76 138 122t187 46q55 0 97 -11
q20 -5 20 -26v-135q0 -31 -27 -31q-5 0 -36.5 2t-55.5 2q-84 0 -168.5 -33.5t-138.5 -87.5v-876q0 -27 -27 -27h-184q-24 0 -24 27z" />
    <glyph glyph-name="Sacute" unicode="&#x15a;" horiz-adv-x="1142" 
d="M98 256q0 14 8 19.5t19 0.5q191 -88 379 -88q136 0 215.5 64t79.5 176v12q0 100 -53.5 158.5t-178.5 103.5l-145 54q-301 110 -301 424v14q0 192 140 308t386 116q133 0 277 -39q20 -6 26 -14t6 -25v-147q0 -33 -34 -23q-125 39 -275 39q-137 0 -208.5 -57.5
t-71.5 -157.5v-6q0 -97 52 -151t173 -97l145 -53q149 -54 228 -152.5t79 -261.5v-14q0 -118 -41.5 -211t-115 -151.5t-170.5 -89t-211 -30.5q-86 0 -183.5 19t-160.5 45q-17 7 -24.5 18.5t-12.5 32.5zM395.5 1748.5q-3.5 9.5 7.5 23.5l230 301q19 28 61 28h250q17 0 21 -12
t-7 -21l-290 -296q-33 -33 -80 -33h-170q-19 0 -22.5 9.5z" />
    <glyph glyph-name="sacute" unicode="&#x15b;" horiz-adv-x="966" 
d="M94 205q-1 12 7 17.5t22 0.5q60 -26 140 -42.5t149 -16.5q117 0 177 40t60 115v9q0 65 -33.5 101.5t-115.5 66.5l-156 57q-250 90 -250 330v12q0 144 117 239t328 95q127 0 256 -39q22 -6 22 -33v-129q0 -18 -9 -22.5t-26 0.5q-140 36 -239 36q-109 0 -164 -37t-55 -102
v-8q0 -55 30.5 -90.5t116.5 -67.5l147 -57q132 -52 194 -126.5t62 -193.5v-18q0 -171 -115 -268t-319 -97q-136 0 -293 50q-29 10 -32 36zM344.5 1380q-3.5 10 7.5 23l230 301q20 29 61 29h250q17 0 21 -12t-7 -21l-291 -297q-33 -33 -79 -33h-170q-19 0 -22.5 10z" />
    <glyph glyph-name="Scircumflex" unicode="&#x15c;" horiz-adv-x="1142" 
d="M98 256q0 14 8 19.5t19 0.5q191 -88 379 -88q136 0 215.5 64t79.5 176v12q0 100 -53.5 158.5t-178.5 103.5l-145 54q-301 110 -301 424v14q0 192 140 308t386 116q133 0 277 -39q20 -6 26 -14t6 -25v-147q0 -33 -34 -23q-125 39 -275 39q-137 0 -208.5 -57.5
t-71.5 -157.5v-6q0 -97 52 -151t173 -97l145 -53q149 -54 228 -152.5t79 -261.5v-14q0 -118 -41.5 -211t-115 -151.5t-170.5 -89t-211 -30.5q-86 0 -183.5 19t-160.5 45q-17 7 -24.5 18.5t-12.5 32.5zM231.5 1815q-1.5 11 6.5 20l215 260q11 14 36 14h220q25 0 36 -14
l216 -260q8 -9 6 -20t-15 -17l-110 -61q-29 -14 -45 2l-189 203h-18l-189 -203q-16 -16 -45 -2l-110 61q-13 6 -14.5 17z" />
    <glyph glyph-name="scircumflex" unicode="&#x15d;" horiz-adv-x="966" 
d="M94 205q-1 12 7 17.5t22 0.5q60 -26 140 -42.5t149 -16.5q117 0 177 40t60 115v9q0 65 -33.5 101.5t-115.5 66.5l-156 57q-250 90 -250 330v12q0 144 117 239t328 95q127 0 256 -39q22 -6 22 -33v-129q0 -18 -9 -22.5t-26 0.5q-140 36 -239 36q-109 0 -164 -37t-55 -102
v-8q0 -55 30.5 -90.5t116.5 -67.5l147 -57q132 -52 194 -126.5t62 -193.5v-18q0 -171 -115 -268t-319 -97q-136 0 -293 50q-29 10 -32 36zM141 1466l215 260q12 15 37 15h219q25 0 37 -15l215 -260q18 -22 -8 -36l-111 -62q-29 -14 -45 2l-188 203h-18l-189 -203
q-16 -16 -45 -2l-110 62q-26 16 -9 36z" />
    <glyph glyph-name="Scedilla" unicode="&#x15e;" horiz-adv-x="1142" 
d="M98 256q0 14 8 19.5t19 0.5q191 -88 379 -88q136 0 215.5 64t79.5 176v12q0 100 -53.5 158.5t-178.5 103.5l-145 54q-301 110 -301 424v14q0 192 140 308t386 116q133 0 277 -39q20 -6 26 -14t6 -25v-147q0 -33 -34 -23q-125 39 -275 39q-137 0 -208.5 -57.5
t-71.5 -157.5v-6q0 -97 52 -151t173 -97l145 -53q149 -54 228 -152.5t79 -261.5v-14q0 -206 -118.5 -326.5t-315.5 -146.5l-22 -150h71q220 0 220 -192q0 -112 -77 -171t-206 -59q-82 0 -166 23q-32 10 -35 31l-16 106q-1 7 3.5 10t12.5 0q60 -24 172 -24q109 0 109 69
q0 40 -26.5 53t-84.5 13h-137q-30 0 -22 26l43 259q-176 14 -287 61q-17 7 -24.5 18.5t-12.5 32.5z" />
    <glyph glyph-name="scedilla" unicode="&#x15f;" horiz-adv-x="966" 
d="M94 205q-1 12 7 17.5t22 0.5q60 -26 140 -42.5t149 -16.5q117 0 177 40t60 115v9q0 65 -33.5 101.5t-115.5 66.5l-156 57q-250 90 -250 330v12q0 144 117 239t328 95q127 0 256 -39q22 -6 22 -33v-129q0 -18 -9 -22.5t-26 0.5q-140 36 -239 36q-109 0 -164 -37t-55 -102
v-8q0 -55 30.5 -90.5t116.5 -67.5l147 -57q132 -52 194 -126.5t62 -193.5v-18q0 -156 -97 -251t-269 -109l-21 -146h72q219 0 219 -192q0 -112 -76.5 -171t-205.5 -59q-82 0 -166 23q-32 10 -35 31l-16 106q-1 7 3.5 10t12.5 0q60 -24 172 -24q108 0 108 69q0 40 -26 53
t-84 13h-137q-31 0 -23 26l45 261q-97 11 -203 45q-29 10 -32 36z" />
    <glyph glyph-name="Scaron" unicode="&#x160;" horiz-adv-x="1142" 
d="M98 256q0 14 8 19.5t19 0.5q191 -88 379 -88q136 0 215.5 64t79.5 176v12q0 100 -53.5 158.5t-178.5 103.5l-145 54q-301 110 -301 424v14q0 192 140 308t386 116q133 0 277 -39q20 -6 26 -14t6 -25v-147q0 -33 -34 -23q-125 39 -275 39q-137 0 -208.5 -57.5
t-71.5 -157.5v-6q0 -97 52 -151t173 -97l145 -53q149 -54 228 -152.5t79 -261.5v-14q0 -118 -41.5 -211t-115 -151.5t-170.5 -89t-211 -30.5q-86 0 -183.5 19t-160.5 45q-17 7 -24.5 18.5t-12.5 32.5zM233.5 2023q1.5 11 14.5 17l110 61q29 14 45 -2l189 -203h18l189 203
q16 16 45 2l110 -61q13 -6 15 -17t-6 -20l-215 -260q-11 -14 -37 -14h-219q-26 0 -37 14l-215 260q-8 9 -6.5 20z" />
    <glyph glyph-name="scaron" unicode="&#x161;" horiz-adv-x="966" 
d="M94 205q-1 12 7 17.5t22 0.5q60 -26 140 -42.5t149 -16.5q117 0 177 40t60 115v9q0 65 -33.5 101.5t-115.5 66.5l-156 57q-250 90 -250 330v12q0 144 117 239t328 95q127 0 256 -39q22 -6 22 -33v-129q0 -18 -9 -22.5t-26 0.5q-140 36 -239 36q-109 0 -164 -37t-55 -102
v-8q0 -55 30.5 -90.5t116.5 -67.5l147 -57q132 -52 194 -126.5t62 -193.5v-18q0 -171 -115 -268t-319 -97q-136 0 -293 50q-29 10 -32 36zM139 1654q2 11 15 17l110 62q29 14 45 -2l189 -203h18l189 203q16 16 45 2l110 -62q13 -6 14.5 -17t-6.5 -20l-215 -260
q-11 -14 -37 -14h-219q-26 0 -37 14l-215 260q-8 9 -6 20z" />
    <glyph glyph-name="Tcommaaccent" unicode="&#x162;" horiz-adv-x="1255" 
d="M57 1397v178q0 20 21 20h1116q18 0 18 -20l-34 -180q-3 -19 -25 -19h-401v-1349q0 -27 -31 -27h-186q-31 0 -31 27v1349h-426q-21 0 -21 21zM477 -596q33 125 33 270v115q0 25 11.5 36t37.5 11h139q50 0 50 -47v-80q0 -167 -70 -307q-17 -39 -60 -39h-108q-44 0 -33 41z
" />
    <glyph glyph-name="tcommaaccent" unicode="&#x163;" horiz-adv-x="886" 
d="M20 1049v135q0 22 23 22h201v279q0 19 24 24l181 33q30 7 30 -16v-320h334q14 0 19 -5t4 -17l-9 -131q-1 -17 -7.5 -22t-22.5 -5h-318v-643q0 -113 33.5 -159t130.5 -46q57 0 152 23q18 5 24.5 -0.5t3.5 -22.5l-22 -133q-5 -31 -31 -43q-55 -25 -172 -25q-222 0 -301 115
q-53 77 -53 252v682h-201q-23 0 -23 23zM342 -596q33 125 33 270v115q0 25 11.5 36t37.5 11h139q26 0 37.5 -11t11.5 -36v-80q0 -169 -69 -307q-17 -39 -60 -39h-108q-44 0 -33 41z" />
    <glyph glyph-name="Tcaron" unicode="&#x164;" horiz-adv-x="1255" 
d="M57 1397v178q0 20 21 20h1116q18 0 18 -20l-34 -180q-3 -19 -25 -19h-401v-1349q0 -27 -31 -27h-186q-31 0 -31 27v1349h-426q-21 0 -21 21zM259.5 2023q1.5 11 14.5 17l111 61q29 14 45 -2l188 -203h19l188 203q16 16 45 2l111 -61q13 -6 14.5 -17t-6.5 -20l-215 -260
q-11 -14 -37 -14h-219q-26 0 -37 14l-215 260q-8 9 -6.5 20z" />
    <glyph glyph-name="tcaron" unicode="&#x165;" horiz-adv-x="886" 
d="M20 1049v135q0 22 23 22h201v279q0 19 24 24l181 33q30 7 30 -16v-320h334q14 0 19 -5t4 -17l-9 -131q-1 -17 -7.5 -22t-22.5 -5h-318v-643q0 -113 33.5 -159t130.5 -46q57 0 152 23q18 5 24.5 -0.5t3.5 -22.5l-22 -133q-5 -31 -31 -43q-55 -25 -172 -25q-222 0 -301 115
q-53 77 -53 252v682h-201q-23 0 -23 23zM643 1374l125 365q14 37 57 37h164q21 0 27 -12t-2 -29l-168 -367q-13 -31 -58 -31h-120q-17 0 -24 10t-1 27z" />
    <glyph glyph-name="Tbar" unicode="&#x166;" horiz-adv-x="1337" 
d="M98 1397v178q0 20 21 20h1116q18 0 18 -20l-34 -180q-3 -19 -25 -19h-401v-475h206q37 0 37 -35v-137q0 -19 -8 -27t-29 -8h-206v-667q0 -27 -31 -27h-187q-30 0 -30 27v667h-207q-22 0 -29.5 7.5t-7.5 27.5v137q0 20 7 27.5t30 7.5h207v475h-426q-21 0 -21 21z" />
    <glyph glyph-name="tbar" unicode="&#x167;" horiz-adv-x="1009" 
d="M82 1049v135q0 22 22 22h201v279q0 18 25 24l180 33q31 7 31 -16v-320h333q14 0 19 -5t4 -17l-8 -131q-1 -16 -8 -21.5t-23 -5.5h-317v-274h235q23 0 23 -23v-135q0 -23 -23 -23h-235v-188q0 -114 33 -159.5t131 -45.5q56 0 151 23q35 9 29 -23l-23 -133q-5 -31 -31 -43
q-55 -25 -172 -25q-222 0 -301 115q-53 77 -53 252v227h-141q-23 0 -23 23v135q0 23 23 23h141v274h-201q-22 0 -22 23z" />
    <glyph glyph-name="Utilde" unicode="&#x168;" horiz-adv-x="1392" 
d="M156 518v1051q0 26 30 26h187q30 0 30 -26v-1006q0 -102 15.5 -165t52.5 -113q67 -88 225 -88q159 0 226 88q37 49 52 112t15 166v1006q0 26 29 26h188q31 0 31 -26v-1051q0 -267 -138.5 -404t-402.5 -137q-265 0 -402.5 136.5t-137.5 404.5zM297 1882q39 89 108.5 142
t151.5 53q43 0 77 -12.5t79 -41.5l32 -20q2 -1 11 -6t11 -6.5t9.5 -5.5t10 -5t9 -4t10 -3.5t9.5 -2t11 -2t10 -0.5q58 0 108 86q10 17 37 4l104 -57q19 -14 13 -29q-36 -87 -105 -140.5t-153 -53.5q-83 0 -156 47l-39 24q-56 35 -92 35q-37 0 -64 -19t-51 -65
q-14 -21 -41 -8l-92 53q-19 13 -8 37z" />
    <glyph glyph-name="utilde" unicode="&#x169;" horiz-adv-x="1261" 
d="M145 381v799q0 26 27 26h182q27 0 27 -26v-734q0 -94 12.5 -144t44.5 -79q55 -49 170 -49q67 0 141.5 29.5t120.5 77.5v899q0 26 29 26h182q27 0 27 -26v-910q0 -115 16 -243q3 -27 -22 -27h-154q-22 0 -30 23q-10 25 -25 98q-56 -64 -147 -104t-195 -40
q-207 0 -306.5 97.5t-99.5 306.5zM231 1513q39 89 109 142t152 53q43 0 76.5 -12.5t78.5 -40.5l33 -21q2 -1 13.5 -8t14 -8t11.5 -6t13 -6t11.5 -3.5t13.5 -3t13 -0.5q59 0 109 87q10 17 36 4l105 -58q18 -13 12 -28q-36 -87 -105 -141t-153 -54q-83 0 -156 47l-38 25
q-56 35 -93 35q-36 0 -63 -19t-51 -65q-15 -22 -41 -9l-92 54q-19 13 -9 36z" />
    <glyph glyph-name="Umacron" unicode="&#x16a;" horiz-adv-x="1392" 
d="M156 518v1051q0 26 30 26h187q30 0 30 -26v-1006q0 -102 15.5 -165t52.5 -113q67 -88 225 -88q159 0 226 88q37 49 52 112t15 166v1006q0 26 29 26h188q31 0 31 -26v-1051q0 -267 -138.5 -404t-402.5 -137q-265 0 -402.5 136.5t-137.5 404.5zM358 1864v118q0 25 27 25
h623q12 0 19 -7t7 -18v-118q0 -25 -26 -25h-623q-27 0 -27 25z" />
    <glyph glyph-name="umacron" unicode="&#x16b;" horiz-adv-x="1261" 
d="M145 381v799q0 26 27 26h182q27 0 27 -26v-734q0 -94 12.5 -144t44.5 -79q55 -49 170 -49q67 0 141.5 29.5t120.5 77.5v899q0 26 29 26h182q27 0 27 -26v-910q0 -115 16 -243q3 -27 -22 -27h-154q-22 0 -30 23q-10 25 -25 98q-56 -64 -147 -104t-195 -40
q-207 0 -306.5 97.5t-99.5 306.5zM293 1495v119q0 24 26 24h623q12 0 19.5 -6.5t7.5 -17.5v-119q0 -25 -27 -25h-623q-26 0 -26 25z" />
    <glyph glyph-name="Ubreve" unicode="&#x16c;" horiz-adv-x="1392" 
d="M156 518v1051q0 26 30 26h187q30 0 30 -26v-1006q0 -102 15.5 -165t52.5 -113q67 -88 225 -88q159 0 226 88q37 49 52 112t15 166v1006q0 26 29 26h188q31 0 31 -26v-1051q0 -267 -138.5 -404t-402.5 -137q-265 0 -402.5 136.5t-137.5 404.5zM381 2044q0 18 16 18h135
q17 0 19 -12q9 -51 46 -79.5t97 -28.5q57 0 92.5 28.5t44.5 79.5q2 12 17 12h143q19 0 19 -18q-6 -120 -94.5 -186t-221.5 -66q-135 0 -222 65.5t-91 186.5z" />
    <glyph glyph-name="ubreve" unicode="&#x16d;" horiz-adv-x="1261" 
d="M145 381v799q0 26 27 26h182q27 0 27 -26v-734q0 -94 12.5 -144t44.5 -79q55 -49 170 -49q67 0 141.5 29.5t120.5 77.5v899q0 26 29 26h182q27 0 27 -26v-910q0 -115 16 -243q3 -27 -22 -27h-154q-22 0 -30 23q-10 25 -25 98q-56 -64 -147 -104t-195 -40
q-207 0 -306.5 97.5t-99.5 306.5zM315 1675q0 8 5 13.5t12 5.5h135q15 0 18 -13q9 -50 46.5 -79t97.5 -29q57 0 92.5 28.5t44.5 79.5q3 13 16 13h144q18 0 18 -19q-6 -120 -94 -186t-221 -66q-136 0 -223 65.5t-91 186.5z" />
    <glyph glyph-name="Uring" unicode="&#x16e;" horiz-adv-x="1392" 
d="M156 518v1051q0 26 30 26h187q30 0 30 -26v-1006q0 -102 15.5 -165t52.5 -113q67 -88 225 -88q159 0 226 88q37 49 52 112t15 166v1006q0 26 29 26h188q31 0 31 -26v-1051q0 -267 -138.5 -404t-402.5 -137q-265 0 -402.5 136.5t-137.5 404.5zM467 1942q0 102 62 167.5
t171 65.5q104 0 165 -66t61 -167q0 -99 -61 -165.5t-165 -66.5q-109 0 -171 66.5t-62 165.5zM608 1942q0 -40 22 -67.5t70 -27.5q84 0 84 95q0 98 -84 98q-49 0 -70.5 -27.5t-21.5 -70.5z" />
    <glyph glyph-name="uring" unicode="&#x16f;" horiz-adv-x="1261" 
d="M145 381v799q0 26 27 26h182q27 0 27 -26v-734q0 -94 12.5 -144t44.5 -79q55 -49 170 -49q67 0 141.5 29.5t120.5 77.5v899q0 26 29 26h182q27 0 27 -26v-910q0 -115 16 -243q3 -27 -22 -27h-154q-22 0 -30 23q-10 25 -25 98q-56 -64 -147 -104t-195 -40
q-207 0 -306.5 97.5t-99.5 306.5zM393 1573q0 101 66 167t176 66q105 0 168 -66t63 -167q0 -98 -63.5 -165t-167.5 -67q-109 0 -175.5 67t-66.5 165zM535 1575q0 -47 24.5 -79t75.5 -32q92 0 92 111t-92 111q-52 0 -76 -31.5t-24 -79.5z" />
    <glyph glyph-name="Uhungarumlaut" unicode="&#x170;" horiz-adv-x="1392" 
d="M156 518v1051q0 26 30 26h187q30 0 30 -26v-1006q0 -102 15.5 -165t52.5 -113q67 -88 225 -88q159 0 226 88q37 49 52 112t15 166v1006q0 26 29 26h188q31 0 31 -26v-1051q0 -267 -138.5 -404t-402.5 -137q-265 0 -402.5 136.5t-137.5 404.5zM354 1746q-6 7 2 19l207 318
q11 18 35 18h250q20 0 23.5 -11t-11.5 -28l-262 -297q-22 -26 -59 -26h-164q-15 0 -21 7zM808 1746q-6 7 1 19l207 318q11 18 37 18h250q19 0 22 -11t-10 -28l-262 -297q-22 -26 -60 -26h-164q-15 0 -21 7z" />
    <glyph glyph-name="uhungarumlaut" unicode="&#x171;" horiz-adv-x="1261" 
d="M145 381v799q0 26 27 26h182q27 0 27 -26v-734q0 -94 12.5 -144t44.5 -79q55 -49 170 -49q67 0 141.5 29.5t120.5 77.5v899q0 26 29 26h182q27 0 27 -26v-910q0 -115 16 -243q3 -27 -22 -27h-154q-22 0 -30 23q-10 25 -25 98q-56 -64 -147 -104t-195 -40
q-207 0 -306.5 97.5t-99.5 306.5zM274.5 1377.5q-6.5 7.5 1.5 19.5l207 317q11 19 35 19h250q20 0 23.5 -11t-11.5 -28l-262 -297q-23 -27 -59 -27h-164q-14 0 -20.5 7.5zM728.5 1377.5q-6.5 7.5 0.5 19.5l207 317q11 19 37 19h250q19 0 22 -11t-10 -28l-262 -297
q-23 -27 -60 -27h-163q-15 0 -21.5 7.5z" />
    <glyph glyph-name="Uogonek" unicode="&#x172;" horiz-adv-x="1392" 
d="M156 518v1051q0 26 30 26h187q30 0 30 -26v-1006q0 -102 15.5 -165t52.5 -113q67 -88 225 -88q159 0 226 88q37 49 52 112t15 166v1006q0 26 29 26h188q31 0 31 -26v-1051q0 -143 -40 -248t-136 -188q-135 -115 -186.5 -190.5t-51.5 -165.5q0 -117 111 -117q34 0 70 8
q21 4 16 -16l-25 -119q-5 -22 -24 -27q-51 -14 -129 -14q-123 0 -188.5 63t-65.5 183q0 81 39 162t98 128h-29q-265 0 -402.5 136.5t-137.5 404.5z" />
    <glyph glyph-name="uogonek" unicode="&#x173;" horiz-adv-x="1261" 
d="M145 381v799q0 26 27 26h182q27 0 27 -26v-734q0 -94 12.5 -144t44.5 -79q55 -49 170 -49q67 0 141.5 29.5t120.5 77.5v899q0 26 29 26h182q27 0 27 -26v-910q0 -115 16 -243q3 -20 -16 -31q-92 -54 -146.5 -123t-54.5 -145q0 -59 30.5 -89t82.5 -30q36 0 72 8
q18 4 16 -16l-25 -119q-3 -20 -16 -23q-55 -18 -145 -18q-119 0 -181.5 62.5t-62.5 172.5q0 116 65 206t170 147l-20 92q-56 -64 -147 -104t-195 -40q-207 0 -306.5 97.5t-99.5 306.5z" />
    <glyph glyph-name="Wcircumflex" unicode="&#x174;" horiz-adv-x="2033" 
d="M59 1571q-3 24 21 24h213q16 0 23 -5t10 -21q49 -296 126.5 -680.5t145.5 -673.5h14l232 1305q3 20 13.5 28t33.5 8h248q23 0 32.5 -7.5t14.5 -28.5l264 -1305h10q65 269 133 649t115 709q4 22 31 22h219q19 0 16 -24q-56 -342 -153.5 -787.5t-182.5 -734.5
q-9 -30 -23.5 -39.5t-49.5 -9.5h-219q-37 0 -52.5 10.5t-21.5 40.5l-250 1221h-8l-226 -1221q-6 -30 -21 -40.5t-52 -10.5h-228q-35 0 -49.5 9.5t-23.5 39.5q-83 286 -183.5 721t-171.5 801zM651 1815q-2 11 6 20l215 260q11 14 37 14h219q26 0 37 -14l215 -260
q8 -9 6.5 -20t-14.5 -17l-110 -61q-29 -14 -45 2l-189 203h-18l-189 -203q-16 -16 -45 -2l-110 61q-13 6 -15 17z" />
    <glyph glyph-name="wcircumflex" unicode="&#x175;" horiz-adv-x="1699" 
d="M39 1180q-3 12 3.5 19t20.5 7h175q19 0 27 -5.5t11 -20.5q93 -549 209 -1002h11l192 967q5 25 15.5 33t41.5 8h205q31 0 42 -8t16 -33l196 -967h10q116 453 209 1002q3 15 11.5 20.5t27.5 5.5h174q14 0 21 -7t4 -19q-104 -523 -291 -1135q-7 -25 -22 -35t-41 -10h-195
q-33 0 -45.5 9t-17.5 36l-193 963h-12l-193 -963q-5 -27 -17.5 -36t-45.5 -9h-197q-28 0 -42 9.5t-21 35.5q-181 593 -289 1135zM489 1466l216 260q12 15 36 15h220q24 0 36 -15l215 -260q18 -22 -8 -36l-110 -62q-29 -14 -45 2l-189 203h-18l-189 -203q-16 -16 -45 -2
l-110 62q-26 16 -9 36z" />
    <glyph glyph-name="Ycircumflex" unicode="&#x176;" horiz-adv-x="1259" 
d="M57 1569q-10 26 17 26h221q18 0 26.5 -5t12.5 -19q105 -334 295 -785h10q177 420 289 785q4 14 12.5 19t26.5 5h219q27 0 16 -26q-196 -545 -448 -1039v-503q0 -27 -31 -27h-186q-31 0 -31 27v503q-248 482 -449 1039zM266 1815q-2 11 6 20l215 260q11 14 37 14h219
q26 0 37 -14l215 -260q8 -9 6.5 -20t-14.5 -17l-110 -61q-29 -15 -46 2l-188 203h-18l-189 -203q-16 -16 -45 -2l-110 61q-13 6 -15 17z" />
    <glyph glyph-name="ycircumflex" unicode="&#x177;" horiz-adv-x="1118" 
d="M35 1178q-7 28 20 28h189q29 0 35 -20q180 -692 288 -1010h13q128 450 254 1002q7 28 38 28h185q30 0 20 -32q-167 -658 -346 -1194q-43 -130 -83 -208.5t-92.5 -125.5t-113 -63.5t-151.5 -16.5q-86 0 -139 16q-18 6 -24 13t-11 24l-29 129q-3 13 5 20.5t22 4.5
q83 -17 151 -17q94 0 154 46.5t94 144.5l25 69h-84q-52 0 -66 41q-90 235 -188 548.5t-166 572.5zM213 1466l215 260q12 15 37 15h219q25 0 37 -15l215 -260q18 -22 -8 -36l-111 -62q-29 -14 -45 2l-188 203h-19l-188 -203q-16 -16 -45 -2l-111 62q-25 16 -8 36z" />
    <glyph glyph-name="Ydieresis" unicode="&#x178;" horiz-adv-x="1259" 
d="M57 1569q-10 26 17 26h221q18 0 26.5 -5t12.5 -19q105 -334 295 -785h10q177 420 289 785q4 14 12.5 19t26.5 5h219q27 0 16 -26q-196 -545 -448 -1039v-503q0 -27 -31 -27h-186q-31 0 -31 27v503q-248 482 -449 1039zM283 1821v207q0 20 8.5 27t30.5 7h174q21 0 31 -7.5
t10 -26.5v-207q0 -20 -10 -27.5t-31 -7.5h-174q-22 0 -30.5 7.5t-8.5 27.5zM713 1821v207q0 20 8.5 27t30.5 7h178q21 0 31 -7.5t10 -26.5v-207q0 -20 -10 -27.5t-31 -7.5h-178q-22 0 -30.5 7.5t-8.5 27.5z" />
    <glyph glyph-name="Zacute" unicode="&#x179;" horiz-adv-x="1214" 
d="M82 35v74q0 55 22 98l719 1169h-686q-22 0 -22 25v172q0 22 22 22h961q35 0 35 -32v-70q0 -51 -35 -109l-715 -1165h668q28 0 28 -22l-30 -172q0 -25 -27 -25h-905q-21 0 -28 7t-7 28zM465 1748.5q-3 9.5 8 23.5l229 301q19 28 62 28h250q17 0 21 -12t-7 -21l-291 -296
q-33 -33 -80 -33h-170q-19 0 -22 9.5z" />
    <glyph glyph-name="zacute" unicode="&#x17a;" horiz-adv-x="1032" 
d="M76 33v76q0 21 5 34.5t21 40.5l574 832h-561q-27 0 -27 22v148q0 20 25 20h817q26 0 26 -26v-101q0 -37 -24 -78l-563 -811h561q29 0 20 -30l-41 -135q-8 -25 -32 -25h-766q-35 0 -35 33zM344.5 1380q-3.5 10 7.5 23l230 301q20 29 61 29h250q17 0 21 -12t-7 -21
l-291 -297q-33 -33 -79 -33h-170q-19 0 -22.5 10z" />
    <glyph glyph-name="Zdotaccent" unicode="&#x17b;" horiz-adv-x="1214" 
d="M82 35v74q0 55 22 98l719 1169h-686q-22 0 -22 25v172q0 22 22 22h961q35 0 35 -32v-70q0 -51 -35 -109l-715 -1165h668q28 0 28 -22l-30 -172q0 -25 -27 -25h-905q-21 0 -28 7t-7 28zM494 1835v209q0 19 8 26t30 7h187q41 0 41 -33v-209q0 -35 -41 -35h-187
q-21 0 -29.5 8t-8.5 27z" />
    <glyph glyph-name="zdotaccent" unicode="&#x17c;" horiz-adv-x="1032" 
d="M76 33v76q0 21 5 34.5t21 40.5l574 832h-561q-27 0 -27 22v148q0 20 25 20h817q26 0 26 -26v-101q0 -37 -24 -78l-563 -811h561q29 0 20 -30l-41 -135q-8 -25 -32 -25h-766q-35 0 -35 33zM399 1466v209q0 19 8.5 26t30.5 7h187q41 0 41 -33v-209q0 -34 -41 -34h-187
q-22 0 -30.5 7.5t-8.5 26.5z" />
    <glyph glyph-name="Zcaron" unicode="&#x17d;" horiz-adv-x="1214" 
d="M82 35v74q0 55 22 98l719 1169h-686q-22 0 -22 25v172q0 22 22 22h961q35 0 35 -32v-70q0 -51 -35 -109l-715 -1165h668q28 0 28 -22l-30 -172q0 -25 -27 -25h-905q-21 0 -28 7t-7 28zM272.5 2023q1.5 11 14.5 17l110 61q29 14 45 -2l189 -203h18l189 203q16 16 45 2
l110 -61q13 -6 14.5 -17t-6.5 -20l-215 -260q-11 -14 -36 -14h-220q-25 0 -36 14l-215 260q-8 9 -6.5 20z" />
    <glyph glyph-name="zcaron" unicode="&#x17e;" horiz-adv-x="1032" 
d="M76 33v76q0 21 5 34.5t21 40.5l574 832h-561q-27 0 -27 22v148q0 20 25 20h817q26 0 26 -26v-101q0 -37 -24 -78l-563 -811h561q29 0 20 -30l-41 -135q-8 -25 -32 -25h-766q-35 0 -35 33zM161.5 1654q1.5 11 14.5 17l111 62q29 14 45 -2l188 -203h19l188 203q16 16 45 2
l111 -62q13 -6 14.5 -17t-6.5 -20l-215 -260q-11 -14 -37 -14h-219q-26 0 -37 14l-215 260q-8 9 -6.5 20z" />
    <glyph glyph-name="longs" unicode="&#x17f;" horiz-adv-x="681" 
d="M16 1049v135q0 22 23 22h180v92q0 116 26.5 184t90.5 117q98 74 297 74q48 0 113.5 -8t95.5 -16q16 -5 16 -23v-125q0 -23 -27 -20q-99 12 -153 12q-134 0 -182 -51q-22 -24 -31.5 -58.5t-9.5 -99.5v-1257q0 -27 -27 -27h-184q-25 0 -25 27v999h-180q-23 0 -23 23z" />
    <glyph glyph-name="florin" unicode="&#x192;" horiz-adv-x="1345" 
d="M84 -223q-4 18 5.5 24.5t25.5 1.5q63 -18 137 -18q81 0 126.5 33t59.5 116l162 975h-178q-15 0 -23 6.5t-4 20.5l23 133q3 23 35 23h180l43 254q31 167 122.5 244t272.5 77q109 0 170 -22q21 -8 21 -31v-125q-3 -30 -35 -21q-63 17 -135 17q-89 0 -128.5 -35t-56.5 -121
l-39 -237h230q15 0 23 -6.5t5 -20.5l-24 -133q-3 -23 -35 -23h-229l-170 -997q-27 -161 -116 -238t-241 -77q-88 0 -168 22q-18 6 -24 25z" />
    <glyph glyph-name="Acaron" unicode="&#x1cd;" horiz-adv-x="1353" 
d="M74 35q194 794 413 1519q7 24 21 32.5t45 8.5h246q31 0 44.5 -8t20.5 -33q156 -519 416 -1519q5 -19 -1 -27t-26 -8h-188q-19 0 -26.5 6.5t-12.5 24.5l-74 311h-565l-72 -311q-5 -18 -12.5 -24.5t-26.5 -6.5h-176q-20 0 -25.5 8t-0.5 27zM300.5 2023q1.5 11 14.5 17
l111 61q29 14 45 -2l188 -203h19l188 203q16 16 45 2l111 -61q13 -6 14.5 -17t-6.5 -20l-215 -260q-11 -14 -37 -14h-219q-26 0 -37 14l-215 260q-8 9 -6.5 20zM438 541h463q-97 414 -225 845h-12q-120 -417 -226 -845z" />
    <glyph glyph-name="acaron" unicode="&#x1ce;" horiz-adv-x="1159" 
d="M82 334v28q0 103 35.5 178t101.5 113q104 58 344 58q88 0 221 -9v91q0 130 -51 184q-60 63 -207 63q-146 0 -319 -47q-29 -7 -29 21v131q0 20 23 29q143 55 350 55q256 0 371 -109q53 -50 76.5 -123.5t23.5 -185.5v-541q0 -115 16 -243q3 -27 -22 -27h-154q-25 0 -33 23
q-12 41 -22 86q-123 -132 -326 -132q-191 0 -295 89.5t-104 267.5zM227 1654q2 11 15 17l110 62q29 14 45 -2l189 -203h18l189 203q16 16 45 2l110 -62q13 -6 14.5 -17t-6.5 -20l-215 -260q-11 -14 -36 -14h-220q-25 0 -36 14l-216 260q-8 9 -6 20zM322 338
q0 -87 51.5 -131.5t142.5 -44.5q174 0 268 102v256q-74 8 -211 8q-58 0 -91 -2.5t-68 -12t-52.5 -28t-28.5 -51.5t-11 -82v-14z" />
    <glyph glyph-name="Aringacute" unicode="&#x1fa;" horiz-adv-x="1353" 
d="M74 35q194 794 413 1519q7 24 21 32.5t45 8.5h246q31 0 44.5 -8t20.5 -33q156 -519 416 -1519q5 -19 -1 -27t-26 -8h-188q-19 0 -26.5 6.5t-12.5 24.5l-74 311h-565l-72 -311q-5 -18 -12.5 -24.5t-26.5 -6.5h-176q-20 0 -25.5 8t-0.5 27zM434 1911q0 101 66 167t176 66
q105 0 168 -66t63 -167q0 -98 -63.5 -165t-167.5 -67q-109 0 -175.5 67t-66.5 165zM438 541h463q-97 414 -225 845h-12q-120 -417 -226 -845zM473.5 2228q-3.5 10 7.5 23l230 301q19 28 61 28h250q17 0 21 -11.5t-7 -20.5l-291 -297q-33 -33 -79 -33h-170q-19 0 -22.5 10z
M575 1913q0 -46 24.5 -78.5t76.5 -32.5q92 0 92 111q0 110 -92 110q-52 0 -76.5 -31.5t-24.5 -78.5z" />
    <glyph glyph-name="aringacute" unicode="&#x1fb;" horiz-adv-x="1159" 
d="M82 334v28q0 103 35.5 178t101.5 113q104 58 344 58q88 0 221 -9v91q0 130 -51 184q-60 63 -207 63q-146 0 -319 -47q-29 -7 -29 21v131q0 20 23 29q143 55 350 55q256 0 371 -109q53 -50 76.5 -123.5t23.5 -185.5v-541q0 -115 16 -243q3 -27 -22 -27h-154q-25 0 -33 23
q-12 41 -22 86q-123 -132 -326 -132q-191 0 -295 89.5t-104 267.5zM322 338q0 -87 51.5 -131.5t142.5 -44.5q174 0 268 102v256q-74 8 -211 8q-58 0 -91 -2.5t-68 -12t-52.5 -28t-28.5 -51.5t-11 -82v-14zM352 1561q0 101 66 167t176 66q105 0 168 -66t63 -167
q0 -98 -63.5 -165t-167.5 -67q-109 0 -175.5 67t-66.5 165zM405.5 1894.5q1.5 7.5 8.5 16.5l229 301q20 29 62 29h249q17 0 21.5 -12t-6.5 -21l-291 -297q-33 -33 -80 -33h-170q-13 0 -18.5 4.5t-4 12zM494 1563q0 -47 24.5 -79t75.5 -32q92 0 92 111q0 110 -92 110
q-52 0 -76 -31t-24 -79z" />
    <glyph glyph-name="AEacute" unicode="&#x1fc;" horiz-adv-x="2082" 
d="M69.5 8q-4.5 8 0.5 19q424 852 815 1529q12 23 25 31t40 8h994q17 0 23.5 -6t6.5 -20l-20 -166q0 -27 -31 -27h-606v-465h551q28 0 28 -26l-20 -166q0 -27 -31 -27h-528v-473h622q31 0 31 -26l-20 -166q0 -27 -31 -27h-819q-31 0 -31 27v315h-553q-95 -179 -158 -315
q-14 -27 -39 -27h-231q-14 0 -18.5 8zM608 541h461v835h-29q-270 -500 -432 -835zM1245.5 1748.5q-3.5 9.5 7.5 23.5l230 301q19 28 61 28h250q17 0 21 -12t-7 -21l-290 -296q-33 -33 -80 -33h-170q-19 0 -22.5 9.5z" />
    <glyph glyph-name="aeacute" unicode="&#x1fd;" horiz-adv-x="1832" 
d="M82 334v28q0 103 35.5 178t101.5 113q104 58 344 58q88 0 221 -9v91q0 130 -51 184q-60 63 -207 63q-146 0 -319 -47q-29 -7 -29 21v131q0 20 23 29q143 55 350 55q265 0 375 -113q132 113 354 113q224 0 337.5 -117.5t113.5 -339.5v-188q0 -62 -56 -62h-653v-71
q0 -144 76.5 -212.5t236.5 -68.5q170 0 293 47q18 6 28 -0.5t7 -26.5l-18 -120q-3 -19 -10.5 -29t-24.5 -16q-45 -20 -133 -34t-164 -14q-299 0 -430 148q-156 -148 -402 -148q-191 0 -295 89.5t-104 267.5zM322 338q0 -176 202 -176q172 0 283 108q-23 73 -23 176v74
q-74 8 -211 8q-58 0 -91 -2.5t-68 -12t-52.5 -28t-28.5 -51.5t-11 -82v-14zM811.5 1380q-3.5 10 7.5 23l230 301q20 29 61 29h250q17 0 21 -12t-7 -21l-291 -297q-33 -33 -79 -33h-170q-19 0 -22.5 10zM1022 698h473v86q0 123 -37 185q-57 84 -182 84q-254 0 -254 -283v-72z
" />
    <glyph glyph-name="Oslashacute" unicode="&#x1fe;" horiz-adv-x="1355" 
d="M119 573v447q0 166 39.5 281.5t124.5 189.5q140 125 395 125q168 0 287 -55l82 163q12 30 47 17l82 -33q32 -14 18 -47l-94 -195q137 -146 137 -446v-447q0 -166 -39.5 -281.5t-124.5 -189.5q-140 -125 -395 -125q-160 0 -283 54l-73 -154q-9 -17 -20 -20.5t-30 4.5
l-82 33q-36 14 -20 47l88 182q-139 145 -139 450zM365 610q0 -155 20 -229l479 977q-71 49 -186 49q-164 0 -242 -98q-42 -54 -56.5 -126.5t-14.5 -199.5v-373zM496 231q70 -45 182 -45q160 0 242 99q42 54 56.5 126t14.5 199v373q0 150 -20 221zM522.5 1748.5
q-3.5 9.5 7.5 23.5l230 301q19 28 61 28h250q17 0 21 -12t-7 -21l-290 -296q-33 -33 -80 -33h-170q-19 0 -22.5 9.5z" />
    <glyph glyph-name="oslashacute" unicode="&#x1ff;" horiz-adv-x="1226" 
d="M86 -8l111 158q-82 122 -82 323v262q0 245 122 369.5t377 124.5q180 0 297 -66l84 121q24 38 58 14l71 -43q32 -19 13 -47l-107 -151q82 -119 82 -322v-262q0 -245 -121.5 -369t-376.5 -124q-186 0 -297 63l-90 -129q-11 -18 -25 -19.5t-32 9.5l-72 41q-33 20 -12 47z
M352 477q0 -51 6 -98l430 610q-64 49 -174 49q-138 0 -200 -75t-62 -232v-254zM440 217q58 -47 174 -47q138 0 200.5 75t62.5 232v254q0 53 -9 96zM489.5 1386.5q1.5 7.5 8.5 16.5l229 301q20 29 61 29h250q17 0 21.5 -12t-6.5 -21l-291 -297q-33 -33 -80 -33h-170
q-13 0 -18.5 4.5t-4 12z" />
    <glyph glyph-name="Scommaaccent" unicode="&#x218;" horiz-adv-x="1142" 
d="M98 256q0 14 8 19.5t19 0.5q191 -88 379 -88q136 0 215.5 64t79.5 176v12q0 100 -53.5 158.5t-178.5 103.5l-145 54q-301 110 -301 424v14q0 192 140 308t386 116q133 0 277 -39q20 -6 26 -14t6 -25v-147q0 -33 -34 -23q-125 39 -275 39q-137 0 -208.5 -57.5
t-71.5 -157.5v-6q0 -97 52 -151t173 -97l145 -53q149 -54 228 -152.5t79 -261.5v-14q0 -118 -41.5 -211t-115 -151.5t-170.5 -89t-211 -30.5q-86 0 -183.5 19t-160.5 45q-17 7 -24.5 18.5t-12.5 32.5zM416 -596q33 125 33 270v115q0 25 11.5 36t37.5 11h139q26 0 37.5 -11
t11.5 -36v-80q0 -167 -70 -307q-17 -39 -59 -39h-108q-44 0 -33 41z" />
    <glyph glyph-name="scommaaccent" unicode="&#x219;" horiz-adv-x="966" 
d="M94 205q-1 12 7 17.5t22 0.5q60 -26 140 -42.5t149 -16.5q117 0 177 40t60 115v9q0 65 -33.5 101.5t-115.5 66.5l-156 57q-250 90 -250 330v12q0 144 117 239t328 95q127 0 256 -39q22 -6 22 -33v-129q0 -18 -9 -22.5t-26 0.5q-140 36 -239 36q-109 0 -164 -37t-55 -102
v-8q0 -55 30.5 -90.5t116.5 -67.5l147 -57q132 -52 194 -126.5t62 -193.5v-18q0 -171 -115 -268t-319 -97q-136 0 -293 50q-29 10 -32 36zM354 -596q33 125 33 270v115q0 25 11.5 36t37.5 11h139q50 0 50 -47v-80q0 -167 -70 -307q-17 -39 -59 -39h-109q-44 0 -33 41z" />
    <glyph glyph-name="uni021A" unicode="&#x21a;" horiz-adv-x="1255" 
d="M57 1397v178q0 20 21 20h1116q18 0 18 -20l-34 -180q-3 -19 -25 -19h-401v-1349q0 -27 -31 -27h-186q-31 0 -31 27v1349h-426q-21 0 -21 21zM477 -596q33 125 33 270v115q0 25 11.5 36t37.5 11h139q50 0 50 -47v-80q0 -167 -70 -307q-17 -39 -60 -39h-108q-44 0 -33 41z
" />
    <glyph glyph-name="uni021B" unicode="&#x21b;" horiz-adv-x="886" 
d="M20 1049v135q0 22 23 22h201v279q0 19 24 24l181 33q30 7 30 -16v-320h334q14 0 19 -5t4 -17l-9 -131q-1 -17 -7.5 -22t-22.5 -5h-318v-643q0 -113 33.5 -159t130.5 -46q57 0 152 23q18 5 24.5 -0.5t3.5 -22.5l-22 -133q-5 -31 -31 -43q-55 -25 -172 -25q-222 0 -301 115
q-53 77 -53 252v682h-201q-23 0 -23 23zM342 -596q33 125 33 270v115q0 25 11.5 36t37.5 11h139q26 0 37.5 -11t11.5 -36v-80q0 -169 -69 -307q-17 -39 -60 -39h-108q-44 0 -33 41z" />
    <glyph glyph-name="circumflex" unicode="&#x2c6;" 
d="M82 1466l215 260q12 15 37 15h219q25 0 37 -15l215 -260q18 -22 -8 -36l-111 -62q-29 -14 -45 2l-188 203h-19l-188 -203q-16 -16 -45 -2l-111 62q-25 16 -8 36z" />
    <glyph glyph-name="caron" unicode="&#x2c7;" 
d="M79.5 1654q1.5 11 14.5 17l111 62q29 14 45 -2l188 -203h19l188 203q16 16 45 2l111 -62q13 -6 14.5 -17t-6.5 -20l-215 -260q-11 -14 -37 -14h-219q-26 0 -37 14l-215 260q-8 9 -6.5 20z" />
    <glyph glyph-name="breve" unicode="&#x2d8;" 
d="M133 1675q0 8 5 13.5t12 5.5h135q15 0 18 -13q9 -51 46 -79.5t97 -28.5q57 0 93 29t45 79q3 13 16 13h143q19 0 19 -19q-6 -120 -94.5 -186t-221.5 -66q-135 0 -222 65.5t-91 186.5z" />
    <glyph glyph-name="dotaccent" unicode="&#x2d9;" 
d="M315 1466v209q0 19 8.5 26t30.5 7h187q41 0 41 -33v-209q0 -34 -41 -34h-187q-22 0 -30.5 7.5t-8.5 26.5z" />
    <glyph glyph-name="ring" unicode="&#x2da;" 
d="M211 1573q0 101 66 167t176 66q105 0 168 -66t63 -167q0 -98 -63.5 -165t-167.5 -67q-109 0 -175.5 67t-66.5 165zM352 1575q0 -46 24.5 -78.5t76.5 -32.5q92 0 92 111t-92 111q-52 0 -76.5 -31.5t-24.5 -79.5z" />
    <glyph glyph-name="ogonek" unicode="&#x2db;" 
d="M209 -348q0 103 60 196t161 138q32 14 68 14h168q10 0 11.5 -8.5t-9.5 -14.5q-104 -58 -161.5 -132.5t-57.5 -141.5q0 -51 24 -72.5t78 -21.5q38 0 74 8q18 4 16 -16l-25 -119q-3 -20 -16 -23q-56 -18 -164 -18q-105 0 -166 58.5t-61 152.5z" />
    <glyph glyph-name="tilde" unicode="&#x2dc;" horiz-adv-x="899" 
d="M29 1513q39 89 108.5 142t151.5 53q43 0 76.5 -12.5t78.5 -40.5l33 -21q2 -1 13.5 -8t14 -8t11.5 -6t13 -6t11.5 -3.5t13.5 -3t13 -0.5q59 0 109 87q10 17 37 4l104 -58q18 -13 12 -28q-36 -87 -105 -141t-153 -54q-82 0 -155 47l-39 25q-56 35 -92 35q-37 0 -64 -19
t-51 -65q-15 -22 -41 -9l-92 54q-19 12 -8 36z" />
    <glyph glyph-name="hungarumlaut" unicode="&#x2dd;" horiz-adv-x="899" 
d="M61.5 1377.5q-6.5 7.5 1.5 19.5l207 317q11 19 35 19h250q20 0 23.5 -11t-11.5 -28l-262 -297q-23 -27 -59 -27h-164q-14 0 -20.5 7.5zM515.5 1377.5q-6.5 7.5 0.5 19.5l207 317q11 19 37 19h250q19 0 22 -11t-10 -28l-262 -297q-23 -27 -60 -27h-163q-15 0 -21.5 7.5z
" />
    <glyph glyph-name="commaaccent" unicode="&#x326;" 
d="M313 -596q33 125 33 270v115q0 25 11.5 36t37.5 11h140q26 0 37.5 -11t11.5 -36v-80q0 -167 -70 -307q-17 -39 -59 -39h-109q-44 0 -33 41z" />
    <glyph glyph-name="Delta" unicode="&#x394;" horiz-adv-x="1609" 
d="M74 141q0 17 7.5 40t27 66.5t24.5 55.5l492 1243q18 49 69 49h221q52 0 70 -49l492 -1243q5 -12 19 -43.5t20.5 -47.5t13 -37t6.5 -34q0 -35 -23 -73q-32 -68 -94 -68h-1229q-61 0 -86 51q-30 56 -30 90zM367 217h876l-428 1112h-20z" />
    <glyph glyph-name="Omega" unicode="&#x3a9;" horiz-adv-x="1658" 
d="M104 879v26q0 209 93.5 371.5t258.5 251t373 88.5t373 -88.5t258.5 -251t93.5 -371.5v-26q0 -189 -98.5 -377t-232.5 -293h264q42 0 33 -39l-31 -133q-3 -20 -11 -28.5t-28 -8.5h-465q-38 0 -50.5 11t-12.5 42v70q0 29 10.5 47.5t40.5 44.5q146 132 238 312t92 341v19
q0 257 -131 388.5t-343 131.5q-97 0 -180.5 -31.5t-150 -93.5t-104.5 -163.5t-38 -231.5v-19q0 -161 92 -341t238 -312q29 -28 40 -45.5t11 -46.5v-70q0 -31 -12.5 -42t-50.5 -11h-469q-19 0 -26.5 8.5t-10.5 28.5l-29 137q-3 19 4.5 27t28.5 8h260q-134 104 -231 292.5
t-97 377.5z" />
    <glyph glyph-name="mu" unicode="&#x3bc;" horiz-adv-x="1277" 
d="M154 -389v1569q0 26 26 26h180q29 0 29 -24v-742q0 -78 11.5 -122.5t43.5 -77.5q29 -30 83 -47t118 -17q136 0 194 61.5t58 202.5v740q0 26 25 26h184q27 0 27 -26v-756q0 -225 -111 -336t-338 -111q-94 0 -171 22t-124 58v-403q0 -26 -29 -31l-176 -37q-13 -3 -21.5 4
t-8.5 21z" />
    <glyph glyph-name="pi" unicode="&#x3c0;" horiz-adv-x="1519" 
d="M12 1055v121q0 17 7 23.5t26 6.5h1385q23 0 30 -5.5t4 -26.5l-20 -115q-3 -20 -12.5 -27.5t-28.5 -7.5h-219v-717q0 -81 26 -113t86 -32q44 0 82 10q14 5 22.5 -2.5t4.5 -24.5l-25 -114q-5 -22 -10.5 -30.5t-21.5 -12.5q-40 -11 -105 -11q-155 0 -225 74t-70 242v731
h-456v-989q0 -35 -37 -35h-164q-35 0 -35 35v989h-211q-33 0 -33 31z" />
    <glyph glyph-name="Wgrave" unicode="&#x1e80;" horiz-adv-x="2033" 
d="M59 1571q-3 24 21 24h213q16 0 23 -5t10 -21q49 -296 126.5 -680.5t145.5 -673.5h14l232 1305q3 20 13.5 28t33.5 8h248q23 0 32.5 -7.5t14.5 -28.5l264 -1305h10q65 269 133 649t115 709q4 22 31 22h219q19 0 16 -24q-56 -342 -153.5 -787.5t-182.5 -734.5
q-9 -30 -23.5 -39.5t-49.5 -9.5h-219q-37 0 -52.5 10.5t-21.5 40.5l-250 1221h-8l-226 -1221q-6 -30 -21 -40.5t-52 -10.5h-228q-35 0 -49.5 9.5t-23.5 39.5q-83 286 -183.5 721t-171.5 801zM552 2089q4 12 21 12h250q43 0 62 -28l229 -301q11 -14 8 -23.5t-22 -9.5h-170
q-47 0 -80 33l-291 296q-11 9 -7 21z" />
    <glyph glyph-name="wgrave" unicode="&#x1e81;" horiz-adv-x="1699" 
d="M39 1180q-3 12 3.5 19t20.5 7h175q19 0 27 -5.5t11 -20.5q93 -549 209 -1002h11l192 967q5 25 15.5 33t41.5 8h205q31 0 42 -8t16 -33l196 -967h10q116 453 209 1002q3 15 11.5 20.5t27.5 5.5h174q14 0 21 -7t4 -19q-104 -523 -291 -1135q-7 -25 -22 -35t-41 -10h-195
q-33 0 -45.5 9t-17.5 36l-193 963h-12l-193 -963q-5 -27 -17.5 -36t-45.5 -9h-197q-28 0 -42 9.5t-21 35.5q-181 593 -289 1135zM399 1721q4 12 21 12h250q41 0 61 -29l230 -301q7 -9 8.5 -16.5t-4.5 -12t-19 -4.5h-170q-47 0 -80 33l-290 297q-11 9 -7 21z" />
    <glyph glyph-name="Wacute" unicode="&#x1e82;" horiz-adv-x="2033" 
d="M59 1571q-3 24 21 24h213q16 0 23 -5t10 -21q49 -296 126.5 -680.5t145.5 -673.5h14l232 1305q3 20 13.5 28t33.5 8h248q23 0 32.5 -7.5t14.5 -28.5l264 -1305h10q65 269 133 649t115 709q4 22 31 22h219q19 0 16 -24q-56 -342 -153.5 -787.5t-182.5 -734.5
q-9 -30 -23.5 -39.5t-49.5 -9.5h-219q-37 0 -52.5 10.5t-21.5 40.5l-250 1221h-8l-226 -1221q-6 -30 -21 -40.5t-52 -10.5h-228q-35 0 -49.5 9.5t-23.5 39.5q-83 286 -183.5 721t-171.5 801zM895.5 1748.5q-3.5 9.5 7.5 23.5l230 301q19 28 61 28h250q17 0 21 -12t-7 -21
l-291 -296q-33 -33 -80 -33h-169q-19 0 -22.5 9.5z" />
    <glyph glyph-name="wacute" unicode="&#x1e83;" horiz-adv-x="1699" 
d="M39 1180q-3 12 3.5 19t20.5 7h175q19 0 27 -5.5t11 -20.5q93 -549 209 -1002h11l192 967q5 25 15.5 33t41.5 8h205q31 0 42 -8t16 -33l196 -967h10q116 453 209 1002q3 15 11.5 20.5t27.5 5.5h174q14 0 21 -7t4 -19q-104 -523 -291 -1135q-7 -25 -22 -35t-41 -10h-195
q-33 0 -45.5 9t-17.5 36l-193 963h-12l-193 -963q-5 -27 -17.5 -36t-45.5 -9h-197q-28 0 -42 9.5t-21 35.5q-181 593 -289 1135zM731.5 1380q-3.5 10 7.5 23l230 301q20 29 61 29h250q17 0 21 -12t-7 -21l-290 -297q-33 -33 -80 -33h-170q-19 0 -22.5 10z" />
    <glyph glyph-name="Wdieresis" unicode="&#x1e84;" horiz-adv-x="2033" 
d="M59 1571q-3 24 21 24h213q16 0 23 -5t10 -21q49 -296 126.5 -680.5t145.5 -673.5h14l232 1305q3 20 13.5 28t33.5 8h248q23 0 32.5 -7.5t14.5 -28.5l264 -1305h10q65 269 133 649t115 709q4 22 31 22h219q19 0 16 -24q-56 -342 -153.5 -787.5t-182.5 -734.5
q-9 -30 -23.5 -39.5t-49.5 -9.5h-219q-37 0 -52.5 10.5t-21.5 40.5l-250 1221h-8l-226 -1221q-6 -30 -21 -40.5t-52 -10.5h-228q-35 0 -49.5 9.5t-23.5 39.5q-83 286 -183.5 721t-171.5 801zM674 1821v207q0 20 8.5 27t30.5 7h174q21 0 31 -7.5t10 -26.5v-207
q0 -20 -10 -27.5t-31 -7.5h-174q-22 0 -30.5 7.5t-8.5 27.5zM1104 1821v207q0 20 8.5 27t30.5 7h178q21 0 31 -7.5t10 -26.5v-207q0 -20 -10 -27.5t-31 -7.5h-178q-22 0 -30.5 7.5t-8.5 27.5z" />
    <glyph glyph-name="wdieresis" unicode="&#x1e85;" horiz-adv-x="1699" 
d="M39 1180q-3 12 3.5 19t20.5 7h175q19 0 27 -5.5t11 -20.5q93 -549 209 -1002h11l192 967q5 25 15.5 33t41.5 8h205q31 0 42 -8t16 -33l196 -967h10q116 453 209 1002q3 15 11.5 20.5t27.5 5.5h174q14 0 21 -7t4 -19q-104 -523 -291 -1135q-7 -25 -22 -35t-41 -10h-195
q-33 0 -45.5 9t-17.5 36l-193 963h-12l-193 -963q-5 -27 -17.5 -36t-45.5 -9h-197q-28 0 -42 9.5t-21 35.5q-181 593 -289 1135zM506 1460v207q0 20 8.5 27.5t30.5 7.5h174q21 0 31 -7.5t10 -27.5v-207q0 -20 -10 -27.5t-31 -7.5h-174q-22 0 -30.5 7.5t-8.5 27.5zM936 1460
v207q0 20 8.5 27.5t30.5 7.5h178q21 0 31 -7.5t10 -27.5v-207q0 -20 -10 -27.5t-31 -7.5h-178q-22 0 -30.5 7.5t-8.5 27.5z" />
    <glyph glyph-name="Ygrave" unicode="&#x1ef2;" horiz-adv-x="1259" 
d="M57 1569q-10 26 17 26h221q18 0 26.5 -5t12.5 -19q105 -334 295 -785h10q177 420 289 785q4 14 12.5 19t26.5 5h219q27 0 16 -26q-196 -545 -448 -1039v-503q0 -27 -31 -27h-186q-31 0 -31 27v503q-248 482 -449 1039zM179.5 2089q4.5 12 21.5 12h250q42 0 61 -28
l229 -301q11 -14 8 -23.5t-22 -9.5h-170q-47 0 -80 33l-291 296q-11 9 -6.5 21z" />
    <glyph glyph-name="ygrave" unicode="&#x1ef3;" horiz-adv-x="1118" 
d="M35 1178q-7 28 20 28h189q29 0 35 -20q180 -692 288 -1010h13q128 450 254 1002q7 28 38 28h185q30 0 20 -32q-167 -658 -346 -1194q-43 -130 -83 -208.5t-92.5 -125.5t-113 -63.5t-151.5 -16.5q-86 0 -139 16q-18 6 -24 13t-11 24l-29 129q-3 13 5 20.5t22 4.5
q83 -17 151 -17q94 0 154 46.5t94 144.5l25 69h-84q-52 0 -66 41q-90 235 -188 548.5t-166 572.5zM102 1721q4 12 21 12h250q41 0 61 -29l230 -301q7 -9 8.5 -16.5t-4.5 -12t-19 -4.5h-170q-47 0 -80 33l-290 297q-11 9 -7 21z" />
    <glyph glyph-name="endash" unicode="&#x2013;" horiz-adv-x="1024" 
d="M0 666v137q0 20 23 20h981q20 0 20 -20v-137q0 -21 -20 -21h-981q-23 0 -23 21z" />
    <glyph glyph-name="emdash" unicode="&#x2014;" horiz-adv-x="2158" 
d="M4 666v137q0 20 21 20h2107q22 0 22 -20v-137q0 -21 -22 -21h-2107q-21 0 -21 21z" />
    <glyph glyph-name="quoteleft" unicode="&#x2018;" horiz-adv-x="581" 
d="M133 1225v121q0 101 27 212t67 177q19 34 64 34h112q24 1 33 -9.5t4 -30.5q-53 -194 -53 -369v-135q0 -19 -7.5 -26t-29.5 -7h-182q-20 0 -27.5 7t-7.5 26z" />
    <glyph glyph-name="quoteright" unicode="&#x2019;" horiz-adv-x="581" 
d="M135 1233q53 194 53 369v135q0 19 7.5 25.5t29.5 6.5h183q20 0 27 -6.5t7 -25.5v-121q0 -101 -27 -212t-67 -177q-20 -35 -63 -35h-113q-24 -1 -33 10t-4 31z" />
    <glyph glyph-name="quotesinglbase" unicode="&#x201a;" horiz-adv-x="581" 
d="M104 -283q54 197 54 369v135q0 19 7.5 26t29.5 7h182q20 0 27.5 -7t7.5 -26v-121q0 -100 -27.5 -211t-67.5 -178q-20 -35 -63 -35h-113q-24 -1 -33 10t-4 31z" />
    <glyph glyph-name="quotedblleft" unicode="&#x201c;" horiz-adv-x="1021" 
d="M133 1225v121q0 101 27 212t67 177q19 34 64 34h112q24 1 33 -9.5t4 -30.5q-53 -194 -53 -369v-135q0 -19 -7.5 -26t-29.5 -7h-182q-20 0 -27.5 7t-7.5 26zM571 1225v121q0 100 27.5 211t67.5 178q19 34 63 34h113q24 1 33 -9.5t4 -30.5q-54 -197 -54 -369v-135
q0 -19 -7.5 -26t-29.5 -7h-182q-20 0 -27.5 7t-7.5 26z" />
    <glyph glyph-name="quotedblright" unicode="&#x201d;" horiz-adv-x="1021" 
d="M154 1233q53 194 53 369v135q0 19 7.5 25.5t29.5 6.5h182q20 0 27.5 -6.5t7.5 -25.5v-121q0 -101 -27 -212t-67 -177q-20 -35 -64 -35h-113q-24 -1 -32.5 10t-3.5 31zM592 1233q53 194 53 369v135q0 19 7.5 25.5t29.5 6.5h182q20 0 27.5 -6.5t7.5 -25.5v-121
q0 -101 -27 -212t-67 -177q-20 -35 -64 -35h-112q-24 -1 -33 10t-4 31z" />
    <glyph glyph-name="quotedblbase" unicode="&#x201e;" horiz-adv-x="1021" 
d="M104 -283q54 197 54 369v135q0 19 7.5 26t29.5 7h182q20 0 27.5 -7t7.5 -26v-121q0 -100 -27.5 -211t-67.5 -178q-20 -35 -63 -35h-113q-24 -1 -33 10t-4 31zM543 -283q53 194 53 369v135q0 19 7.5 26t29.5 7h182q20 0 27.5 -7t7.5 -26v-121q0 -101 -27 -212t-67 -177
q-20 -35 -64 -35h-112q-24 -1 -33 10t-4 31z" />
    <glyph glyph-name="dagger" unicode="&#x2020;" horiz-adv-x="1069" 
d="M72 862v176q0 18 6.5 24t23.5 5l328 -20l-14 520q0 17 6.5 23.5t23.5 6.5h175q30 0 30 -30l-14 -520l330 20q17 1 23.5 -5t6.5 -24v-176q0 -15 -6.5 -20.5t-23.5 -5.5l-330 12l14 -1219q0 -30 -30 -30h-175q-17 0 -23.5 6.5t-6.5 23.5l14 1219l-328 -12q-17 0 -23.5 5.5
t-6.5 20.5z" />
    <glyph glyph-name="daggerdbl" unicode="&#x2021;" horiz-adv-x="1073" 
d="M72 100v176q0 18 6.5 24t23.5 5l334 -24q-35 286 -35 313q0 52 35 311l-334 -8q-17 0 -23.5 6t-6.5 21v176q0 17 6.5 23t23.5 5l326 -20l-12 459q0 17 6.5 23.5t23.5 6.5h175q30 0 30 -30l-14 -459l334 20q17 1 23.5 -5t6.5 -23v-176q0 -15 -6.5 -21t-23.5 -6l-340 8
q35 -259 35 -311q0 -27 -35 -313l340 24q17 1 23.5 -5t6.5 -24v-176q0 -15 -6.5 -20.5t-23.5 -5.5l-334 14l14 -463q0 -26 -24 -26h-187q-24 0 -24 26l12 463l-326 -14q-17 0 -23.5 5.5t-6.5 20.5z" />
    <glyph glyph-name="bullet" unicode="&#x2022;" horiz-adv-x="1009" 
d="M156 678q0 137 101 233.5t247 96.5q143 0 246.5 -97t103.5 -233q0 -135 -103.5 -231.5t-246.5 -96.5q-146 0 -247 96t-101 232z" />
    <glyph glyph-name="ellipsis" unicode="&#x2026;" horiz-adv-x="1665" 
d="M164 29v196q0 29 31 29h192q29 0 29 -29v-196q0 -29 -29 -29h-192q-31 0 -31 29zM707 29v196q0 29 30 29h191q30 0 30 -29v-196q0 -29 -30 -29h-191q-30 0 -30 29zM1249 29v196q0 29 29 29h192q31 0 31 -29v-196q0 -29 -31 -29h-192q-29 0 -29 29z" />
    <glyph glyph-name="perthousand" unicode="&#x2030;" horiz-adv-x="2871" 
d="M90 1032v230q0 187 86.5 271.5t272.5 84.5t273 -84.5t87 -271.5v-230q0 -187 -87 -271.5t-273 -84.5t-272.5 84.5t-86.5 271.5zM287 1026q0 -96 35 -137t127 -41q93 0 128 41.5t35 136.5v242q0 95 -35 136.5t-128 41.5q-92 0 -127 -41t-35 -137v-242zM596 18l596 1559
q8 20 29 20h165q20 0 15 -18l-596 -1559q-7 -20 -27 -20h-166q-12 0 -15.5 4t-0.5 14zM1192 334v229q0 187 87 272t273 85q185 0 273 -85t88 -272v-229q0 -187 -88 -272t-273 -85q-186 0 -273 85t-87 272zM1391 328q0 -96 34.5 -137t126.5 -41t127 41t35 137v241
q0 96 -35 137.5t-127 41.5t-126.5 -41.5t-34.5 -137.5v-241zM2062 334v229q0 188 86.5 272.5t272.5 84.5t273 -85t87 -272v-229q0 -187 -87 -272t-273 -85t-272.5 84.5t-86.5 272.5zM2259 328q0 -96 35 -137t127 -41q93 0 128.5 41.5t35.5 136.5v241q0 95 -35.5 137
t-128.5 42q-92 0 -127 -41.5t-35 -137.5v-241z" />
    <glyph glyph-name="guilsinglleft" unicode="&#x2039;" horiz-adv-x="899" 
d="M117 643v62q0 23 18 38l447 363q17 13 30 0l117 -115q14 -17 -2 -30l-352 -287l352 -287q17 -13 2 -31l-117 -114q-13 -13 -30 0l-447 362q-18 15 -18 39z" />
    <glyph glyph-name="guilsinglright" unicode="&#x203a;" horiz-adv-x="899" 
d="M170 356q-15 18 2 31l352 287l-352 287q-16 13 -2 30l117 115q13 13 30 0l447 -363q18 -15 18 -38v-62q0 -24 -18 -39l-447 -362q-17 -13 -30 0z" />
    <glyph glyph-name="fraction" unicode="&#x2044;" horiz-adv-x="319" 
d="M-240 25l590 1546q13 26 37 26h154q11 0 16.5 -6.5t1.5 -17.5l-590 -1546q-13 -27 -43 -27h-147q-26 0 -19 25z" />
    <glyph glyph-name="Euro" unicode="&#x20ac;" horiz-adv-x="1394" 
d="M84 528v136q0 20 20 20h205v209h-205q-20 0 -20 20v136q0 20 20 20h205v25q0 524 584 524q195 0 346 -47q25 -7 25 -39v-154q0 -28 -37 -18q-148 41 -332 41q-166 0 -254 -72q-84 -71 -84 -260h436q17 0 23 -5.5t4 -16.5l-25 -132q-3 -13 -8 -17.5t-16 -4.5h-414v-209
h436q17 0 23 -5t4 -17l-25 -132q-3 -22 -24 -22h-414q2 -93 19.5 -148.5t60.5 -97.5q67 -67 260 -67q99 0 195 15t157 38q21 7 31.5 -0.5t5.5 -26.5l-29 -149q-3 -22 -11.5 -32.5t-28.5 -16.5q-51 -18 -156 -32t-195 -14q-288 0 -422.5 131.5t-134.5 399.5h-205
q-20 0 -20 20z" />
    <glyph glyph-name="litre" unicode="&#x2113;" horiz-adv-x="1075" 
d="M41 406v122q0 38 35 43q101 18 168 39v559q0 449 368 449q179 0 274 -110.5t95 -309.5v-27q0 -80 -11 -155.5t-40.5 -159.5t-76.5 -153.5t-124.5 -131t-177.5 -98.5l-64 -24v-78q0 -109 34 -152t130 -43q61 0 135 19q15 3 23.5 -3.5t5.5 -19.5l-22 -135q-5 -17 -11 -24
t-24 -13q-71 -23 -162 -23q-185 0 -268.5 79.5t-83.5 273.5v73q-64 -18 -109 -26q-40 -8 -59 -8q-35 0 -35 37zM487 678l29 12q109 48 166 177t57 274v14q0 236 -123 236q-69 0 -99 -58t-30 -182v-473z" />
    <glyph glyph-name="numero" unicode="&#x2116;" horiz-adv-x="2195" 
d="M156 27v1542q0 26 30 26h201q19 0 27.5 -4.5t15.5 -17.5l643 -1223h6l-35 266v953q0 26 29 26h172q31 0 31 -26v-1542q0 -27 -31 -27h-198q-18 0 -26.5 4.5t-16.5 18.5l-644 1222h-6l35 -266v-952q0 -27 -29 -27h-174q-30 0 -30 27zM1473 559v213q0 139 76.5 202.5
t228.5 63.5q305 0 305 -266v-213q0 -266 -305 -266q-152 0 -228.5 63.5t-76.5 202.5zM1477 20v121q0 21 20 21h559q23 0 23 -21v-121q0 -20 -23 -20h-559q-20 0 -20 20zM1649 578q0 -76 27.5 -108t101.5 -32t101.5 32t27.5 108v176q0 75 -27.5 107t-101.5 32t-101.5 -32
t-27.5 -107v-176z" />
    <glyph glyph-name="trademark" unicode="&#x2122;" horiz-adv-x="1632" 
d="M72 1468v117q0 19 18 19h555q20 0 17 -17l-25 -123q-3 -14 -19 -14h-165v-485q0 -17 -15 -17h-157q-15 0 -15 17v485h-176q-18 0 -18 18zM752 969q4 367 26 614q0 8 6 14.5t15 6.5h151q20 0 27 -15l162 -266h4l162 266q10 15 26 15h142q10 0 17 -6.5t7 -14.5
q24 -325 27 -614q0 -21 -23 -21h-125q-20 0 -20 21q0 212 -13 385h-10l-125 -211q-13 -19 -26 -19h-78q-16 0 -29 19l-135 211h-8q-12 -160 -12 -385q0 -21 -23 -21h-125q-20 0 -20 21z" />
    <glyph glyph-name="estimated" unicode="&#x212e;" horiz-adv-x="1679" 
d="M82 662q0 139 60.5 265.5t162.5 217.5t242.5 144.5t294.5 53.5q205 0 378.5 -90.5t275 -247.5t101.5 -343v-15h-1226q-11 0 -11 -10v-373q0 -20 19 -43q86 -92 207.5 -145t257.5 -53q143 0 270 59.5t215 163.5h111q-107 -122 -263 -193t-335 -71q-154 0 -294.5 53.5
t-242.5 144.5t-162.5 217t-60.5 265zM360 692q0 -10 11 -10h938q10 0 10 10v375q0 24 -21 45q-86 89 -204.5 140t-249.5 51q-135 0 -255 -52t-208 -145q-21 -18 -21 -47v-367z" />
    <glyph glyph-name="arrowleft" unicode="&#x2190;" horiz-adv-x="1398" 
d="M94 594v24q0 14 6 24.5t31 35.5l377 377q8 10 23 1.5t55 -48.5l14 -15q21 -20 33 -34t16.5 -22.5t4 -13t-4.5 -8.5l-205 -198h836q6 0 9.5 -2t7 -7.5t5 -17t2.5 -29.5t1 -45v-20q0 -34 -1.5 -54t-4.5 -30t-7.5 -13t-11.5 -3h-836l205 -199q10 -10 -5.5 -30t-57.5 -62
q-40 -40 -55 -48.5t-23 1.5l-377 377q-25 25 -31 35t-6 24z" />
    <glyph glyph-name="arrowup" unicode="&#x2191;" horiz-adv-x="1398" 
d="M248.5 794q-8.5 15 1.5 23l377 377q25 25 35 31t24 6h25q14 0 24 -6t35 -31l377 -377q10 -8 1.5 -23t-48.5 -55l-15 -14q-27 -28 -42.5 -40.5t-22.5 -13t-12 4.5l-199 205v-856q0 -7 -3 -11.5t-13.5 -7.5t-30 -4.5t-53.5 -1.5h-21q-34 0 -54 1.5t-30 4.5t-13 7.5t-3 11.5
v856l-199 -205q-3 -3 -8 -3.5t-11.5 3t-13 8.5t-17.5 14.5t-19.5 18l-22.5 22.5q-40 40 -48.5 55z" />
    <glyph glyph-name="arrowright" unicode="&#x2192;" horiz-adv-x="1398" 
d="M94 596v20q0 44 2.5 66t7.5 28.5t15 6.5h835l-204 198q-5 5 -4.5 12.5t13 23t40.5 42.5l14 15q40 40 55 48.5t23 -1.5l377 -377q25 -25 31 -35.5t6 -24.5v-24q0 -14 -6 -24t-31 -35l-377 -377q-10 -10 -30 4.5t-62 56.5q-28 27 -40.5 42.5t-13 23t4.5 12.5l204 199h-835
q-10 0 -15 6t-7.5 28t-2.5 66z" />
    <glyph glyph-name="arrowdown" unicode="&#x2193;" horiz-adv-x="1398" 
d="M250 414q-10 10 4.5 30t56.5 62q27 28 42.5 40.5t23 13t12.5 -4.5l199 -205v856q0 10 6 15t28 7.5t66 2.5h21q44 0 66 -2.5t28 -7.5t6 -15v-856l199 205q5 5 12 4.5t22.5 -13t42.5 -40.5l15 -14q40 -40 48.5 -55t-1.5 -23l-377 -377q-25 -25 -35 -31t-24 -6h-25
q-14 0 -24 6t-35 31z" />
    <glyph glyph-name="partialdiff" unicode="&#x2202;" horiz-adv-x="1300" 
d="M88 496v32q0 125 41.5 226t120.5 164q125 94 340 94q87 0 171.5 -21.5t143.5 -58.5q0 129 -26 230.5t-68 154.5q-75 94 -213 94q-65 0 -145 -13t-138 -32q-23 -8 -35 -4t-16 24l-31 132q-6 31 19 41q175 59 364 59q246 0 383 -143q175 -190 175 -652v-53
q0 -235 -35.5 -391.5t-126.5 -257.5q-60 -67 -163.5 -105.5t-234.5 -38.5q-203 0 -335 93q-191 133 -191 426zM340 496q0 -151 68 -224t215 -73q167 0 231 131q30 60 40.5 142.5t10.5 213.5v31q-48 34 -125 55t-162 21q-142 0 -210 -68.5t-68 -214.5v-14z" />
    <glyph glyph-name="product" unicode="&#x220f;" horiz-adv-x="1609" 
d="M47 1409v166q0 20 23 20h1476q24 0 21 -20l-31 -168q-3 -18 -25 -18h-213v-1588q0 -26 -28 -26h-189q-28 0 -28 26v1588h-512v-1588q0 -26 -31 -26h-186q-31 0 -31 26v1588h-223q-23 0 -23 20z" />
    <glyph glyph-name="summation" unicode="&#x2211;" horiz-adv-x="1316" 
d="M72 -84q0 33 28 72l623 676l-617 706q-34 46 -34 98v88q0 39 39 39h1101q29 0 29 -24l-22 -160q0 -13 -6.5 -17.5t-22.5 -4.5h-799l522 -596q58 -72 58 -113v-14q0 -21 -6 -38.5t-13 -27.5t-24 -31l-541 -587h825q29 0 29 -25l-16 -160q0 -22 -27 -22h-1085q-41 0 -41 37
v104z" />
    <glyph glyph-name="minus" unicode="&#x2212;" horiz-adv-x="1335" 
d="M133 547v158q0 22 21 22h1028q20 0 20 -22v-158q0 -21 -20 -21h-1028q-21 0 -21 21z" />
    <glyph glyph-name="radical" unicode="&#x221a;" horiz-adv-x="1613" 
d="M96 836v118q0 21 9 30t30 9h316q46 0 57 -43l203 -682h16l543 1372q6 18 16.5 25.5t34.5 7.5h170q26 0 31.5 -10.5t-4.5 -32.5l-668 -1589q-9 -24 -23.5 -32.5t-44.5 -8.5h-153q-30 0 -41.5 7.5t-20.5 31.5l-241 760h-187q-24 0 -33.5 8t-9.5 29z" />
    <glyph glyph-name="infinity" unicode="&#x221e;" horiz-adv-x="1978" 
d="M104 696v25q0 188 133 308t334 120q139 0 241.5 -56t184.5 -178q65 106 178 170t250 64q197 0 323 -112t126 -302v-24q0 -192 -131 -312t-338 -120q-273 0 -426 227q-149 -227 -430 -227q-194 0 -319.5 115.5t-125.5 301.5zM336 707q0 -98 69 -159t168 -61q98 0 178 56.5
t121 158.5q-95 238 -292 238q-104 0 -174 -61t-70 -158v-14zM1100 705q45 -102 123.5 -160t179.5 -58q114 0 176.5 62.5t62.5 163.5v14q0 98 -63.5 155.5t-171.5 57.5q-104 0 -183.5 -63t-123.5 -172z" />
    <glyph glyph-name="integral" unicode="&#x222b;" horiz-adv-x="698" 
d="M-23 -236q-8 19 1 29t28 4q44 -12 131 -12q104 0 160.5 65t56.5 175q0 68 -14.5 150.5t-29.5 135.5t-48 160.5t-45 149.5q-10 39 -42.5 153.5t-48 175t-31 154.5t-15.5 170q0 198 114 295.5t324 97.5q90 0 156 -16q15 -5 20.5 -12.5t5.5 -24.5v-125q0 -19 -8.5 -25.5
t-27.5 -3.5q-101 13 -146 13q-102 0 -156.5 -50.5t-54.5 -144.5q0 -50 6.5 -104t23.5 -124.5t27.5 -111t37 -131.5t34.5 -117l37.5 -127.5t40 -142.5t30.5 -126t26 -143.5t8 -130.5q0 -97 -30 -178t-82 -134t-121 -82t-148 -29q-36 0 -53.5 0.5t-42.5 3.5t-37.5 9t-25 17.5
t-18.5 28.5z" />
    <glyph glyph-name="approxequal" unicode="&#x2248;" horiz-adv-x="1335" 
d="M104 270q47 123 144.5 197t208.5 74q97 0 209 -56l98 -51q89 -47 135 -47q56 0 93.5 29t70.5 92q11 22 37 12l119 -51q22 -8 14 -31q-39 -116 -133 -184t-193 -68q-109 0 -219 60l-100 55q-70 39 -129 39q-60 0 -103.5 -35t-83.5 -108q-13 -23 -36 -13l-119 56
q-21 9 -13 30zM104 788q47 123 144.5 197t208.5 74q99 0 209 -55l98 -52q89 -47 135 -47q56 0 93.5 29t70.5 92q11 22 37 12l119 -51q22 -8 14 -31q-39 -116 -133 -183.5t-193 -67.5q-111 0 -219 59l-100 55q-70 39 -129 39q-60 0 -103.5 -35t-83.5 -108q-13 -23 -36 -13
l-119 56q-21 9 -13 30z" />
    <glyph glyph-name="notequal" unicode="&#x2260;" horiz-adv-x="1335" 
d="M133 293v158q0 22 21 22h342l149 311h-491q-21 0 -21 21v158q0 22 21 22h591l129 266q14 27 44 27h153q12 0 15.5 -8t-1.5 -19l-129 -266h226q20 0 20 -22v-158q0 -21 -20 -21h-326l-149 -311h475q20 0 20 -22v-158q0 -21 -20 -21h-572l-123 -254q-13 -26 -43 -26h-155
q-10 0 -14 8t1 18l123 254h-245q-21 0 -21 21z" />
    <glyph glyph-name="lessequal" unicode="&#x2264;" horiz-adv-x="1337" 
d="M125 735v176q0 20 22 29l943 317q30 11 38 -14l46 -133q7 -21 -17 -27l-803 -264l803 -244q24 -6 17 -26l-52 -135q-12 -27 -39 -15l-931 299q-27 9 -27 37zM133 20v158q0 23 21 23h1028q22 0 22 -23v-158q0 -20 -22 -20h-1028q-21 0 -21 20z" />
    <glyph glyph-name="greaterequal" unicode="&#x2265;" horiz-adv-x="1337" 
d="M133 20v158q0 23 23 23h1028q20 0 20 -23v-158q0 -20 -20 -20h-1028q-23 0 -23 20zM164 549q-7 20 16 26l803 244l-803 264q-23 6 -16 27l45 133q8 25 39 14l942 -317q22 -9 22 -29v-176q0 -28 -26 -37l-932 -299q-28 -9 -39 15z" />
    <glyph glyph-name="uni22C5" unicode="&#x22c5;" horiz-adv-x="581" 
d="M166 700v197q0 29 31 29h190q31 0 31 -29v-197q0 -28 -31 -28h-190q-31 0 -31 28z" />
    <glyph glyph-name="lozenge" unicode="&#x25ca;" horiz-adv-x="1378" 
d="M74 778q0 19 20 58l428 737q15 29 49 29h228q31 0 49 -29l436 -737q21 -40 21 -58q0 -16 -21 -57l-436 -737q-18 -29 -49 -29h-228q-34 0 -49 29l-428 737q-20 39 -20 57zM362 778l318 -577h18l316 577l-316 578h-18z" />
    <glyph glyph-name="uni266A" unicode="&#x266a;" horiz-adv-x="1413" 
d="M205 143q0 69 62.5 116.5t166.5 47.5q114 0 197 -55v1204q0 11 8 15t39 4h16q31 0 39 -4t8 -15v-51q10 -7 20.5 -14t19.5 -12.5t22 -12t20.5 -10.5t22 -10.5t21 -9t22.5 -9t21 -8t23 -8.5t21 -8q122 -44 164 -72q89 -60 90 -168q0 -64 -41.5 -124.5t-115.5 -102.5
q-12 -6 -37 32q-12 18 -13 23.5t5 9.5q65 46 65 103q0 22 -9 40t-19 29.5t-35.5 24.5t-39.5 18.5t-50 18.5t-50 18q-72 26 -127 68v-967q0 -131 -77.5 -202.5t-221.5 -71.5q-110 0 -173.5 47t-63.5 116z" />
    <glyph glyph-name="uniE000" unicode="&#xe000;" horiz-adv-x="1208" 
d="M0 0v1208h1208v-1208h-1208z" />
    <glyph glyph-name="apple" unicode="&#xf8ff;" horiz-adv-x="1050" 
d="M127 0v1280h797v-125h-664v-1028h148v-127h-281zM391 395v123h402v129h-402v379h533v-125h-398v-125h398v-381h-533z" />
    <glyph glyph-name="grave.cap" horiz-adv-x="899" 
d="M99.5 2089q4.5 12 21.5 12h250q42 0 61 -28l230 -301q11 -14 7.5 -23.5t-22.5 -9.5h-170q-47 0 -80 33l-291 296q-11 9 -6.5 21z" />
    <glyph glyph-name="acute.cap" 
d="M211 1748.5q-3 9.5 8 23.5l230 301q19 28 61 28h250q17 0 21 -12t-7 -21l-291 -296q-33 -33 -80 -33h-170q-19 0 -22 9.5z" />
    <glyph glyph-name="dieresis.cap" 
d="M104 1821v207q0 20 8.5 27t30.5 7h174q21 0 31 -7.5t10 -26.5v-207q0 -20 -10 -27.5t-31 -7.5h-174q-22 0 -30.5 7.5t-8.5 27.5zM535 1821v207q0 20 8 27t30 7h179q21 0 31 -7.5t10 -26.5v-207q0 -20 -10 -27.5t-31 -7.5h-179q-22 0 -30 7.5t-8 27.5z" />
    <glyph glyph-name="circumflex.cap" 
d="M81.5 1815q-1.5 11 6.5 20l215 260q11 14 37 14h219q26 0 37 -14l215 -260q8 -9 6.5 -20t-14.5 -17l-111 -61q-29 -14 -45 2l-188 203h-19l-188 -203q-16 -16 -45 -2l-111 61q-13 6 -14.5 17z" />
    <glyph glyph-name="tilde.cap" 
d="M49 1882q39 89 108.5 142t151.5 53q43 0 77 -12.5t79 -41.5l33 -20q2 -1 13.5 -8t14 -8t11.5 -6t13 -6t11.5 -3.5t13.5 -3t13 -0.5q58 0 108 86q10 17 37 4l105 -57q18 -13 12 -29q-36 -87 -105 -140.5t-153 -53.5q-83 0 -156 47l-39 24q-56 35 -92 35q-37 0 -64 -19
t-51 -65q-14 -21 -40 -8l-93 53q-19 13 -8 37z" />
    <glyph glyph-name="macron.cap" 
d="M111 1864v118q0 25 26 25h623q12 0 19 -7t7 -18v-118q0 -25 -26 -25h-623q-26 0 -26 25z" />
    <glyph glyph-name="breve.cap" 
d="M133 2044q0 18 17 18h135q16 0 18 -12q9 -51 46 -79.5t97 -28.5q57 0 93 29t45 79q2 12 16 12h143q19 0 19 -18q-6 -120 -94.5 -186t-221.5 -66q-135 0 -222 65.5t-91 186.5z" />
    <glyph glyph-name="dotaccent.cap" 
d="M315 1835v209q0 19 8.5 26t30.5 7h187q41 0 41 -33v-209q0 -35 -41 -35h-187q-22 0 -30.5 8t-8.5 27z" />
    <glyph glyph-name="ring.cap" 
d="M219 1942q0 102 62.5 167.5t171.5 65.5q104 0 164.5 -66t60.5 -167q0 -99 -60.5 -165.5t-164.5 -66.5q-109 0 -171.5 66.5t-62.5 165.5zM360 1942q0 -40 22 -67.5t71 -27.5q84 0 84 95q0 98 -84 98q-49 0 -71 -27.5t-22 -70.5z" />
    <glyph glyph-name="hungarumlaut.cap" horiz-adv-x="899" 
d="M61 1746q-6 7 2 19l207 318q11 18 35 18h250q20 0 23.5 -11t-11.5 -28l-262 -297q-22 -26 -59 -26h-164q-15 0 -21 7zM515 1746q-6 7 1 19l207 318q11 18 37 18h250q19 0 22 -11t-10 -28l-262 -297q-22 -26 -60 -26h-163q-16 0 -22 7z" />
    <glyph glyph-name="caron.cap" 
d="M79.5 2023q1.5 11 14.5 17l111 61q29 14 45 -2l188 -203h19l188 203q16 16 45 2l111 -61q13 -6 14.5 -17t-6.5 -20l-215 -260q-11 -14 -37 -14h-219q-26 0 -37 14l-215 260q-8 9 -6.5 20z" />
    <glyph glyph-name="zero.ltab" horiz-adv-x="1306" 
d="M119 614v365q0 183 33 306t106 196q132 135 395 135q264 0 396 -135q139 -142 139 -502v-365q0 -361 -139 -503q-131 -134 -396 -134q-264 0 -395 134q-73 73 -106 196.5t-33 306.5zM369 633q0 -272 67 -361q66 -88 217 -88t217 88q68 91 68 361v328q0 90 -6 153.5
t-24 122.5t-49 94.5t-82.5 56.5t-123.5 21t-123.5 -21t-82.5 -56t-48.5 -94.5t-23.5 -123t-6 -153.5v-328z" />
    <glyph glyph-name="one.ltab" horiz-adv-x="1306" 
d="M210.5 1294q4.5 14 18.5 21q233 126 437 258q17 10 23.5 13.5t17.5 6t26 2.5h137q37 0 37 -32v-1534q0 -16 -6 -22.5t-24 -6.5h-187q-31 0 -31 29v1282q-166 -108 -327 -191q-30 -15 -45 15l-74 133q-7 12 -2.5 26z" />
    <glyph glyph-name="two.ltab" horiz-adv-x="1306" 
d="M158 35v129q0 46 32 78l254 245q257 248 355 391.5t98 282.5v10q0 112 -70.5 169t-203.5 57q-193 0 -381 -66q-19 -6 -26 -0.5t-7 23.5v157q0 30 27 39q182 66 399 66q245 0 378.5 -111.5t133.5 -312.5v-16q0 -169 -109.5 -348.5t-320.5 -383.5l-234 -225h607
q31 0 28 -22l-33 -172q-4 -25 -28 -25h-856q-25 0 -34 7.5t-9 27.5z" />
    <glyph glyph-name="three.ltab" horiz-adv-x="1306" 
d="M152 256q0 17 9 23t23 0q171 -82 396 -82q164 0 255 71.5t91 212.5v15q0 129 -70 188q-34 28 -85.5 39.5t-143.5 11.5h-189q-20 0 -28.5 8.5t-8.5 28.5v66q0 31 8.5 49t34.5 51q239 288 375 438h-614q-27 0 -27 29v162q0 28 27 28h870q18 0 25.5 -6.5t7.5 -21.5v-119
q0 -67 -27 -94q-224 -234 -376 -428q43 4 98 4q172 0 273.5 -111.5t101.5 -300.5v-24q0 -126 -45 -225.5t-123.5 -162.5t-182.5 -96t-225 -33q-213 0 -377 58q-34 10 -43 53z" />
    <glyph glyph-name="four.ltab" horiz-adv-x="1306" 
d="M72 383v119q0 48 18 90l533 975q11 28 43 28h208q21 0 27.5 -6.5t-0.5 -25.5l-549 -996h469v463q0 26 31 31l184 18q33 6 33 -22v-490h207q24 0 18 -24l-34 -168q-6 -29 -25 -29h-166v-317q0 -13 -8.5 -21t-22.5 -8h-186q-31 0 -31 29v317h-704q-25 0 -35 8.5t-10 28.5z
" />
    <glyph glyph-name="five.ltab" horiz-adv-x="1306" 
d="M186 256q-3 13 8.5 20.5t24.5 2.5q80 -33 182.5 -57.5t196.5 -24.5q344 0 344 297v8q0 156 -79.5 217t-248.5 61q-156 0 -309 -30q-55 -12 -55 45l47 759q1 24 11 32.5t34 8.5h735q20 0 25.5 -6.5t1.5 -25.5l-35 -156q-6 -31 -37 -31h-524l-27 -399q102 18 221 18
q245 0 369 -118q123 -116 123 -357v-12q0 -260 -153.5 -395.5t-436.5 -135.5q-84 0 -182 18.5t-166 43.5q-16 6 -21 13.5t-10 29.5z" />
    <glyph glyph-name="six.ltab" horiz-adv-x="1306" 
d="M143 504v540q0 268 154.5 421t458.5 153q152 0 284 -33q31 -7 31 -41v-158q0 -26 -31 -18q-127 31 -268 31q-191 0 -286 -92.5t-95 -262.5v-96q149 78 346 78q101 0 181.5 -26.5t142 -81.5t94.5 -147t33 -216v-55q0 -248 -142 -385.5t-391 -137.5q-512 0 -512 527z
M391 502q0 -156 68 -230.5t205 -74.5q138 0 205 75.5t67 231.5v18q0 153 -62.5 220t-205.5 67q-69 0 -145.5 -19t-131.5 -49v-239z" />
    <glyph glyph-name="seven.ltab" horiz-adv-x="1306" 
d="M164 1403v166q0 16 4.5 21t21.5 5h953q39 0 39 -34v-95q0 -61 -23 -106q-154 -324 -311.5 -686t-261.5 -633q-14 -41 -70 -41h-192q-22 0 -28.5 13.5t3.5 33.5q320 760 614 1329h-723q-15 0 -20.5 6t-5.5 21z" />
    <glyph glyph-name="eight.ltab" horiz-adv-x="1306" 
d="M96 422v18q0 148 72.5 243.5t196.5 135.5q-226 105 -226 375v14q0 195 140.5 302.5t373.5 107.5q225 0 366.5 -105t141.5 -294v-15q0 -275 -246 -381q295 -78 295 -383v-18q0 -138 -73 -240t-196 -153.5t-279 -51.5q-99 0 -183 15.5t-155.5 50t-121.5 86t-78 126
t-28 167.5zM348 428q0 -118 78.5 -181t235.5 -63q137 0 216.5 64t79.5 176v22q0 120 -81 188t-250 93q-141 -20 -210 -88t-69 -188v-23zM383 1174q0 -113 69 -177.5t212 -87.5q254 68 254 271v24q0 103 -70.5 155t-194.5 52q-130 0 -200 -53t-70 -156v-28z" />
    <glyph glyph-name="nine.ltab" horiz-adv-x="1306" 
d="M119 1071v25q0 254 147 388t396 134q262 0 389 -135t127 -406v-518q0 -296 -137 -439t-427 -143q-205 0 -338 50q-16 5 -21.5 12.5t-10.5 23.5l-29 179q-3 14 6.5 20t26.5 0q72 -28 168.5 -46.5t181.5 -18.5q178 0 258 77q76 71 76 263v135q-47 -40 -135 -66t-176 -26
q-250 0 -376 126.5t-126 364.5zM371 1083q0 -151 64 -219.5t208 -68.5q89 0 169 25t120 65v168q0 173 -63 259.5t-210 86.5q-288 0 -288 -309v-7z" />
    <glyph glyph-name="dollar.ltab" horiz-adv-x="1306" 
d="M176 260q0 14 8 20t19 1q84 -39 189 -65t202 -26q134 0 211.5 66.5t77.5 179.5v13q0 107 -46 157.5t-180 95.5l-84 29q-180 62 -271 177.5t-91 273.5v26q0 158 104.5 266.5t290.5 135.5v207q0 16 17 16h145q16 0 16 -16v-201q124 -6 230 -37q20 -6 26.5 -14.5t6.5 -24.5
v-156q0 -34 -43 -20q-129 47 -267 47q-128 0 -199 -55.5t-71 -159.5v-6q0 -87 50.5 -149.5t164.5 -100.5l84 -29q187 -64 278 -163.5t91 -274.5v-14q0 -175 -95.5 -294t-253.5 -163v-207q0 -16 -16 -16h-145q-17 0 -17 16v182h-2q-196 0 -352 58q-17 7 -24.5 18.5
t-12.5 32.5z" />
    <glyph glyph-name="cent.ltab" horiz-adv-x="1306" 
d="M252 422v358q0 388 377 441v196q0 17 18 17h144q16 0 16 -17v-190q124 -6 242 -35q20 -6 20 -33v-131q0 -18 -8 -22.5t-25 0.5q-131 30 -256 30q-159 0 -219 -57q-72 -64 -72 -229v-295q0 -143 61 -214t220 -71q152 0 274 39q18 6 28 -0.5t7 -26.5l-18 -121
q-3 -19 -10.5 -29t-24.5 -16q-81 -27 -201 -36v-177q0 -16 -18 -16h-143q-17 0 -17 16v181q-201 20 -298 127.5t-97 310.5z" />
    <glyph glyph-name="Euro.ltab" horiz-adv-x="1306" 
d="M68 528v136q0 20 20 20h205v209h-205q-20 0 -20 20v136q0 20 20 20h205v25q0 524 584 524q195 0 346 -47q24 -7 24 -39v-154q0 -28 -37 -18q-148 41 -331 41q-166 0 -254 -72q-84 -71 -84 -260h436q17 0 23 -5.5t4 -16.5l-25 -132q-5 -22 -25 -22h-413v-209h436
q17 0 23 -5t4 -17l-25 -132q-3 -22 -25 -22h-413q2 -93 19.5 -148.5t60.5 -97.5q67 -67 260 -67q99 0 195 15t157 38q21 7 31.5 -0.5t5.5 -26.5l-29 -149q-3 -22 -12 -32.5t-29 -16.5q-51 -18 -155.5 -32t-194.5 -14q-288 0 -422.5 131.5t-134.5 399.5h-205q-20 0 -20 20z
" />
    <glyph glyph-name="florin.ltab" horiz-adv-x="1306" 
d="M72 -223q-4 18 5 24.5t25 1.5q63 -18 138 -18q81 0 126.5 33t59.5 116l162 975h-178q-15 0 -23 6.5t-4 20.5l23 133q3 23 34 23h181l43 254q31 167 122.5 244t272.5 77q109 0 170 -22q20 -8 20 -31v-125q-3 -30 -35 -21q-63 17 -135 17q-88 0 -127.5 -35t-56.5 -121
l-39 -237h229q15 0 23.5 -6.5t5.5 -20.5l-24 -133q-3 -23 -35 -23h-230l-170 -997q-28 -161 -116 -238t-240 -77q-88 0 -168 22q-19 6 -25 25z" />
    <glyph glyph-name="sterling.ltab" horiz-adv-x="1306" 
d="M137 717v143q0 25 27 25h180q-90 195 -90 317v15q0 183 144.5 292t416.5 109q181 0 332 -41q24 -6 30.5 -14.5t6.5 -28.5v-150q0 -27 -41 -18q-163 35 -301 35q-338 0 -338 -211v-14q0 -36 9 -77.5t19 -69.5t28 -75t26 -69h428q34 0 28 -37l-22 -125q-3 -18 -11 -24.5
t-26 -6.5h-346q6 -44 6 -86v-16q0 -239 -156 -373h699q15 0 22.5 -7.5t3.5 -21.5l-32 -161q-5 -27 -33 -27h-975q-25 0 -25 23v120q0 35 29 50q111 58 175.5 154t64.5 224v13q0 54 -13 108h-241q-25 0 -25 25z" />
    <glyph glyph-name="yen.ltab" horiz-adv-x="1306" 
d="M76 1571q-8 24 18 24h221q18 0 25.5 -4.5t13.5 -19.5q169 -486 301 -787h4q134 318 297 787q4 14 12.5 19t26.5 5h217q11 0 17 -6.5t2 -17.5q-179 -478 -361 -848h258q10 0 15 -4.5t4 -13.5l-23 -132q-3 -16 -24 -16h-322v-160h350q10 0 15 -4.5t4 -13.5l-23 -131
q-3 -17 -24 -17h-322v-204q0 -27 -30 -27h-187q-31 0 -31 27v204h-346q-22 0 -22 17v131q0 18 18 18h350v160h-350q-18 0 -18 16v132q0 18 18 18h260q-147 285 -364 848z" />
    <glyph glyph-name="percent.ltab" horiz-adv-x="2002" 
d="M90 1032v230q0 187 86.5 271.5t272.5 84.5t274 -84.5t88 -271.5v-230q0 -187 -88 -271.5t-274 -84.5t-272.5 84.5t-86.5 271.5zM287 1026q0 -96 35 -137t127 -41q93 0 128 41.5t35 136.5v242q0 95 -35 136.5t-128 41.5q-92 0 -127 -41t-35 -137v-242zM600 25l590 1546
q13 26 37 26h153q11 0 17 -6.5t2 -17.5l-592 -1546q-10 -27 -43 -27h-146q-25 0 -18 25zM1192 334v229q0 187 87 272t273 85q185 0 273 -85t88 -272v-229q0 -187 -88 -272t-273 -85q-186 0 -273 85t-87 272zM1391 328q0 -96 34.5 -137t126.5 -41q93 0 128.5 41.5t35.5 136.5
v241q0 95 -35.5 137t-128.5 42q-92 0 -126.5 -41.5t-34.5 -137.5v-241z" />
    <glyph glyph-name="perthousand.ltab" horiz-adv-x="2873" 
d="M90 1032v230q0 187 86.5 271.5t272.5 84.5t273 -84.5t87 -271.5v-230q0 -187 -87 -271.5t-273 -84.5t-272.5 84.5t-86.5 271.5zM287 1026q0 -96 35 -137t127 -41q93 0 128 41.5t35 136.5v242q0 95 -35 136.5t-128 41.5q-92 0 -127 -41t-35 -137v-242zM596 18l596 1559
q8 20 29 20h165q20 0 15 -18l-596 -1559q-7 -20 -27 -20h-166q-12 0 -15.5 4t-0.5 14zM1192 334v229q0 187 87 272t273 85q185 0 273 -85t88 -272v-229q0 -187 -88 -272t-273 -85q-186 0 -273 85t-87 272zM1391 328q0 -96 34.5 -137t126.5 -41t127 41t35 137v241
q0 96 -35 137.5t-127 41.5t-126.5 -41.5t-34.5 -137.5v-241zM2062 334v229q0 188 86.5 272.5t272.5 84.5t273 -85t87 -272v-229q0 -187 -87 -272t-273 -85t-272.5 84.5t-86.5 272.5zM2259 328q0 -96 35 -137t127 -41q93 0 128.5 41.5t35.5 136.5v241q0 95 -35.5 137
t-128.5 42q-92 0 -127 -41.5t-35 -137.5v-241z" />
    </font>
</defs>
</svg>
