<?xml version="1.0" standalone="no"?>
<!DOCTYPE svg PUBLIC "-//W3C//DTD SVG 1.1//EN" "http://www.w3.org/Graphics/SVG/1.1/DTD/svg11.dtd" >
<svg>
<metadata>
Created by FontForge 20120731 at Thu Oct  6 02:25:39 2016
 By ,,,
Copyright (c) 2012 by Fontsmith Ltd. All rights reserved.
</metadata>
<defs>
<font id="FSTrumanWeb-Bold" horiz-adv-x="1384" >
  <font-face 
    font-family="FS Truman Web Bold"
    font-weight="700"
    font-stretch="normal"
    units-per-em="2048"
    panose-1="2 0 8 3 5 0 0 2 0 4"
    ascent="1597"
    descent="-451"
    x-height="1206"
    cap-height="1595"
    bbox="-161 -637 2898 2583"
    underline-thickness="40"
    underline-position="-231"
    unicode-range="U+000D-FB04"
  />
<missing-glyph horiz-adv-x="1308" 
d="M123 0v1419h1063v-1419h-1063zM229 193l363 518l-363 516v-1034zM293 102h723l-361 516zM293 1319l362 -518l361 518h-723zM717 711l364 -518v1034z" />
    <glyph glyph-name="f_f" unicode="ff" horiz-adv-x="1609" 
d="M4 997v183q0 26 31 26h182v121q0 91 32 158.5t91.5 108t137.5 60t177 19.5q101 0 179 -16q17 -3 22.5 -11t5.5 -26v-162q0 -34 -35 -28q-58 8 -133 8q-85 0 -127 -31q-45 -36 -45 -113v-88h453v121q0 179 117 262.5t321 83.5q100 0 178 -16q17 -3 23 -11t6 -26v-162
q0 -34 -35 -28q-58 8 -133 8q-85 0 -127 -31q-45 -36 -45 -113v-88h272q15 0 21.5 -4.5t5.5 -17.5l-25 -187q-2 -13 -7 -18.5t-17 -5.5h-250v-940q0 -33 -29 -33h-243q-33 0 -33 33v940h-453v-940q0 -33 -28 -33h-244q-33 0 -33 33v940h-184q-29 0 -29 24z" />
    <glyph glyph-name="fi" unicode="fi" horiz-adv-x="1359" 
d="M4 997v183q0 26 31 26h182v90q0 177 141 283q65 46 171.5 71t228.5 25q83 0 168 -9t127 -19q28 -8 28 -37v-164q0 -35 -39 -29q-121 23 -227 23q-56 0 -96.5 -4t-79.5 -15t-63.5 -30t-39 -51t-14.5 -76v-58h656q34 0 34 -30v-1145q0 -31 -34 -31h-238q-33 0 -33 31v942
h-385v-940q0 -33 -28 -33h-244q-33 0 -33 33v940h-184q-29 0 -29 24z" />
    <glyph glyph-name="fl" unicode="fl" horiz-adv-x="1519" 
d="M4 997v183q0 26 31 26h182v84q0 98 44.5 176.5t131.5 128.5q135 78 404 78q217 0 417 -22q43 -6 43 -49v-1262q0 -121 109 -121q36 0 86 10q15 3 24.5 -4t6.5 -26l-23 -160q-8 -28 -35 -37q-59 -18 -133 -18q-340 0 -340 342v1106q-85 6 -178 6q-128 0 -190 -35.5
t-62 -130.5v-66h260q15 0 21.5 -4.5t5.5 -17.5l-25 -187q-2 -13 -7 -18.5t-17 -5.5h-238v-940q0 -18 -6.5 -25.5t-23.5 -7.5h-242q-33 0 -33 33v940h-184q-29 0 -29 24z" />
    <glyph glyph-name="f_f_i" unicode="ffi" horiz-adv-x="2117" 
d="M4 997v183q0 26 31 26h182v121q0 91 32 158.5t91.5 108t137.5 60t177 19.5q101 0 179 -16q17 -3 22.5 -11t5.5 -26v-162q0 -34 -35 -28q-58 8 -133 8q-85 0 -127 -31q-45 -36 -45 -113v-88h453v90q0 177 141 283q65 46 171.5 71t228.5 25q83 0 167.5 -9t126.5 -19
q16 -5 22.5 -12.5t6.5 -24.5v-164q0 -35 -39 -29q-121 23 -227 23q-56 0 -96.5 -4t-79.5 -15t-63.5 -30t-39 -51t-14.5 -76v-58h655q35 0 35 -30v-1145q0 -31 -35 -31h-237q-33 0 -33 31v942h-385v-940q0 -33 -29 -33h-243q-33 0 -33 33v940h-453v-940q0 -33 -28 -33h-244
q-33 0 -33 33v940h-184q-29 0 -29 24z" />
    <glyph glyph-name="f_f_l" unicode="ffl" horiz-adv-x="2256" 
d="M4 997v183q0 26 31 26h182v121q0 91 32 158.5t91.5 108t137.5 60t177 19.5q101 0 179 -16q17 -3 22.5 -11t5.5 -26v-162q0 -34 -35 -28q-58 8 -133 8q-85 0 -127 -31q-45 -36 -45 -113v-88h453v84q0 98 44.5 176.5t131.5 128.5q135 78 403 78q218 0 418 -22q43 -6 43 -49
v-1262q0 -121 109 -121q36 0 86 10q15 3 24.5 -4t6.5 -26l-23 -160q-8 -28 -35 -37q-59 -18 -133 -18q-340 0 -340 342v1106q-86 6 -178 6q-128 0 -190 -35.5t-62 -130.5v-66h260q15 0 21.5 -4.5t5.5 -17.5l-25 -187q-2 -13 -7 -18.5t-17 -5.5h-238v-940q0 -33 -31 -33h-241
q-33 0 -33 33v940h-453v-940q0 -33 -28 -33h-244q-33 0 -33 33v940h-184q-29 0 -29 24z" />
    <glyph glyph-name=".notdef" horiz-adv-x="1308" 
d="M123 0v1419h1063v-1419h-1063zM229 193l363 518l-363 516v-1034zM293 102h723l-361 516zM293 1319l362 -518l361 518h-723zM717 711l364 -518v1034z" />
    <glyph glyph-name="uni0000" horiz-adv-x="0" 
 />
    <glyph glyph-name="uni0000" horiz-adv-x="0" 
 />
    <glyph glyph-name="CR.001" horiz-adv-x="682" 
 />
    <glyph glyph-name="nonmarkingreturn" unicode="&#xd;" horiz-adv-x="450" 
 />
    <glyph glyph-name="space" unicode=" " horiz-adv-x="450" 
 />
    <glyph glyph-name="exclam" unicode="!" horiz-adv-x="577" 
d="M147 33v225q0 19 8.5 26t30.5 7h207q19 0 27 -7.5t8 -25.5v-225q0 -18 -8 -25.5t-27 -7.5h-207q-22 0 -30.5 7t-8.5 26zM147 1567q0 30 33 30h215q35 0 35 -30l-10 -1067q0 -24 -9 -33.5t-32 -9.5h-184q-39 0 -39 43z" />
    <glyph glyph-name="quotedbl" unicode="&#x22;" horiz-adv-x="960" 
d="M92 1755q-3 33 35 33h240q19 0 27 -7.5t7 -25.5l-26 -506q-6 -32 -33 -32h-190q-17 0 -23 7t-8 25zM559 1755q-3 33 35 33h240q19 0 27 -7.5t7 -25.5l-28 -506q-3 -32 -31 -32h-191q-16 0 -22.5 7t-9.5 25z" />
    <glyph glyph-name="numbersign" unicode="#" horiz-adv-x="1449" 
d="M14 393v182q0 31 33 31h256v324h-256q-33 0 -33 31v184q0 31 33 31h256v335q0 17 7 24t26 7h194q19 0 26 -7t7 -24v-335h324v335q0 17 7 24t24 7h196q19 0 26 -7t7 -24v-335h256q17 0 24 -7t7 -24v-184q0 -17 -7 -24t-24 -7h-256v-324h256q17 0 24 -7t7 -24v-182
q0 -17 -7 -24t-24 -7h-256v-331q0 -17 -7 -24t-26 -7h-196q-17 0 -24 7t-7 24v331h-324v-331q0 -17 -7 -24t-26 -7h-194q-19 0 -26 7t-7 24v331h-256q-33 0 -33 31zM563 606h324v324h-324v-324z" />
    <glyph glyph-name="dollar" unicode="$" horiz-adv-x="1161" 
d="M88 291q-3 22 11 28.5t40 -4.5q67 -29 163 -50t179 -21q131 0 203 51.5t72 138.5v10q0 82 -46.5 130.5t-166.5 93.5l-97 37q-333 126 -333 454v15q0 211 147 331q80 65 203 92v213q0 23 22 23h195q13 0 17.5 -5t4.5 -18v-194q127 -6 232 -37q26 -8 33.5 -20.5t7.5 -36.5
v-164q0 -48 -62 -35q-130 29 -245 29q-240 0 -240 -174v-9q0 -83 41 -131.5t139 -85.5l107 -41q187 -71 269.5 -167.5t82.5 -276.5v-21q0 -170 -96 -287.5t-269 -158.5v-197q0 -12 -4.5 -17t-17.5 -5h-195q-22 0 -22 22v177q-172 7 -287 49q-26 8 -35 20t-14 35z" />
    <glyph glyph-name="percent" unicode="%" horiz-adv-x="2082" 
d="M80 1044v205q0 369 383 369q182 0 282.5 -90t100.5 -279v-205q0 -189 -100.5 -278.5t-282.5 -89.5q-383 0 -383 368zM330 1051q0 -40 4.5 -66.5t17.5 -52t40.5 -37.5t70.5 -12q75 0 104 41.5t29 126.5v190q0 82 -26 125t-107 43q-77 0 -105 -41t-28 -127v-190zM559 37
l670 1530q7 19 16 24.5t31 5.5h207q23 0 29.5 -8t0.5 -28l-667 -1530q-6 -19 -15 -25t-32 -6h-211q-22 0 -28.5 8.5t-0.5 28.5zM1237 346v205q0 369 381 369q184 0 284.5 -90t100.5 -279v-205q0 -189 -100.5 -279t-284.5 -90q-381 0 -381 369zM1487 352q0 -83 25.5 -125.5
t105.5 -42.5q77 0 106 41t29 127v191q0 40 -4.5 66t-17.5 51.5t-41 38t-72 12.5q-75 0 -103 -41t-28 -127v-191z" />
    <glyph glyph-name="ampersand" unicode="&#x26;" horiz-adv-x="1478" 
d="M78 377v18q0 139 88.5 245t226.5 173q-223 213 -223 401v23q0 167 145 274t373 107q206 0 343.5 -102.5t137.5 -260.5v-20q0 -271 -378 -467l225 -272q61 101 61 260q0 25 8.5 31.5t38.5 13.5l193 37q43 9 43 -41q0 -279 -150 -502l246 -256q13 -13 5.5 -26t-31.5 -13
h-236q-36 0 -53 7t-35 26l-82 90q-192 -146 -442 -146q-229 0 -366.5 107t-137.5 293zM416 406q0 -83 57.5 -132t151.5 -49q139 0 219 80l-289 320q-55 -26 -97 -84.5t-42 -120.5v-14zM487 1210q0 -115 150 -268q215 131 215 277v12q0 79 -50.5 115t-125.5 36
q-79 0 -134 -44t-55 -115v-13z" />
    <glyph glyph-name="quotesingle" unicode="'" horiz-adv-x="495" 
d="M92 1755q-3 33 35 33h242q37 0 34 -33l-28 -506q-3 -32 -33 -32h-188q-18 0 -24.5 7t-8.5 25z" />
    <glyph glyph-name="parenleft" unicode="(" horiz-adv-x="819" 
d="M133 672q0 274 82.5 525t228.5 443q20 29 72 29h227q20 0 25.5 -12.5t-2.5 -20.5q-160 -224 -241 -458t-81 -506q0 -274 82 -510.5t242 -460.5q9 -9 2 -20t-29 -11h-237q-38 0 -53 21q-149 193 -233.5 448t-84.5 533z" />
    <glyph glyph-name="parenright" unicode=")" horiz-adv-x="819" 
d="M49 -319q-7 11 2 20q160 224 242 460.5t82 510.5q0 271 -81 505t-241 459q-9 8 -3 20.5t26 12.5h225q54 0 74 -29q146 -192 228.5 -443t82.5 -525q0 -278 -84 -533.5t-233 -447.5q-15 -21 -54 -21h-237q-22 0 -29 11z" />
    <glyph glyph-name="asterisk" unicode="*" horiz-adv-x="919" 
d="M53 1119q3 17 23 24l200 86l-200 86q-40 15 -13 57l78 119q19 32 60 4l164 -125l-21 217q-6 41 39 41h154q44 0 38 -41l-20 -217l164 125q37 32 59 -4l78 -119q27 -42 -12 -57l-201 -86l201 -86q19 -7 22 -24t-10 -34l-78 -118q-22 -36 -59 -4l-164 124l20 -217
q6 -41 -38 -41h-154q-45 0 -39 41l21 217l-164 -124q-41 -28 -60 4l-78 118q-13 17 -10 34z" />
    <glyph glyph-name="plus" unicode="+" 
d="M141 530v193q0 18 8 25.5t27 7.5h369v342q0 18 7.5 25t25.5 7h229q18 0 25.5 -7t7.5 -25v-342h368q19 0 27 -7.5t8 -25.5v-193q0 -18 -8 -25t-27 -7h-368v-346q0 -18 -7.5 -25.5t-25.5 -7.5h-229q-18 0 -25.5 7.5t-7.5 25.5v346h-369q-19 0 -27 7t-8 25z" />
    <glyph glyph-name="comma" unicode="," horiz-adv-x="514" 
d="M76 -276q37 142 37 342v176q0 47 55 47h172q59 0 59 -47v-179q0 -79 -22 -180t-53 -168q-18 -39 -64 -39h-145q-27 0 -36 11t-3 37z" />
    <glyph glyph-name="hyphen" unicode="-" horiz-adv-x="663" 
d="M74 629v202q0 19 8.5 27t32.5 8h434q41 0 41 -35v-202q0 -35 -41 -35h-434q-23 0 -32 8t-9 27z" />
    <glyph glyph-name="period" unicode="." horiz-adv-x="573" 
d="M139 41v207q0 41 47 41h199q49 0 49 -41v-207q0 -41 -49 -41h-199q-47 0 -47 41z" />
    <glyph glyph-name="slash" unicode="/" horiz-adv-x="888" 
d="M61 27l469 1536q7 21 16.5 26.5t33.5 5.5h204q31 0 39 -5.5t4 -26.5l-467 -1538q-6 -25 -45 -25h-221q-21 0 -28.5 7t-4.5 20z" />
    <glyph glyph-name="zero" unicode="0" 
d="M129 590v416q0 313 130 462.5t433 149.5t433 -149.5t130 -462.5v-416q0 -156 -30 -268t-96 -190.5t-174.5 -116.5t-262.5 -38t-262.5 38t-174.5 116.5t-96 190.5t-30 268zM449 614q0 -76 5.5 -129.5t20.5 -101.5t42 -77t70.5 -45.5t104.5 -16.5t104.5 16.5t70 45t42 77
t20.5 102t5 129.5v367q0 76 -5.5 129.5t-20.5 102t-41.5 77.5t-70 45.5t-104.5 16.5q-76 0 -125 -24t-74 -75t-34.5 -114t-9.5 -158v-367z" />
    <glyph glyph-name="one" unicode="1" horiz-adv-x="954" 
d="M37 1247q-19 47 29 70q242 126 419 246q30 21 45.5 26.5t42.5 5.5h183q51 0 51 -41v-1513q0 -23 -12 -32t-39 -9h-224q-45 0 -45 43v1194q-158 -111 -290 -180q-55 -28 -78 20z" />
    <glyph glyph-name="two" unicode="2" horiz-adv-x="1290" 
d="M98 53v129q0 29 6.5 45.5t30.5 38.5l217 213q245 242 348 391t103 283v10q0 189 -250 189q-77 0 -174.5 -13.5t-173.5 -35.5q-31 -8 -42 -1.5t-11 29.5v170q0 21 8 31t30 18q69 28 183.5 48t214.5 20q267 0 402.5 -105t135.5 -311v-18q0 -177 -114 -364.5t-338 -397.5
l-170 -162h596q31 0 40.5 -10.5t4.5 -38.5l-29 -170q-6 -41 -51 -41h-905q-37 0 -49.5 11t-12.5 42z" />
    <glyph glyph-name="three" unicode="3" horiz-adv-x="1292" 
d="M88 268q-4 20 10 31.5t33 5.5q67 -24 176 -42.5t197 -18.5q171 0 265.5 65.5t94.5 196.5v10q0 66 -20 109.5t-61.5 66t-91.5 31t-124 8.5h-168q-36 0 -50.5 11t-14.5 38v90q0 47 53 107q148 171 356 358h-567q-43 0 -43 37v182q0 22 10 31.5t33 9.5h875q57 0 57 -49v-116
q0 -44 -5 -67.5t-24 -39.5q-141 -125 -374 -373q20 2 51 2q201 0 316.5 -111t115.5 -319v-12q0 -168 -84.5 -290t-228 -182.5t-328.5 -60.5q-214 0 -350 46q-28 9 -41 21t-19 34z" />
    <glyph glyph-name="four" unicode="4" horiz-adv-x="1353" 
d="M68 393v96q0 62 28 123l432 938q20 45 60 45h241q57 0 39 -49l-448 -956h393v434q0 40 33 45l246 29q43 6 43 -31v-477h196q19 0 26.5 -7.5t4.5 -25.5l-35 -182q-5 -22 -12.5 -29.5t-28.5 -7.5h-151v-303q0 -21 -10 -28t-33 -7h-242q-37 0 -37 35v303h-674q-65 0 -71 55z
" />
    <glyph glyph-name="five" unicode="5" horiz-adv-x="1290" 
d="M150 272q-4 24 11.5 31.5t41.5 -2.5q69 -24 168 -40.5t188 -16.5q320 0 320 254v12q0 77 -16 118.5t-46 69.5q-59 56 -213 56q-150 0 -328 -37q-28 -6 -44.5 3.5t-16.5 29.5l45 784q2 33 16 47t46 14h749q25 0 34 -10t5 -33l-35 -176q-5 -23 -15.5 -32t-35.5 -9h-498
l-22 -346q122 21 233 21q217 0 330 -107q135 -128 135 -377v-24q0 -250 -161.5 -387.5t-432.5 -137.5q-212 0 -358 48q-23 7 -34 19t-17 36z" />
    <glyph glyph-name="six" unicode="6" horiz-adv-x="1310" 
d="M129 526v480q0 306 162 459t477 153q162 0 283 -33q41 -12 41 -41v-188q0 -39 -48 -27q-104 23 -256 23q-169 0 -253 -68.5t-84 -200.5v-90q51 30 137 49t180 19q212 0 332.5 -124t120.5 -370v-59q0 -255 -143.5 -393t-403.5 -138q-267 0 -406 143t-139 406zM451 516
q0 -145 57.5 -208.5t171.5 -63.5q108 0 161.5 63.5t53.5 196.5v16q0 145 -45.5 210t-165.5 65q-58 0 -124 -15t-109 -39v-225z" />
    <glyph glyph-name="seven" unicode="7" horiz-adv-x="1093" 
d="M4 1378v172q0 25 10 35t37 10h957q30 0 43.5 -11.5t13.5 -39.5v-106q0 -84 -23 -131q-373 -719 -606 -1266q-21 -41 -71 -41h-256q-27 0 -35.5 13.5t2.5 35.5q167 352 347.5 698.5t321.5 587.5h-696q-26 0 -35.5 9t-9.5 34z" />
    <glyph glyph-name="eight" unicode="8" horiz-adv-x="1341" 
d="M90 430v19q0 146 74.5 242t204.5 136q-104 39 -166 134.5t-62 228.5v14q0 186 149.5 300t387.5 114q243 0 386.5 -107t143.5 -292v-15q0 -280 -237 -373q280 -93 280 -380v-19q0 -141 -80 -246t-209 -157t-286 -52q-268 0 -427 120.5t-159 332.5zM414 459
q0 -99 73 -162.5t189 -63.5q114 0 184 61.5t70 164.5v8q0 196 -256 242q-121 -19 -190.5 -81t-69.5 -161v-8zM451 1167q0 -94 63 -144t174 -71q102 30 154.5 79.5t52.5 135.5v9q0 85 -57.5 135.5t-157.5 50.5q-103 0 -166 -51t-63 -135v-9z" />
    <glyph glyph-name="nine" unicode="9" horiz-adv-x="1331" 
d="M106 1049v53q0 252 151 384t417 132q270 0 399 -128t129 -396v-539q0 -281 -148 -429.5t-407 -148.5q-102 0 -201.5 11t-148.5 26q-38 11 -49 52l-49 190q-4 20 10 31.5t33 5.5q152 -49 344 -49q295 0 295 272v113q-104 -70 -273 -70q-241 0 -371.5 126t-130.5 364z
M432 1075q0 -250 215 -250q67 0 132.5 17t101.5 49v196q0 141 -51.5 203t-165.5 62q-111 0 -171.5 -60.5t-60.5 -199.5v-17z" />
    <glyph glyph-name="colon" unicode=":" horiz-adv-x="567" 
d="M205 41v207q0 41 47 41h199q49 0 49 -41v-207q0 -41 -49 -41h-199q-47 0 -47 41zM205 627v207q0 22 11 31t36 9h199q49 0 49 -40v-207q0 -41 -49 -41h-199q-47 0 -47 41z" />
    <glyph glyph-name="semicolon" unicode=";" horiz-adv-x="528" 
d="M76 -276q37 142 37 342v176q0 47 55 47h172q59 0 59 -47v-179q0 -79 -22 -180t-53 -168q-18 -39 -64 -39h-145q-27 0 -36 11t-3 37zM113 627v207q0 22 11 31t36 9h198q50 0 50 -40v-207q0 -41 -50 -41h-198q-47 0 -47 41z" />
    <glyph glyph-name="less" unicode="&#x3c;" 
d="M158 528v205q0 17 8 26t27 17l940 357q36 15 51 -19l53 -166q15 -25 -25 -43l-751 -282l745 -265q47 -19 27 -53l-47 -149q-19 -38 -56 -23l-937 344q-19 8 -27 19t-8 32z" />
    <glyph glyph-name="equal" unicode="=" 
d="M141 279v192q0 18 8 25.5t27 7.5h1032q19 0 27 -7.5t8 -25.5v-192q0 -18 -8 -25.5t-27 -7.5h-1032q-19 0 -27 7.5t-8 25.5zM141 788v193q0 18 8 25.5t27 7.5h1032q19 0 27 -7.5t8 -25.5v-193q0 -18 -8 -25t-27 -7h-1032q-19 0 -27 7t-8 25z" />
    <glyph glyph-name="greater" unicode="&#x3e;" 
d="M143 948l56 166q11 35 51 19l942 -357q19 -8 27 -17t8 -26v-205q0 -21 -8 -32t-27 -19l-940 -344q-45 -14 -55 23l-47 149q-8 22 -2.5 34t28.5 19l748 265l-754 282q-19 8 -25 17t-2 26z" />
    <glyph glyph-name="question" unicode="?" horiz-adv-x="1083" 
d="M70 1329v180q0 22 7 33.5t27 18.5q72 26 182.5 44.5t219.5 18.5q114 0 206 -22t161 -66.5t107 -117.5t38 -169v-16q0 -218 -244 -408l-59 -47q-67 -52 -98 -109.5t-31 -129.5v-50q0 -18 -8 -25t-29 -7h-201q-35 0 -35 32v95q0 188 162 323l66 51q81 65 115 122.5
t34 127.5v11q0 141 -235 141q-192 0 -344 -57q-14 -5 -27.5 1t-13.5 25zM305 37v215q0 37 43 37h203q22 0 31.5 -8.5t9.5 -28.5v-215q0 -20 -9.5 -28.5t-31.5 -8.5h-203q-43 0 -43 37z" />
    <glyph glyph-name="at" unicode="@" horiz-adv-x="1824" 
d="M82 805q0 190 63.5 345.5t177.5 260t273.5 161t349.5 56.5q127 0 243 -27t218.5 -85.5t177.5 -142.5t118.5 -205t43.5 -267q0 -240 -115.5 -381t-298.5 -141q-89 0 -155.5 31.5t-94.5 83.5h-6q-22 -52 -79.5 -83.5t-135.5 -31.5q-150 0 -228.5 82.5t-78.5 240.5v189
q0 184 96 270q77 68 178 68q126 0 193 -86l14 61q3 17 23 17h174q16 0 16 -17v-499q0 -67 21 -95t67 -28q60 0 105 79.5t45 225.5q0 252 -149 384t-400 132q-129 0 -234 -37t-182.5 -109.5t-119.5 -187.5t-42 -264q0 -604 627 -604q155 0 313 31.5t285 91.5q23 10 33.5 2
t5.5 -29l-43 -172q-6 -27 -37 -41q-104 -50 -256 -78.5t-327 -28.5q-429 0 -654 213t-225 615zM797 702q0 -63 22.5 -95t75.5 -32q61 0 87 34.5t26 109.5v262q-15 23 -46 37t-63 14q-61 0 -81.5 -36t-20.5 -113v-181z" />
    <glyph glyph-name="A" unicode="A" horiz-adv-x="1363" 
d="M43 39q271 1044 416 1497q17 59 88 59h266q42 0 61.5 -13.5t28.5 -45.5q169 -535 418 -1499q1 -7 1 -12q0 -11 -5 -17q-8 -8 -31 -8h-239q-51 0 -58 35q-7 33 -28.5 129t-32.5 149h-486q-15 -62 -61 -282q-7 -31 -49 -31h-254q-37 0 -37 27q0 5 2 12zM496 565h374
q-46 243 -182 770h-14q-140 -561 -178 -770z" />
    <glyph glyph-name="B" unicode="B" horiz-adv-x="1331" 
d="M141 47v1512q0 19 9 27.5t30 8.5h520q471 0 471 -389v-16q0 -128 -54 -216t-142 -120v-4q55 -14 102 -42t86.5 -72t62.5 -110.5t23 -146.5v-14q0 -239 -143.5 -352t-421.5 -113h-496q-47 0 -47 47zM463 256h188q143 0 208 49t65 166v16q0 116 -69.5 164.5t-203.5 48.5
h-188v-444zM463 946h170q219 0 219 201v12q0 64 -18.5 100.5t-57.5 55.5q-52 24 -166 24h-147v-393z" />
    <glyph glyph-name="C" unicode="C" horiz-adv-x="1224" 
d="M129 539v524q0 282 145.5 418.5t450.5 136.5q208 0 354 -47q22 -7 29.5 -19t7.5 -36v-168q0 -28 -12.5 -35t-46.5 2q-152 37 -289 37q-169 0 -243 -77t-74 -249v-463q0 -174 69 -246q75 -75 252 -75q167 0 322 61q17 7 34 -3q13 -7 13 -22q0 -5 -2 -12l-33 -182
q-4 -25 -14.5 -37t-32.5 -20q-139 -50 -342 -50q-309 0 -453 132q-71 65 -103 169.5t-32 260.5z" />
    <glyph glyph-name="D" unicode="D" horiz-adv-x="1441" 
d="M141 45v1505q0 45 45 45h471q176 0 299 -34.5t203 -116.5q156 -162 156 -535v-180q0 -191 -33 -325t-107 -226t-195 -135t-296 -43h-498q-45 0 -45 45zM463 256h176q212 0 279 80q47 54 60 152.5t13 293.5v74q0 153 -16.5 247t-59.5 148q-38 49 -105 68.5t-169 19.5h-178
v-1083z" />
    <glyph glyph-name="E" unicode="E" horiz-adv-x="1142" 
d="M141 45v1505q0 45 45 45h830q41 0 35 -36l-21 -189q-3 -35 -39 -35h-528v-401h487q38 0 35 -35l-22 -188q-3 -33 -41 -33h-459v-418h559q20 0 28 -8.5t7 -28.5l-23 -188q-2 -19 -10.5 -27t-28.5 -8h-809q-45 0 -45 45z" />
    <glyph glyph-name="F" unicode="F" horiz-adv-x="1134" 
d="M141 35v1519q0 18 10.5 29.5t30.5 11.5h842q20 1 30 -9q8 -8 7 -21v-6l-25 -189q-3 -35 -43 -35h-530v-401h504q19 0 28.5 -8t8.5 -27l-23 -188q-3 -33 -37 -33h-481v-643q0 -35 -35 -35h-250q-37 0 -37 35z" />
    <glyph glyph-name="G" unicode="G" horiz-adv-x="1380" 
d="M129 514v547q0 291 158.5 424t478.5 133q222 0 385 -45q23 -6 31 -17.5t8 -37.5v-181q0 -29 -28 -29q-9 0 -21 3q-137 41 -350 41q-80 0 -139 -14.5t-106.5 -49.5t-72 -98.5t-24.5 -155.5v-481q0 -92 14.5 -147t48.5 -93q59 -69 223 -69q129 0 223 24v365h-172
q-46 0 -49 41l-14 172q-2 23 6.5 33t30.5 10h459q38 0 38 -37v-692q0 -42 -12.5 -66t-42.5 -37q-83 -36 -213 -58t-260 -22q-311 0 -455.5 129.5t-144.5 407.5z" />
    <glyph glyph-name="H" unicode="H" horiz-adv-x="1411" 
d="M141 35v1521q0 24 7.5 31.5t29.5 7.5h248q19 0 27 -7.5t8 -26.5v-627h489v627q0 34 35 34h248q20 0 28.5 -7.5t8.5 -26.5v-1526q0 -35 -37 -35h-248q-35 0 -35 35v643h-489v-643q0 -35 -39 -35h-244q-20 0 -28.5 8t-8.5 27z" />
    <glyph glyph-name="I" unicode="I" horiz-adv-x="884" 
d="M84 35v162q0 34 35 34h162v1133h-162q-35 0 -35 35v160q0 36 37 36h657q21 0 30 -8q6 -6 6 -17q0 -5 -1 -11l-20 -160q-3 -20 -12.5 -27.5t-30.5 -7.5h-146v-1133h160q18 0 25.5 -7t7.5 -27v-162q0 -35 -37 -35h-641q-16 0 -25.5 9t-9.5 26z" />
    <glyph glyph-name="J" unicode="J" horiz-adv-x="851" 
d="M18 217q-1 5 -1 9q0 14 11 22q13 9 33 4q54 -14 132 -14q48 0 93.5 14t69.5 43q21 23 31 67.5t11 81.5t1 138v977q0 36 37 36h246q20 0 28.5 -8.5t8.5 -27.5v-1027q0 -166 -20.5 -266.5t-94.5 -177.5q-45 -48 -132 -79.5t-179 -31.5q-107 0 -180 13q-30 6 -40.5 16.5
t-15.5 36.5z" />
    <glyph glyph-name="K" unicode="K" horiz-adv-x="1343" 
d="M141 39v1515q0 22 8 31.5t29 9.5h246q20 0 28.5 -9t8.5 -32v-620h157q202 330 322 620q10 24 25.5 32.5t42.5 8.5h225q29 0 37.5 -9.5t-0.5 -31.5q-170 -379 -406 -741q195 -319 426 -766q7 -14 7 -24q0 -23 -37 -23h-234q-39 0 -60.5 11t-33.5 40q-156 356 -299 604
q-8 14 -16.5 18.5t-26.5 4.5h-129v-639q0 -22 -10 -30.5t-33 -8.5h-234q-26 0 -34.5 8.5t-8.5 30.5z" />
    <glyph glyph-name="L" unicode="L" horiz-adv-x="1079" 
d="M143 47v1503q0 27 14 36t50 9h192q36 0 50 -9t14 -36v-1290h532q27 0 37 -10q6 -6 7 -19q0 -8 -3 -20l-32 -162q-7 -28 -21.5 -38.5t-40.5 -10.5h-733q-35 0 -50.5 11t-15.5 36z" />
    <glyph glyph-name="M" unicode="M" horiz-adv-x="1798" 
d="M131 35q0 737 49 1524q3 36 37 36h246q24 0 34.5 -5t20.5 -25l385 -785h8l361 785q10 20 20 25t35 5h246q32 0 35 -36q59 -794 59 -1524q0 -35 -37 -35h-235q-39 0 -39 35q0 664 -17 1073h-14l-311 -674q-23 -41 -60 -41h-100q-36 0 -59 41l-330 674h-14
q-9 -325 -9 -1073q0 -35 -39 -35h-235q-37 0 -37 35z" />
    <glyph glyph-name="N" unicode="N" horiz-adv-x="1425" 
d="M141 35v1526q0 34 33 34h178q52 0 70 -43l592 -1001h10l-23 209v801q0 19 7.5 26.5t25.5 7.5h213q20 0 28.5 -7.5t8.5 -26.5v-1526q0 -35 -39 -35h-158q-60 0 -79 43l-592 1008h-10l18 -168v-848q0 -35 -35 -35h-215q-33 0 -33 35z" />
    <glyph glyph-name="O" unicode="O" horiz-adv-x="1433" 
d="M129 510v575q0 260 158 396.5t430 136.5t430 -136.5t158 -396.5v-575q0 -261 -155.5 -397t-432.5 -136t-432.5 136t-155.5 397zM451 543q0 -163 75 -238q61 -61 191 -61q138 0 202 75.5t64 223.5v510q0 159 -78 237q-62 62 -188 62q-140 0 -203 -73.5t-63 -225.5v-510z
" />
    <glyph glyph-name="P" unicode="P" horiz-adv-x="1261" 
d="M141 41v1513q0 23 9.5 32t35.5 9h430q286 0 410 -98q152 -119 152 -393v-23q0 -262 -138 -389t-424 -127h-153v-524q0 -41 -43 -41h-234q-45 0 -45 41zM463 821h102q96 0 146.5 12t83.5 44q57 54 57 208v17q0 133 -61 188q-33 29 -78.5 39t-132.5 10h-117v-518z" />
    <glyph glyph-name="Q" unicode="Q" horiz-adv-x="1433" 
d="M129 510v575q0 260 158 396.5t430 136.5t430 -136.5t158 -396.5v-575q0 -228 -118.5 -360t-334.5 -162q1 -91 52 -136t140 -45q63 0 130 13q18 4 24.5 -6t3.5 -27l-31 -145q-12 -35 -55.5 -44.5t-124.5 -9.5q-202 0 -306 108.5t-110 291.5q-214 31 -330 163.5t-116 358.5
zM451 543q0 -163 75 -238q61 -61 191 -61q138 0 202 75.5t64 223.5v510q0 159 -78 237q-62 62 -188 62q-140 0 -203 -73.5t-63 -225.5v-510z" />
    <glyph glyph-name="R" unicode="R" horiz-adv-x="1275" 
d="M141 37v1522q0 16 9 26t26 10h479q262 0 396.5 -110.5t134.5 -362.5v-35q0 -183 -82.5 -304.5t-218.5 -161.5q171 -292 305 -570q6 -13 6 -23q0 -28 -49 -28h-219q-31 0 -45 7.5t-25 29.5q-139 309 -270 553h-127v-553q0 -37 -37 -37h-248q-35 0 -35 37zM461 846h157
q144 0 193 50.5t49 195.5v18q0 133 -54.5 181t-193.5 48h-151v-493z" />
    <glyph glyph-name="S" unicode="S" horiz-adv-x="1153" 
d="M90 291q-1 4 -1 7q0 16 12 22q14 6 40 -5q67 -29 163 -50t179 -21q133 0 203 50.5t70 143.5v11q0 85 -46 139t-161 94l-98 35q-336 119 -336 450v15q0 212 148 324t394 112q154 0 279 -39q26 -8 33.5 -20.5t7.5 -36.5v-164q0 -38 -38 -38q-10 0 -24 3q-131 29 -245 29
q-240 0 -240 -174v-9q0 -84 40 -132.5t136 -82.5l109 -41q186 -69 268 -173t82 -273v-21q0 -215 -146 -342t-403 -127q-84 0 -178 14.5t-160 37.5q-26 8 -35 20t-14 35z" />
    <glyph glyph-name="T" unicode="T" horiz-adv-x="1181" 
d="M45 1370v191q0 34 37 34h1018q22 1 30 -7q6 -6 6 -18q0 -4 -1 -9l-29 -191q-3 -20 -12 -27.5t-31 -7.5h-311v-1300q0 -35 -37 -35h-250q-35 0 -35 35v1300h-348q-16 0 -26.5 9t-10.5 26z" />
    <glyph glyph-name="U" unicode="U" horiz-adv-x="1396" 
d="M135 522v1039q0 34 37 34h248q37 0 37 -34v-1010q0 -155 52 -231t189 -76q134 0 191 73q51 63 51 234v1010q0 34 39 34h246q37 0 37 -34v-1039q0 -278 -140 -411.5t-424 -133.5q-290 0 -426.5 132.5t-136.5 412.5z" />
    <glyph glyph-name="V" unicode="V" horiz-adv-x="1296" 
d="M35 1548q-2 8 -2 15q0 32 37 32h233q43 0 49 -36q133 -734 285 -1280h18q147 543 287 1284q6 32 51 32h234q37 0 37 -27q0 -6 -2 -14q-90 -394 -198.5 -808t-193.5 -678q-15 -44 -33 -56t-65 -12h-266q-40 0 -58 14.5t-32 55.5q-85 263 -191 676.5t-190 801.5z" />
    <glyph glyph-name="W" unicode="W" horiz-adv-x="1904" 
d="M35 1548q-1 6 -1 11q0 17 8 25q10 10 38 11h209q35 0 48 -9.5t15 -33.5q58 -634 168 -1284h12l203 1202q4 30 22 43t54 13h283q67 0 75 -56l207 -1202h13q113 647 161 1284q2 23 16.5 33t49.5 10h207q33 -1 41 -13q6 -9 7 -28q0 -7 -1 -14q-46 -382 -114.5 -799.5
t-135.5 -681.5q-14 -59 -92 -59h-285q-72 0 -80 55l-207 1159h-14l-194 -1159q-11 -55 -89 -55h-278q-71 0 -86 61q-71 277 -145 705.5t-115 781.5z" />
    <glyph glyph-name="X" unicode="X" horiz-adv-x="1359" 
d="M53 12q-4 6 -4 13q0 9 6 20q166 322 437 760q-205 317 -418 743q-8 15 -8 25q0 22 40 22h261q44 0 59 -32q137 -311 252 -516q115 207 244 514q9 20 21 27t40 7h250q27 0 37 -12t2 -33q-233 -449 -420 -749q247 -380 451 -756q7 -15 7 -25q0 -6 -2 -10q-8 -10 -40 -10
h-234q-34 0 -53 10.5t-31 36.5q-157 336 -274 531q-119 -204 -268 -533q-14 -25 -29.5 -35t-44.5 -10h-246q-26 0 -35 12z" />
    <glyph glyph-name="Y" unicode="Y" horiz-adv-x="1255" 
d="M35 1559q-2 6 -2 12q0 7 4 13q7 11 24 11h238q23 0 34 -7.5t17 -26.5q118 -367 266 -736h15q156 399 262 734q6 21 18.5 28.5t38.5 7.5h240q32 0 32 -21q0 -6 -3 -15q-178 -501 -437 -1006v-516q0 -18 -10.5 -27.5t-26.5 -9.5h-249q-35 0 -35 37v516q-262 520 -426 1006z
" />
    <glyph glyph-name="Z" unicode="Z" horiz-adv-x="1232" 
d="M63 49v76q0 36 5.5 57t23.5 49l684 1104h-631q-21 0 -28.5 7.5t-7.5 27.5v193q0 17 8 24.5t28 7.5h969q51 0 51 -47v-90q0 -33 -7 -56t-28 -59l-679 -1083h620q26 0 35.5 -11t5.5 -38l-31 -162q-11 -49 -63 -49h-903q-52 0 -52 49z" />
    <glyph glyph-name="bracketleft" unicode="[" horiz-adv-x="755" 
d="M141 -297v1933q0 19 8.5 27t28.5 8h488q17 0 23.5 -7t6.5 -22v-196q0 -14 -6 -20.5t-22 -6.5h-236v-1497h236q17 0 22.5 -6t5.5 -20v-197q0 -15 -6.5 -22t-23.5 -7h-488q-37 0 -37 33z" />
    <glyph glyph-name="backslash" unicode="\" horiz-adv-x="880" 
d="M63 1563q-6 21 3 26.5t40 5.5h205q24 0 33.5 -5.5t15.5 -26.5l459 -1536q3 -13 -4.5 -20t-28.5 -7h-221q-39 0 -45 25z" />
    <glyph glyph-name="bracketright" unicode="]" horiz-adv-x="755" 
d="M59 -104q0 14 6 20t23 6h236v1497h-236q-17 0 -23 6.5t-6 20.5v196q0 29 31 29h488q20 0 28 -8t8 -27v-1933q0 -18 -8 -25.5t-28 -7.5h-488q-31 0 -31 29v197z" />
    <glyph glyph-name="asciicircum" unicode="^" 
d="M190 979l326 508q17 29 47 29h256q30 0 47 -29l328 -508q20 -35 -20 -49l-173 -66q-29 -10 -49 -3t-37 34l-213 328h-20l-215 -328q-32 -50 -86 -31l-170 66q-41 14 -21 49z" />
    <glyph glyph-name="underscore" unicode="_" horiz-adv-x="1165" 
d="M57 -66q0 27 27 27h997q27 0 27 -27v-184q0 -26 -27 -26h-997q-27 0 -27 26v184z" />
    <glyph glyph-name="grave" unicode="`" horiz-adv-x="868" 
d="M107 1732q7 13 30 13h271q39 0 65 -33l219 -303q15 -17 8.5 -31t-30.5 -14h-207q-50 0 -84 37l-264 303q-15 15 -8 28z" />
    <glyph glyph-name="a" unicode="a" horiz-adv-x="1198" 
d="M82 350v19q0 100 29.5 170t89.5 110.5t141 58t193 17.5q113 0 235 -8v86q0 84 -41 125q-32 30 -78 42.5t-123 12.5q-131 0 -303 -41q-12 -3 -21 -3q-28 0 -28 30v159q0 21 6.5 31.5t24.5 16.5q66 23 173.5 38t217.5 15q238 0 357.5 -95t119.5 -315v-522q0 -95 15 -260v-5
q0 -32 -33 -32h-185q-38 0 -47 27q-7 17 -18 69q-39 -47 -127 -83t-184 -36q-195 0 -304.5 94.5t-109.5 278.5zM389 350q0 -139 166 -139q60 0 118 24t97 60v203q-71 6 -192 6q-97 0 -143 -29.5t-46 -109.5v-15z" />
    <glyph glyph-name="b" unicode="b" horiz-adv-x="1292" 
d="M117 31q12 144 12 342v1206q0 40 33 45l229 27q6 1 11 1q32 0 32 -32v-487q72 42 165.5 69t176.5 27q207 0 305.5 -120.5t98.5 -342.5v-313q0 -109 -24 -193.5t-74.5 -149t-135.5 -99t-201 -34.5q-188 0 -337 109l-21 -61q-8 -25 -45 -25h-192q-18 0 -26 8q-7 6 -7 18v5z
M434 274q92 -55 215 -55q116 0 170.5 60.5t54.5 191.5v256q0 45 -3.5 78.5t-15 70t-32 59t-57.5 37.5t-88 15q-116 0 -244 -53v-660z" />
    <glyph glyph-name="c" unicode="c" horiz-adv-x="1071" 
d="M113 436v334q0 224 139.5 341.5t392.5 117.5q143 0 279 -35q37 -9 37 -49v-150q0 -33 -37 -33q-11 0 -25 3q-104 22 -223 22q-258 0 -258 -248v-282q0 -120 62 -179t194 -59q127 0 256 37q25 8 38 -2q10 -8 10 -24q0 -5 -1 -11l-27 -151q-8 -41 -43 -52
q-106 -39 -264 -39q-269 0 -399.5 114.5t-130.5 344.5z" />
    <glyph glyph-name="d" unicode="d" horiz-adv-x="1298" 
d="M111 432v344q0 124 28.5 204.5t87.5 139.5q54 53 142 81t186 28q84 0 166 -24t143 -64v438q0 40 33 45l229 27q6 1 11 1q32 0 32 -32v-1329q0 -106 17 -252q1 -7 1 -12q-1 -13 -7 -19q-10 -8 -39 -8h-160q-55 0 -63 35l-19 69q-130 -127 -352 -127q-94 0 -180 29t-140 82
q-116 113 -116 344zM418 479q0 -87 11 -131.5t40 -75.5q53 -53 168 -53q148 0 227 57v660q-97 51 -229 51q-127 0 -172 -57t-45 -201v-250z" />
    <glyph glyph-name="e" unicode="e" horiz-adv-x="1230" 
d="M113 465v274q0 235 142 362.5t376 127.5q236 0 363.5 -123t127.5 -358v-207q0 -58 -61 -58h-643v-47q0 -217 287 -217q187 0 309 37q31 9 43.5 -1t5.5 -40l-25 -141q-4 -27 -16 -39.5t-37 -20.5q-141 -37 -287 -37q-585 0 -585 488zM418 705h399v69q0 232 -188 232
q-101 0 -156 -58.5t-55 -173.5v-69z" />
    <glyph glyph-name="f" unicode="f" horiz-adv-x="862" 
d="M4 997v183q0 26 31 26h182v121q0 91 32 158.5t91.5 108t137.5 60t177 19.5q101 0 179 -16q17 -3 22.5 -11t5.5 -26v-162q0 -34 -35 -28q-58 8 -133 8q-85 0 -127 -31q-45 -36 -45 -113v-88h273q15 0 21 -4.5t5 -17.5l-24 -187q-3 -24 -25 -24h-250v-940q0 -33 -28 -33
h-244q-33 0 -33 33v940h-184q-29 0 -29 24z" />
    <glyph glyph-name="g" unicode="g" horiz-adv-x="1292" 
d="M113 430v344q0 123 28.5 203.5t85.5 140.5q54 54 137 82.5t175 28.5q211 0 346 -117l20 72q5 22 31 22h203q13 0 18.5 -5t5.5 -19v-1104q0 -242 -135.5 -377t-404.5 -135q-156 0 -281 33q-23 6 -34 16t-15 31l-35 164q-3 19 6.5 29t24.5 5q142 -43 305 -43
q132 0 199 60.5t67 171.5v59q-47 -51 -139 -83t-189 -32q-194 0 -305 111q-57 58 -85.5 139t-28.5 203zM418 479q0 -87 11.5 -132.5t41.5 -76.5q51 -51 154 -51q58 0 126 21.5t107 56.5v625q-46 29 -108.5 47t-120.5 18q-106 0 -158 -49q-31 -30 -42 -76t-11 -135v-248z" />
    <glyph glyph-name="h" unicode="h" horiz-adv-x="1288" 
d="M129 41v1540q0 40 33 45l229 25q6 1 11 1q32 0 32 -32v-494q72 45 163 74t179 29q79 0 154 -24.5t123 -69.5q59 -56 85.5 -136t26.5 -204v-754q0 -28 -9 -34.5t-44 -6.5h-201q-32 0 -41.5 7t-9.5 34v690q0 74 -7.5 119t-30 77.5t-62.5 46t-105 13.5q-48 0 -112 -14.5
t-109 -36.5v-895q0 -24 -11 -32.5t-40 -8.5h-203q-31 0 -41 8t-10 33z" />
    <glyph glyph-name="i" unicode="i" horiz-adv-x="585" 
d="M139 31v1145q0 30 35 30h238q34 0 34 -30v-1145q0 -31 -34 -31h-238q-35 0 -35 31zM139 1362v215q0 44 45 47l219 18h7q36 0 36 -30v-250q0 -31 -34 -31h-238q-35 0 -35 31z" />
    <glyph glyph-name="j" unicode="j" horiz-adv-x="600" 
d="M-160 -215q-1 5 -1 9q0 11 6 16q8 8 28 4q58 -13 113 -13q90 0 125.5 49t35.5 158v1168q0 30 35 30h236q35 0 35 -30v-1151q0 -129 -40.5 -231t-127 -165t-207.5 -63q-103 0 -162 12q-35 6 -41 39zM147 1362v215q0 44 46 47l217 18h10q16 0 24 -5q9 -7 9 -25v-250
q0 -31 -35 -31h-236q-35 0 -35 31z" />
    <glyph glyph-name="k" unicode="k" horiz-adv-x="1185" 
d="M129 39v1540q0 40 33 45l229 27q6 1 11 1q32 0 32 -32v-844h150q143 203 241 398q14 32 70 32h213q29 0 32.5 -15t-10.5 -38q-137 -263 -327 -514q174 -257 350 -582q8 -12 8 -23q0 -8 -4 -16q-10 -18 -43 -18h-211q-29 0 -43.5 7.5t-23.5 27.5q-126 259 -261 481
q-13 25 -49 25h-92v-502q0 -22 -9 -30.5t-32 -8.5h-219q-23 0 -34 8.5t-11 30.5z" />
    <glyph glyph-name="l" unicode="l" horiz-adv-x="706" 
d="M139 326v1253q0 42 33 45l229 27q6 1 11 1q32 0 32 -32v-1280q0 -121 109 -121q36 0 86 10q15 3 25 -4q7 -5 7 -18q0 -4 -1 -8l-23 -160q-8 -28 -35 -37q-59 -18 -133 -18q-340 0 -340 342z" />
    <glyph glyph-name="m" unicode="m" horiz-adv-x="2041" 
d="M129 39v1135q0 19 8.5 25.5t30.5 6.5h170q41 0 49 -28l19 -74q75 55 177 90t197 35q232 0 320 -144q83 64 199.5 104t228.5 40q82 0 156 -24t122 -70q59 -56 86 -136.5t27 -203.5v-754q0 -28 -9 -34.5t-44 -6.5h-201q-32 0 -41.5 7t-9.5 34v690q0 91 -8 134t-37 73
q-49 49 -150 49q-120 0 -239 -63v-885q0 -39 -39 -39h-232q-37 0 -37 39v690q0 92 -7.5 134t-35.5 71q-44 53 -151 53q-128 0 -244 -57v-891q0 -22 -8 -30.5t-27 -8.5h-229q-41 0 -41 39z" />
    <glyph glyph-name="n" unicode="n" horiz-adv-x="1288" 
d="M129 41v1133q0 32 35 32h188q22 0 32.5 -6.5t14.5 -23.5l17 -70q72 55 167.5 89t192.5 34q82 0 155.5 -24t121.5 -70q59 -56 85.5 -136t26.5 -204v-754q0 -28 -9 -34.5t-44 -6.5h-201q-32 0 -41.5 7t-9.5 34v690q0 74 -7.5 119t-30 77.5t-62.5 46t-105 13.5
q-46 0 -110 -16.5t-111 -38.5v-891q0 -21 -10 -31t-35 -10h-209q-51 0 -51 41z" />
    <glyph glyph-name="o" unicode="o" horiz-adv-x="1273" 
d="M113 438v332q0 459 524 459t524 -459v-332q0 -234 -134 -347.5t-390 -113.5t-390 113.5t-134 347.5zM418 475q0 -124 49.5 -190t169.5 -66t169.5 66t49.5 190v256q0 139 -47.5 197.5t-171.5 58.5t-171.5 -58.5t-47.5 -197.5v-256z" />
    <glyph glyph-name="p" unicode="p" horiz-adv-x="1292" 
d="M129 -375v1553q0 28 29 28h194q29 0 35 -22l23 -76q69 53 168 87t202 34q173 0 285 -109q58 -58 86.5 -139t28.5 -205v-346q0 -226 -121 -344q-112 -109 -301 -109q-188 0 -326 74v-401q0 -21 -8.5 -27.5t-36.5 -11.5l-217 -25q-5 -1 -10 -1q-14 0 -22 7q-9 10 -9 33z
M434 268q39 -21 103 -35t125 -14q113 0 161 51q28 31 39.5 76.5t11.5 130.5v252q0 136 -42 197t-154 61q-134 0 -244 -61v-658z" />
    <glyph glyph-name="q" unicode="q" horiz-adv-x="1294" 
d="M113 430v346q0 125 28 205.5t86 138.5q55 53 136.5 81t175.5 28q103 0 199 -33t147 -82l22 68q8 22 35 22h195q28 0 28 -28v-1526q0 -21 -9 -28.5t-36 -10.5l-217 -25q-5 -1 -10 -1q-14 0 -21 7q-10 10 -10 33v443q-45 -39 -132 -65t-179 -26q-99 0 -184.5 28t-139.5 81
q-114 111 -114 344zM418 483q0 -85 11.5 -130.5t39.5 -76.5q54 -57 162 -57q56 0 120.5 15t108.5 42v650q-102 61 -229 61q-119 0 -166 -53q-28 -32 -37.5 -78t-9.5 -129v-244z" />
    <glyph glyph-name="r" unicode="r" horiz-adv-x="847" 
d="M129 41v1133q0 32 35 32h196q40 0 43 -35l11 -106q57 72 141.5 115t187.5 43q58 0 72 -10q12 -9 12 -25v-182q0 -22 -10 -30.5t-35 -8.5q-214 0 -348 -90v-836q0 -22 -9.5 -31.5t-35.5 -9.5h-215q-45 0 -45 41z" />
    <glyph glyph-name="s" unicode="s" horiz-adv-x="1021" 
d="M88 242q-1 5 -1 9q1 16 13 23q16 10 35 2q68 -27 154.5 -45t154.5 -18q197 0 197 125v10q0 48 -24 78.5t-95 52.5l-112 33q-299 86 -299 358v19q0 109 62.5 187.5t164 115.5t229.5 37q146 0 271 -37q30 -9 30 -37v-164q0 -32 -30 -32q-11 0 -25 4q-113 30 -225 30
q-178 0 -178 -108v-8q0 -49 29.5 -81.5t103.5 -54.5l102 -30q158 -48 224.5 -129.5t66.5 -208.5v-19q0 -175 -120.5 -276t-344.5 -101q-176 0 -303 46q-44 14 -51 49z" />
    <glyph glyph-name="t" unicode="t" horiz-adv-x="923" 
d="M16 1006v174q0 12 8.5 19t22.5 7h180v256q0 18 5.5 26.5t23.5 12.5l238 43q6 1 12 1q26 0 26 -25v-314h312q17 0 25.5 -11t4.5 -30l-28 -168q-5 -24 -33 -24h-281v-563q0 -105 35.5 -150t110.5 -45q84 0 158 16q25 6 37 -5q9 -8 9 -26q0 -6 -1 -12l-31 -137
q-5 -23 -13.5 -34t-27.5 -17q-75 -23 -191 -23q-210 0 -300.5 100.5t-90.5 309.5v586h-178q-15 0 -24 9t-9 24z" />
    <glyph glyph-name="u" unicode="u" horiz-adv-x="1267" 
d="M123 451v706q0 28 10.5 38.5t38.5 10.5h207q28 0 38.5 -10.5t10.5 -36.5v-692q0 -84 10 -127.5t35 -71.5q51 -55 156 -55q113 0 205 61v885q0 26 10.5 36.5t38.5 10.5h204q28 0 40 -11t12 -38v-860q0 -128 12 -260v-5q0 -32 -33 -32h-190q-41 0 -47 27q-12 48 -15 67
q-54 -52 -135.5 -84.5t-175.5 -32.5q-215 0 -319 107q-113 113 -113 367z" />
    <glyph glyph-name="v" unicode="v" horiz-adv-x="1159" 
d="M35 1169q-2 7 -2 12q0 25 35 25h217q26 0 37.5 -6.5t15.5 -25.5q132 -561 248 -930h10q114 388 223 930q4 22 12.5 27t36.5 5h226q30 0 30 -23q0 -6 -2 -14q-155 -641 -311 -1101q-24 -68 -109 -68h-235q-39 0 -62 15.5t-36 52.5q-176 510 -334 1101z" />
    <glyph glyph-name="w" unicode="w" horiz-adv-x="1767" 
d="M41 1169q-2 7 -2 12q0 25 33 25h221q25 0 36.5 -6.5t14.5 -25.5q86 -583 162 -930h18l144 884q6 31 22 44.5t49 13.5h269q35 0 51 -13.5t22 -44.5l154 -884h18q80 380 158 930q3 19 15.5 25.5t37.5 6.5h232q32 0 32 -24q0 -6 -2 -13q-111 -540 -266 -1112q-9 -33 -32 -45
t-74 -12h-246q-42 0 -61.5 14.5t-24.5 46.5l-145 842h-15l-131 -842q-4 -32 -28 -46.5t-72 -14.5h-248q-40 0 -61.5 14.5t-30.5 46.5q-99 352 -250 1108z" />
    <glyph glyph-name="x" unicode="x" horiz-adv-x="1148" 
d="M41 1193q7 13 29 13h231q28 0 42.5 -8.5t25.5 -30.5q10 -18 55 -103t81 -147t68 -110q103 166 201 367q9 18 23 25t41 7h217q42 0 42 -22q0 -9 -7 -21q-61 -115 -164.5 -277t-182.5 -270q230 -338 363 -573q7 -11 7 -20q0 -5 -4 -11q-9 -12 -34 -12h-233q-42 0 -56 25
q-131 260 -215 385q-32 -50 -112.5 -199.5t-96.5 -177.5q-9 -18 -22.5 -25.5t-40.5 -7.5h-227q-37 0 -37 21q0 12 12 30q221 381 352 561q-223 307 -354 549q-7 12 -7 21q0 6 3 11z" />
    <glyph glyph-name="y" unicode="y" horiz-adv-x="1163" 
d="M39 1167q-1 6 -1 11q0 28 40 28h217q43 0 51 -35q101 -454 238 -944h14q129 486 215 936q4 26 18.5 34.5t49.5 8.5h202q41 0 41 -28q0 -7 -2 -15q-182 -723 -334 -1177q-76 -228 -178 -324t-274 -96q-84 0 -146 16q-39 9 -45 37l-36 162q-5 20 2.5 29.5t27.5 5.5
q73 -15 146 -15q188 0 237 164l10 37h-73q-42 0 -63.5 14.5t-35.5 59.5q-188 574 -321 1091z" />
    <glyph glyph-name="z" unicode="z" horiz-adv-x="1038" 
d="M66 39v117q0 52 36 100l523 715h-496q-22 0 -29.5 8t-7.5 31v164q0 18 8 25t29 7h807q37 0 37 -37v-141q0 -37 -21 -72l-536 -720h518q37 0 37 -30q0 -6 -2 -13l-37 -154q-8 -39 -60 -39h-766q-23 0 -31.5 9t-8.5 30z" />
    <glyph glyph-name="braceleft" unicode="{" horiz-adv-x="940" 
d="M80 578v182q0 30 26 33q107 10 152 59t45 152v346q0 166 79.5 243.5t238.5 77.5h229q14 0 19 -6t5 -23v-176q0 -15 -6 -20.5t-26 -5.5h-144q-48 0 -67 -19t-19 -69v-330q0 -138 -57 -220.5t-174 -131.5q117 -52 174 -134.5t57 -220.5v-325q0 -50 19 -69t67 -19h144
q20 0 26 -5.5t6 -21.5v-176q0 -17 -5 -23t-19 -6h-229q-159 0 -238.5 78t-79.5 244v342q0 102 -46.5 151t-150.5 60q-26 3 -26 33z" />
    <glyph glyph-name="bar" unicode="|" horiz-adv-x="593" 
d="M137 -367v1940q0 26 31 26h256q33 0 33 -26v-1940q0 -26 -29 -26h-264q-27 0 -27 26z" />
    <glyph glyph-name="braceright" unicode="}" horiz-adv-x="940" 
d="M66 -125q0 16 6 21.5t24 5.5h146q48 0 67 19t19 69v325q0 138 57 220.5t174 134.5q-117 49 -174 131.5t-57 220.5v330q0 50 -19 69t-67 19h-146q-18 0 -24 5.5t-6 20.5v176q0 17 5 23t19 6h229q158 0 238 -77.5t80 -243.5v-346q0 -103 45 -152t152 -59q26 -3 26 -33v-182
q0 -30 -26 -33q-104 -11 -150.5 -60t-46.5 -151v-342q0 -166 -80 -244t-238 -78h-229q-14 0 -19 6t-5 23v176z" />
    <glyph glyph-name="asciitilde" unicode="~" 
d="M96 676q50 140 151 222.5t228 82.5q66 0 121 -17t123 -53l69 -37q53 -27 81 -37t63 -10q79 0 129 113q7 19 20.5 22.5t34.5 -4.5l148 -59q19 -6 23.5 -14t0.5 -25q-41 -134 -128.5 -211.5t-196.5 -77.5q-64 0 -117.5 15.5t-124.5 50.5l-76 37q-78 40 -118 46q-16 3 -31 3
q-50 0 -93 -36t-69 -101q-11 -21 -24 -26t-38 5l-153 64q-35 14 -23 47z" />
    <glyph glyph-name="nonbreakingspace" unicode="&#xa0;" horiz-adv-x="450" 
 />
    <glyph glyph-name="exclamdown" unicode="&#xa1;" horiz-adv-x="575" 
d="M147 -322l9 1067q0 43 39 43h184q23 0 32 -9.5t9 -33.5l10 -1067q0 -30 -35 -30h-215q-33 0 -33 30zM147 987v225q0 19 8.5 26t30.5 7h207q19 0 27 -7.5t8 -25.5v-225q0 -18 -8 -25.5t-27 -7.5h-207q-22 0 -30.5 7t-8.5 26z" />
    <glyph glyph-name="cent" unicode="&#xa2;" horiz-adv-x="1042" 
d="M113 436v334q0 188 100 302t285 145v194q0 23 20 23h197q20 0 20 -23v-186q95 -8 189 -31q37 -9 37 -49v-150q0 -43 -62 -30q-104 22 -223 22q-258 0 -258 -248v-282q0 -120 62 -179t194 -59q127 0 256 37q25 8 38 -2.5t9 -34.5l-27 -151q-8 -41 -43 -52
q-74 -25 -172 -34v-172q0 -23 -20 -23h-197q-20 0 -20 23v178q-195 28 -290 139t-95 309z" />
    <glyph glyph-name="sterling" unicode="&#xa3;" horiz-adv-x="1245" 
d="M78 717v149q0 21 9 30t38 9h139q-88 181 -88 322v14q0 179 154.5 278t423.5 99q176 0 348 -47q28 -7 38.5 -20t10.5 -38v-174q0 -23 -13.5 -28.5t-41.5 2.5q-139 39 -305 39q-145 0 -214 -43t-69 -131v-17q0 -110 61 -256h410q26 0 35.5 -9t5.5 -32l-31 -143
q-4 -23 -17 -32t-40 -9h-314q5 -50 5 -70v-20q0 -98 -37 -188.5t-105 -141.5h656q40 0 34 -35l-38 -184q-8 -41 -50 -41h-950q-26 0 -36.5 7t-10.5 26v125q0 26 8 38.5t33 24.5q91 47 150 138.5t59 207.5v21q0 11 -6 92h-203q-31 0 -40 8t-9 29z" />
    <glyph glyph-name="currency" unicode="&#xa4;" horiz-adv-x="1269" 
d="M41 1122q-28 32 0 60l125 112q12 9 28.5 8.5t28.5 -12.5l158 -151q108 63 250 63q143 0 254 -63l162 151q29 29 57 4l125 -112q13 -14 13 -30t-13 -30l-166 -161q59 -101 59 -226q0 -139 -61 -233l153 -158q17 -13 17 -29.5t-17 -29.5l-120 -113q-26 -23 -60 4l-157 152
q-121 -62 -246 -62q-121 0 -242 62l-158 -152q-30 -27 -59 -4l-125 113q-26 29 0 59l160 158q-70 113 -70 235q0 117 66 226zM426 737q0 -90 59.5 -146t149.5 -56q87 0 144 56.5t57 143.5t-57.5 143t-147.5 56q-88 0 -146.5 -54.5t-58.5 -142.5z" />
    <glyph glyph-name="yen" unicode="&#xa5;" horiz-adv-x="1310" 
d="M37 1559q-7 15 1 25.5t25 10.5h259q23 0 34 -7.5t17 -26.5q180 -484 274 -695h15q136 308 266 693q9 22 20.5 29t36.5 7h258q48 0 29 -36q-178 -434 -361 -783h234q39 0 31 -31l-37 -149q-4 -17 -13.5 -23t-27.5 -6h-283l-2 -6v-125h332q20 0 27.5 -6.5t3.5 -23.5
l-37 -150q-4 -17 -13.5 -23t-27.5 -6h-285v-190q0 -18 -10.5 -27.5t-26.5 -9.5h-256q-35 0 -35 37v190h-317q-41 0 -41 29v150q0 17 9.5 23.5t31.5 6.5h317v125l-4 6h-313q-41 0 -41 29v149q0 17 9.5 24t31.5 7h221q-177 338 -352 783z" />
    <glyph glyph-name="brokenbar" unicode="&#xa6;" horiz-adv-x="606" 
d="M143 -367v785q0 26 27 26h264q29 0 29 -26v-785q0 -26 -29 -26h-264q-27 0 -27 26zM143 793v784q0 27 27 27h264q29 0 29 -27v-784q0 -27 -29 -27h-264q-27 0 -27 27z" />
    <glyph glyph-name="section" unicode="&#xa7;" horiz-adv-x="1128" 
d="M45 633v12q0 104 69.5 187.5t178.5 119.5q-72 32 -119 114.5t-47 180.5v10q0 160 137.5 260.5t372.5 100.5q69 0 150 -10.5t122 -24.5q31 -10 31 -37v-160q0 -23 -13 -32.5t-34 -3.5q-106 26 -248 26q-100 0 -152.5 -29t-52.5 -83v-7q0 -52 42 -88t157 -86l125 -53
q64 -28 112.5 -56.5t99.5 -71.5t79 -101t28 -127v-12q0 -109 -61.5 -198t-173.5 -145q174 -102 174 -307v-12q0 -167 -133.5 -270t-356.5 -103q-68 0 -147.5 10.5t-128.5 24.5q-19 5 -28 13.5t-13 29.5l-43 191q-3 17 7.5 24.5t27.5 1.5q157 -53 321 -53q83 0 133 29t50 88
v10q0 56 -48 98t-135 80l-118 51q-180 78 -272.5 177t-92.5 231zM354 662q0 -65 53 -113t158 -98l45 -23q78 33 121 85t43 110v8q0 58 -43.5 100t-128.5 74l-100 39q-63 -25 -105.5 -74t-42.5 -100v-8z" />
    <glyph glyph-name="dieresis" unicode="&#xa8;" horiz-adv-x="868" 
d="M45 1452v225q0 45 53 45h199q29 0 43 -10t14 -35v-225q0 -45 -57 -45h-199q-53 0 -53 45zM514 1452v225q0 45 55 45h197q29 0 43 -10t14 -35v-225q0 -45 -57 -45h-197q-55 0 -55 45z" />
    <glyph glyph-name="copyright" unicode="&#xa9;" horiz-adv-x="1832" 
d="M47 811q0 171 63.5 319.5t176 256t275 169.5t353.5 62t354 -62t276 -169.5t177 -256t64 -319.5q0 -172 -64 -325.5t-176.5 -265.5t-276.5 -177.5t-354 -65.5q-192 0 -354 62t-275 171.5t-176 264.5t-63 336zM324 811q0 -276 156 -442t435 -166q277 0 435.5 167t158.5 441
q0 271 -157 426.5t-437 155.5q-282 0 -436.5 -155t-154.5 -427zM561 657v281q0 151 100.5 226t282.5 75q122 0 199 -22q18 -5 25.5 -12.5t7.5 -24.5v-133q0 -32 -33 -23q-70 16 -166 16q-98 0 -134 -35.5t-36 -136.5v-141q0 -101 38 -135.5t142 -34.5q88 0 164 27
q19 7 30.5 -1t8.5 -24l-29 -141q-3 -21 -26 -31q-78 -29 -199 -29q-176 0 -275.5 76.5t-99.5 222.5z" />
    <glyph glyph-name="ordfeminine" unicode="&#xaa;" horiz-adv-x="794" 
d="M70 1247v17q0 213 278 213q75 0 133 -4v32q0 48 -29.5 69t-99.5 21q-82 0 -180 -24q-37 -9 -37 20v115q0 14 6 21.5t23 11.5q100 28 231 28q156 0 239 -56t83 -193v-299q0 -89 8 -152q3 -29 -25 -29h-155q-30 0 -33 23l-10 41q-25 -37 -78.5 -58.5t-120.5 -21.5
q-112 0 -172.5 61t-60.5 164zM295 1251q0 -69 84 -69q66 0 102 41v104q-50 4 -92 4q-52 0 -73 -16.5t-21 -54.5v-9z" />
    <glyph glyph-name="guillemotleft" unicode="&#xab;" horiz-adv-x="1538" 
d="M51 647v53q0 19 27 43l465 387q16 14 41 -6l143 -129q19 -19 -2 -39l-317 -280l323 -281q26 -23 2 -39l-151 -123q-25 -20 -41 -6l-467 377q-23 20 -23 43zM780 647v53q0 19 27 43l465 387q16 14 41 -6l143 -129q18 -19 -2 -39l-317 -280l323 -281q26 -23 2 -39
l-151 -123q-25 -20 -41 -6l-467 377q-23 20 -23 43z" />
    <glyph glyph-name="logicalnot" unicode="&#xac;" 
d="M141 530v193q0 18 8 25.5t27 7.5h1032q19 0 27 -7.5t8 -25.5v-518q0 -27 -29 -27h-208q-27 0 -27 27v293h-803q-19 0 -27 7t-8 25z" />
    <glyph glyph-name="uni00AD" unicode="&#xad;" horiz-adv-x="661" 
d="M74 629v202q0 19 8.5 27t32.5 8h434q41 0 41 -35v-202q0 -35 -41 -35h-434q-23 0 -32 8t-9 27z" />
    <glyph glyph-name="registered" unicode="&#xae;" horiz-adv-x="1832" 
d="M47 811q0 171 63.5 319.5t176 256t275 169.5t353.5 62t354 -62t276 -169.5t177 -256t64 -319.5q0 -172 -64 -325.5t-176.5 -265.5t-276.5 -177.5t-354 -65.5q-192 0 -354 62t-275 171.5t-176 264.5t-63 336zM324 811q0 -276 156 -442t435 -166q277 0 435.5 167t158.5 441
q0 271 -157 426.5t-437 155.5q-282 0 -436.5 -155t-154.5 -427zM600 399v791q0 29 35 29h266q185 0 279 -62.5t94 -200.5v-14q0 -103 -48.5 -169t-127.5 -91q67 -94 164 -279q6 -11 1 -17.5t-18 -6.5h-182q-35 0 -41 18q-63 158 -133 267h-47v-265q0 -20 -25 -20h-192
q-25 0 -25 20zM842 836h63q70 0 100.5 25.5t30.5 80.5v8q0 55 -31 78t-98 23h-65v-215z" />
    <glyph glyph-name="macron" unicode="&#xaf;" horiz-adv-x="868" 
d="M78 1470v166q0 29 28 29h656q29 0 29 -29v-166q0 -28 -29 -28h-656q-28 0 -28 28z" />
    <glyph glyph-name="degree" unicode="&#xb0;" horiz-adv-x="923" 
d="M47 1245q0 172 114.5 286t299.5 114t300.5 -114.5t115.5 -285.5q0 -170 -115.5 -283.5t-300.5 -113.5q-184 0 -299 113.5t-115 283.5zM293 1245q0 -78 46.5 -125t121.5 -47t121.5 47t46.5 125q0 77 -46.5 125.5t-121.5 48.5t-121.5 -48.5t-46.5 -125.5z" />
    <glyph glyph-name="plusminus" unicode="&#xb1;" 
d="M141 33v192q0 18 8 25.5t27 7.5h1032q19 0 27 -7.5t8 -25.5v-192q0 -18 -8 -25.5t-27 -7.5h-1032q-19 0 -27 7.5t-8 25.5zM141 791v192q0 18 8 25.5t27 7.5h369v321q0 18 7.5 25.5t25.5 7.5h229q18 0 25.5 -7.5t7.5 -25.5v-321h368q19 0 27 -7.5t8 -25.5v-192
q0 -18 -8 -25.5t-27 -7.5h-368v-326q0 -18 -7.5 -25.5t-25.5 -7.5h-229q-18 0 -25.5 7.5t-7.5 25.5v326h-369q-19 0 -27 7.5t-8 25.5z" />
    <glyph glyph-name="twosuperior" unicode="&#xb2;" horiz-adv-x="911" 
d="M88 979v98q0 26 23 49l131 127q22 22 58.5 56.5t56 53.5t47 46.5t42 46t29.5 40t21 40.5t6 37v8q0 88 -135 88q-109 0 -230 -31q-35 -9 -35 21v135q0 25 21 31q55 22 137 35.5t156 13.5q170 0 266 -67.5t96 -190.5v-10q0 -82 -51.5 -164t-171.5 -199l-106 -102h311
q18 0 23.5 -6.5t2.5 -22.5l-22 -141q-7 -23 -31 -23h-608q-21 0 -29 6.5t-8 24.5z" />
    <glyph glyph-name="threesuperior" unicode="&#xb3;" horiz-adv-x="911" 
d="M111 1137q-6 19 2 26.5t28 1.5q139 -41 238 -41q100 0 142 29t42 92v8q0 47 -37 66.5t-123 19.5h-100q-24 0 -33.5 6.5t-9.5 26.5v64q0 10 4.5 19t9 15t17.5 21q66 70 180 176h-311q-35 0 -35 33v125q0 33 35 33h577q33 0 33 -29v-90q0 -36 -22 -56q-133 -128 -179 -178
q124 0 196.5 -61t72.5 -178v-9q0 -156 -112.5 -240.5t-313.5 -84.5q-126 0 -228 26q-28 7 -38 17t-15 33z" />
    <glyph glyph-name="acute" unicode="&#xb4;" horiz-adv-x="868" 
d="M167.5 1378q-6.5 14 8.5 31l219 303q26 33 66 33h270q23 0 30.5 -13t-7.5 -28l-265 -303q-34 -37 -83 -37h-207q-25 0 -31.5 14z" />
    <glyph glyph-name="paragraph" unicode="&#xb6;" horiz-adv-x="1458" 
d="M57 1092q0 226 159.5 364.5t422.5 138.5h774q33 0 27 -32l-31 -158q-6 -29 -37 -29h-133v-1757q0 -27 -27 -27h-178q-30 0 -30 27v1757h-250v-1757q0 -27 -31 -27h-178q-27 0 -27 27v977q-203 17 -332 156.5t-129 339.5z" />
    <glyph glyph-name="periodcentered" unicode="&#xb7;" horiz-adv-x="567" 
d="M205 694v207q0 41 47 41h199q49 0 49 -41v-207q0 -41 -49 -41h-199q-47 0 -47 41z" />
    <glyph glyph-name="cedilla" unicode="&#xb8;" horiz-adv-x="868" 
d="M193 -418q-2 14 6.5 19.5t21.5 -0.5q72 -29 152 -29q60 0 83 17.5t23 50.5q0 29 -21 41t-65 12h-127q-39 0 -33 35l43 252q3 16 21 16h131q21 0 16 -16l-18 -132h31q115 0 175 -46t60 -148q0 -114 -72 -177t-212 -63q-84 0 -156 21q-38 9 -41 35z" />
    <glyph glyph-name="onesuperior" unicode="&#xb9;" horiz-adv-x="911" 
d="M88 1657q-8 29 23 41q140 63 254 135q40 25 94 25h155q17 0 27 -9t10 -24v-850q0 -15 -5 -21t-23 -6h-213q-31 0 -31 27v624q-68 -44 -178 -96q-36 -16 -49 13z" />
    <glyph glyph-name="ordmasculine" unicode="&#xba;" horiz-adv-x="794" 
d="M57 1327v123q0 159 84 238t256 79q340 0 340 -317v-123q0 -155 -84 -230t-256 -75q-173 0 -256.5 75t-83.5 230zM295 1354q0 -91 21 -124.5t81 -33.5q61 0 82 33.5t21 124.5v82q0 88 -21.5 122.5t-81.5 34.5t-81 -34t-21 -123v-82z" />
    <glyph glyph-name="guillemotright" unicode="&#xbb;" horiz-adv-x="1536" 
d="M63.5 376.5q0.5 8.5 12.5 18.5l323 281l-317 280q-18 18 -2 39l143 129q22 22 41 6l465 -387q27 -24 27 -43v-53q0 -23 -23 -43l-467 -377q-19 -16 -41 6l-151 123q-11 12 -10.5 20.5zM792.5 376.5q0.5 8.5 12.5 18.5l323 281l-317 280q-18 18 -2 39l143 129q22 22 41 6
l465 -387q27 -24 27 -43v-53q0 -23 -23 -43l-467 -377q-19 -16 -41 6l-151 123q-11 12 -10.5 20.5z" />
    <glyph glyph-name="onequarter" unicode="&#xbc;" horiz-adv-x="2050" 
d="M43 1391q-8 29 23 41q136 61 253 135q39 24 95 24h155q37 0 37 -32v-850q0 -15 -5 -21t-23 -6h-213q-31 0 -31 27v624q-68 -44 -178 -96q-37 -17 -50 12zM479 37l670 1530q8 19 17 24.5t32 5.5h205q23 0 30 -8t1 -28l-666 -1530q-8 -19 -17 -25t-32 -6h-209
q-23 0 -30 8.5t-1 28.5zM1257 180q-6 19 2.5 27t28.5 2q139 -41 238 -41q100 0 142 29t42 92v8q0 47 -37 66.5t-123 19.5h-100q-24 0 -33.5 6.5t-9.5 26.5v63q0 20 31 56q66 70 180 176h-311q-35 0 -35 32v125q0 33 35 33h577q33 0 33 -29v-90q0 -35 -23 -55
q-124 -119 -178 -178q124 0 196.5 -61.5t72.5 -178.5v-8q0 -156 -112.5 -241t-313.5 -85q-122 0 -228 27q-28 7 -38 17t-15 32z" />
    <glyph glyph-name="onehalf" unicode="&#xbd;" horiz-adv-x="2050" 
d="M43 1391q-8 29 23 41q136 61 253 135q39 24 95 24h155q37 0 37 -32v-850q0 -15 -5 -21t-23 -6h-213q-31 0 -31 27v624q-68 -44 -178 -96q-37 -17 -50 12zM479 37l670 1530q8 19 17 24.5t32 5.5h205q23 0 30 -8t1 -28l-666 -1530q-8 -19 -17 -25t-32 -6h-209
q-23 0 -30 8.5t-1 28.5zM1221 31v98q0 27 22 49l131 127q22 22 58.5 56.5t56 53.5t47 46.5t42 46t29.5 40t21 40.5t6 37v8q0 88 -135 88q-108 0 -229 -31q-35 -9 -35 21v135q0 25 20 31q55 22 137 35.5t156 13.5q170 0 266.5 -67.5t96.5 -190.5v-11q0 -81 -51.5 -163
t-171.5 -199l-107 -102h311q18 0 24 -7t3 -22l-23 -141q-7 -23 -30 -23h-609q-21 0 -28.5 6.5t-7.5 24.5z" />
    <glyph glyph-name="threequarters" unicode="&#xbe;" horiz-adv-x="2050" 
d="M66 870q-6 19 2 27t28 2q139 -41 238 -41q100 0 142 29t42 92v8q0 47 -37 66.5t-123 19.5h-100q-24 0 -33.5 6.5t-9.5 26.5v63q0 20 31 56q66 70 180 176h-311q-35 0 -35 33v125q0 32 35 32h577q33 0 33 -28v-90q0 -36 -23 -56q-124 -119 -178 -178q124 0 196.5 -61.5
t72.5 -178.5v-8q0 -156 -112.5 -240.5t-313.5 -84.5q-126 0 -228 26q-28 7 -38 17t-15 32zM537 37l669 1530q8 19 17 24.5t32 5.5h205q23 0 30 -8t1 -28l-666 -1530q-8 -19 -17 -25t-32 -6h-209q-23 0 -29.5 8.5t-0.5 28.5zM1149 252q-8 35 0 67l270 582q8 27 37 27h207
q15 0 20.5 -8t-0.5 -21l-245 -539h200v218q0 21 19 24l227 23q27 3 27 -19v-246h88q19 0 16 -20l-18 -139q-3 -21 -29 -21h-57v-160q0 -12 -6 -16t-21 -4h-225q-21 0 -21 20v160h-430q-39 0 -47 27z" />
    <glyph glyph-name="questiondown" unicode="&#xbf;" horiz-adv-x="1083" 
d="M72 -4v16q0 219 243 408l60 47q129 100 129 240v49q0 18 8 25t29 7h200q35 0 35 -32v-94q0 -189 -162 -324l-65 -51q-81 -66 -115.5 -123.5t-34.5 -126.5v-10q0 -142 236 -142q189 0 344 58q14 5 27.5 -1.5t13.5 -25.5v-180q0 -22 -7.5 -33t-27.5 -18q-73 -27 -183 -45.5
t-218 -18.5q-114 0 -206 22t-161 66.5t-107 117.5t-38 169zM498 993v215q0 20 9.5 28.5t31.5 8.5h202q43 0 43 -37v-215q0 -37 -43 -37h-202q-22 0 -31.5 8.5t-9.5 28.5z" />
    <glyph glyph-name="Agrave" unicode="&#xc0;" horiz-adv-x="1361" 
d="M43 39q271 1044 416 1497q17 59 88 59h266q42 0 61.5 -13.5t28.5 -45.5q169 -535 418 -1499q4 -20 -4 -28.5t-31 -8.5h-239q-51 0 -58 35q-7 33 -28.5 129t-32.5 149h-486q-15 -62 -61 -282q-7 -31 -49 -31h-254q-44 0 -35 39zM264.5 2101q7.5 13 30.5 13h270
q40 0 66 -33l219 -303q14 -19 7.5 -32t-30.5 -13h-206q-51 0 -84 36l-265 304q-15 15 -7.5 28zM496 565h374q-46 243 -182 770h-14q-140 -561 -178 -770z" />
    <glyph glyph-name="Aacute" unicode="&#xc1;" horiz-adv-x="1361" 
d="M43 39q271 1044 416 1497q17 59 88 59h266q42 0 61.5 -13.5t28.5 -45.5q169 -535 418 -1499q4 -20 -4 -28.5t-31 -8.5h-239q-51 0 -58 35q-7 33 -28.5 129t-32.5 149h-486q-15 -62 -61 -282q-7 -31 -49 -31h-254q-44 0 -35 39zM486 1746q-6 13 8 32l219 303q26 33 65 33
h271q23 0 30 -13t-8 -28l-264 -304q-33 -36 -84 -36h-207q-24 0 -30 13zM496 565h374q-46 243 -182 770h-14q-140 -561 -178 -770z" />
    <glyph glyph-name="Acircumflex" unicode="&#xc2;" horiz-adv-x="1361" 
d="M43 39q271 1044 416 1497q17 59 88 59h266q42 0 61.5 -13.5t28.5 -45.5q169 -535 418 -1499q4 -20 -4 -28.5t-31 -8.5h-239q-51 0 -58 35q-7 33 -28.5 129t-32.5 149h-486q-15 -62 -61 -282q-7 -31 -49 -31h-254q-44 0 -35 39zM287.5 1818.5q-0.5 12.5 9.5 24.5l240 262
q13 13 30 13h236q17 0 33 -13l231 -262q10 -12 9.5 -24.5t-11.5 -18.5l-141 -76q-19 -9 -30 -7.5t-26 14.5l-180 176h-12l-180 -172q-15 -13 -26.5 -14t-29.5 8l-141 71q-11 6 -11.5 18.5zM496 565h374q-46 243 -182 770h-14q-140 -561 -178 -770z" />
    <glyph glyph-name="Atilde" unicode="&#xc3;" horiz-adv-x="1361" 
d="M43 39q271 1044 416 1497q17 59 88 59h266q42 0 61.5 -13.5t28.5 -45.5q169 -535 418 -1499q4 -20 -4 -28.5t-31 -8.5h-239q-51 0 -58 35q-7 33 -28.5 129t-32.5 149h-486q-15 -62 -61 -282q-7 -31 -49 -31h-254q-44 0 -35 39zM238 1884q40 95 116.5 156t171.5 61
q89 0 158 -41l41 -24q72 -45 111 -45q56 0 108 86q14 28 43 12l127 -80q13 -8 15.5 -14.5t-3.5 -22.5q-38 -94 -113 -153.5t-165 -59.5q-88 0 -166 45l-33 19q-28 17 -42 24.5t-32 14t-34 6.5q-69 0 -115 -80q-14 -28 -43 -12l-133 71q-24 15 -12 37zM496 565h374
q-46 243 -182 770h-14q-140 -561 -178 -770z" />
    <glyph glyph-name="Adieresis" unicode="&#xc4;" horiz-adv-x="1363" 
d="M43 39q271 1044 416 1497q17 59 88 59h266q42 0 61.5 -13.5t28.5 -45.5q169 -535 418 -1499q4 -20 -4 -28.5t-31 -8.5h-239q-51 0 -58 35q-7 33 -28.5 129t-32.5 149h-486q-15 -62 -61 -282q-7 -31 -49 -31h-254q-44 0 -35 39zM291 1810v226q0 45 53 45h199q29 0 43 -10
t14 -35v-226q0 -45 -57 -45h-199q-53 0 -53 45zM496 565h374q-46 243 -182 770h-14q-140 -561 -178 -770zM760 1810v226q0 45 55 45h197q29 0 43 -10t14 -35v-226q0 -45 -57 -45h-197q-55 0 -55 45z" />
    <glyph glyph-name="Aring" unicode="&#xc5;" horiz-adv-x="1363" 
d="M43 39q271 1044 416 1497q17 59 88 59h266q42 0 61.5 -13.5t28.5 -45.5q169 -535 418 -1499q4 -20 -4 -28.5t-31 -8.5h-239q-51 0 -58 35q-7 33 -28.5 129t-32.5 149h-486q-15 -62 -61 -282q-7 -31 -49 -31h-254q-44 0 -35 39zM428 1942q0 102 69 169.5t185 67.5
q115 0 182.5 -67t67.5 -170q0 -102 -67.5 -169t-182.5 -67q-116 0 -185 67.5t-69 168.5zM496 565h374q-46 243 -182 770h-14q-140 -561 -178 -770zM594 1942q0 -39 24 -64t64 -25t63 25t23 64q0 41 -23 65.5t-63 24.5q-41 0 -64.5 -25t-23.5 -65z" />
    <glyph glyph-name="AE" unicode="&#xc6;" horiz-adv-x="1951" 
d="M39 39q335 819 692 1507q15 29 30.5 39t43.5 10h1028q20 0 29 -8.5t8 -27.5l-17 -181q-3 -35 -38 -35h-533v-407h485q38 0 35 -35l-20 -190q-3 -33 -41 -33h-459v-426h555q20 0 27.5 -8.5t5.5 -28.5l-17 -180q-2 -19 -10 -27t-28 -8h-809q-45 0 -45 45l-5 268h-460
q-15 -36 -115 -282q-10 -31 -49 -31h-258q-25 0 -34.5 11t-0.5 28zM600 565h361v789h-23q-59 -130 -338 -789z" />
    <glyph glyph-name="Ccedilla" unicode="&#xc7;" horiz-adv-x="1224" 
d="M129 539v524q0 282 145.5 418.5t450.5 136.5q208 0 354 -47q22 -7 29.5 -19t7.5 -36v-168q0 -28 -12.5 -35t-46.5 2q-152 37 -295 37q-168 0 -239.5 -77t-71.5 -249v-463q0 -173 71.5 -247t243.5 -74q173 0 328 61q17 7 34 -3t11 -34l-33 -182q-4 -25 -14.5 -37
t-32.5 -20q-136 -47 -334 -50l-18 -129h30q115 0 175.5 -46t60.5 -148q0 -114 -72.5 -177t-212.5 -63q-84 0 -156 21q-37 9 -40 35l-19 112q-2 14 7 19.5t22 -0.5q72 -29 151 -29q60 0 83.5 17.5t23.5 50.5q0 29 -21 41t-65 12h-127q-39 0 -33 35l43 260q-187 23 -293 121
q-71 65 -103 169.5t-32 260.5z" />
    <glyph glyph-name="Egrave" unicode="&#xc8;" horiz-adv-x="1142" 
d="M141 45v1505q0 45 45 45h830q41 0 35 -36l-21 -189q-3 -35 -39 -35h-528v-401h487q38 0 35 -35l-22 -188q-3 -33 -41 -33h-459v-418h559q20 0 28 -8.5t7 -28.5l-23 -188q-2 -19 -10.5 -27t-28.5 -8h-809q-45 0 -45 45zM246 2101q7 13 30 13h271q39 0 65 -33l219 -303
q14 -19 8 -32t-30 -13h-207q-51 0 -84 36l-264 304q-15 15 -8 28z" />
    <glyph glyph-name="Eacute" unicode="&#xc9;" horiz-adv-x="1142" 
d="M141 45v1505q0 45 45 45h830q41 0 35 -36l-21 -189q-3 -35 -39 -35h-528v-401h487q38 0 35 -35l-22 -188q-3 -33 -41 -33h-459v-418h559q20 0 28 -8.5t7 -28.5l-23 -188q-2 -19 -10.5 -27t-28.5 -8h-809q-45 0 -45 45zM432.5 1746q-6.5 13 7.5 32l219 303q26 33 66 33
h270q23 0 30.5 -13t-7.5 -28l-264 -304q-33 -36 -84 -36h-207q-24 0 -30.5 13z" />
    <glyph glyph-name="Ecircumflex" unicode="&#xca;" horiz-adv-x="1142" 
d="M141 45v1505q0 45 45 45h830q41 0 35 -36l-21 -189q-3 -35 -39 -35h-528v-401h487q38 0 35 -35l-22 -188q-3 -33 -41 -33h-459v-418h559q20 0 28 -8.5t7 -28.5l-23 -188q-2 -19 -10.5 -27t-28.5 -8h-809q-45 0 -45 45zM230.5 1818.5q-0.5 12.5 9.5 24.5l239 262
q13 13 31 13h235q17 0 33 -13l232 -262q10 -12 9.5 -24.5t-11.5 -18.5l-142 -76q-19 -9 -29.5 -7.5t-25.5 14.5l-180 176h-13l-180 -172q-15 -13 -26 -14t-29 8l-141 71q-11 6 -11.5 18.5z" />
    <glyph glyph-name="Edieresis" unicode="&#xcb;" horiz-adv-x="1142" 
d="M141 45v1505q0 45 45 45h830q41 0 35 -36l-21 -189q-3 -35 -39 -35h-528v-401h487q38 0 35 -35l-22 -188q-3 -33 -41 -33h-459v-418h559q20 0 28 -8.5t7 -28.5l-23 -188q-2 -19 -10.5 -27t-28.5 -8h-809q-45 0 -45 45zM231 1810v226q0 45 54 45h198q29 0 43.5 -10
t14.5 -35v-226q0 -45 -58 -45h-198q-54 0 -54 45zM700 1810v226q0 45 56 45h196q29 0 43.5 -10t14.5 -35v-226q0 -45 -58 -45h-196q-56 0 -56 45z" />
    <glyph glyph-name="Igrave" unicode="&#xcc;" horiz-adv-x="884" 
d="M4.5 2101q7.5 13 30.5 13h270q40 0 66 -33l219 -303q14 -19 7.5 -32t-30.5 -13h-207q-51 0 -84 36l-264 304q-15 15 -7.5 28zM84 35v162q0 34 35 34h162v1133h-162q-35 0 -35 35v160q0 36 37 36h657q21 0 30 -8t5 -28l-20 -160q-3 -20 -12.5 -27.5t-30.5 -7.5h-146v-1133
h160q18 0 25.5 -7t7.5 -27v-162q0 -35 -37 -35h-641q-16 0 -25.5 9t-9.5 26z" />
    <glyph glyph-name="Iacute" unicode="&#xcd;" horiz-adv-x="884" 
d="M84 35v162q0 34 35 34h162v1133h-162q-35 0 -35 35v160q0 36 37 36h657q21 0 30 -8t5 -28l-20 -160q-3 -20 -12.5 -27.5t-30.5 -7.5h-146v-1133h160q18 0 25.5 -7t7.5 -27v-162q0 -35 -37 -35h-641q-16 0 -25.5 9t-9.5 26zM266.5 1746q-6.5 13 7.5 32l220 303
q26 33 65 33h270q23 0 30.5 -13t-7.5 -28l-264 -304q-33 -36 -84 -36h-207q-24 0 -30.5 13z" />
    <glyph glyph-name="Icircumflex" unicode="&#xce;" horiz-adv-x="884" 
d="M49.5 1818.5q-0.5 12.5 9.5 24.5l240 262q13 13 31 13h235q17 0 33 -13l231 -262q10 -12 9.5 -24.5t-11.5 -18.5l-141 -76q-19 -9 -29.5 -7.5t-25.5 14.5l-180 176h-13l-180 -172q-15 -13 -26 -14t-29 8l-142 71q-11 6 -11.5 18.5zM84 35v162q0 34 35 34h162v1133h-162
q-35 0 -35 35v160q0 36 37 36h657q21 0 30 -8t5 -28l-20 -160q-3 -20 -12.5 -27.5t-30.5 -7.5h-146v-1133h160q18 0 25.5 -7t7.5 -27v-162q0 -35 -37 -35h-641q-16 0 -25.5 9t-9.5 26z" />
    <glyph glyph-name="Idieresis" unicode="&#xcf;" horiz-adv-x="884" 
d="M53 1810v226q0 45 53 45h199q29 0 43 -10t14 -35v-226q0 -45 -57 -45h-199q-53 0 -53 45zM84 35v162q0 34 35 34h162v1133h-162q-35 0 -35 35v160q0 36 37 36h657q21 0 30 -8t5 -28l-20 -160q-3 -20 -12.5 -27.5t-30.5 -7.5h-146v-1133h160q18 0 25.5 -7t7.5 -27v-162
q0 -35 -37 -35h-641q-16 0 -25.5 9t-9.5 26zM522 1810v226q0 45 56 45h196q29 0 43 -10t14 -35v-226q0 -45 -57 -45h-196q-56 0 -56 45z" />
    <glyph glyph-name="Eth" unicode="&#xd0;" horiz-adv-x="1515" 
d="M49 707v190q0 19 9 27t32 8h125v618q0 45 45 45h471q176 0 299 -34.5t203 -116.5q156 -162 156 -535v-180q0 -191 -33 -324.5t-107.5 -226t-195 -135.5t-295.5 -43h-498q-45 0 -45 45v627h-125q-41 0 -41 35zM537 256h176q211 0 278 80q47 54 60.5 153.5t13.5 292.5v74
q0 153 -16.5 247t-59.5 148q-38 49 -105 68.5t-169 19.5h-178v-407h231q41 0 41 -35v-190q0 -35 -41 -35h-231v-416z" />
    <glyph glyph-name="Ntilde" unicode="&#xd1;" horiz-adv-x="1425" 
d="M141 35v1526q0 34 33 34h178q52 0 70 -43l592 -1001h10l-23 209v801q0 19 7.5 26.5t25.5 7.5h213q20 0 28.5 -7.5t8.5 -26.5v-1526q0 -35 -39 -35h-158q-60 0 -79 43l-592 1008h-10l18 -168v-848q0 -35 -35 -35h-215q-33 0 -33 35zM274 1884q40 95 117 156t172 61
q89 0 158 -41l41 -24q72 -45 110 -45q57 0 109 86q14 28 43 12l127 -80q13 -8 15.5 -14.5t-3.5 -22.5q-38 -94 -113 -153.5t-165 -59.5q-88 0 -166 45l-33 19q-28 17 -42 24.5t-32 14t-34 6.5q-69 0 -115 -80q-14 -28 -43 -12l-133 71q-25 16 -13 37z" />
    <glyph glyph-name="Ograve" unicode="&#xd2;" horiz-adv-x="1433" 
d="M129 510v575q0 260 158 396.5t430 136.5t430 -136.5t158 -396.5v-575q0 -261 -155.5 -397t-432.5 -136t-432.5 136t-155.5 397zM340.5 2101q7.5 13 30.5 13h270q40 0 66 -33l219 -303q14 -19 7.5 -32t-30.5 -13h-207q-51 0 -84 36l-264 304q-15 15 -7.5 28zM451 543
q0 -163 75 -238q61 -61 191 -61q138 0 202 75.5t64 223.5v510q0 159 -78 237q-62 62 -188 62q-140 0 -203 -73.5t-63 -225.5v-510z" />
    <glyph glyph-name="Oacute" unicode="&#xd3;" horiz-adv-x="1433" 
d="M129 510v575q0 260 158 396.5t430 136.5t430 -136.5t158 -396.5v-575q0 -261 -155.5 -397t-432.5 -136t-432.5 136t-155.5 397zM451 543q0 -163 75 -238q61 -61 191 -61q138 0 202 75.5t64 223.5v510q0 159 -78 237q-62 62 -188 62q-140 0 -203 -73.5t-63 -225.5v-510z
M545 1746q-6 13 8 32l219 303q26 33 66 33h270q23 0 30 -13t-8 -28l-264 -304q-33 -36 -84 -36h-207q-24 0 -30 13z" />
    <glyph glyph-name="Ocircumflex" unicode="&#xd4;" horiz-adv-x="1433" 
d="M129 510v575q0 260 158 396.5t430 136.5t430 -136.5t158 -396.5v-575q0 -261 -155.5 -397t-432.5 -136t-432.5 136t-155.5 397zM334.5 1818.5q-0.5 12.5 9.5 24.5l240 262q13 13 30 13h236q17 0 33 -13l231 -262q10 -12 9.5 -24.5t-11.5 -18.5l-141 -76q-19 -9 -30 -7.5
t-26 14.5l-180 176h-12l-180 -172q-15 -13 -26.5 -14t-29.5 8l-141 71q-11 6 -11.5 18.5zM451 543q0 -163 75 -238q61 -61 191 -61q138 0 202 75.5t64 223.5v510q0 159 -78 237q-62 62 -188 62q-140 0 -203 -73.5t-63 -225.5v-510z" />
    <glyph glyph-name="Otilde" unicode="&#xd5;" horiz-adv-x="1433" 
d="M129 510v575q0 260 158 396.5t430 136.5t430 -136.5t158 -396.5v-575q0 -261 -155.5 -397t-432.5 -136t-432.5 136t-155.5 397zM285 1884q40 95 116.5 156t171.5 61q89 0 158 -41l41 -24q72 -45 111 -45q56 0 108 86q14 28 43 12l127 -80q13 -8 16 -14.5t-3 -22.5
q-38 -93 -113.5 -153t-165.5 -60q-88 0 -166 45l-33 19q-28 17 -42 24.5t-32 14t-34 6.5q-69 0 -115 -80q-14 -28 -43 -12l-133 71q-24 15 -12 37zM451 543q0 -163 75 -238q61 -61 191 -61q138 0 202 75.5t64 223.5v510q0 159 -78 237q-62 62 -188 62q-140 0 -203 -73.5
t-63 -225.5v-510z" />
    <glyph glyph-name="Odieresis" unicode="&#xd6;" horiz-adv-x="1433" 
d="M129 510v575q0 260 158 396.5t430 136.5t430 -136.5t158 -396.5v-575q0 -261 -155.5 -397t-432.5 -136t-432.5 136t-155.5 397zM328 1810v226q0 45 53 45h199q29 0 43 -10t14 -35v-226q0 -45 -57 -45h-199q-53 0 -53 45zM451 543q0 -163 75 -238q61 -61 191 -61
q138 0 202 75.5t64 223.5v510q0 159 -78 237q-62 62 -188 62q-140 0 -203 -73.5t-63 -225.5v-510zM797 1810v226q0 45 55 45h197q29 0 43 -10t14 -35v-226q0 -45 -57 -45h-197q-55 0 -55 45z" />
    <glyph glyph-name="multiply" unicode="&#xd7;" 
d="M229 328q-26 22 0 45l273 252l-271 260q-23 25 0 45l154 143q26 23 47 0l264 -262l265 248q25 25 47 0l149 -144q23 -20 0 -45l-258 -249l258 -250q23 -25 0 -45l-147 -142q-19 -22 -47 0l-267 260l-270 -260q-25 -25 -47 0z" />
    <glyph glyph-name="Oslash" unicode="&#xd8;" horiz-adv-x="1435" 
d="M131 510v575q0 260 158 396.5t430 136.5q149 0 270 -45l80 162q15 29 47 16l119 -51q35 -14 18 -47l-90 -185q144 -138 144 -383v-575q0 -261 -155.5 -397t-432.5 -136q-150 0 -268 41l-72 -147q-7 -17 -18 -20.5t-31 4.5l-117 45q-34 15 -18 47l84 172
q-148 142 -148 391zM453 543q0 -44 2 -62l411 838q-56 33 -147 33q-140 0 -203 -73.5t-63 -225.5v-510zM575 272q55 -28 144 -28q138 0 202 75.5t64 223.5v510q0 8 -1 25t-1 24z" />
    <glyph glyph-name="Ugrave" unicode="&#xd9;" horiz-adv-x="1396" 
d="M135 522v1039q0 34 37 34h248q37 0 37 -34v-1010q0 -155 52 -231t189 -76q134 0 191 73q51 63 51 234v1010q0 34 39 34h246q37 0 37 -34v-1039q0 -278 -140 -411.5t-424 -133.5q-290 0 -426.5 132.5t-136.5 412.5zM305.5 2101q7.5 13 30.5 13h270q40 0 66 -33l219 -303
q14 -19 7.5 -32t-30.5 -13h-206q-51 0 -84 36l-265 304q-15 15 -7.5 28z" />
    <glyph glyph-name="Uacute" unicode="&#xda;" horiz-adv-x="1396" 
d="M135 522v1039q0 34 37 34h248q37 0 37 -34v-1010q0 -155 52 -231t189 -76q134 0 191 73q51 63 51 234v1010q0 34 39 34h246q37 0 37 -34v-1039q0 -278 -140 -411.5t-424 -133.5q-290 0 -426.5 132.5t-136.5 412.5zM522.5 1746q-6.5 13 7.5 32l220 303q26 33 65 33h270
q23 0 30.5 -13t-7.5 -28l-264 -304q-33 -36 -84 -36h-207q-24 0 -30.5 13z" />
    <glyph glyph-name="Ucircumflex" unicode="&#xdb;" horiz-adv-x="1396" 
d="M135 522v1039q0 34 37 34h248q37 0 37 -34v-1010q0 -155 52 -231t189 -76q134 0 191 73q51 63 51 234v1010q0 34 39 34h246q37 0 37 -34v-1039q0 -278 -140 -411.5t-424 -133.5q-290 0 -426.5 132.5t-136.5 412.5zM305.5 1818.5q-0.5 12.5 9.5 24.5l240 262q13 13 31 13
h235q17 0 33 -13l231 -262q10 -12 9.5 -24.5t-11.5 -18.5l-141 -76q-19 -9 -29.5 -7.5t-25.5 14.5l-180 176h-13l-180 -172q-15 -13 -26 -14t-29 8l-142 71q-11 6 -11.5 18.5z" />
    <glyph glyph-name="Udieresis" unicode="&#xdc;" horiz-adv-x="1396" 
d="M135 522v1039q0 34 37 34h248q37 0 37 -34v-1010q0 -155 52 -231t189 -76q134 0 191 73q51 63 51 234v1010q0 34 39 34h246q37 0 37 -34v-1039q0 -278 -140 -411.5t-424 -133.5q-290 0 -426.5 132.5t-136.5 412.5zM307 1810v226q0 45 53 45h199q29 0 43 -10t14 -35v-226
q0 -45 -57 -45h-199q-53 0 -53 45zM776 1810v226q0 45 55 45h197q29 0 43 -10t14 -35v-226q0 -45 -57 -45h-197q-55 0 -55 45z" />
    <glyph glyph-name="Yacute" unicode="&#xdd;" horiz-adv-x="1255" 
d="M35 1559q-5 15 2 25.5t24 10.5h238q23 0 34 -7.5t17 -26.5q118 -367 266 -736h15q156 399 262 734q6 21 18.5 28.5t38.5 7.5h240q42 0 29 -36q-178 -501 -437 -1006v-516q0 -18 -10.5 -27.5t-26.5 -9.5h-249q-35 0 -35 37v516q-262 520 -426 1006zM451 1746q-6 13 8 32
l219 303q26 33 65 33h271q23 0 30 -13t-8 -28l-264 -304q-33 -36 -84 -36h-207q-24 0 -30 13z" />
    <glyph glyph-name="Thorn" unicode="&#xde;" horiz-adv-x="1261" 
d="M141 41v1509q0 27 14 36t50 9h192q37 0 51.5 -9t14.5 -36v-217h153q290 0 414 -98q73 -57 110.5 -147.5t37.5 -237.5v-35q0 -261 -137.5 -384.5t-424.5 -123.5h-153v-266q0 -41 -43 -41h-234q-45 0 -45 41zM463 563h102q97 0 147 11.5t83 43.5q57 54 57 213v17
q0 135 -62.5 182t-211.5 47h-115v-514z" />
    <glyph glyph-name="germandbls" unicode="&#xdf;" horiz-adv-x="1337" 
d="M129 35v1167q0 229 142 351t397 122q211 0 348 -96q71 -52 111 -133t40 -166v-20q0 -115 -52.5 -210.5t-153.5 -146.5v-6q149 -26 236 -127t87 -268v-33q0 -256 -114 -374t-336 -118q-61 0 -134 13q-25 4 -35.5 15t-13.5 32l-30 164q-3 20 4.5 27.5t25.5 4.5
q58 -14 129 -14q104 0 147.5 64t43.5 202v17q0 246 -275 246h-30q-20 0 -27.5 7t-7.5 25v133q0 18 8 27.5t29 17.5q92 33 143 105t51 162v12q0 94 -51.5 145.5t-151.5 51.5q-107 0 -166 -62t-59 -180v-1157q0 -35 -39 -35h-229q-37 0 -37 35z" />
    <glyph glyph-name="agrave" unicode="&#xe0;" horiz-adv-x="1198" 
d="M82 350v19q0 100 29.5 170t89.5 110.5t141 58t193 17.5q113 0 235 -8v86q0 84 -41 125q-32 30 -78 42.5t-123 12.5q-131 0 -303 -41q-49 -13 -49 27v159q0 21 6.5 31.5t24.5 16.5q66 23 173.5 38t217.5 15q238 0 357.5 -95t119.5 -315v-522q0 -95 15 -260q3 -37 -33 -37
h-185q-38 0 -47 27q-7 17 -18 69q-39 -47 -127 -83t-184 -36q-195 0 -304.5 94.5t-109.5 278.5zM236 1732q7 13 30 13h271q39 0 65 -33l219 -303q15 -17 8.5 -31t-30.5 -14h-207q-50 0 -84 37l-264 303q-15 15 -8 28zM389 350q0 -139 166 -139q60 0 118 24t97 60v203
q-71 6 -192 6q-97 0 -143 -29.5t-46 -109.5v-15z" />
    <glyph glyph-name="aacute" unicode="&#xe1;" horiz-adv-x="1198" 
d="M82 350v19q0 100 29.5 170t89.5 110.5t141 58t193 17.5q113 0 235 -8v86q0 84 -41 125q-32 30 -78 42.5t-123 12.5q-131 0 -303 -41q-49 -13 -49 27v159q0 21 6.5 31.5t24.5 16.5q66 23 173.5 38t217.5 15q238 0 357.5 -95t119.5 -315v-522q0 -95 15 -260q3 -37 -33 -37
h-185q-38 0 -47 27q-7 17 -18 69q-39 -47 -127 -83t-184 -36q-195 0 -304.5 94.5t-109.5 278.5zM389 350q0 -139 166 -139q60 0 118 24t97 60v203q-71 6 -192 6q-97 0 -143 -29.5t-46 -109.5v-15zM429.5 1378q-6.5 14 8.5 31l219 303q26 33 66 33h270q23 0 30.5 -13
t-7.5 -28l-264 -303q-34 -37 -84 -37h-207q-25 0 -31.5 14z" />
    <glyph glyph-name="acircumflex" unicode="&#xe2;" horiz-adv-x="1198" 
d="M82 350v19q0 100 29.5 170t89.5 110.5t141 58t193 17.5q113 0 235 -8v86q0 84 -41 125q-32 30 -78 42.5t-123 12.5q-131 0 -303 -41q-49 -13 -49 27v159q0 21 6.5 31.5t24.5 16.5q66 23 173.5 38t217.5 15q238 0 357.5 -95t119.5 -315v-522q0 -95 15 -260q3 -37 -33 -37
h-185q-38 0 -47 27q-7 17 -18 69q-39 -47 -127 -83t-184 -36q-195 0 -304.5 94.5t-109.5 278.5zM219.5 1441.5q-0.5 12.5 9.5 24.5l240 263q12 12 31 12h235q18 0 33 -12l231 -263q10 -12 9.5 -24.5t-11.5 -18.5l-141 -75q-18 -9 -29 -8t-26 14l-180 176h-13l-180 -172
q-15 -13 -26 -14t-29 8l-142 71q-11 6 -11.5 18.5zM389 350q0 -139 166 -139q60 0 118 24t97 60v203q-71 6 -192 6q-97 0 -143 -29.5t-46 -109.5v-15z" />
    <glyph glyph-name="atilde" unicode="&#xe3;" horiz-adv-x="1198" 
d="M82 350v19q0 100 29.5 170t89.5 110.5t141 58t193 17.5q113 0 235 -8v86q0 84 -41 125q-32 30 -78 42.5t-123 12.5q-131 0 -303 -41q-49 -13 -49 27v159q0 21 6.5 31.5t24.5 16.5q66 23 173.5 38t217.5 15q238 0 357.5 -95t119.5 -315v-522q0 -95 15 -260q3 -37 -33 -37
h-185q-38 0 -47 27q-7 17 -18 69q-39 -47 -127 -83t-184 -36q-195 0 -304.5 94.5t-109.5 278.5zM176 1501q38 98 115.5 158.5t173.5 60.5q82 0 156 -45l41 -24q56 -35 102 -35q55 0 108 88q14 28 43 12l127 -80q13 -8 16 -14.5t-3 -22.5q-38 -95 -112 -156t-163 -61
q-90 0 -159 41l-41 25q-62 39 -101 39q-67 0 -114 -82q-14 -28 -43 -12l-134 71q-22 14 -12 37zM389 350q0 -139 166 -139q60 0 118 24t97 60v203q-71 6 -192 6q-97 0 -143 -29.5t-46 -109.5v-15z" />
    <glyph glyph-name="adieresis" unicode="&#xe4;" horiz-adv-x="1198" 
d="M82 350v19q0 100 29.5 170t89.5 110.5t141 58t193 17.5q113 0 235 -8v86q0 84 -41 125q-32 30 -78 42.5t-123 12.5q-131 0 -303 -41q-49 -13 -49 27v159q0 21 6.5 31.5t24.5 16.5q66 23 173.5 38t217.5 15q238 0 357.5 -95t119.5 -315v-522q0 -95 15 -260q3 -37 -33 -37
h-185q-38 0 -47 27q-7 17 -18 69q-39 -47 -127 -83t-184 -36q-195 0 -304.5 94.5t-109.5 278.5zM229 1452v225q0 45 54 45h198q29 0 43.5 -10t14.5 -35v-225q0 -45 -58 -45h-198q-54 0 -54 45zM389 350q0 -139 166 -139q60 0 118 24t97 60v203q-71 6 -192 6
q-97 0 -143 -29.5t-46 -109.5v-15zM698 1452v225q0 45 56 45h196q29 0 43.5 -10t14.5 -35v-225q0 -45 -58 -45h-196q-56 0 -56 45z" />
    <glyph glyph-name="aring" unicode="&#xe5;" horiz-adv-x="1198" 
d="M82 350v19q0 100 29.5 170t89.5 110.5t141 58t193 17.5q113 0 235 -8v86q0 84 -41 125q-32 30 -78 42.5t-123 12.5q-131 0 -303 -41q-49 -13 -49 27v159q0 21 6.5 31.5t24.5 16.5q66 23 173.5 38t217.5 15q238 0 357.5 -95t119.5 -315v-522q0 -95 15 -260q3 -37 -33 -37
h-185q-38 0 -47 27q-7 17 -18 69q-39 -47 -127 -83t-184 -36q-195 0 -304.5 94.5t-109.5 278.5zM354 1573q0 102 69 169.5t185 67.5q115 0 182.5 -67t67.5 -170q0 -102 -67.5 -169t-182.5 -67q-116 0 -185 67.5t-69 168.5zM389 350q0 -139 166 -139q60 0 118 24t97 60v203
q-71 6 -192 6q-97 0 -143 -29.5t-46 -109.5v-15zM520 1573q0 -39 23.5 -63.5t64.5 -24.5q40 0 63 24.5t23 63.5q0 41 -23 65.5t-63 24.5q-41 0 -64.5 -25t-23.5 -65z" />
    <glyph glyph-name="ae" unicode="&#xe6;" horiz-adv-x="1890" 
d="M88 352v19q0 196 114.5 275t344.5 79q107 0 229 -8v86q0 104 -58 142t-183 38q-159 0 -302 -41q-24 -6 -38.5 0.5t-14.5 26.5v159q0 21 6 31t25 17q65 24 172.5 38.5t220.5 14.5t204.5 -29t139.5 -86q128 115 350 115q232 0 358 -125t126 -356v-199q0 -36 -14.5 -51
t-51.5 -15h-635v-59q6 -205 285 -205q183 0 305 37q31 10 44 0.5t7 -39.5l-24 -143q-4 -27 -16 -39.5t-37 -20.5q-141 -37 -285 -37q-313 0 -459 140q-93 -73 -184 -106.5t-197 -33.5q-208 0 -320 92.5t-112 282.5zM395 356q0 -75 41.5 -110t130.5 -35q66 0 130.5 22
t103.5 56q-25 80 -25 176v33q-71 6 -186 6q-100 0 -147.5 -28.5t-47.5 -108.5v-11zM1081 705h396v69q0 232 -187 232q-99 0 -153.5 -56.5t-55.5 -165.5v-79z" />
    <glyph glyph-name="ccedilla" unicode="&#xe7;" horiz-adv-x="1071" 
d="M113 436v334q0 224 139.5 341.5t392.5 117.5q143 0 279 -35q37 -9 37 -49v-150q0 -43 -62 -30q-104 22 -223 22q-258 0 -258 -248v-282q0 -120 62 -179t194 -59q127 0 256 37q25 8 38 -2.5t9 -34.5l-27 -151q-8 -41 -43 -52q-103 -36 -243 -39l-21 -129h33
q233 0 233 -194q0 -114 -71.5 -177t-210.5 -63q-86 0 -158 21q-38 10 -41 35l-16 112q-2 14 6 19.5t20 -0.5q72 -29 154 -29q60 0 82 17.5t22 50.5q0 30 -20.5 41.5t-65.5 11.5h-127q-36 0 -30 35l43 262q-383 58 -383 446z" />
    <glyph glyph-name="egrave" unicode="&#xe8;" horiz-adv-x="1230" 
d="M113 465v274q0 235 142 362.5t376 127.5q236 0 363.5 -123t127.5 -358v-207q0 -58 -61 -58h-643v-47q0 -217 287 -217q187 0 309 37q31 9 43.5 -1t5.5 -40l-25 -141q-4 -27 -16 -39.5t-37 -20.5q-141 -37 -287 -37q-585 0 -585 488zM254.5 1732q7.5 13 30.5 13h270
q40 0 66 -33l219 -303q15 -17 8.5 -31t-31.5 -14h-207q-50 0 -84 37l-264 303q-15 15 -7.5 28zM418 705h399v69q0 232 -188 232q-101 0 -156 -58.5t-55 -173.5v-69z" />
    <glyph glyph-name="eacute" unicode="&#xe9;" horiz-adv-x="1230" 
d="M113 465v274q0 235 142 362.5t376 127.5q236 0 363.5 -123t127.5 -358v-207q0 -58 -61 -58h-643v-47q0 -217 287 -217q187 0 309 37q31 9 43.5 -1t5.5 -40l-25 -141q-4 -27 -16 -39.5t-37 -20.5q-141 -37 -287 -37q-585 0 -585 488zM418 705h399v69q0 232 -188 232
q-101 0 -156 -58.5t-55 -173.5v-69zM460.5 1378q-6.5 14 8.5 31l219 303q26 33 66 33h270q23 0 30.5 -13t-7.5 -28l-265 -303q-34 -37 -84 -37h-206q-25 0 -31.5 14z" />
    <glyph glyph-name="ecircumflex" unicode="&#xea;" horiz-adv-x="1230" 
d="M113 465v274q0 235 142 362.5t376 127.5q236 0 363.5 -123t127.5 -358v-207q0 -58 -61 -58h-643v-47q0 -217 287 -217q187 0 309 37q31 9 43.5 -1t5.5 -40l-25 -141q-4 -27 -16 -39.5t-37 -20.5q-141 -37 -287 -37q-585 0 -585 488zM240.5 1441.5q-0.5 12.5 9.5 24.5
l239 263q12 12 31 12h236q17 0 32 -12l232 -263q10 -12 9.5 -24.5t-11.5 -18.5l-141 -75q-18 -9 -29.5 -8t-26.5 14l-180 176h-12l-180 -172q-15 -13 -26.5 -14t-29.5 8l-141 71q-11 6 -11.5 18.5zM418 705h399v69q0 232 -188 232q-101 0 -156 -58.5t-55 -173.5v-69z" />
    <glyph glyph-name="edieresis" unicode="&#xeb;" horiz-adv-x="1230" 
d="M113 465v274q0 235 142 362.5t376 127.5q236 0 363.5 -123t127.5 -358v-207q0 -58 -61 -58h-643v-47q0 -217 287 -217q187 0 309 37q31 9 43.5 -1t5.5 -40l-25 -141q-4 -27 -16 -39.5t-37 -20.5q-141 -37 -287 -37q-585 0 -585 488zM248 1452v225q0 45 53 45h199
q29 0 43 -10t14 -35v-225q0 -45 -57 -45h-199q-53 0 -53 45zM418 705h399v69q0 232 -188 232q-101 0 -156 -58.5t-55 -173.5v-69zM717 1452v225q0 45 55 45h197q29 0 43 -10t14 -35v-225q0 -45 -57 -45h-197q-55 0 -55 45z" />
    <glyph glyph-name="igrave" unicode="&#xec;" horiz-adv-x="585" 
d="M-143 1732q7 13 30 13h271q39 0 65 -33l219 -303q15 -17 8.5 -31t-30.5 -14h-207q-50 0 -84 37l-264 303q-15 15 -8 28zM139 31v1145q0 30 35 30h238q34 0 34 -30v-1145q0 -31 -34 -31h-238q-35 0 -35 31z" />
    <glyph glyph-name="iacute" unicode="&#xed;" horiz-adv-x="585" 
d="M122.5 1378q-6.5 14 8.5 31l219 303q26 33 66 33h270q23 0 30.5 -13t-7.5 -28l-265 -303q-34 -37 -84 -37h-206q-25 0 -31.5 14zM139 31v1145q0 30 35 30h238q34 0 34 -30v-1145q0 -31 -34 -31h-238q-35 0 -35 31z" />
    <glyph glyph-name="icircumflex" unicode="&#xee;" horiz-adv-x="585" 
d="M-101.5 1441.5q-0.5 12.5 9.5 24.5l239 263q12 12 31 12h236q17 0 32 -12l232 -263q10 -12 9.5 -24.5t-11.5 -18.5l-141 -75q-18 -9 -29.5 -8t-26.5 14l-180 176h-12l-181 -172q-15 -13 -26 -14t-29 8l-141 71q-11 6 -11.5 18.5zM139 31v1145q0 30 35 30h238q34 0 34 -30
v-1145q0 -31 -34 -31h-238q-35 0 -35 31z" />
    <glyph glyph-name="idieresis" unicode="&#xef;" horiz-adv-x="585" 
d="M-96 1452v225q0 45 53 45h199q29 0 43 -10t14 -35v-225q0 -45 -57 -45h-199q-53 0 -53 45zM139 31v1145q0 30 35 30h238q34 0 34 -30v-1145q0 -31 -34 -31h-238q-35 0 -35 31zM373 1452v225q0 45 55 45h197q29 0 43 -10t14 -35v-225q0 -45 -57 -45h-197q-55 0 -55 45z
" />
    <glyph glyph-name="eth" unicode="&#xf0;" horiz-adv-x="1251" 
d="M111 498v133q0 239 109 365t329 126q65 0 128 -17.5t103 -43.5q-57 162 -180 258l-166 -92q-26 -16 -45 12l-67 111q-15 28 12 43l104 61l-76 57q-15 10 -13.5 27t20.5 29l112 78q31 20 76 -3q35 -18 94 -59l187 107q27 17 47 -9l63 -112q16 -28 -10 -43l-117 -68
q155 -132 241.5 -340.5t86.5 -472.5v-51q0 -320 -117 -468.5t-395 -148.5q-140 0 -231.5 29t-159.5 90q-71 67 -103 160t-32 242zM416 502q0 -148 52 -215.5t173 -67.5q51 0 88 15t59 40t35 67t17 86.5t4 107.5v77q0 97 -8 211q-83 58 -215 58q-103 0 -154 -63t-51 -200
v-116z" />
    <glyph glyph-name="ntilde" unicode="&#xf1;" horiz-adv-x="1288" 
d="M129 41v1133q0 32 35 32h188q22 0 32.5 -6.5t14.5 -23.5l17 -70q72 55 167.5 89t192.5 34q82 0 155.5 -24t121.5 -70q59 -56 85.5 -136t26.5 -204v-754q0 -28 -9 -34.5t-44 -6.5h-201q-32 0 -41.5 7t-9.5 34v690q0 74 -7.5 119t-30 77.5t-62.5 46t-105 13.5
q-46 0 -110 -16.5t-111 -38.5v-891q0 -21 -10 -31t-35 -10h-209q-51 0 -51 41zM223 1501q38 98 115.5 158.5t173.5 60.5q82 0 156 -45l41 -24q56 -35 102 -35q56 0 109 88q14 28 43 12l127 -80q13 -8 15.5 -14.5t-3.5 -22.5q-38 -95 -112 -156t-163 -61q-90 0 -159 41
l-41 25q-62 39 -101 39q-67 0 -114 -82q-14 -28 -43 -12l-133 71q-23 14 -13 37z" />
    <glyph glyph-name="ograve" unicode="&#xf2;" horiz-adv-x="1273" 
d="M113 438v332q0 459 524 459t524 -459v-332q0 -234 -134 -347.5t-390 -113.5t-390 113.5t-134 347.5zM252.5 1732q7.5 13 30.5 13h270q39 0 65 -33l220 -303q15 -17 8.5 -31t-31.5 -14h-207q-50 0 -84 37l-264 303q-15 15 -7.5 28zM418 475q0 -124 49.5 -190t169.5 -66
t169.5 66t49.5 190v256q0 139 -47.5 197.5t-171.5 58.5t-171.5 -58.5t-47.5 -197.5v-256z" />
    <glyph glyph-name="oacute" unicode="&#xf3;" horiz-adv-x="1273" 
d="M113 438v332q0 459 524 459t524 -459v-332q0 -234 -134 -347.5t-390 -113.5t-390 113.5t-134 347.5zM418 475q0 -124 49.5 -190t169.5 -66t169.5 66t49.5 190v256q0 139 -47.5 197.5t-171.5 58.5t-171.5 -58.5t-47.5 -197.5v-256zM460.5 1378q-6.5 14 8.5 31l219 303
q26 33 66 33h270q23 0 30.5 -13t-7.5 -28l-265 -303q-34 -37 -84 -37h-206q-25 0 -31.5 14z" />
    <glyph glyph-name="ocircumflex" unicode="&#xf4;" horiz-adv-x="1273" 
d="M113 438v332q0 459 524 459t524 -459v-332q0 -234 -134 -347.5t-390 -113.5t-390 113.5t-134 347.5zM248.5 1441.5q-0.5 12.5 9.5 24.5l240 263q12 12 30 12h236q18 0 33 -12l231 -263q10 -12 9.5 -24.5t-11.5 -18.5l-141 -75q-18 -9 -29.5 -8t-26.5 14l-180 176h-12
l-180 -172q-15 -13 -26.5 -14t-29.5 8l-141 71q-11 6 -11.5 18.5zM418 475q0 -124 49.5 -190t169.5 -66t169.5 66t49.5 190v256q0 139 -47.5 197.5t-171.5 58.5t-171.5 -58.5t-47.5 -197.5v-256z" />
    <glyph glyph-name="otilde" unicode="&#xf5;" horiz-adv-x="1273" 
d="M113 438v332q0 459 524 459t524 -459v-332q0 -234 -134 -347.5t-390 -113.5t-390 113.5t-134 347.5zM199 1501q38 98 115 158.5t173 60.5q82 0 156 -45l41 -24q56 -35 102 -35q56 0 109 88q14 28 43 12l127 -80q13 -8 15.5 -14.5t-3.5 -22.5q-38 -95 -111.5 -156
t-162.5 -61q-91 0 -160 41l-41 25q-62 39 -100 39q-68 0 -115 -82q-14 -28 -43 -12l-133 71q-22 14 -12 37zM418 475q0 -124 49.5 -190t169.5 -66t169.5 66t49.5 190v256q0 139 -47.5 197.5t-171.5 58.5t-171.5 -58.5t-47.5 -197.5v-256z" />
    <glyph glyph-name="odieresis" unicode="&#xf6;" horiz-adv-x="1273" 
d="M113 438v332q0 459 524 459t524 -459v-332q0 -234 -134 -347.5t-390 -113.5t-390 113.5t-134 347.5zM248 1452v225q0 45 53 45h199q29 0 43 -10t14 -35v-225q0 -45 -57 -45h-199q-53 0 -53 45zM418 475q0 -124 49.5 -190t169.5 -66t169.5 66t49.5 190v256
q0 139 -47.5 197.5t-171.5 58.5t-171.5 -58.5t-47.5 -197.5v-256zM717 1452v225q0 45 55 45h197q29 0 43 -10t14 -35v-225q0 -45 -57 -45h-197q-55 0 -55 45z" />
    <glyph glyph-name="divide" unicode="&#xf7;" 
d="M141 530v193q0 18 8 25.5t27 7.5h1032q19 0 27 -7.5t8 -25.5v-193q0 -18 -8 -25t-27 -7h-1032q-19 0 -27 7t-8 25zM557 104v207q0 41 47 41h182q50 0 50 -41v-207q0 -23 -12.5 -32t-37.5 -9h-182q-47 0 -47 41zM557 942v207q0 41 47 41h182q50 0 50 -41v-207
q0 -23 -12.5 -32t-37.5 -9h-182q-47 0 -47 41z" />
    <glyph glyph-name="oslash" unicode="&#xf8;" horiz-adv-x="1273" 
d="M78 -14l115 164q-80 113 -80 288v332q0 459 524 459q163 0 281 -47l86 123q19 33 55 16l108 -66q34 -16 17 -49l-105 -145q82 -107 82 -291v-332q0 -234 -134 -347.5t-390 -113.5q-167 0 -293 52l-96 -138q-19 -32 -55 -10l-101 56q-32 19 -14 49zM418 469l346 494
q-49 24 -127 24q-124 0 -171.5 -58.5t-47.5 -197.5v-262zM504 252q54 -33 133 -33q120 0 169.5 66t49.5 190v273z" />
    <glyph glyph-name="ugrave" unicode="&#xf9;" horiz-adv-x="1267" 
d="M123 451v706q0 28 10.5 38.5t38.5 10.5h207q28 0 38.5 -10.5t10.5 -36.5v-692q0 -84 10 -127.5t35 -71.5q51 -55 156 -55q113 0 205 61v885q0 26 10.5 36.5t38.5 10.5h204q28 0 40 -11t12 -38v-860q0 -128 12 -260q3 -37 -33 -37h-190q-41 0 -47 27q-12 48 -15 67
q-54 -52 -135.5 -84.5t-175.5 -32.5q-215 0 -319 107q-113 113 -113 367zM254.5 1732q7.5 13 30.5 13h270q40 0 66 -33l219 -303q15 -17 8.5 -31t-31.5 -14h-207q-50 0 -84 37l-264 303q-15 15 -7.5 28z" />
    <glyph glyph-name="uacute" unicode="&#xfa;" horiz-adv-x="1267" 
d="M123 451v706q0 28 10.5 38.5t38.5 10.5h207q28 0 38.5 -10.5t10.5 -36.5v-692q0 -84 10 -127.5t35 -71.5q51 -55 156 -55q113 0 205 61v885q0 26 10.5 36.5t38.5 10.5h204q28 0 40 -11t12 -38v-860q0 -128 12 -260q3 -37 -33 -37h-190q-41 0 -47 27q-12 48 -15 67
q-54 -52 -135.5 -84.5t-175.5 -32.5q-215 0 -319 107q-113 113 -113 367zM450.5 1378q-6.5 14 8.5 31l219 303q26 33 65 33h271q23 0 30 -13t-8 -28l-264 -303q-34 -37 -84 -37h-207q-24 0 -30.5 14z" />
    <glyph glyph-name="ucircumflex" unicode="&#xfb;" horiz-adv-x="1267" 
d="M123 451v706q0 28 10.5 38.5t38.5 10.5h207q28 0 38.5 -10.5t10.5 -36.5v-692q0 -84 10 -127.5t35 -71.5q51 -55 156 -55q113 0 205 61v885q0 26 10.5 36.5t38.5 10.5h204q28 0 40 -11t12 -38v-860q0 -128 12 -260q3 -37 -33 -37h-190q-41 0 -47 27q-12 48 -15 67
q-54 -52 -135.5 -84.5t-175.5 -32.5q-215 0 -319 107q-113 113 -113 367zM236.5 1441.5q-0.5 12.5 9.5 24.5l239 263q12 12 31 12h236q17 0 32 -12l232 -263q10 -12 9.5 -24.5t-11.5 -18.5l-142 -75q-18 -9 -29 -8t-26 14l-180 176h-12l-181 -172q-15 -13 -26 -14t-29 8
l-141 71q-11 6 -11.5 18.5z" />
    <glyph glyph-name="udieresis" unicode="&#xfc;" horiz-adv-x="1267" 
d="M123 451v706q0 28 10.5 38.5t38.5 10.5h207q28 0 38.5 -10.5t10.5 -36.5v-692q0 -84 10 -127.5t35 -71.5q51 -55 156 -55q113 0 205 61v885q0 26 10.5 36.5t38.5 10.5h204q28 0 40 -11t12 -38v-860q0 -128 12 -260q3 -37 -33 -37h-190q-41 0 -47 27q-12 48 -15 67
q-54 -52 -135.5 -84.5t-175.5 -32.5q-215 0 -319 107q-113 113 -113 367zM244 1452v225q0 45 53 45h199q29 0 43 -10t14 -35v-225q0 -45 -57 -45h-199q-53 0 -53 45zM713 1452v225q0 45 55 45h197q29 0 43 -10t14 -35v-225q0 -45 -57 -45h-197q-55 0 -55 45z" />
    <glyph glyph-name="yacute" unicode="&#xfd;" horiz-adv-x="1163" 
d="M39 1167q-9 39 39 39h217q43 0 51 -35q101 -454 238 -944h14q129 486 215 936q4 26 18.5 34.5t49.5 8.5h202q51 0 39 -43q-182 -723 -334 -1177q-76 -228 -178 -324t-274 -96q-84 0 -146 16q-39 9 -45 37l-36 162q-5 20 2.5 29.5t27.5 5.5q73 -15 146 -15q188 0 237 164
l10 37h-73q-42 0 -63.5 14.5t-35.5 59.5q-188 574 -321 1091zM399.5 1378q-6.5 14 8.5 31l219 303q26 33 65 33h271q23 0 30 -13t-8 -28l-264 -303q-34 -37 -84 -37h-207q-24 0 -30.5 14z" />
    <glyph glyph-name="thorn" unicode="&#xfe;" horiz-adv-x="1292" 
d="M129 -375v1954q0 40 33 45l229 27q43 6 43 -31v-496q68 46 156.5 75.5t177.5 29.5q185 0 297 -109q58 -58 86.5 -139t28.5 -205v-346q0 -232 -115 -344q-112 -109 -328 -109q-161 0 -305 74v-401q0 -21 -8.5 -27.5t-36.5 -11.5l-217 -25q-22 -3 -31.5 6.5t-9.5 32.5z
M434 268q39 -21 103 -35t125 -14q113 0 161 51q28 31 39.5 76.5t11.5 130.5v252q0 138 -42 198t-154 60q-134 0 -244 -61v-658z" />
    <glyph glyph-name="ydieresis" unicode="&#xff;" horiz-adv-x="1163" 
d="M39 1167q-9 39 39 39h217q43 0 51 -35q101 -454 238 -944h14q129 486 215 936q4 26 18.5 34.5t49.5 8.5h202q51 0 39 -43q-182 -723 -334 -1177q-76 -228 -178 -324t-274 -96q-84 0 -146 16q-39 9 -45 37l-36 162q-5 20 2.5 29.5t27.5 5.5q73 -15 146 -15q188 0 237 164
l10 37h-73q-42 0 -63.5 14.5t-35.5 59.5q-188 574 -321 1091zM207 1452v225q0 45 53 45h199q29 0 43 -10t14 -35v-225q0 -45 -57 -45h-199q-53 0 -53 45zM676 1452v225q0 45 55 45h197q29 0 43 -10t14 -35v-225q0 -45 -57 -45h-197q-55 0 -55 45z" />
    <glyph glyph-name="Amacron" unicode="&#x100;" horiz-adv-x="1363" 
d="M43 39q271 1044 416 1497q17 59 88 59h266q42 0 61.5 -13.5t28.5 -45.5q169 -535 418 -1499q4 -20 -4 -28.5t-31 -8.5h-239q-51 0 -58 35q-7 33 -28.5 129t-32.5 149h-486q-15 -62 -61 -282q-7 -31 -49 -31h-254q-44 0 -35 39zM326 1839v166q0 29 28 29h656q28 0 28 -29
v-166q0 -29 -28 -29h-656q-28 0 -28 29zM496 565h374q-46 243 -182 770h-14q-140 -561 -178 -770z" />
    <glyph glyph-name="amacron" unicode="&#x101;" horiz-adv-x="1198" 
d="M82 350v19q0 100 29.5 170t89.5 110.5t141 58t193 17.5q113 0 235 -8v86q0 84 -41 125q-32 30 -78 42.5t-123 12.5q-131 0 -303 -41q-49 -13 -49 27v159q0 21 6.5 31.5t24.5 16.5q66 23 173.5 38t217.5 15q238 0 357.5 -95t119.5 -315v-522q0 -95 15 -260q3 -37 -33 -37
h-185q-38 0 -47 27q-7 17 -18 69q-39 -47 -127 -83t-184 -36q-195 0 -304.5 94.5t-109.5 278.5zM283 1470v166q0 29 28 29h656q28 0 28 -29v-166q0 -28 -28 -28h-656q-28 0 -28 28zM389 350q0 -139 166 -139q60 0 118 24t97 60v203q-71 6 -192 6q-97 0 -143 -29.5
t-46 -109.5v-15z" />
    <glyph glyph-name="Abreve" unicode="&#x102;" horiz-adv-x="1363" 
d="M43 39q271 1044 416 1497q17 59 88 59h266q42 0 61.5 -13.5t28.5 -45.5q169 -535 418 -1499q4 -20 -4 -28.5t-31 -8.5h-239q-51 0 -58 35q-7 33 -28.5 129t-32.5 149h-486q-15 -62 -61 -282q-7 -31 -49 -31h-254q-44 0 -35 39zM342 2060q0 23 23 23h165q18 0 21 -17
q9 -48 42.5 -77t86.5 -29q54 0 88 29t43 77q3 17 18 17h170q23 0 23 -23q0 -129 -90.5 -210t-251.5 -81q-158 0 -248 81t-90 210zM496 565h374q-46 243 -182 770h-14q-140 -561 -178 -770z" />
    <glyph glyph-name="abreve" unicode="&#x103;" horiz-adv-x="1198" 
d="M82 350v19q0 100 29.5 170t89.5 110.5t141 58t193 17.5q113 0 235 -8v86q0 84 -41 125q-32 30 -78 42.5t-123 12.5q-131 0 -303 -41q-49 -13 -49 27v159q0 21 6.5 31.5t24.5 16.5q66 23 173.5 38t217.5 15q238 0 357.5 -95t119.5 -315v-522q0 -95 15 -260q3 -37 -33 -37
h-185q-38 0 -47 27q-7 17 -18 69q-39 -47 -127 -83t-184 -36q-195 0 -304.5 94.5t-109.5 278.5zM289 1692q0 12 4.5 17t17.5 5h166q18 0 21 -16q9 -48 42.5 -77.5t86.5 -29.5q54 0 88 29.5t43 77.5q3 16 18 16h170q13 0 18 -5t5 -17q0 -129 -90.5 -210t-251.5 -81
q-158 0 -248 81t-90 210zM389 350q0 -139 166 -139q60 0 118 24t97 60v203q-71 6 -192 6q-97 0 -143 -29.5t-46 -109.5v-15z" />
    <glyph glyph-name="Aogonek" unicode="&#x104;" horiz-adv-x="1363" 
d="M43 39q271 1044 416 1497q17 59 88 59h266q42 0 61.5 -13.5t28.5 -45.5q173 -550 416 -1491q6 -21 -1 -31.5t-24 -17.5q-219 -86 -219 -242q0 -62 37.5 -96.5t97.5 -34.5q28 0 68 8q13 3 18.5 -3t3.5 -17l-18 -123q-3 -24 -29 -33q-58 -14 -120 -14q-145 0 -219 66
t-74 190q0 166 155 309l-67 307h-486q-15 -62 -61 -282q-7 -31 -49 -31h-254q-44 0 -35 39zM496 565h374q-46 243 -182 770h-14q-140 -561 -178 -770z" />
    <glyph glyph-name="aogonek" unicode="&#x105;" horiz-adv-x="1198" 
d="M82 350v19q0 100 29.5 170t89.5 110.5t141 58t193 17.5q113 0 235 -8v86q0 84 -41 125q-32 30 -78 42.5t-123 12.5q-131 0 -303 -41q-49 -13 -49 27v159q0 21 6.5 31.5t24.5 16.5q66 23 173.5 38t217.5 15q238 0 357.5 -95t119.5 -315v-522q0 -95 15 -260q1 -17 -4 -25
t-21 -14q-95 -44 -150 -108t-55 -138q0 -129 131 -129q42 0 70 8q12 3 18.5 -2.5t5.5 -17.5l-18 -123q-3 -24 -29 -33q-47 -14 -118 -14q-138 0 -216.5 67t-78.5 187q0 199 202 330l-20 71q-48 -48 -132.5 -83.5t-178.5 -35.5q-195 0 -304.5 94.5t-109.5 278.5zM389 350
q0 -139 166 -139q60 0 118 24t97 60v203q-71 6 -192 6q-97 0 -143 -29.5t-46 -109.5v-15z" />
    <glyph glyph-name="Cacute" unicode="&#x106;" horiz-adv-x="1224" 
d="M129 539v524q0 282 145.5 418.5t450.5 136.5q208 0 354 -47q22 -7 29.5 -19t7.5 -36v-168q0 -28 -12.5 -35t-46.5 2q-152 37 -289 37q-169 0 -243 -77t-74 -249v-463q0 -174 69 -246q75 -75 252 -75q167 0 322 61q17 7 34 -3t11 -34l-33 -182q-4 -25 -14.5 -37t-32.5 -20
q-139 -50 -342 -50q-309 0 -453 132q-71 65 -103 169.5t-32 260.5zM522.5 1746q-6.5 13 7.5 32l220 303q26 33 65 33h270q23 0 30.5 -13t-7.5 -28l-264 -304q-33 -36 -84 -36h-207q-24 0 -30.5 13z" />
    <glyph glyph-name="cacute" unicode="&#x107;" horiz-adv-x="1071" 
d="M113 436v334q0 224 139.5 341.5t392.5 117.5q143 0 279 -35q37 -9 37 -49v-150q0 -43 -62 -30q-104 22 -223 22q-258 0 -258 -248v-282q0 -120 62 -179t194 -59q127 0 256 37q25 8 38 -2.5t9 -34.5l-27 -151q-8 -41 -43 -52q-106 -39 -264 -39q-269 0 -399.5 114.5
t-130.5 344.5zM462.5 1378q-6.5 14 8.5 31l219 303q26 33 66 33h270q23 0 30.5 -13t-7.5 -28l-265 -303q-34 -37 -84 -37h-206q-25 0 -31.5 14z" />
    <glyph glyph-name="Ccircumflex" unicode="&#x108;" horiz-adv-x="1224" 
d="M129 539v524q0 282 145.5 418.5t450.5 136.5q208 0 354 -47q22 -7 29.5 -19t7.5 -36v-168q0 -28 -12.5 -35t-46.5 2q-152 37 -289 37q-169 0 -243 -77t-74 -249v-463q0 -174 69 -246q75 -75 252 -75q167 0 322 61q17 7 34 -3t11 -34l-33 -182q-4 -25 -14.5 -37t-32.5 -20
q-139 -50 -342 -50q-309 0 -453 132q-71 65 -103 169.5t-32 260.5zM312.5 1818.5q-0.5 12.5 9.5 24.5l239 262q13 13 31 13h235q17 0 33 -13l232 -262q10 -12 9.5 -24.5t-11.5 -18.5l-142 -76q-19 -9 -29.5 -7.5t-25.5 14.5l-180 176h-13l-180 -172q-15 -13 -26 -14t-29 8
l-141 71q-11 6 -11.5 18.5z" />
    <glyph glyph-name="ccircumflex" unicode="&#x109;" horiz-adv-x="1071" 
d="M113 436v334q0 224 139.5 341.5t392.5 117.5q143 0 279 -35q37 -9 37 -49v-150q0 -43 -62 -30q-104 22 -223 22q-258 0 -258 -248v-282q0 -120 62 -179t194 -59q127 0 256 37q25 8 38 -2.5t9 -34.5l-27 -151q-8 -41 -43 -52q-106 -39 -264 -39q-269 0 -399.5 114.5
t-130.5 344.5zM217.5 1441.5q-0.5 12.5 9.5 24.5l240 263q12 12 31 12h235q18 0 33 -12l231 -263q10 -12 9.5 -24.5t-11.5 -18.5l-141 -75q-18 -9 -29 -8t-26 14l-181 176h-12l-180 -172q-15 -13 -26 -14t-29 8l-142 71q-11 6 -11.5 18.5z" />
    <glyph glyph-name="Cdotaccent" unicode="&#x10a;" horiz-adv-x="1224" 
d="M129 539v524q0 282 145.5 418.5t450.5 136.5q208 0 354 -47q22 -7 29.5 -19t7.5 -36v-168q0 -28 -12.5 -35t-46.5 2q-152 37 -289 37q-169 0 -243 -77t-74 -249v-463q0 -174 69 -246q75 -75 252 -75q167 0 322 61q17 7 34 -3t11 -34l-33 -182q-4 -25 -14.5 -37t-32.5 -20
q-139 -50 -342 -50q-309 0 -453 132q-71 65 -103 169.5t-32 260.5zM580 1825v227q0 45 55 45h199q57 0 57 -45v-227q0 -45 -57 -45h-199q-55 0 -55 45z" />
    <glyph glyph-name="cdotaccent" unicode="&#x10b;" horiz-adv-x="1071" 
d="M113 436v334q0 224 139.5 341.5t392.5 117.5q143 0 279 -35q37 -9 37 -49v-150q0 -43 -62 -30q-104 22 -223 22q-258 0 -258 -248v-282q0 -120 62 -179t194 -59q127 0 256 37q25 8 38 -2.5t9 -34.5l-27 -151q-8 -41 -43 -52q-106 -39 -264 -39q-269 0 -399.5 114.5
t-130.5 344.5zM475 1456v227q0 46 55 46h199q57 0 57 -46v-227q0 -45 -57 -45h-199q-55 0 -55 45z" />
    <glyph glyph-name="Ccaron" unicode="&#x10c;" horiz-adv-x="1224" 
d="M129 539v524q0 282 145.5 418.5t450.5 136.5q208 0 354 -47q22 -7 29.5 -19t7.5 -36v-168q0 -28 -12.5 -35t-46.5 2q-152 37 -289 37q-169 0 -243 -77t-74 -249v-463q0 -174 69 -246q75 -75 252 -75q167 0 322 61q17 7 34 -3t11 -34l-33 -182q-4 -25 -14.5 -37t-32.5 -20
q-139 -50 -342 -50q-309 0 -453 132q-71 65 -103 169.5t-32 260.5zM324.5 2027.5q0.5 12.5 11.5 18.5l141 72q19 9 29.5 7.5t25.5 -14.5l181 -172h12l180 177q15 13 26.5 14t29.5 -8l141 -76q11 -6 11.5 -18.5t-9.5 -24.5l-232 -262q-15 -12 -32 -12h-236q-19 0 -31 12
l-239 262q-10 12 -9.5 24.5z" />
    <glyph glyph-name="ccaron" unicode="&#x10d;" horiz-adv-x="1071" 
d="M113 436v334q0 224 139.5 341.5t392.5 117.5q143 0 279 -35q37 -9 37 -49v-150q0 -43 -62 -30q-104 22 -223 22q-258 0 -258 -248v-282q0 -120 62 -179t194 -59q127 0 256 37q25 8 38 -2.5t9 -34.5l-27 -151q-8 -41 -43 -52q-106 -39 -264 -39q-269 0 -399.5 114.5
t-130.5 344.5zM240.5 1658.5q0.5 12.5 11.5 18.5l141 72q18 9 29.5 8t26.5 -14l180 -172h12l180 176q15 13 26.5 14t29.5 -8l141 -76q11 -6 11.5 -18.5t-9.5 -24.5l-232 -262q-15 -12 -32 -12h-236q-19 0 -31 12l-239 262q-10 12 -9.5 24.5z" />
    <glyph glyph-name="Dcaron" unicode="&#x10e;" horiz-adv-x="1441" 
d="M141 45v1505q0 45 45 45h471q176 0 299 -34.5t203 -116.5q156 -162 156 -535v-180q0 -191 -33 -325t-107 -226t-195 -135t-296 -43h-498q-45 0 -45 45zM258.5 2027.5q0.5 12.5 11.5 18.5l142 72q19 9 29.5 7.5t25.5 -14.5l180 -172h12l181 177q15 13 26 14t29 -8l141 -76
q11 -6 11.5 -18.5t-9.5 -24.5l-231 -262q-15 -12 -33 -12h-235q-19 0 -31 12l-240 262q-10 12 -9.5 24.5zM463 256h176q212 0 279 80q47 54 60 152.5t13 293.5v74q0 153 -16.5 247t-59.5 148q-38 49 -105 68.5t-169 19.5h-178v-1083z" />
    <glyph glyph-name="dcaron" unicode="&#x10f;" horiz-adv-x="1468" 
d="M111 432v344q0 124 28.5 204.5t87.5 139.5q54 53 142 81t186 28q84 0 166 -24t143 -64v438q0 40 33 45l229 27q43 6 43 -31v-1329q0 -106 17 -252q4 -23 -5.5 -31t-39.5 -8h-160q-55 0 -63 35l-19 69q-130 -127 -352 -127q-94 0 -180 29t-140 82q-116 113 -116 344z
M418 479q0 -87 11 -131.5t40 -75.5q53 -53 168 -53q148 0 227 57v660q-97 51 -229 51q-127 0 -172 -57t-45 -201v-250zM1270 1251l125 365q14 37 57 37h174q21 0 27 -12t-2 -29l-168 -367q-13 -31 -58 -31h-131q-37 0 -24 37z" />
    <glyph glyph-name="Dcroat" unicode="&#x110;" horiz-adv-x="1515" 
d="M49 707v190q0 19 9 27t32 8h125v618q0 45 45 45h471q176 0 299 -34.5t203 -116.5q156 -162 156 -535v-180q0 -191 -33 -324.5t-107.5 -226t-195 -135.5t-295.5 -43h-498q-45 0 -45 45v627h-125q-41 0 -41 35zM537 256h176q211 0 278 80q47 54 60.5 153.5t13.5 292.5v74
q0 153 -16.5 247t-59.5 148q-38 49 -105 68.5t-169 19.5h-178v-407h231q41 0 41 -35v-190q0 -35 -41 -35h-231v-416z" />
    <glyph glyph-name="dcroat" unicode="&#x111;" horiz-adv-x="1298" 
d="M111 432v344q0 124 28.5 204.5t87.5 139.5q54 53 142 81t186 28q84 0 166 -24t143 -64v147h-182q-29 0 -29 27v160q0 26 29 26h182v78q0 40 33 45l229 27q43 6 43 -31v-119h131q29 0 29 -26v-160q0 -27 -29 -27h-131v-997q0 -106 17 -252q4 -23 -5.5 -31t-39.5 -8h-160
q-55 0 -63 35l-19 69q-130 -127 -352 -127q-94 0 -180 29t-140 82q-116 113 -116 344zM418 479q0 -87 11 -131.5t40 -75.5q53 -53 168 -53q148 0 227 57v660q-97 51 -229 51q-127 0 -172 -57t-45 -201v-250z" />
    <glyph glyph-name="Emacron" unicode="&#x112;" horiz-adv-x="1142" 
d="M141 45v1505q0 45 45 45h830q41 0 35 -36l-21 -189q-3 -35 -39 -35h-528v-401h487q38 0 35 -35l-22 -188q-3 -33 -41 -33h-459v-418h559q20 0 28 -8.5t7 -28.5l-23 -188q-2 -19 -10.5 -27t-28.5 -8h-809q-45 0 -45 45zM244 1839v166q0 29 28 29h656q28 0 28 -29v-166
q0 -29 -28 -29h-656q-28 0 -28 29z" />
    <glyph glyph-name="emacron" unicode="&#x113;" horiz-adv-x="1230" 
d="M113 465v274q0 235 142 362.5t376 127.5q236 0 363.5 -123t127.5 -358v-207q0 -58 -61 -58h-643v-47q0 -217 287 -217q187 0 309 37q31 9 43.5 -1t5.5 -40l-25 -141q-4 -27 -16 -39.5t-37 -20.5q-141 -37 -287 -37q-585 0 -585 488zM283 1470v166q0 29 28 29h656
q28 0 28 -29v-166q0 -28 -28 -28h-656q-28 0 -28 28zM418 705h399v69q0 232 -188 232q-101 0 -156 -58.5t-55 -173.5v-69z" />
    <glyph glyph-name="Ebreve" unicode="&#x114;" horiz-adv-x="1142" 
d="M141 45v1505q0 45 45 45h830q41 0 35 -36l-21 -189q-3 -35 -39 -35h-528v-401h487q38 0 35 -35l-22 -188q-3 -33 -41 -33h-459v-418h559q20 0 28 -8.5t7 -28.5l-23 -188q-2 -19 -10.5 -27t-28.5 -8h-809q-45 0 -45 45zM252 2060q0 13 4.5 18t17.5 5h166q18 0 21 -17
q9 -48 42.5 -77t86.5 -29q54 0 88 29t43 77q3 17 18 17h170q23 0 23 -23q0 -129 -90.5 -210t-251.5 -81q-158 0 -248 81t-90 210z" />
    <glyph glyph-name="ebreve" unicode="&#x115;" horiz-adv-x="1230" 
d="M113 465v274q0 235 142 362.5t376 127.5q236 0 363.5 -123t127.5 -358v-207q0 -58 -61 -58h-643v-47q0 -217 287 -217q187 0 309 37q31 9 43.5 -1t5.5 -40l-25 -141q-4 -27 -16 -39.5t-37 -20.5q-141 -37 -287 -37q-585 0 -585 488zM299 1692q0 12 5 17t18 5h165
q18 0 21 -16q9 -48 42.5 -77.5t86.5 -29.5q54 0 88 29.5t43 77.5q3 16 18 16h170q13 0 18 -5t5 -17q0 -129 -90.5 -210t-251.5 -81q-158 0 -248 81t-90 210zM418 705h399v69q0 232 -188 232q-101 0 -156 -58.5t-55 -173.5v-69z" />
    <glyph glyph-name="Edotaccent" unicode="&#x116;" horiz-adv-x="1142" 
d="M141 45v1505q0 45 45 45h830q41 0 35 -36l-21 -189q-3 -35 -39 -35h-528v-401h487q38 0 35 -35l-22 -188q-3 -33 -41 -33h-459v-418h559q20 0 28 -8.5t7 -28.5l-23 -188q-2 -19 -10.5 -27t-28.5 -8h-809q-45 0 -45 45zM459 1825v227q0 45 55 45h199q57 0 57 -45v-227
q0 -45 -57 -45h-199q-55 0 -55 45z" />
    <glyph glyph-name="edotaccent" unicode="&#x117;" horiz-adv-x="1230" 
d="M113 465v274q0 235 142 362.5t376 127.5q236 0 363.5 -123t127.5 -358v-207q0 -58 -61 -58h-643v-47q0 -217 287 -217q187 0 309 37q31 9 43.5 -1t5.5 -40l-25 -141q-4 -27 -16 -39.5t-37 -20.5q-141 -37 -287 -37q-585 0 -585 488zM418 705h399v69q0 232 -188 232
q-101 0 -156 -58.5t-55 -173.5v-69zM477 1456v227q0 46 55 46h199q57 0 57 -46v-227q0 -45 -57 -45h-199q-55 0 -55 45z" />
    <glyph glyph-name="Eogonek" unicode="&#x118;" horiz-adv-x="1142" 
d="M141 45v1505q0 45 45 45h830q41 0 35 -36l-21 -189q-3 -35 -39 -35h-528v-401h487q38 0 35 -35l-22 -188q-3 -33 -41 -33h-459v-418h559q20 0 28 -8.5t7 -28.5l-23 -188q-3 -28 -30 -39q-216 -85 -216 -242q0 -61 38 -96t98 -35q27 0 67 8q13 3 19 -3t4 -17l-19 -123
q-3 -25 -28 -33q-58 -14 -121 -14q-144 0 -218.5 64.5t-74.5 183.5q0 170 152 311h-519q-45 0 -45 45z" />
    <glyph glyph-name="eogonek" unicode="&#x119;" horiz-adv-x="1230" 
d="M113 465v274q0 235 142 362.5t376 127.5q236 0 363.5 -123t127.5 -358v-207q0 -58 -61 -58h-643v-47q0 -217 287 -217q187 0 309 37q28 9 41.5 1t9.5 -34l-25 -137q-4 -24 -16.5 -38.5t-40.5 -29.5q-78 -43 -132 -112.5t-54 -153.5q0 -61 33.5 -95t97.5 -34q41 0 69 8
q12 3 19 -2.5t6 -17.5l-18 -123q-3 -24 -29 -33q-47 -14 -119 -14q-138 0 -216.5 67t-78.5 187q0 167 139 282q-587 0 -587 488zM418 705h399v69q0 232 -188 232q-101 0 -156 -58.5t-55 -173.5v-69z" />
    <glyph glyph-name="Ecaron" unicode="&#x11a;" horiz-adv-x="1142" 
d="M141 45v1505q0 45 45 45h830q41 0 35 -36l-21 -189q-3 -35 -39 -35h-528v-401h487q38 0 35 -35l-22 -188q-3 -33 -41 -33h-459v-418h559q20 0 28 -8.5t7 -28.5l-23 -188q-2 -19 -10.5 -27t-28.5 -8h-809q-45 0 -45 45zM201.5 2027.5q0.5 12.5 11.5 18.5l141 72
q19 9 30 7.5t26 -14.5l180 -172h12l180 177q15 13 26.5 14t29.5 -8l141 -76q11 -6 11.5 -18.5t-9.5 -24.5l-231 -262q-15 -12 -33 -12h-236q-18 0 -30 12l-240 262q-10 12 -9.5 24.5z" />
    <glyph glyph-name="ecaron" unicode="&#x11b;" horiz-adv-x="1230" 
d="M113 465v274q0 235 142 362.5t376 127.5q236 0 363.5 -123t127.5 -358v-207q0 -58 -61 -58h-643v-47q0 -217 287 -217q187 0 309 37q31 9 43.5 -1t5.5 -40l-25 -141q-4 -27 -16 -39.5t-37 -20.5q-141 -37 -287 -37q-585 0 -585 488zM246.5 1658.5q0.5 12.5 11.5 18.5
l141 72q18 9 29.5 8t26.5 -14l180 -172h12l180 176q15 13 26.5 14t29.5 -8l141 -76q11 -6 11.5 -18.5t-9.5 -24.5l-231 -262q-15 -12 -33 -12h-236q-18 0 -30 12l-240 262q-10 12 -9.5 24.5zM418 705h399v69q0 232 -188 232q-101 0 -156 -58.5t-55 -173.5v-69z" />
    <glyph glyph-name="Gcircumflex" unicode="&#x11c;" horiz-adv-x="1380" 
d="M129 514v547q0 291 158.5 424t478.5 133q222 0 385 -45q23 -6 31 -17.5t8 -37.5v-181q0 -39 -49 -26q-137 41 -350 41q-80 0 -139 -14.5t-106.5 -49.5t-72 -98.5t-24.5 -155.5v-481q0 -92 14.5 -147t48.5 -93q59 -69 223 -69q129 0 223 24v365h-172q-46 0 -49 41l-14 172
q-2 23 6.5 33t30.5 10h459q38 0 38 -37v-692q0 -42 -12.5 -66t-42.5 -37q-83 -36 -213 -58t-260 -22q-311 0 -455.5 129.5t-144.5 407.5zM353 1818.5q-1 12.5 9 24.5l240 262q13 13 31 13h235q17 0 33 -13l232 -262q10 -12 9 -24.5t-12 -18.5l-141 -76q-19 -9 -29.5 -7.5
t-25.5 14.5l-180 176h-13l-180 -172q-15 -13 -26 -14t-29 8l-141 71q-11 6 -12 18.5z" />
    <glyph glyph-name="gcircumflex" unicode="&#x11d;" horiz-adv-x="1292" 
d="M113 430v344q0 123 28.5 203.5t85.5 140.5q54 54 137 82.5t175 28.5q211 0 346 -117l20 72q5 22 31 22h203q13 0 18.5 -5t5.5 -19v-1104q0 -242 -135.5 -377t-404.5 -135q-156 0 -281 33q-23 6 -34 16t-15 31l-35 164q-3 19 6.5 29t24.5 5q142 -43 305 -43
q132 0 199 60.5t67 171.5v59q-47 -51 -139 -83t-189 -32q-194 0 -305 111q-57 58 -85.5 139t-28.5 203zM250.5 1441.5q-0.5 12.5 9.5 24.5l240 263q12 12 30 12h236q18 0 33 -12l231 -263q10 -12 9.5 -24.5t-11.5 -18.5l-141 -75q-18 -9 -29.5 -8t-26.5 14l-180 176h-12
l-180 -172q-15 -13 -26.5 -14t-29.5 8l-141 71q-11 6 -11.5 18.5zM418 479q0 -87 11.5 -132.5t41.5 -76.5q51 -51 154 -51q58 0 126 21.5t107 56.5v625q-46 29 -108.5 47t-120.5 18q-106 0 -158 -49q-31 -30 -42 -76t-11 -135v-248z" />
    <glyph glyph-name="Gbreve" unicode="&#x11e;" horiz-adv-x="1380" 
d="M129 514v547q0 291 158.5 424t478.5 133q222 0 385 -45q23 -6 31 -17.5t8 -37.5v-181q0 -39 -49 -26q-137 41 -350 41q-80 0 -139 -14.5t-106.5 -49.5t-72 -98.5t-24.5 -155.5v-481q0 -92 14.5 -147t48.5 -93q59 -69 223 -69q129 0 223 24v365h-172q-46 0 -49 41l-14 172
q-2 23 6.5 33t30.5 10h459q38 0 38 -37v-692q0 -42 -12.5 -66t-42.5 -37q-83 -36 -213 -58t-260 -22q-311 0 -455.5 129.5t-144.5 407.5zM428 2060q0 23 23 23h165q18 0 21 -17q9 -48 42.5 -77t86.5 -29q54 0 88 29t43 77q3 17 18 17h170q23 0 23 -23q0 -129 -90.5 -210
t-251.5 -81q-158 0 -248 81t-90 210z" />
    <glyph glyph-name="gbreve" unicode="&#x11f;" horiz-adv-x="1292" 
d="M113 430v344q0 123 28.5 203.5t85.5 140.5q54 54 137 82.5t175 28.5q211 0 346 -117l20 72q5 22 31 22h203q13 0 18.5 -5t5.5 -19v-1104q0 -242 -135.5 -377t-404.5 -135q-156 0 -281 33q-23 6 -34 16t-15 31l-35 164q-3 19 6.5 29t24.5 5q142 -43 305 -43
q132 0 199 60.5t67 171.5v59q-47 -51 -139 -83t-189 -32q-194 0 -305 111q-57 58 -85.5 139t-28.5 203zM305 1692q0 12 5 17t18 5h166q10 0 14 -3.5t6 -12.5q9 -48 42.5 -77.5t86.5 -29.5q54 0 88 29.5t43 77.5q3 16 19 16h170q13 0 17.5 -5t4.5 -17q0 -129 -90.5 -210
t-251.5 -81q-158 0 -248 81t-90 210zM418 479q0 -87 11.5 -132.5t41.5 -76.5q51 -51 154 -51q58 0 126 21.5t107 56.5v625q-46 29 -108.5 47t-120.5 18q-106 0 -158 -49q-31 -30 -42 -76t-11 -135v-248z" />
    <glyph glyph-name="Gdotaccent" unicode="&#x120;" horiz-adv-x="1380" 
d="M129 514v547q0 291 158.5 424t478.5 133q222 0 385 -45q23 -6 31 -17.5t8 -37.5v-181q0 -39 -49 -26q-137 41 -350 41q-80 0 -139 -14.5t-106.5 -49.5t-72 -98.5t-24.5 -155.5v-481q0 -92 14.5 -147t48.5 -93q59 -69 223 -69q129 0 223 24v365h-172q-46 0 -49 41l-14 172
q-2 23 6.5 33t30.5 10h459q38 0 38 -37v-692q0 -42 -12.5 -66t-42.5 -37q-83 -36 -213 -58t-260 -22q-311 0 -455.5 129.5t-144.5 407.5zM608 1825v227q0 45 56 45h198q58 0 58 -45v-227q0 -45 -58 -45h-198q-56 0 -56 45z" />
    <glyph glyph-name="gdotaccent" unicode="&#x121;" horiz-adv-x="1292" 
d="M113 430v344q0 123 28.5 203.5t85.5 140.5q54 54 137 82.5t175 28.5q211 0 346 -117l20 72q5 22 31 22h203q13 0 18.5 -5t5.5 -19v-1104q0 -242 -135.5 -377t-404.5 -135q-156 0 -281 33q-23 6 -34 16t-15 31l-35 164q-3 19 6.5 29t24.5 5q142 -43 305 -43
q132 0 199 60.5t67 171.5v59q-47 -51 -139 -83t-189 -32q-194 0 -305 111q-57 58 -85.5 139t-28.5 203zM418 479q0 -87 11.5 -132.5t41.5 -76.5q51 -51 154 -51q58 0 126 21.5t107 56.5v625q-46 29 -108.5 47t-120.5 18q-106 0 -158 -49q-31 -30 -42 -76t-11 -135v-248z
M489 1456v227q0 46 56 46h198q58 0 58 -46v-227q0 -45 -58 -45h-198q-56 0 -56 45z" />
    <glyph glyph-name="Gcommaaccent" unicode="&#x122;" horiz-adv-x="1380" 
d="M129 514v547q0 291 158.5 424t478.5 133q222 0 385 -45q23 -6 31 -17.5t8 -37.5v-181q0 -39 -49 -26q-137 41 -350 41q-80 0 -139 -14.5t-106.5 -49.5t-72 -98.5t-24.5 -155.5v-481q0 -92 14.5 -147t48.5 -93q59 -69 223 -69q129 0 223 24v365h-172q-46 0 -49 41l-14 172
q-2 23 6.5 33t30.5 10h459q38 0 38 -37v-692q0 -42 -12.5 -66t-42.5 -37q-83 -36 -213 -58t-260 -22q-311 0 -455.5 129.5t-144.5 407.5zM584 -596q32 122 32 270v115q0 47 50 47h155q26 0 37.5 -11t11.5 -36v-80q0 -169 -69 -307q-17 -39 -60 -39h-125q-43 0 -32 41z" />
    <glyph glyph-name="gcommaaccent" unicode="&#x123;" horiz-adv-x="1292" 
d="M113 430v344q0 123 28.5 203.5t85.5 140.5q54 54 137 82.5t175 28.5q211 0 346 -117l20 72q5 22 31 22h203q13 0 18.5 -5t5.5 -19v-1104q0 -242 -135.5 -377t-404.5 -135q-156 0 -281 33q-23 6 -34 16t-15 31l-35 164q-3 19 6.5 29t24.5 5q142 -43 305 -43
q132 0 199 60.5t67 171.5v59q-47 -51 -139 -83t-189 -32q-194 0 -305 111q-57 58 -85.5 139t-28.5 203zM418 479q0 -87 11.5 -132.5t41.5 -76.5q51 -51 154 -51q58 0 126 21.5t107 56.5v625q-46 29 -108.5 47t-120.5 18q-106 0 -158 -49q-31 -30 -42 -76t-11 -135v-248z
M502 1462v80q0 169 69 307q17 39 60 39h125q43 0 32 -41q-32 -122 -32 -270v-115q0 -25 -11.5 -36t-37.5 -11h-156q-26 0 -37.5 11t-11.5 36z" />
    <glyph glyph-name="Hcircumflex" unicode="&#x124;" horiz-adv-x="1411" 
d="M141 35v1521q0 24 7.5 31.5t29.5 7.5h248q19 0 27 -7.5t8 -26.5v-627h489v627q0 34 35 34h248q20 0 28.5 -7.5t8.5 -26.5v-1526q0 -35 -37 -35h-248q-35 0 -35 35v643h-489v-643q0 -35 -39 -35h-244q-20 0 -28.5 8t-8.5 27zM310 1818.5q-1 12.5 9 24.5l240 262
q13 13 31 13h235q17 0 33 -13l232 -262q10 -12 9 -24.5t-12 -18.5l-141 -76q-19 -9 -29.5 -7.5t-25.5 14.5l-180 176h-13l-180 -172q-15 -13 -26 -14t-29 8l-141 71q-11 6 -12 18.5z" />
    <glyph glyph-name="hcircumflex" unicode="&#x125;" horiz-adv-x="1288" 
d="M-107.5 1818.5q-0.5 12.5 9.5 24.5l239 262q13 13 31 13h236q16 0 32 -13l232 -262q10 -12 9.5 -24.5t-11.5 -18.5l-142 -76q-19 -9 -29.5 -7.5t-25.5 14.5l-180 176h-12l-181 -172q-15 -13 -26 -14t-29 8l-141 71q-11 6 -11.5 18.5zM129 41q0 -25 10 -33t41 -8h203
q29 0 40 8.5t11 32.5v895q45 22 109 36.5t112 14.5q125 0 165 -55.5t40 -200.5v-690q0 -27 9.5 -34t41.5 -7h201q35 0 44 6.5t9 34.5v754q0 124 -26.5 204t-85.5 136q-48 45 -123 69.5t-154 24.5q-88 0 -179 -29t-163 -74v494q0 37 -43 31l-229 -25q-33 -5 -33 -45v-1540z
" />
    <glyph glyph-name="Hbar" unicode="&#x126;" horiz-adv-x="1492" 
d="M57 1171v191q0 19 9 27t32 8h84v159q0 24 7.5 31.5t29.5 7.5h248q19 0 27 -7.5t8 -26.5v-164h489v164q0 34 35 34h248q20 0 28.5 -7.5t8.5 -26.5v-164h84q41 0 41 -35v-191q0 -19 -9.5 -26.5t-31.5 -7.5h-84v-1102q0 -35 -37 -35h-248q-35 0 -35 35v643h-489v-643
q0 -35 -39 -35h-244q-20 0 -28.5 8t-8.5 27v1102h-84q-22 0 -31.5 7.5t-9.5 26.5zM502 934h489v203h-489v-203z" />
    <glyph glyph-name="hbar" unicode="&#x127;" horiz-adv-x="1308" 
d="M18 1315v160q0 26 29 26h103v80q0 40 32 45l230 25q43 6 43 -31v-119h190q29 0 29 -26v-160q0 -27 -29 -27h-190v-162q72 45 163 74t179 29q79 0 153.5 -24t122.5 -70q59 -56 86 -136.5t27 -203.5v-754q0 -28 -9 -34.5t-44 -6.5h-201q-32 0 -41.5 7t-9.5 34v690
q0 74 -7.5 119t-30 77.5t-62.5 46t-105 13.5q-48 0 -112 -14.5t-109 -36.5v-895q0 -24 -11.5 -32.5t-40.5 -8.5h-202q-31 0 -41 8t-10 33v1247h-103q-29 0 -29 27z" />
    <glyph glyph-name="Itilde" unicode="&#x128;" horiz-adv-x="884" 
d="M-2 1884q40 95 117 156t172 61q88 0 157 -41l41 -24q72 -45 111 -45q57 0 109 86q14 28 43 12l126 -80q13 -8 16 -14.5t-3 -22.5q-38 -93 -113.5 -153t-165.5 -60q-88 0 -166 45l-32 19q-75 45 -109 45q-69 0 -115 -80q-14 -28 -43 -12l-133 71q-24 15 -12 37zM84 35v162
q0 34 35 34h162v1133h-162q-35 0 -35 35v160q0 36 37 36h657q21 0 30 -8t5 -28l-20 -160q-3 -20 -12.5 -27.5t-30.5 -7.5h-146v-1133h160q18 0 25.5 -7t7.5 -27v-162q0 -35 -37 -35h-641q-16 0 -25.5 9t-9.5 26z" />
    <glyph glyph-name="itilde" unicode="&#x129;" horiz-adv-x="585" 
d="M-147 1501q38 98 115 158.5t173 60.5q82 0 156 -45l41 -24q56 -35 102 -35q56 0 109 88q14 28 43 12l127 -80q13 -8 15.5 -14.5t-3.5 -22.5q-38 -95 -111.5 -156t-162.5 -61q-91 0 -160 41l-41 25q-62 39 -100 39q-68 0 -115 -82q-14 -28 -43 -12l-133 71q-22 14 -12 37z
M139 31v1145q0 30 35 30h238q34 0 34 -30v-1145q0 -31 -34 -31h-238q-35 0 -35 31z" />
    <glyph glyph-name="Imacron" unicode="&#x12a;" horiz-adv-x="884" 
d="M84 35v162q0 34 35 34h162v1133h-162q-35 0 -35 35v160q0 36 37 36h657q21 0 30 -8t5 -28l-20 -160q-3 -20 -12.5 -27.5t-30.5 -7.5h-146v-1133h160q18 0 25.5 -7t7.5 -27v-162q0 -35 -37 -35h-641q-16 0 -25.5 9t-9.5 26zM86 1839v166q0 29 29 29h655q29 0 29 -29v-166
q0 -29 -29 -29h-655q-29 0 -29 29z" />
    <glyph glyph-name="imacron" unicode="&#x12b;" horiz-adv-x="585" 
d="M-63 1470v166q0 29 28 29h656q28 0 28 -29v-166q0 -28 -28 -28h-656q-28 0 -28 28zM139 31v1145q0 30 35 30h238q34 0 34 -30v-1145q0 -31 -34 -31h-238q-35 0 -35 31z" />
    <glyph glyph-name="Ibreve" unicode="&#x12c;" horiz-adv-x="884" 
d="M84 35v162q0 34 35 34h162v1133h-162q-35 0 -35 35v160q0 36 37 36h657q21 0 30 -8t5 -28l-20 -160q-3 -20 -12.5 -27.5t-30.5 -7.5h-146v-1133h160q18 0 25.5 -7t7.5 -27v-162q0 -35 -37 -35h-641q-16 0 -25.5 9t-9.5 26zM102 2060q0 23 23 23h166q17 0 20 -17
q9 -48 42.5 -77t86.5 -29q54 0 88 29t43 77q3 17 19 17h170q13 0 17.5 -5t4.5 -18q0 -129 -90.5 -210t-251.5 -81q-158 0 -248 81t-90 210z" />
    <glyph glyph-name="ibreve" unicode="&#x12d;" horiz-adv-x="585" 
d="M-47 1692q0 12 4.5 17t17.5 5h166q18 0 21 -16q9 -48 42.5 -77.5t86.5 -29.5q54 0 88 29.5t43 77.5q3 16 18 16h170q13 0 18 -5t5 -17q0 -129 -90.5 -210t-251.5 -81q-158 0 -248 81t-90 210zM139 31v1145q0 30 35 30h238q34 0 34 -30v-1145q0 -31 -34 -31h-238
q-35 0 -35 31z" />
    <glyph glyph-name="Iogonek" unicode="&#x12e;" horiz-adv-x="884" 
d="M84 35v162q0 34 35 34h162v1133h-162q-35 0 -35 35v160q0 36 37 36h657q21 0 30 -8t5 -28l-20 -160q-3 -20 -12.5 -27.5t-30.5 -7.5h-146v-1133h158q35 0 35 -34v-162q0 -17 -9.5 -26t-25.5 -9h-182q-134 -97 -134 -242q0 -68 37 -101.5t99 -33.5q27 0 67 8q13 3 19 -3
t4 -17l-19 -123q-3 -25 -28 -33q-58 -14 -121 -14q-145 0 -219 67t-74 197q0 79 34.5 159t88.5 136h-215q-16 0 -25.5 9t-9.5 26z" />
    <glyph glyph-name="iogonek" unicode="&#x12f;" horiz-adv-x="585" 
d="M-20 -285q0 178 159 299v1162q0 30 35 30h238q34 0 34 -30v-1137q0 -19 -4.5 -27t-21.5 -14q-92 -35 -148.5 -103t-56.5 -143q0 -129 131 -129q42 0 70 8q12 3 18.5 -2.5t5.5 -17.5l-18 -123q-3 -24 -29 -33q-47 -14 -119 -14q-140 0 -217 69.5t-77 204.5zM139 1362v215
q0 44 45 47l219 18q43 3 43 -30v-250q0 -31 -34 -31h-238q-35 0 -35 31z" />
    <glyph glyph-name="Idotaccent" unicode="&#x130;" horiz-adv-x="884" 
d="M84 35v162q0 34 35 34h162v1133h-162q-35 0 -35 35v160q0 36 37 36h657q21 0 30 -8t5 -28l-20 -160q-3 -20 -12.5 -27.5t-30.5 -7.5h-146v-1133h160q18 0 25.5 -7t7.5 -27v-162q0 -35 -37 -35h-641q-16 0 -25.5 9t-9.5 26zM287 1825v227q0 45 55 45h199q57 0 57 -45v-227
q0 -45 -57 -45h-199q-55 0 -55 45z" />
    <glyph glyph-name="dotlessi" unicode="&#x131;" horiz-adv-x="585" 
d="M139 31v1145q0 30 35 30h238q34 0 34 -30v-1145q0 -31 -34 -31h-238q-35 0 -35 31z" />
    <glyph glyph-name="IJ" unicode="&#x132;" horiz-adv-x="1787" 
d="M84 35v162q0 34 35 34h162v1133h-162q-35 0 -35 35v160q0 36 37 36h657q21 0 30 -8t5 -28l-20 -160q-3 -20 -12.5 -27.5t-30.5 -7.5h-146v-1133h160q18 0 25.5 -7t7.5 -27v-162q0 -35 -37 -35h-641q-16 0 -25.5 9t-9.5 26zM954 217q-4 21 9.5 30.5t33.5 4.5
q54 -14 131 -14q48 0 94 14t70 43q21 23 31 67.5t11 81.5t1 138v977q0 36 37 36h246q20 0 28.5 -8.5t8.5 -27.5v-1027q0 -166 -20.5 -266.5t-94.5 -177.5q-45 -48 -132 -79.5t-179 -31.5q-107 0 -180 13q-30 6 -40.5 16.5t-15.5 36.5z" />
    <glyph glyph-name="ij" unicode="&#x133;" horiz-adv-x="1185" 
d="M139 31v1145q0 30 35 30h238q34 0 34 -30v-1145q0 -31 -34 -31h-238q-35 0 -35 31zM139 1362v215q0 44 45 47l219 18q43 3 43 -30v-250q0 -31 -34 -31h-238q-35 0 -35 31zM426 -215q-3 18 5 25.5t28 3.5q59 -13 112 -13q90 0 126 49t36 158v1168q0 30 35 30h236
q34 0 34 -30v-1151q0 -129 -40.5 -231t-126.5 -165t-207 -63q-104 0 -162 12q-35 6 -41 39zM733 1362v215q0 44 45 47l217 18q24 2 33.5 -5t9.5 -25v-250q0 -31 -34 -31h-236q-35 0 -35 31z" />
    <glyph glyph-name="Jcircumflex" unicode="&#x134;" horiz-adv-x="851" 
d="M18 217q-4 21 9.5 30.5t33.5 4.5q54 -14 132 -14q48 0 93.5 14t69.5 43q21 23 31 67.5t11 81.5t1 138v977q0 36 37 36h246q20 0 28.5 -8.5t8.5 -27.5v-1027q0 -166 -20.5 -266.5t-94.5 -177.5q-45 -48 -132 -79.5t-179 -31.5q-107 0 -180 13q-30 6 -40.5 16.5t-15.5 36.5
zM166.5 1818.5q-0.5 12.5 9.5 24.5l240 262q13 13 30 13h236q17 0 33 -13l231 -262q10 -12 9.5 -24.5t-11.5 -18.5l-141 -76q-19 -9 -29.5 -7.5t-25.5 14.5l-181 176h-12l-180 -172q-15 -13 -26.5 -14t-29.5 8l-141 71q-11 6 -11.5 18.5z" />
    <glyph glyph-name="jcircumflex" unicode="&#x135;" horiz-adv-x="600" 
d="M-160 -215q-3 18 5 25.5t28 3.5q58 -13 113 -13q90 0 125.5 49t35.5 158v1168q0 30 35 30h236q35 0 35 -30v-1151q0 -129 -40.5 -231t-127 -165t-207.5 -63q-103 0 -162 12q-35 6 -41 39zM-97.5 1441.5q-0.5 12.5 9.5 24.5l240 263q12 12 30 12h236q18 0 33 -12l231 -263
q10 -12 9.5 -24.5t-11.5 -18.5l-141 -75q-18 -9 -29.5 -8t-26.5 14l-180 176h-12l-180 -172q-15 -13 -26.5 -14t-29.5 8l-141 71q-11 6 -11.5 18.5z" />
    <glyph glyph-name="Kcommaaccent" unicode="&#x136;" horiz-adv-x="1343" 
d="M141 39v1515q0 22 8 31.5t29 9.5h246q20 0 28.5 -9t8.5 -32v-620h157q202 330 322 620q10 24 25.5 32.5t42.5 8.5h225q29 0 37.5 -9.5t-0.5 -31.5q-170 -379 -406 -741q195 -319 426 -766q24 -47 -30 -47h-234q-39 0 -60.5 11t-33.5 40q-156 356 -299 604
q-8 14 -16.5 18.5t-26.5 4.5h-129v-639q0 -22 -10 -30.5t-33 -8.5h-234q-26 0 -34.5 8.5t-8.5 30.5zM541 -596q32 122 32 270v115q0 47 50 47h155q26 0 37.5 -11t11.5 -36v-80q0 -169 -69 -307q-17 -39 -60 -39h-125q-43 0 -32 41z" />
    <glyph glyph-name="kcommaaccent" unicode="&#x137;" horiz-adv-x="1185" 
d="M129 39v1540q0 40 33 45l229 27q43 6 43 -31v-844h150q143 203 241 398q14 32 70 32h213q29 0 32.5 -15t-10.5 -38q-137 -263 -327 -514q174 -257 350 -582q14 -20 4 -38.5t-43 -18.5h-211q-29 0 -43.5 7.5t-23.5 27.5q-126 259 -261 481q-13 25 -49 25h-92v-502
q0 -22 -9 -30.5t-32 -8.5h-219q-23 0 -34 8.5t-11 30.5zM459 -596q33 125 33 270v115q0 25 11.5 36t37.5 11h155q26 0 37.5 -11t11.5 -36v-80q0 -169 -69 -307q-17 -39 -60 -39h-124q-44 0 -33 41z" />
    <glyph glyph-name="kgreenlandic" unicode="&#x138;" horiz-adv-x="1185" 
d="M129 39v1137q0 30 35 30h237q35 0 35 -30v-400h148q143 203 241 398q14 32 70 32h213q29 0 32.5 -15t-10.5 -38q-137 -263 -327 -514q174 -257 350 -582q14 -20 4 -38.5t-43 -18.5h-211q-29 0 -43.5 7.5t-23.5 27.5q-126 259 -261 481q-13 25 -49 25h-90v-502
q0 -22 -9 -30.5t-32 -8.5h-221q-23 0 -34 8.5t-11 30.5z" />
    <glyph glyph-name="Lacute" unicode="&#x139;" horiz-adv-x="1079" 
d="M137.5 1746q-6.5 13 7.5 32l220 303q26 33 65 33h270q23 0 30.5 -13t-7.5 -28l-264 -304q-33 -36 -84 -36h-207q-24 0 -30.5 13zM143 47v1503q0 27 14 36t50 9h192q36 0 50 -9t14 -36v-1290h532q27 0 37.5 -10.5t3.5 -38.5l-32 -162q-7 -28 -21.5 -38.5t-40.5 -10.5h-733
q-35 0 -50.5 11t-15.5 36z" />
    <glyph glyph-name="lacute" unicode="&#x13a;" horiz-adv-x="706" 
d="M128.5 1767q-6.5 14 8.5 31l219 303q26 33 66 33h270q23 0 30.5 -13t-7.5 -28l-264 -303q-34 -37 -84 -37h-207q-25 0 -31.5 14zM139 326v1253q0 42 33 45l229 27q43 6 43 -31v-1280q0 -121 109 -121q36 0 86 10q15 3 24.5 -4t6.5 -26l-23 -160q-8 -28 -35 -37
q-59 -18 -133 -18q-340 0 -340 342z" />
    <glyph glyph-name="Lcommaaccent" unicode="&#x13b;" horiz-adv-x="1079" 
d="M143 47v1503q0 27 14 36t50 9h192q36 0 50 -9t14 -36v-1290h532q27 0 37.5 -10.5t3.5 -38.5l-32 -162q-7 -28 -21.5 -38.5t-40.5 -10.5h-733q-35 0 -50.5 11t-15.5 36zM436 -596q33 125 33 270v115q0 25 11.5 36t37.5 11h156q26 0 37.5 -11t11.5 -36v-80q0 -167 -70 -307
q-17 -39 -59 -39h-125q-44 0 -33 41z" />
    <glyph glyph-name="lcommaaccent" unicode="&#x13c;" horiz-adv-x="706" 
d="M139 326v1253q0 42 33 45l229 27q43 6 43 -31v-1280q0 -121 109 -121q36 0 86 10q15 3 24.5 -4t6.5 -26l-23 -160q-8 -28 -35 -37q-59 -18 -133 -18q-340 0 -340 342zM233 -596q33 125 33 270v115q0 25 11.5 36t37.5 11h156q26 0 37.5 -11t11.5 -36v-80q0 -169 -69 -307
q-17 -39 -60 -39h-125q-44 0 -33 41z" />
    <glyph glyph-name="Lcaron" unicode="&#x13d;" horiz-adv-x="1079" 
d="M143 47v1503q0 27 14 36t50 9h192q36 0 50 -9t14 -36v-1290h532q27 0 37.5 -10.5t3.5 -38.5l-32 -162q-7 -28 -21.5 -38.5t-40.5 -10.5h-733q-35 0 -50.5 11t-15.5 36zM612 1251l125 365q14 37 58 37h174q42 0 24 -41l-168 -367q-13 -31 -57 -31h-131q-17 0 -24 10t-1 27
z" />
    <glyph glyph-name="lcaron" unicode="&#x13e;" horiz-adv-x="811" 
d="M139 326v1253q0 42 33 45l229 27q43 6 43 -31v-1280q0 -121 109 -121q36 0 86 10q15 3 24.5 -4t6.5 -26l-23 -160q-8 -28 -35 -37q-59 -18 -133 -18q-340 0 -340 342zM553 1251l125 365q14 37 57 37h174q21 0 27 -12t-2 -29l-168 -367q-13 -31 -57 -31h-131q-17 0 -24 10
t-1 27z" />
    <glyph glyph-name="Ldot" unicode="&#x13f;" horiz-adv-x="1222" 
d="M143 47v1503q0 27 14 36t50 9h192q36 0 50 -9t14 -36v-1290h532q27 0 37.5 -10.5t3.5 -38.5l-32 -162q-7 -28 -21.5 -38.5t-40.5 -10.5h-733q-35 0 -50.5 11t-15.5 36zM758 776v228q0 45 55 45h199q57 0 57 -45v-228q0 -45 -57 -45h-199q-55 0 -55 45z" />
    <glyph glyph-name="ldot" unicode="&#x140;" horiz-adv-x="937" 
d="M139 326v1253q0 42 33 45l229 27q43 6 43 -31v-1280q0 -121 109 -121q36 0 86 10q15 3 24.5 -4t6.5 -26l-23 -160q-8 -28 -35 -37q-59 -18 -133 -18q-340 0 -340 342zM608 815v227q0 45 56 45h198q58 0 58 -45v-227q0 -45 -58 -45h-198q-56 0 -56 45z" />
    <glyph glyph-name="Lslash" unicode="&#x141;" horiz-adv-x="1144" 
d="M4 502v205q0 29 33 45l172 88v710q0 27 13.5 36t49.5 9h193q36 0 49.5 -9t13.5 -36v-549l246 127q23 11 36 5.5t13 -21.5v-201q0 -33 -39 -53l-256 -131v-467h533q27 0 37.5 -10.5t3.5 -38.5l-33 -162q-7 -28 -21 -38.5t-40 -10.5h-734q-35 0 -50 11t-15 36v516l-156 -78
q-22 -10 -35.5 -4.5t-13.5 21.5z" />
    <glyph glyph-name="lslash" unicode="&#x142;" horiz-adv-x="792" 
d="M14 555v184q0 29 33 45l166 82v713q0 42 33 45l229 27q43 6 43 -31v-602l211 106q22 10 35.5 5t13.5 -21v-180q0 -34 -39 -54l-221 -110v-424q0 -121 109 -121q36 0 86 10q15 3 24 -4t6 -26l-22 -160q-8 -28 -35 -37q-59 -18 -133 -18q-340 0 -340 342v286l-150 -73
q-22 -10 -35.5 -5t-13.5 21z" />
    <glyph glyph-name="Nacute" unicode="&#x143;" horiz-adv-x="1425" 
d="M141 35v1526q0 34 33 34h178q52 0 70 -43l592 -1001h10l-23 209v801q0 19 7.5 26.5t25.5 7.5h213q20 0 28.5 -7.5t8.5 -26.5v-1526q0 -35 -39 -35h-158q-60 0 -79 43l-592 1008h-10l18 -168v-848q0 -35 -35 -35h-215q-33 0 -33 35zM578 1746q-6 13 8 32l219 303
q26 33 65 33h271q23 0 30 -13t-8 -28l-264 -304q-33 -36 -84 -36h-207q-24 0 -30 13z" />
    <glyph glyph-name="nacute" unicode="&#x144;" horiz-adv-x="1288" 
d="M129 41v1133q0 32 35 32h188q22 0 32.5 -6.5t14.5 -23.5l17 -70q72 55 167.5 89t192.5 34q82 0 155.5 -24t121.5 -70q59 -56 85.5 -136t26.5 -204v-754q0 -28 -9 -34.5t-44 -6.5h-201q-32 0 -41.5 7t-9.5 34v690q0 74 -7.5 119t-30 77.5t-62.5 46t-105 13.5
q-46 0 -110 -16.5t-111 -38.5v-891q0 -21 -10 -31t-35 -10h-209q-51 0 -51 41zM509.5 1378q-6.5 14 8.5 31l219 303q26 33 66 33h270q23 0 30.5 -13t-7.5 -28l-265 -303q-34 -37 -83 -37h-207q-25 0 -31.5 14z" />
    <glyph glyph-name="Ncommaaccent" unicode="&#x145;" horiz-adv-x="1425" 
d="M141 35v1526q0 34 33 34h178q52 0 70 -43l592 -1001h10l-23 209v801q0 19 7.5 26.5t25.5 7.5h213q20 0 28.5 -7.5t8.5 -26.5v-1526q0 -35 -39 -35h-158q-60 0 -79 43l-592 1008h-10l18 -168v-848q0 -35 -35 -35h-215q-33 0 -33 35zM580 -596q32 122 32 270v115
q0 47 50 47h155q26 0 37.5 -11t11.5 -36v-80q0 -169 -69 -307q-17 -39 -60 -39h-125q-43 0 -32 41z" />
    <glyph glyph-name="ncommaaccent" unicode="&#x146;" horiz-adv-x="1288" 
d="M129 41v1133q0 32 35 32h188q22 0 32.5 -6.5t14.5 -23.5l17 -70q72 55 167.5 89t192.5 34q82 0 155.5 -24t121.5 -70q59 -56 85.5 -136t26.5 -204v-754q0 -28 -9 -34.5t-44 -6.5h-201q-32 0 -41.5 7t-9.5 34v690q0 74 -7.5 119t-30 77.5t-62.5 46t-105 13.5
q-46 0 -110 -16.5t-111 -38.5v-891q0 -21 -10 -31t-35 -10h-209q-51 0 -51 41zM500 -596q32 122 32 270v115q0 47 50 47h155q26 0 37.5 -11t11.5 -36v-80q0 -169 -69 -307q-17 -39 -60 -39h-125q-43 0 -32 41z" />
    <glyph glyph-name="Ncaron" unicode="&#x147;" horiz-adv-x="1425" 
d="M141 35v1526q0 34 33 34h178q52 0 70 -43l592 -1001h10l-23 209v801q0 19 7.5 26.5t25.5 7.5h213q20 0 28.5 -7.5t8.5 -26.5v-1526q0 -35 -39 -35h-158q-60 0 -79 43l-592 1008h-10l18 -168v-848q0 -35 -35 -35h-215q-33 0 -33 35zM318.5 2027.5q0.5 12.5 11.5 18.5
l141 72q19 9 29.5 7.5t25.5 -14.5l181 -172h12l180 177q15 13 26 14t29 -8l142 -76q11 -6 11.5 -18.5t-9.5 -24.5l-232 -262q-15 -12 -32 -12h-236q-19 0 -31 12l-239 262q-10 12 -9.5 24.5z" />
    <glyph glyph-name="ncaron" unicode="&#x148;" horiz-adv-x="1288" 
d="M129 41v1133q0 32 35 32h188q22 0 32.5 -6.5t14.5 -23.5l17 -70q72 55 167.5 89t192.5 34q82 0 155.5 -24t121.5 -70q59 -56 85.5 -136t26.5 -204v-754q0 -28 -9 -34.5t-44 -6.5h-201q-32 0 -41.5 7t-9.5 34v690q0 74 -7.5 119t-30 77.5t-62.5 46t-105 13.5
q-46 0 -110 -16.5t-111 -38.5v-891q0 -21 -10 -31t-35 -10h-209q-51 0 -51 41zM269.5 1658.5q0.5 12.5 11.5 18.5l141 72q18 9 29 8t26 -14l180 -172h13l180 176q15 13 26 14t29 -8l142 -76q11 -6 11.5 -18.5t-9.5 -24.5l-232 -262q-15 -12 -33 -12h-235q-19 0 -31 12
l-239 262q-10 12 -9.5 24.5z" />
    <glyph glyph-name="napostrophe" unicode="&#x149;" horiz-adv-x="1449" 
d="M-78 1239q37 142 37 342v176q0 47 55 47h172q60 0 60 -47v-178q0 -78 -22.5 -179.5t-53.5 -168.5q-18 -39 -64 -39h-145q-27 0 -36 10.5t-3 36.5zM291 41v1133q0 32 35 32h188q22 0 32.5 -6.5t14.5 -23.5l17 -70q72 55 167.5 89t192.5 34q82 0 155 -24t121 -70
q59 -56 86 -136.5t27 -203.5v-754q0 -28 -9 -34.5t-44 -6.5h-201q-32 0 -41.5 7t-9.5 34v690q0 74 -7.5 119t-30 77.5t-62.5 46t-105 13.5q-46 0 -110 -16.5t-111 -38.5v-891q0 -21 -10 -31t-35 -10h-209q-51 0 -51 41z" />
    <glyph glyph-name="Eng" unicode="&#x14a;" horiz-adv-x="1425" 
d="M141 35v1526q0 34 33 34h178q45 0 70 -43l592 -1001h10l-23 209v801q0 19 7.5 26.5t25.5 7.5h213q20 0 28.5 -7.5t8.5 -26.5v-1483q0 -150 -32 -245t-101 -159q-122 -108 -328 -108q-77 0 -145 12q-29 6 -39.5 17t-15.5 36l-37 162q-4 21 9.5 30.5t33.5 4.5
q54 -14 131 -14q122 0 181.5 55t59.5 182l-585 1000h-10l18 -168v-848q0 -35 -35 -35h-215q-33 0 -33 35z" />
    <glyph glyph-name="eng" unicode="&#x14b;" horiz-adv-x="1288" 
d="M129 41v1133q0 32 35 32h188q22 0 32.5 -6.5t14.5 -23.5l17 -70q72 55 167.5 89t192.5 34q82 0 155.5 -24t121.5 -70q59 -56 85.5 -136t26.5 -204v-770q0 -129 -40.5 -231t-126.5 -165t-207 -63q-103 0 -162 12q-35 6 -41 39l-35 168q-3 18 5 25.5t28 3.5q59 -13 112 -13
q90 0 126 49t36 158v723q0 74 -7.5 119t-30 77.5t-62.5 46t-105 13.5q-46 0 -110 -16.5t-111 -38.5v-891q0 -21 -10 -31t-35 -10h-209q-51 0 -51 41z" />
    <glyph glyph-name="Omacron" unicode="&#x14c;" horiz-adv-x="1433" 
d="M129 510v575q0 260 158 396.5t430 136.5t430 -136.5t158 -396.5v-575q0 -261 -155.5 -397t-432.5 -136t-432.5 136t-155.5 397zM360 1839v166q0 29 29 29h655q29 0 29 -29v-166q0 -29 -29 -29h-655q-29 0 -29 29zM451 543q0 -163 75 -238q61 -61 191 -61q138 0 202 75.5
t64 223.5v510q0 159 -78 237q-62 62 -188 62q-140 0 -203 -73.5t-63 -225.5v-510z" />
    <glyph glyph-name="omacron" unicode="&#x14d;" horiz-adv-x="1273" 
d="M113 438v332q0 459 524 459t524 -459v-332q0 -234 -134 -347.5t-390 -113.5t-390 113.5t-134 347.5zM281 1470v166q0 29 28 29h656q28 0 28 -29v-166q0 -28 -28 -28h-656q-28 0 -28 28zM418 475q0 -124 49.5 -190t169.5 -66t169.5 66t49.5 190v256q0 139 -47.5 197.5
t-171.5 58.5t-171.5 -58.5t-47.5 -197.5v-256z" />
    <glyph glyph-name="Obreve" unicode="&#x14e;" horiz-adv-x="1433" 
d="M129 510v575q0 260 158 396.5t430 136.5t430 -136.5t158 -396.5v-575q0 -261 -155.5 -397t-432.5 -136t-432.5 136t-155.5 397zM377 2060q0 13 4.5 18t17.5 5h166q18 0 21 -17q9 -48 42.5 -77t86.5 -29q54 0 88 29t43 77q3 17 18 17h170q23 0 23 -23q0 -129 -90.5 -210
t-251.5 -81q-158 0 -248 81t-90 210zM451 543q0 -163 75 -238q61 -61 191 -61q138 0 202 75.5t64 223.5v510q0 159 -78 237q-62 62 -188 62q-140 0 -203 -73.5t-63 -225.5v-510z" />
    <glyph glyph-name="obreve" unicode="&#x14f;" horiz-adv-x="1273" 
d="M113 438v332q0 459 524 459t524 -459v-332q0 -234 -134 -347.5t-390 -113.5t-390 113.5t-134 347.5zM297 1692q0 12 4.5 17t17.5 5h166q18 0 21 -16q9 -48 42.5 -77.5t86.5 -29.5q54 0 88 29.5t43 77.5q3 16 18 16h170q13 0 18 -5t5 -17q0 -129 -90.5 -210t-251.5 -81
q-158 0 -248 81t-90 210zM418 475q0 -124 49.5 -190t169.5 -66t169.5 66t49.5 190v256q0 139 -47.5 197.5t-171.5 58.5t-171.5 -58.5t-47.5 -197.5v-256z" />
    <glyph glyph-name="Ohungarumlaut" unicode="&#x150;" horiz-adv-x="1433" 
d="M129 510v575q0 260 158 396.5t430 136.5t430 -136.5t158 -396.5v-575q0 -261 -155.5 -397t-432.5 -136t-432.5 136t-155.5 397zM315.5 1747q-6.5 8 3.5 20l211 324q20 23 45 23h316q14 0 17.5 -9.5t-5.5 -21.5l-282 -322q-17 -22 -62 -22h-215q-22 0 -28.5 8zM451 543
q0 -163 75 -238q61 -61 191 -61q138 0 202 75.5t64 223.5v510q0 159 -78 237q-62 62 -188 62q-140 0 -203 -73.5t-63 -225.5v-510zM815 1744.5q-6 5.5 2 18.5l213 328q13 23 45 23h314q15 0 19 -9.5t-5 -21.5l-283 -322q-17 -22 -61 -22h-215q-23 0 -29 5.5z" />
    <glyph glyph-name="ohungarumlaut" unicode="&#x151;" horiz-adv-x="1273" 
d="M113 438v332q0 459 524 459t524 -459v-332q0 -234 -134 -347.5t-390 -113.5t-390 113.5t-134 347.5zM234 1378.5q-6 8.5 4 20.5l211 323q20 23 45 23h315q14 0 18 -10.5t-6 -20.5l-282 -321q-23 -23 -62 -23h-215q-22 0 -28 8.5zM418 475q0 -124 49.5 -190t169.5 -66
t169.5 66t49.5 190v256q0 139 -47.5 197.5t-171.5 58.5t-171.5 -58.5t-47.5 -197.5v-256zM733 1376q-6 6 2 19l213 327q13 23 45 23h314q15 0 19 -9.5t-5 -21.5l-283 -321q-18 -23 -61 -23h-215q-23 0 -29 6z" />
    <glyph glyph-name="OE" unicode="&#x152;" horiz-adv-x="1986" 
d="M129 518v526q0 307 166 453q134 119 346 119q113 0 207.5 -36.5t152.5 -100.5v71q0 23 10.5 34t35.5 11h813q37 0 34 -36l-20 -189q-3 -35 -39 -35h-528v-401h487q38 0 35 -35l-23 -188q-3 -33 -41 -33h-458v-418h559q20 0 28 -8.5t7 -28.5l-23 -188q-2 -19 -10.5 -27
t-28.5 -8h-799q-47 0 -47 45v86q-38 -67 -139.5 -110.5t-220.5 -43.5q-245 0 -374.5 138t-129.5 403zM451 553q0 -172 63 -240q30 -32 81.5 -49.5t109.5 -17.5q76 0 134.5 25.5t88.5 70.5q36 55 46.5 118.5t10.5 176.5v364q0 104 -15 165t-48 100q-32 38 -87.5 61t-121.5 23
q-67 0 -121.5 -20.5t-83.5 -55.5q-32 -38 -44.5 -96.5t-12.5 -163.5v-461z" />
    <glyph glyph-name="oe" unicode="&#x153;" horiz-adv-x="1974" 
d="M113 438v332q0 459 524 459q122 0 224.5 -35.5t162.5 -95.5q63 60 158 95.5t200 35.5q231 0 357.5 -125t126.5 -356v-201q0 -35 -14.5 -49.5t-51.5 -14.5h-639v-45q6 -219 285 -219q185 0 311 37q31 9 42.5 -0.5t6.5 -38.5l-24 -143q-5 -27 -16 -40t-37 -20
q-137 -37 -291 -37q-279 0 -418 127q-127 -127 -383 -127t-390 113.5t-134 347.5zM418 475q0 -124 49.5 -190t169.5 -66t169.5 66t49.5 190v256q0 139 -47.5 197.5t-171.5 58.5t-171.5 -58.5t-47.5 -197.5v-256zM1161 705h400v65q0 236 -187 236q-102 0 -157.5 -59.5
t-55.5 -176.5v-65z" />
    <glyph glyph-name="Racute" unicode="&#x154;" horiz-adv-x="1275" 
d="M141 37v1522q0 16 9 26t26 10h479q262 0 396.5 -110.5t134.5 -362.5v-35q0 -183 -82.5 -304.5t-218.5 -161.5q171 -292 305 -570q23 -51 -43 -51h-219q-31 0 -45 7.5t-25 29.5q-139 309 -270 553h-127v-553q0 -37 -37 -37h-248q-35 0 -35 37zM432.5 1746q-6.5 13 7.5 32
l219 303q26 33 66 33h270q23 0 30.5 -13t-7.5 -28l-264 -304q-33 -36 -84 -36h-207q-24 0 -30.5 13zM461 846h157q144 0 193 50.5t49 195.5v18q0 133 -54.5 181t-193.5 48h-151v-493z" />
    <glyph glyph-name="racute" unicode="&#x155;" horiz-adv-x="847" 
d="M129 41v1133q0 32 35 32h196q40 0 43 -35l11 -106q57 72 141.5 115t187.5 43q58 0 72 -10q12 -9 12 -25v-182q0 -22 -10 -30.5t-35 -8.5q-214 0 -348 -90v-836q0 -22 -9.5 -31.5t-35.5 -9.5h-215q-45 0 -45 41zM130.5 1378q-6.5 14 8.5 31l219 303q26 33 66 33h270
q23 0 30.5 -13t-7.5 -28l-264 -303q-34 -37 -84 -37h-207q-25 0 -31.5 14z" />
    <glyph glyph-name="Rcommaaccent" unicode="&#x156;" horiz-adv-x="1275" 
d="M141 37v1522q0 16 9 26t26 10h479q262 0 396.5 -110.5t134.5 -362.5v-35q0 -183 -82.5 -304.5t-218.5 -161.5q171 -292 305 -570q23 -51 -43 -51h-219q-31 0 -45 7.5t-25 29.5q-139 309 -270 553h-127v-553q0 -37 -37 -37h-248q-35 0 -35 37zM461 846h157q144 0 193 50.5
t49 195.5v18q0 133 -54.5 181t-193.5 48h-151v-493zM483 -596q33 125 33 270v115q0 25 11.5 36t37.5 11h156q26 0 37.5 -11t11.5 -36v-80q0 -167 -70 -307q-17 -39 -59 -39h-125q-44 0 -33 41z" />
    <glyph glyph-name="rcommaaccent" unicode="&#x157;" horiz-adv-x="847" 
d="M129 41v1133q0 32 35 32h196q40 0 43 -35l11 -106q57 72 141.5 115t187.5 43q58 0 72 -10q12 -9 12 -25v-182q0 -22 -10 -30.5t-35 -8.5q-214 0 -348 -90v-836q0 -22 -9.5 -31.5t-35.5 -9.5h-215q-45 0 -45 41zM129 -596q33 125 33 270v115q0 25 11.5 36t37.5 11h156
q26 0 37.5 -11t11.5 -36v-80q0 -167 -70 -307q-17 -39 -59 -39h-125q-44 0 -33 41z" />
    <glyph glyph-name="Rcaron" unicode="&#x158;" horiz-adv-x="1275" 
d="M141 37v1522q0 16 9 26t26 10h479q262 0 396.5 -110.5t134.5 -362.5v-35q0 -183 -82.5 -304.5t-218.5 -161.5q171 -292 305 -570q23 -51 -43 -51h-219q-31 0 -45 7.5t-25 29.5q-139 309 -270 553h-127v-553q0 -37 -37 -37h-248q-35 0 -35 37zM203.5 2027.5
q0.5 12.5 11.5 18.5l141 72q19 9 30 7.5t26 -14.5l180 -172h12l180 177q15 13 26.5 14t29.5 -8l141 -76q11 -6 11.5 -18.5t-9.5 -24.5l-231 -262q-15 -12 -33 -12h-236q-18 0 -30 12l-240 262q-10 12 -9.5 24.5zM461 846h157q144 0 193 50.5t49 195.5v18q0 133 -54.5 181
t-193.5 48h-151v-493z" />
    <glyph glyph-name="rcaron" unicode="&#x159;" horiz-adv-x="847" 
d="M8.5 1658.5q0.5 12.5 11.5 18.5l142 72q18 9 29 8t26 -14l180 -172h13l180 176q15 13 26 14t29 -8l141 -76q11 -6 11.5 -18.5t-9.5 -24.5l-231 -262q-15 -12 -33 -12h-235q-19 0 -31 12l-240 262q-10 12 -9.5 24.5zM129 41v1133q0 32 35 32h196q40 0 43 -35l11 -106
q57 72 141.5 115t187.5 43q58 0 72 -10q12 -9 12 -25v-182q0 -22 -10 -30.5t-35 -8.5q-214 0 -348 -90v-836q0 -22 -9.5 -31.5t-35.5 -9.5h-215q-45 0 -45 41z" />
    <glyph glyph-name="Sacute" unicode="&#x15a;" horiz-adv-x="1153" 
d="M90 291q-3 22 11 28.5t40 -4.5q67 -29 163 -50t179 -21q133 0 203 50.5t70 143.5v11q0 85 -46 139t-161 94l-98 35q-336 119 -336 450v15q0 212 148 324t394 112q154 0 279 -39q26 -8 33.5 -20.5t7.5 -36.5v-164q0 -48 -62 -35q-131 29 -245 29q-240 0 -240 -174v-9
q0 -84 40 -132.5t136 -82.5l109 -41q186 -69 268 -173t82 -273v-21q0 -215 -146 -342t-403 -127q-84 0 -178 14.5t-160 37.5q-26 8 -35 20t-14 35zM381.5 1746q-6.5 13 7.5 32l219 303q26 33 66 33h270q23 0 30.5 -13t-7.5 -28l-265 -304q-33 -36 -84 -36h-206
q-24 0 -30.5 13z" />
    <glyph glyph-name="sacute" unicode="&#x15b;" horiz-adv-x="1032" 
d="M88 242q-4 22 11.5 32t35.5 2q68 -27 154.5 -45t154.5 -18q197 0 197 125v10q0 48 -24 78.5t-95 52.5l-112 33q-299 86 -299 358v19q0 109 62.5 187.5t164 115.5t229.5 37q146 0 271 -37q30 -9 30 -37v-164q0 -44 -55 -28q-113 30 -225 30q-178 0 -178 -108v-8
q0 -49 29.5 -81.5t103.5 -54.5l102 -30q158 -48 224.5 -129.5t66.5 -208.5v-19q0 -175 -120.5 -276t-344.5 -101q-176 0 -303 46q-44 14 -51 49zM349.5 1378q-6.5 14 8.5 31l220 303q26 33 65 33h270q23 0 30.5 -13t-7.5 -28l-264 -303q-34 -37 -84 -37h-207q-25 0 -31.5 14
z" />
    <glyph glyph-name="Scircumflex" unicode="&#x15c;" horiz-adv-x="1153" 
d="M90 291q-3 22 11 28.5t40 -4.5q67 -29 163 -50t179 -21q133 0 203 50.5t70 143.5v11q0 85 -46 139t-161 94l-98 35q-336 119 -336 450v15q0 212 148 324t394 112q154 0 279 -39q26 -8 33.5 -20.5t7.5 -36.5v-164q0 -48 -62 -35q-131 29 -245 29q-240 0 -240 -174v-9
q0 -84 40 -132.5t136 -82.5l109 -41q186 -69 268 -173t82 -273v-21q0 -215 -146 -342t-403 -127q-84 0 -178 14.5t-160 37.5q-26 8 -35 20t-14 35zM215.5 1818.5q-0.5 12.5 9.5 24.5l240 262q13 13 31 13h235q17 0 33 -13l231 -262q10 -12 9.5 -24.5t-11.5 -18.5l-141 -76
q-19 -9 -29.5 -7.5t-25.5 14.5l-181 176h-12l-180 -172q-15 -13 -26 -14t-29 8l-142 71q-11 6 -11.5 18.5z" />
    <glyph glyph-name="scircumflex" unicode="&#x15d;" horiz-adv-x="1021" 
d="M88 242q-4 22 11.5 32t35.5 2q68 -27 154.5 -45t154.5 -18q197 0 197 125v10q0 48 -24 78.5t-95 52.5l-112 33q-299 86 -299 358v19q0 109 62.5 187.5t164 115.5t229.5 37q146 0 271 -37q30 -9 30 -37v-164q0 -44 -55 -28q-113 30 -225 30q-178 0 -178 -108v-8
q0 -49 29.5 -81.5t103.5 -54.5l102 -30q158 -48 224.5 -129.5t66.5 -208.5v-19q0 -175 -120.5 -276t-344.5 -101q-176 0 -303 46q-44 14 -51 49zM135.5 1441.5q-0.5 12.5 9.5 24.5l240 263q12 12 31 12h235q18 0 33 -12l231 -263q10 -12 9.5 -24.5t-11.5 -18.5l-141 -75
q-18 -9 -29 -8t-26 14l-180 176h-13l-180 -172q-15 -13 -26 -14t-29 8l-142 71q-11 6 -11.5 18.5z" />
    <glyph glyph-name="Scedilla" unicode="&#x15e;" horiz-adv-x="1153" 
d="M90 291q-3 22 11 28.5t40 -4.5q67 -29 163 -50t179 -21q133 0 203 50.5t70 143.5v11q0 85 -46 139t-161 94l-98 35q-336 119 -336 450v15q0 212 148 324t394 112q154 0 279 -39q26 -8 33.5 -20.5t7.5 -36.5v-164q0 -48 -62 -35q-131 29 -245 29q-240 0 -240 -174v-9
q0 -84 40 -132.5t136 -82.5l109 -41q186 -69 268 -173t82 -273v-21q0 -193 -119.5 -317t-333.5 -147l-18 -134h31q115 0 175 -46t60 -148q0 -114 -72.5 -177t-212.5 -63q-83 0 -155 21q-38 9 -41 35l-19 112q-2 14 7 19.5t22 -0.5q73 -29 152 -29q60 0 83 17.5t23 50.5
q0 29 -21 41t-65 12h-127q-39 0 -33 35l43 252q-157 10 -266 49q-26 8 -35 20t-14 35z" />
    <glyph glyph-name="scedilla" unicode="&#x15f;" horiz-adv-x="1021" 
d="M88 242q-4 22 11.5 32t35.5 2q68 -27 154.5 -45t154.5 -18q197 0 197 125v10q0 48 -24 78.5t-95 52.5l-112 33q-299 86 -299 358v19q0 109 62.5 187.5t164 115.5t229.5 37q146 0 271 -37q30 -9 30 -37v-164q0 -44 -55 -28q-113 30 -225 30q-178 0 -178 -108v-8
q0 -49 29.5 -81.5t103.5 -54.5l102 -30q158 -48 224.5 -129.5t66.5 -208.5v-19q0 -163 -105 -262t-301 -112l-18 -132h31q115 0 175 -46t60 -148q0 -114 -72 -177t-212 -63q-84 0 -156 21q-38 9 -41 35l-18 112q-2 14 6.5 19.5t21.5 -0.5q73 -29 152 -29q60 0 83 17.5
t23 50.5q0 29 -21 41t-65 12h-127q-39 0 -33 35l43 254q-108 10 -194 41q-44 14 -51 49z" />
    <glyph glyph-name="Scaron" unicode="&#x160;" horiz-adv-x="1153" 
d="M90 291q-3 22 11 28.5t40 -4.5q67 -29 163 -50t179 -21q133 0 203 50.5t70 143.5v11q0 85 -46 139t-161 94l-98 35q-336 119 -336 450v15q0 212 148 324t394 112q154 0 279 -39q26 -8 33.5 -20.5t7.5 -36.5v-164q0 -48 -62 -35q-131 29 -245 29q-240 0 -240 -174v-9
q0 -84 40 -132.5t136 -82.5l109 -41q186 -69 268 -173t82 -273v-21q0 -215 -146 -342t-403 -127q-84 0 -178 14.5t-160 37.5q-26 8 -35 20t-14 35zM178.5 2027.5q0.5 12.5 11.5 18.5l142 72q19 9 29.5 7.5t25.5 -14.5l180 -172h13l180 177q15 13 26 14t29 -8l141 -76
q11 -6 11.5 -18.5t-9.5 -24.5l-231 -262q-15 -12 -33 -12h-235q-19 0 -31 12l-240 262q-10 12 -9.5 24.5z" />
    <glyph glyph-name="scaron" unicode="&#x161;" horiz-adv-x="1021" 
d="M88 242q-4 22 11.5 32t35.5 2q68 -27 154.5 -45t154.5 -18q197 0 197 125v10q0 48 -24 78.5t-95 52.5l-112 33q-299 86 -299 358v19q0 109 62.5 187.5t164 115.5t229.5 37q146 0 271 -37q30 -9 30 -37v-164q0 -44 -55 -28q-113 30 -225 30q-178 0 -178 -108v-8
q0 -49 29.5 -81.5t103.5 -54.5l102 -30q158 -48 224.5 -129.5t66.5 -208.5v-19q0 -175 -120.5 -276t-344.5 -101q-176 0 -303 46q-44 14 -51 49zM121.5 1658.5q0.5 12.5 11.5 18.5l141 72q18 9 29.5 8t26.5 -14l180 -172h12l180 176q15 13 26.5 14t29.5 -8l141 -76
q11 -6 11.5 -18.5t-9.5 -24.5l-231 -262q-15 -12 -33 -12h-236q-18 0 -30 12l-240 262q-10 12 -9.5 24.5z" />
    <glyph glyph-name="Tcommaaccent" unicode="&#x162;" horiz-adv-x="1181" 
d="M45 1370v191q0 34 37 34h1018q21 0 29.5 -7.5t5.5 -26.5l-29 -191q-3 -20 -12 -27.5t-31 -7.5h-311v-1300q0 -35 -37 -35h-250q-35 0 -35 35v1300h-348q-16 0 -26.5 9t-10.5 26zM430 -596q33 125 33 270v115q0 25 11.5 36t37.5 11h156q26 0 37.5 -11t11.5 -36v-80
q0 -167 -70 -307q-17 -39 -59 -39h-125q-44 0 -33 41z" />
    <glyph glyph-name="tcommaaccent" unicode="&#x163;" horiz-adv-x="923" 
d="M16 1006v174q0 12 8.5 19t22.5 7h180v256q0 18 5.5 26.5t23.5 12.5l238 43q38 6 38 -24v-314h312q17 0 25.5 -11t4.5 -30l-28 -168q-5 -24 -33 -24h-281v-563q0 -105 35.5 -150t110.5 -45q84 0 158 16q25 6 37 -5t8 -38l-31 -137q-5 -23 -13.5 -34t-27.5 -17
q-75 -23 -191 -23q-210 0 -300.5 100.5t-90.5 309.5v586h-178q-15 0 -24 9t-9 24zM336 -596q33 125 33 270v115q0 25 11.5 36t37.5 11h155q50 0 50 -47v-80q0 -167 -70 -307q-17 -39 -59 -39h-125q-44 0 -33 41z" />
    <glyph glyph-name="Tcaron" unicode="&#x164;" horiz-adv-x="1181" 
d="M45 1370v191q0 34 37 34h1018q21 0 29.5 -7.5t5.5 -26.5l-29 -191q-3 -20 -12 -27.5t-31 -7.5h-311v-1300q0 -35 -37 -35h-250q-35 0 -35 35v1300h-348q-16 0 -26.5 9t-10.5 26zM195.5 2027.5q0.5 12.5 11.5 18.5l141 72q19 9 29.5 7.5t25.5 -14.5l181 -172h12l180 177
q15 13 26 14t29 -8l142 -76q11 -6 11.5 -18.5t-9.5 -24.5l-232 -262q-15 -12 -32 -12h-236q-19 0 -31 12l-239 262q-10 12 -9.5 24.5z" />
    <glyph glyph-name="tcaron" unicode="&#x165;" horiz-adv-x="923" 
d="M16 1006v174q0 12 8.5 19t22.5 7h180v256q0 18 5.5 26.5t23.5 12.5l238 43q38 6 38 -24v-314h312q17 0 25.5 -11t4.5 -30l-28 -168q-5 -24 -33 -24h-281v-563q0 -105 35.5 -150t110.5 -45q84 0 158 16q25 6 37 -5t8 -38l-31 -137q-5 -23 -13.5 -34t-27.5 -17
q-75 -23 -191 -23q-210 0 -300.5 100.5t-90.5 309.5v586h-178q-15 0 -24 9t-9 24zM635 1374l125 365q14 37 57 37h174q21 0 27 -12t-2 -29l-168 -367q-13 -31 -57 -31h-132q-37 0 -24 37z" />
    <glyph glyph-name="Tbar" unicode="&#x166;" horiz-adv-x="1181" 
d="M45 1370v191q0 34 37 34h1018q21 0 29.5 -7.5t5.5 -26.5l-29 -191q-3 -20 -12 -27.5t-31 -7.5h-311v-403h180q41 0 41 -35v-190q0 -35 -41 -35h-180v-637q0 -35 -37 -35h-250q-35 0 -35 35v637h-184q-41 0 -41 35v190q0 19 9 27t32 8h184v403h-348q-16 0 -26.5 9
t-10.5 26z" />
    <glyph glyph-name="tbar" unicode="&#x167;" horiz-adv-x="980" 
d="M49 1006v174q0 12 8.5 19t22.5 7h180v256q0 18 5.5 26.5t23.5 12.5l237 43q39 6 39 -24v-314h312q17 0 25.5 -11t4.5 -30l-28 -168q-5 -24 -33 -24h-281v-205h201q29 0 29 -27v-159q0 -27 -29 -27h-201v-145q0 -105 35.5 -150t110.5 -45q83 0 157 16q25 6 37 -5t8 -38
l-30 -137q-5 -23 -13.5 -34t-27.5 -17q-75 -23 -191 -23q-210 0 -300.5 100.5t-90.5 309.5v168h-143q-29 0 -29 27v159q0 27 29 27h143v205h-178q-15 0 -24 9t-9 24z" />
    <glyph glyph-name="Utilde" unicode="&#x168;" horiz-adv-x="1396" 
d="M135 522v1039q0 34 37 34h248q37 0 37 -34v-1010q0 -155 52 -231t189 -76q134 0 191 73q51 63 51 234v1010q0 34 39 34h246q37 0 37 -34v-1039q0 -278 -140 -411.5t-424 -133.5q-290 0 -426.5 132.5t-136.5 412.5zM254 1884q40 95 117 156t172 61q88 0 157 -41l41 -24
q72 -45 111 -45q57 0 109 86q14 28 43 12l126 -80q13 -8 16 -14.5t-3 -22.5q-38 -93 -113.5 -153t-165.5 -60q-88 0 -166 45l-32 19q-75 45 -109 45q-69 0 -115 -80q-14 -28 -43 -12l-133 71q-24 15 -12 37z" />
    <glyph glyph-name="utilde" unicode="&#x169;" horiz-adv-x="1267" 
d="M123 451v706q0 28 10.5 38.5t38.5 10.5h207q28 0 38.5 -10.5t10.5 -36.5v-692q0 -84 10 -127.5t35 -71.5q51 -55 156 -55q113 0 205 61v885q0 26 10.5 36.5t38.5 10.5h204q28 0 40 -11t12 -38v-860q0 -128 12 -260q3 -37 -33 -37h-190q-41 0 -47 27q-12 48 -15 67
q-54 -52 -135.5 -84.5t-175.5 -32.5q-215 0 -319 107q-113 113 -113 367zM193 1501q38 98 115 158.5t173 60.5q82 0 156 -45l41 -24q56 -35 102 -35q56 0 109 88q14 28 43 12l127 -80q13 -8 15.5 -14.5t-3.5 -22.5q-38 -95 -111.5 -156t-162.5 -61q-91 0 -160 41l-41 25
q-62 39 -100 39q-68 0 -115 -82q-14 -28 -43 -12l-133 71q-22 14 -12 37z" />
    <glyph glyph-name="Umacron" unicode="&#x16a;" horiz-adv-x="1396" 
d="M135 522v1039q0 34 37 34h248q37 0 37 -34v-1010q0 -155 52 -231t189 -76q134 0 191 73q51 63 51 234v1010q0 34 39 34h246q37 0 37 -34v-1039q0 -278 -140 -411.5t-424 -133.5q-290 0 -426.5 132.5t-136.5 412.5zM342 1839v166q0 29 29 29h655q29 0 29 -29v-166
q0 -29 -29 -29h-655q-29 0 -29 29z" />
    <glyph glyph-name="umacron" unicode="&#x16b;" horiz-adv-x="1267" 
d="M123 451v706q0 28 10.5 38.5t38.5 10.5h207q28 0 38.5 -10.5t10.5 -36.5v-692q0 -84 10 -127.5t35 -71.5q51 -55 156 -55q113 0 205 61v885q0 26 10.5 36.5t38.5 10.5h204q28 0 40 -11t12 -38v-860q0 -128 12 -260q3 -37 -33 -37h-190q-41 0 -47 27q-12 48 -15 67
q-54 -52 -135.5 -84.5t-175.5 -32.5q-215 0 -319 107q-113 113 -113 367zM276 1470v166q0 29 29 29h656q28 0 28 -29v-166q0 -28 -28 -28h-656q-29 0 -29 28z" />
    <glyph glyph-name="Ubreve" unicode="&#x16c;" horiz-adv-x="1396" 
d="M135 522v1039q0 34 37 34h248q37 0 37 -34v-1010q0 -155 52 -231t189 -76q134 0 191 73q51 63 51 234v1010q0 34 39 34h246q37 0 37 -34v-1039q0 -278 -140 -411.5t-424 -133.5q-290 0 -426.5 132.5t-136.5 412.5zM358 2060q0 23 23 23h166q17 0 20 -17q9 -48 42.5 -77
t86.5 -29q54 0 88 29t43 77q3 17 19 17h170q13 0 17.5 -5t4.5 -18q0 -129 -90.5 -210t-251.5 -81q-158 0 -248 81t-90 210z" />
    <glyph glyph-name="ubreve" unicode="&#x16d;" horiz-adv-x="1267" 
d="M123 451v706q0 28 10.5 38.5t38.5 10.5h207q28 0 38.5 -10.5t10.5 -36.5v-692q0 -84 10 -127.5t35 -71.5q51 -55 156 -55q113 0 205 61v885q0 26 10.5 36.5t38.5 10.5h204q28 0 40 -11t12 -38v-860q0 -128 12 -260q3 -37 -33 -37h-190q-41 0 -47 27q-12 48 -15 67
q-54 -52 -135.5 -84.5t-175.5 -32.5q-215 0 -319 107q-113 113 -113 367zM293 1692q0 12 4.5 17t17.5 5h166q18 0 21 -16q9 -48 42.5 -77.5t86.5 -29.5q54 0 88 29.5t43 77.5q3 16 18 16h170q13 0 18 -5t5 -17q0 -129 -90.5 -210t-251.5 -81q-158 0 -248 81t-90 210z" />
    <glyph glyph-name="Uring" unicode="&#x16e;" horiz-adv-x="1396" 
d="M135 522v1039q0 34 37 34h248q37 0 37 -34v-1010q0 -155 52 -231t189 -76q134 0 191 73q51 63 51 234v1010q0 34 39 34h246q37 0 37 -34v-1039q0 -278 -140 -411.5t-424 -133.5q-290 0 -426.5 132.5t-136.5 412.5zM446 1942q0 102 69 169.5t185 67.5q115 0 182.5 -67
t67.5 -170q0 -102 -67.5 -169t-182.5 -67q-116 0 -185 67.5t-69 168.5zM612 1942q0 -39 24 -64t64 -25t63 25t23 64q0 41 -23 65.5t-63 24.5q-41 0 -64.5 -25t-23.5 -65z" />
    <glyph glyph-name="uring" unicode="&#x16f;" horiz-adv-x="1267" 
d="M123 451v706q0 28 10.5 38.5t38.5 10.5h207q28 0 38.5 -10.5t10.5 -36.5v-692q0 -84 10 -127.5t35 -71.5q51 -55 156 -55q113 0 205 61v885q0 26 10.5 36.5t38.5 10.5h204q28 0 40 -11t12 -38v-860q0 -128 12 -260q3 -37 -33 -37h-190q-41 0 -47 27q-12 48 -15 67
q-54 -52 -135.5 -84.5t-175.5 -32.5q-215 0 -319 107q-113 113 -113 367zM381 1573q0 102 69 169.5t185 67.5q115 0 182.5 -67t67.5 -170q0 -102 -67.5 -169t-182.5 -67q-116 0 -185 67.5t-69 168.5zM547 1573q0 -39 23.5 -63.5t64.5 -24.5q40 0 63 24.5t23 63.5
q0 41 -23 65.5t-63 24.5q-41 0 -64.5 -25t-23.5 -65z" />
    <glyph glyph-name="Uhungarumlaut" unicode="&#x170;" horiz-adv-x="1396" 
d="M135 522v1039q0 34 37 34h248q37 0 37 -34v-1010q0 -155 52 -231t189 -76q134 0 191 73q51 63 51 234v1010q0 34 39 34h246q37 0 37 -34v-1039q0 -278 -140 -411.5t-424 -133.5q-290 0 -426.5 132.5t-136.5 412.5zM297.5 1747q-6.5 8 3.5 20l211 324q20 23 45 23h315
q14 0 18 -9.5t-5 -21.5l-283 -322q-17 -22 -61 -22h-215q-22 0 -28.5 8zM796.5 1744.5q-5.5 5.5 2.5 18.5l213 328q13 23 45 23h313q15 0 19 -9.5t-5 -21.5l-282 -322q-17 -22 -62 -22h-215q-23 0 -28.5 5.5z" />
    <glyph glyph-name="uhungarumlaut" unicode="&#x171;" horiz-adv-x="1267" 
d="M123 451v706q0 28 10.5 38.5t38.5 10.5h207q28 0 38.5 -10.5t10.5 -36.5v-692q0 -84 10 -127.5t35 -71.5q51 -55 156 -55q113 0 205 61v885q0 26 10.5 36.5t38.5 10.5h204q28 0 40 -11t12 -38v-860q0 -128 12 -260q3 -37 -33 -37h-190q-41 0 -47 27q-12 48 -15 67
q-54 -52 -135.5 -84.5t-175.5 -32.5q-215 0 -319 107q-113 113 -113 367zM246 1378.5q-6 8.5 4 20.5l211 323q20 23 45 23h315q14 0 18.5 -10.5t-5.5 -20.5l-283 -321q-23 -23 -62 -23h-215q-22 0 -28 8.5zM745.5 1376q-5.5 6 2.5 19l213 327q13 23 45 23h313q15 0 19 -9.5
t-5 -21.5l-282 -321q-18 -23 -62 -23h-215q-23 0 -28.5 6z" />
    <glyph glyph-name="Uogonek" unicode="&#x172;" horiz-adv-x="1396" 
d="M135 522v1039q0 34 37 34h248q37 0 37 -34v-1010q0 -155 52 -231t189 -76q134 0 191 73q51 63 51 234v1010q0 34 39 34h246q37 0 37 -34v-1039q0 -171 -50.5 -278.5t-144.5 -175.5q-113 -85 -156 -151t-43 -161q0 -67 31.5 -100t87.5 -33q38 0 78 8q14 3 21.5 -3t5.5 -17
l-19 -123q-3 -24 -29 -33q-58 -14 -124 -14q-133 0 -211 63t-78 199q0 74 27.5 149.5t68.5 124.5h-29q-290 0 -426.5 132.5t-136.5 412.5z" />
    <glyph glyph-name="uogonek" unicode="&#x173;" horiz-adv-x="1267" 
d="M123 451v706q0 28 10.5 38.5t38.5 10.5h207q28 0 38.5 -10.5t10.5 -36.5v-692q0 -84 10 -127.5t35 -71.5q51 -55 156 -55q113 0 205 61v885q0 26 10.5 36.5t38.5 10.5h204q28 0 40 -11t12 -38v-860q0 -128 12 -260q1 -17 -4 -25t-21 -14q-95 -43 -149.5 -107.5
t-54.5 -138.5q0 -129 131 -129q41 0 69 8q12 3 19 -2.5t6 -17.5l-19 -123q-3 -25 -28 -33q-47 -14 -119 -14q-138 0 -216.5 67t-78.5 187q0 197 197 325l-21 70q-54 -50 -135 -81.5t-172 -31.5q-215 0 -319 107q-113 113 -113 367z" />
    <glyph glyph-name="Wcircumflex" unicode="&#x174;" horiz-adv-x="1904" 
d="M35 1548q-3 26 7 36.5t38 10.5h209q35 0 48 -9.5t15 -33.5q58 -634 168 -1284h12l203 1202q4 30 22 43t54 13h283q67 0 75 -56l207 -1202h13q113 647 161 1284q2 23 16.5 33t49.5 10h207q33 0 41.5 -12.5t5.5 -42.5q-46 -382 -114.5 -799.5t-135.5 -681.5
q-14 -59 -92 -59h-285q-72 0 -80 55l-207 1159h-14l-194 -1159q-11 -55 -89 -55h-278q-71 0 -86 61q-71 277 -145 705.5t-115 781.5zM555.5 1818.5q-0.5 12.5 9.5 24.5l240 262q13 13 31 13h235q17 0 33 -13l231 -262q10 -12 9.5 -24.5t-11.5 -18.5l-141 -76
q-19 -9 -29.5 -7.5t-25.5 14.5l-181 176h-12l-180 -172q-15 -13 -26 -14t-29 8l-142 71q-11 6 -11.5 18.5z" />
    <glyph glyph-name="wcircumflex" unicode="&#x175;" horiz-adv-x="1767" 
d="M41 1169q-9 37 31 37h221q25 0 36.5 -6.5t14.5 -25.5q86 -583 162 -930h18l144 884q6 31 22 44.5t49 13.5h269q35 0 51 -13.5t22 -44.5l154 -884h18q80 380 158 930q3 19 15.5 25.5t37.5 6.5h232q39 0 30 -37q-111 -540 -266 -1112q-9 -33 -32 -45t-74 -12h-246
q-42 0 -61.5 14.5t-24.5 46.5l-145 842h-15l-131 -842q-4 -32 -28 -46.5t-72 -14.5h-248q-40 0 -61.5 14.5t-30.5 46.5q-99 352 -250 1108zM473.5 1441.5q-0.5 12.5 9.5 24.5l240 263q12 12 31 12h235q18 0 33 -12l231 -263q10 -12 9.5 -24.5t-11.5 -18.5l-141 -75
q-18 -9 -29 -8t-26 14l-181 176h-12l-180 -172q-15 -13 -26 -14t-29 8l-142 71q-11 6 -11.5 18.5z" />
    <glyph glyph-name="Ycircumflex" unicode="&#x176;" horiz-adv-x="1255" 
d="M35 1559q-5 15 2 25.5t24 10.5h238q23 0 34 -7.5t17 -26.5q118 -367 266 -736h15q156 399 262 734q6 21 18.5 28.5t38.5 7.5h240q42 0 29 -36q-178 -501 -437 -1006v-516q0 -18 -10.5 -27.5t-26.5 -9.5h-249q-35 0 -35 37v516q-262 520 -426 1006zM230.5 1818.5
q-0.5 12.5 9.5 24.5l239 262q13 13 31 13h235q17 0 33 -13l232 -262q10 -12 9.5 -24.5t-11.5 -18.5l-142 -76q-19 -9 -29.5 -7.5t-25.5 14.5l-180 176h-13l-180 -172q-15 -13 -26 -14t-29 8l-141 71q-11 6 -11.5 18.5z" />
    <glyph glyph-name="ycircumflex" unicode="&#x177;" horiz-adv-x="1163" 
d="M39 1167q-9 39 39 39h217q43 0 51 -35q101 -454 238 -944h14q129 486 215 936q4 26 18.5 34.5t49.5 8.5h202q51 0 39 -43q-182 -723 -334 -1177q-76 -228 -178 -324t-274 -96q-84 0 -146 16q-39 9 -45 37l-36 162q-5 20 2.5 29.5t27.5 5.5q73 -15 146 -15q188 0 237 164
l10 37h-73q-42 0 -63.5 14.5t-35.5 59.5q-188 574 -321 1091zM195.5 1441.5q-0.5 12.5 9.5 24.5l239 263q12 12 31 12h236q17 0 32 -12l232 -263q10 -12 9.5 -24.5t-11.5 -18.5l-142 -75q-18 -9 -29 -8t-26 14l-180 176h-12l-181 -172q-15 -13 -26 -14t-29 8l-141 71
q-11 6 -11.5 18.5z" />
    <glyph glyph-name="Ydieresis" unicode="&#x178;" horiz-adv-x="1255" 
d="M35 1559q-5 15 2 25.5t24 10.5h238q23 0 34 -7.5t17 -26.5q118 -367 266 -736h15q156 399 262 734q6 21 18.5 28.5t38.5 7.5h240q42 0 29 -36q-178 -501 -437 -1006v-516q0 -18 -10.5 -27.5t-26.5 -9.5h-249q-35 0 -35 37v516q-262 520 -426 1006zM238 1810v226
q0 45 53 45h198q29 0 43.5 -10t14.5 -35v-226q0 -45 -58 -45h-198q-53 0 -53 45zM707 1810v226q0 45 55 45h196q29 0 43.5 -10t14.5 -35v-226q0 -45 -58 -45h-196q-55 0 -55 45z" />
    <glyph glyph-name="Zacute" unicode="&#x179;" horiz-adv-x="1232" 
d="M63 49v76q0 36 5.5 57t23.5 49l684 1104h-631q-21 0 -28.5 7.5t-7.5 27.5v193q0 17 8 24.5t28 7.5h969q51 0 51 -47v-90q0 -33 -7 -56t-28 -59l-679 -1083h620q26 0 35.5 -11t5.5 -38l-31 -162q-11 -49 -63 -49h-903q-52 0 -52 49zM459 1746q-6 13 8 32l219 303
q26 33 66 33h270q23 0 30 -13t-8 -28l-264 -304q-33 -36 -84 -36h-207q-24 0 -30 13z" />
    <glyph glyph-name="zacute" unicode="&#x17a;" horiz-adv-x="1038" 
d="M66 39v117q0 52 36 100l523 715h-496q-22 0 -29.5 8t-7.5 31v164q0 18 8 25t29 7h807q37 0 37 -37v-141q0 -37 -21 -72l-536 -720h518q44 0 35 -43l-37 -154q-8 -39 -60 -39h-766q-23 0 -31.5 9t-8.5 30zM360.5 1378q-6.5 14 8.5 31l219 303q26 33 65 33h271q23 0 30 -13
t-8 -28l-264 -303q-34 -37 -84 -37h-207q-24 0 -30.5 14z" />
    <glyph glyph-name="Zdotaccent" unicode="&#x17b;" horiz-adv-x="1232" 
d="M63 49v76q0 36 5.5 57t23.5 49l684 1104h-631q-21 0 -28.5 7.5t-7.5 27.5v193q0 17 8 24.5t28 7.5h969q51 0 51 -47v-90q0 -33 -7 -56t-28 -59l-679 -1083h620q26 0 35.5 -11t5.5 -38l-31 -162q-11 -49 -63 -49h-903q-52 0 -52 49zM481 1825v227q0 45 56 45h198
q58 0 58 -45v-227q0 -45 -58 -45h-198q-56 0 -56 45z" />
    <glyph glyph-name="zdotaccent" unicode="&#x17c;" horiz-adv-x="1038" 
d="M66 39v117q0 52 36 100l523 715h-496q-22 0 -29.5 8t-7.5 31v164q0 18 8 25t29 7h807q37 0 37 -37v-141q0 -37 -21 -72l-536 -720h518q44 0 35 -43l-37 -154q-8 -39 -60 -39h-766q-23 0 -31.5 9t-8.5 30zM383 1456v227q0 46 55 46h199q57 0 57 -46v-227q0 -45 -57 -45
h-199q-55 0 -55 45z" />
    <glyph glyph-name="Zcaron" unicode="&#x17d;" horiz-adv-x="1232" 
d="M63 49v76q0 36 5.5 57t23.5 49l684 1104h-631q-21 0 -28.5 7.5t-7.5 27.5v193q0 17 8 24.5t28 7.5h969q51 0 51 -47v-90q0 -33 -7 -56t-28 -59l-679 -1083h620q26 0 35.5 -11t5.5 -38l-31 -162q-11 -49 -63 -49h-903q-52 0 -52 49zM269.5 2027.5q0.5 12.5 11.5 18.5
l141 72q19 9 29.5 7.5t25.5 -14.5l180 -172h13l180 177q15 13 26 14t29 -8l142 -76q11 -6 11.5 -18.5t-9.5 -24.5l-232 -262q-15 -12 -33 -12h-235q-19 0 -31 12l-239 262q-10 12 -9.5 24.5z" />
    <glyph glyph-name="zcaron" unicode="&#x17e;" horiz-adv-x="1038" 
d="M66 39v117q0 52 36 100l523 715h-496q-22 0 -29.5 8t-7.5 31v164q0 18 8 25t29 7h807q37 0 37 -37v-141q0 -37 -21 -72l-536 -720h518q44 0 35 -43l-37 -154q-8 -39 -60 -39h-766q-23 0 -31.5 9t-8.5 30zM148.5 1658.5q0.5 12.5 11.5 18.5l141 72q18 9 29 8t26 -14
l181 -172h12l180 176q15 13 26 14t29 -8l142 -76q11 -6 11.5 -18.5t-9.5 -24.5l-232 -262q-15 -12 -32 -12h-236q-19 0 -31 12l-239 262q-10 12 -9.5 24.5z" />
    <glyph glyph-name="longs" unicode="&#x17f;" horiz-adv-x="657" 
d="M4 997v183q0 26 31 26h182v121q0 91 32 158.5t91.5 108t137.5 60t177 19.5q101 0 179 -16q17 -3 22.5 -11t5.5 -26v-162q0 -34 -35 -28q-58 8 -133 8q-85 0 -127 -31q-45 -36 -45 -113v-1261q0 -33 -28 -33h-244q-33 0 -33 33v940h-184q-29 0 -29 24z" />
    <glyph glyph-name="florin" unicode="&#x192;" horiz-adv-x="1103" 
d="M-33 -197q-4 18 5.5 27.5t25.5 7.5q81 -12 111 -12q73 0 107 28t46 99l141 854h-176q-16 0 -24.5 6.5t-5.5 20.5l32 184q3 15 10.5 20.5t24.5 5.5h172l35 211q37 226 133.5 319t296.5 93q84 0 166 -20q26 -7 18 -33l-36 -154q-8 -37 -41 -30q-36 8 -82 8
q-66 0 -101.5 -40.5t-54.5 -154.5l-35 -199h223q14 0 21 -7t4 -19l-39 -184q-8 -27 -39 -27h-207l-139 -838q-32 -195 -115.5 -283.5t-234.5 -88.5q-94 0 -164 18q-19 5 -27.5 13.5t-13.5 27.5z" />
    <glyph glyph-name="Acaron" unicode="&#x1cd;" horiz-adv-x="1363" 
d="M43 39q271 1044 416 1497q17 59 88 59h266q42 0 61.5 -13.5t28.5 -45.5q169 -535 418 -1499q4 -20 -4 -28.5t-31 -8.5h-239q-51 0 -58 35q-7 33 -28.5 129t-32.5 149h-486q-15 -62 -61 -282q-7 -31 -49 -31h-254q-44 0 -35 39zM287.5 2027.5q0.5 12.5 11.5 18.5l141 72
q19 9 30 7.5t26 -14.5l180 -172h12l180 177q15 13 26.5 14t29.5 -8l141 -76q11 -6 11.5 -18.5t-9.5 -24.5l-231 -262q-15 -12 -33 -12h-236q-18 0 -30 12l-240 262q-10 12 -9.5 24.5zM496 565h374q-46 243 -182 770h-14q-140 -561 -178 -770z" />
    <glyph glyph-name="acaron" unicode="&#x1ce;" horiz-adv-x="1198" 
d="M82 350v19q0 100 29.5 170t89.5 110.5t141 58t193 17.5q113 0 235 -8v86q0 84 -41 125q-32 30 -78 42.5t-123 12.5q-131 0 -303 -41q-49 -13 -49 27v159q0 21 6.5 31.5t24.5 16.5q66 23 173.5 38t217.5 15q238 0 357.5 -95t119.5 -315v-522q0 -95 15 -260q3 -37 -33 -37
h-185q-38 0 -47 27q-7 17 -18 69q-39 -47 -127 -83t-184 -36q-195 0 -304.5 94.5t-109.5 278.5zM234.5 1658.5q0.5 12.5 11.5 18.5l141 72q18 9 29 8t26 -14l181 -172h12l180 176q15 13 26 14t29 -8l142 -76q11 -6 11.5 -18.5t-9.5 -24.5l-232 -262q-15 -12 -32 -12h-236
q-19 0 -31 12l-239 262q-10 12 -9.5 24.5zM389 350q0 -139 166 -139q60 0 118 24t97 60v203q-71 6 -192 6q-97 0 -143 -29.5t-46 -109.5v-15z" />
    <glyph glyph-name="Aringacute" unicode="&#x1fa;" horiz-adv-x="1363" 
d="M43 39q271 1044 416 1497q17 59 88 59h266q42 0 61.5 -13.5t28.5 -45.5q169 -535 418 -1499q4 -20 -4 -28.5t-31 -8.5h-239q-51 0 -58 35q-7 33 -28.5 129t-32.5 149h-486q-15 -62 -61 -282q-7 -31 -49 -31h-254q-44 0 -35 39zM428 1901q0 102 69 169.5t185 67.5
q115 0 182.5 -67t67.5 -170q0 -102 -67.5 -169t-182.5 -67q-116 0 -185 67.5t-69 168.5zM473.5 2215q-6.5 13 7.5 32l219 303q26 33 66 33h270q23 0 30.5 -13t-7.5 -28l-264 -304q-33 -36 -84 -36h-207q-24 0 -30.5 13zM496 565h374q-46 243 -182 770h-14
q-140 -561 -178 -770zM594 1901q0 -39 24 -64t64 -25t63 25t23 64q0 41 -23 65.5t-63 24.5q-41 0 -64.5 -25t-23.5 -65z" />
    <glyph glyph-name="aringacute" unicode="&#x1fb;" horiz-adv-x="1198" 
d="M82 350v19q0 100 29.5 170t89.5 110.5t141 58t193 17.5q113 0 235 -8v86q0 84 -41 125q-32 30 -78 42.5t-123 12.5q-131 0 -303 -41q-49 -13 -49 27v159q0 21 6.5 31.5t24.5 16.5q66 23 173.5 38t217.5 15q238 0 357.5 -95t119.5 -315v-522q0 -95 15 -260q3 -37 -33 -37
h-185q-38 0 -47 27q-7 17 -18 69q-39 -47 -127 -83t-184 -36q-195 0 -304.5 94.5t-109.5 278.5zM354 1552q0 102 69 170t185 68q115 0 182.5 -67.5t67.5 -170.5q0 -101 -67.5 -168t-182.5 -67q-116 0 -185 67t-69 168zM389 350q0 -139 166 -139q60 0 118 24t97 60v203
q-71 6 -192 6q-97 0 -143 -29.5t-46 -109.5v-15zM413.5 1874q-6.5 14 8.5 31l219 303q26 33 66 33h270q23 0 30 -13t-8 -28l-264 -304q-33 -36 -84 -36h-207q-24 0 -30.5 14zM520 1552q0 -39 23.5 -63.5t64.5 -24.5q40 0 63 24.5t23 63.5q0 41 -23 65.5t-63 24.5
q-41 0 -64.5 -25t-23.5 -65z" />
    <glyph glyph-name="AEacute" unicode="&#x1fc;" horiz-adv-x="1961" 
d="M39 39q335 819 692 1507q15 29 30.5 39t43.5 10h1028q20 0 29 -8.5t8 -27.5l-17 -181q-3 -35 -38 -35h-533v-407h485q38 0 35 -35l-20 -190q-3 -33 -41 -33h-459v-426h555q20 0 27.5 -8.5t5.5 -28.5l-17 -180q-2 -19 -10 -27t-28 -8h-809q-45 0 -45 45l-5 268h-460
q-15 -36 -115 -282q-10 -31 -49 -31h-258q-25 0 -34.5 11t-0.5 28zM600 565h361v789h-23q-59 -130 -338 -789zM1096 1746q-6 13 8 32l219 303q26 33 66 33h270q23 0 30 -13t-8 -28l-264 -304q-33 -36 -84 -36h-207q-24 0 -30 13z" />
    <glyph glyph-name="aeacute" unicode="&#x1fd;" horiz-adv-x="1890" 
d="M88 352v19q0 196 114.5 275t344.5 79q107 0 229 -8v86q0 104 -58 142t-183 38q-159 0 -302 -41q-24 -6 -38.5 0.5t-14.5 26.5v159q0 21 6 31t25 17q65 24 172.5 38.5t220.5 14.5t204.5 -29t139.5 -86q128 115 350 115q232 0 358 -125t126 -356v-199q0 -36 -14.5 -51
t-51.5 -15h-635v-59q6 -205 285 -205q183 0 305 37q31 10 44 0.5t7 -39.5l-24 -143q-4 -27 -16 -39.5t-37 -20.5q-141 -37 -285 -37q-313 0 -459 140q-93 -73 -184 -106.5t-197 -33.5q-208 0 -320 92.5t-112 282.5zM395 356q0 -75 41.5 -110t130.5 -35q66 0 130.5 22
t103.5 56q-25 80 -25 176v33q-71 6 -186 6q-100 0 -147.5 -28.5t-47.5 -108.5v-11zM829.5 1378q-6.5 14 8.5 31l219 303q26 33 65 33h271q23 0 30 -13t-8 -28l-264 -303q-34 -37 -84 -37h-207q-24 0 -30.5 14zM1081 705h396v69q0 232 -187 232q-99 0 -153.5 -56.5
t-55.5 -165.5v-79z" />
    <glyph glyph-name="Oslashacute" unicode="&#x1fe;" horiz-adv-x="1435" 
d="M131 510v575q0 260 158 396.5t430 136.5q149 0 270 -45l80 162q15 29 47 16l119 -51q35 -14 18 -47l-90 -185q144 -138 144 -383v-575q0 -261 -155.5 -397t-432.5 -136q-150 0 -268 41l-72 -147q-7 -17 -18 -20.5t-31 4.5l-117 45q-34 15 -18 47l84 172
q-148 142 -148 391zM453 543q0 -44 2 -62l411 838q-56 33 -147 33q-140 0 -203 -73.5t-63 -225.5v-510zM547.5 1746q-6.5 13 7.5 32l219 303q26 33 66 33h270q23 0 30.5 -13t-7.5 -28l-265 -304q-33 -36 -84 -36h-206q-24 0 -30.5 13zM575 272q55 -28 144 -28
q138 0 202 75.5t64 223.5v510q0 8 -1 25t-1 24z" />
    <glyph glyph-name="oslashacute" unicode="&#x1ff;" horiz-adv-x="1273" 
d="M78 -14l115 164q-80 113 -80 288v332q0 459 524 459q163 0 281 -47l86 123q19 33 55 16l108 -66q34 -16 17 -49l-105 -145q82 -107 82 -291v-332q0 -234 -134 -347.5t-390 -113.5q-167 0 -293 52l-96 -138q-19 -32 -55 -10l-101 56q-32 19 -14 49zM418 469l346 494
q-49 24 -127 24q-124 0 -171.5 -58.5t-47.5 -197.5v-262zM460.5 1378q-6.5 14 8.5 31l219 303q26 33 66 33h270q23 0 30.5 -13t-7.5 -28l-265 -303q-34 -37 -84 -37h-206q-25 0 -31.5 14zM504 252q54 -33 133 -33q120 0 169.5 66t49.5 190v273z" />
    <glyph glyph-name="Scommaaccent" unicode="&#x218;" horiz-adv-x="1153" 
d="M90 291q-3 22 11 28.5t40 -4.5q67 -29 163 -50t179 -21q133 0 203 50.5t70 143.5v11q0 85 -46 139t-161 94l-98 35q-336 119 -336 450v15q0 212 148 324t394 112q154 0 279 -39q26 -8 33.5 -20.5t7.5 -36.5v-164q0 -48 -62 -35q-131 29 -245 29q-240 0 -240 -174v-9
q0 -84 40 -132.5t136 -82.5l109 -41q186 -69 268 -173t82 -273v-21q0 -215 -146 -342t-403 -127q-84 0 -178 14.5t-160 37.5q-26 8 -35 20t-14 35zM442 -596q33 125 33 270v115q0 25 11.5 36t37.5 11h156q26 0 37.5 -11t11.5 -36v-80q0 -167 -70 -307q-17 -39 -59 -39h-125
q-44 0 -33 41z" />
    <glyph glyph-name="scommaaccent" unicode="&#x219;" horiz-adv-x="1021" 
d="M88 242q-4 22 11.5 32t35.5 2q68 -27 154.5 -45t154.5 -18q197 0 197 125v10q0 48 -24 78.5t-95 52.5l-112 33q-299 86 -299 358v19q0 109 62.5 187.5t164 115.5t229.5 37q146 0 271 -37q30 -9 30 -37v-164q0 -44 -55 -28q-113 30 -225 30q-178 0 -178 -108v-8
q0 -49 29.5 -81.5t103.5 -54.5l102 -30q158 -48 224.5 -129.5t66.5 -208.5v-19q0 -175 -120.5 -276t-344.5 -101q-176 0 -303 46q-44 14 -51 49zM352 -596q33 125 33 270v115q0 25 11.5 36t37.5 11h156q26 0 37.5 -11t11.5 -36v-80q0 -167 -70 -307q-17 -39 -59 -39h-125
q-44 0 -33 41z" />
    <glyph glyph-name="uni021A" unicode="&#x21a;" horiz-adv-x="1181" 
d="M45 1370v191q0 34 37 34h1018q21 0 29.5 -7.5t5.5 -26.5l-29 -191q-3 -20 -12 -27.5t-31 -7.5h-311v-1300q0 -35 -37 -35h-250q-35 0 -35 35v1300h-348q-16 0 -26.5 9t-10.5 26zM430 -596q33 125 33 270v115q0 25 11.5 36t37.5 11h156q26 0 37.5 -11t11.5 -36v-80
q0 -167 -70 -307q-17 -39 -59 -39h-125q-44 0 -33 41z" />
    <glyph glyph-name="uni021B" unicode="&#x21b;" horiz-adv-x="923" 
d="M16 1006v174q0 12 8.5 19t22.5 7h180v256q0 18 5.5 26.5t23.5 12.5l238 43q38 6 38 -24v-314h312q17 0 25.5 -11t4.5 -30l-28 -168q-5 -24 -33 -24h-281v-563q0 -105 35.5 -150t110.5 -45q84 0 158 16q25 6 37 -5t8 -38l-31 -137q-5 -23 -13.5 -34t-27.5 -17
q-75 -23 -191 -23q-210 0 -300.5 100.5t-90.5 309.5v586h-178q-15 0 -24 9t-9 24zM336 -596q33 125 33 270v115q0 25 11.5 36t37.5 11h155q50 0 50 -47v-80q0 -167 -70 -307q-17 -39 -59 -39h-125q-44 0 -33 41z" />
    <glyph glyph-name="circumflex" unicode="&#x2c6;" horiz-adv-x="868" 
d="M39.5 1441.5q-0.5 12.5 9.5 24.5l240 263q12 12 30 12h236q18 0 33 -12l231 -263q10 -12 9.5 -24.5t-11.5 -18.5l-141 -75q-18 -9 -29 -8t-26 14l-181 176h-12l-180 -172q-15 -13 -26 -14t-29 8l-142 71q-11 6 -11.5 18.5z" />
    <glyph glyph-name="caron" unicode="&#x2c7;" horiz-adv-x="868" 
d="M39.5 1658.5q0.5 12.5 11.5 18.5l142 72q18 9 29 8t26 -14l180 -172h12l181 176q15 13 26 14t29 -8l141 -76q11 -6 11.5 -18.5t-9.5 -24.5l-231 -262q-15 -12 -33 -12h-236q-18 0 -30 12l-240 262q-10 12 -9.5 24.5z" />
    <glyph glyph-name="breve" unicode="&#x2d8;" horiz-adv-x="868" 
d="M94 1692q0 12 5 17t18 5h166q10 0 14 -3.5t6 -12.5q9 -48 42.5 -77.5t86.5 -29.5q54 0 88 29.5t43 77.5q3 16 19 16h170q13 0 17.5 -5t4.5 -17q0 -129 -90.5 -210t-251.5 -81q-158 0 -248 81t-90 210z" />
    <glyph glyph-name="dotaccent" unicode="&#x2d9;" horiz-adv-x="868" 
d="M279 1456v227q0 46 55 46h198q58 0 58 -46v-227q0 -45 -58 -45h-198q-55 0 -55 45z" />
    <glyph glyph-name="ring" unicode="&#x2da;" horiz-adv-x="868" 
d="M182 1573q0 102 69 169.5t185 67.5q115 0 182.5 -67t67.5 -170q0 -102 -67.5 -169t-182.5 -67q-116 0 -185 67.5t-69 168.5zM348 1573q0 -39 23.5 -63.5t64.5 -24.5q40 0 63 24.5t23 63.5q0 41 -23 65.5t-63 24.5q-41 0 -64.5 -25t-23.5 -65z" />
    <glyph glyph-name="ogonek" unicode="&#x2db;" horiz-adv-x="868" 
d="M203 -344q0 91 66.5 184.5t170.5 145.5q25 14 52 14h159q17 0 17 -14q0 -13 -21 -25q-87 -51 -138.5 -118t-51.5 -136q0 -84 86 -84q38 0 78 8q14 3 21 -3t5 -17l-18 -123q-3 -24 -29 -33q-58 -14 -129 -14q-268 0 -268 215z" />
    <glyph glyph-name="tilde" unicode="&#x2dc;" horiz-adv-x="868" 
d="M-4 1501q38 98 115.5 158.5t173.5 60.5q81 0 155 -45l41 -24q56 -35 103 -35q55 0 108 88q14 28 43 12l127 -80q13 -8 15.5 -14.5t-3.5 -22.5q-38 -95 -111.5 -156t-162.5 -61q-91 0 -160 41l-41 25q-62 39 -100 39q-68 0 -115 -82q-14 -28 -43 -12l-133 71
q-22 14 -12 37z" />
    <glyph glyph-name="hungarumlaut" unicode="&#x2dd;" horiz-adv-x="868" 
d="M-18 1378.5q-6 8.5 4 20.5l211 323q20 23 45 23h315q14 0 18 -10.5t-6 -20.5l-282 -321q-23 -23 -62 -23h-215q-22 0 -28 8.5zM481 1376q-6 6 2 19l213 327q13 23 45 23h314q15 0 19 -9.5t-5 -21.5l-283 -321q-18 -23 -61 -23h-215q-23 0 -29 6z" />
    <glyph glyph-name="commaaccent" unicode="&#x326;" horiz-adv-x="868" 
d="M295 -596q33 125 33 270v115q0 25 11.5 36t37.5 11h155q50 0 50 -47v-80q0 -167 -70 -307q-17 -39 -59 -39h-125q-44 0 -33 41z" />
    <glyph glyph-name="Delta" unicode="&#x394;" horiz-adv-x="1585" 
d="M29 160q0 41 26 100l531 1286q18 49 63 49h287q24 0 38 -11.5t25 -37.5l531 -1286q26 -62 26 -102q0 -26 -45 -101q-20 -31 -44 -44t-74 -13h-1200q-50 0 -74.5 13t-44.5 44q-45 75 -45 103zM412 268h755l-360 957h-27z" />
    <glyph glyph-name="Omega" unicode="&#x3a9;" horiz-adv-x="1658" 
d="M86 860v31q0 169 58 307t159 229t238.5 140t296.5 49q212 0 376 -83.5t257.5 -244.5t93.5 -377v-30q0 -173 -81 -351t-210 -278h250q23 0 33 -8t6 -27l-52 -176q-6 -23 -15.5 -32t-33.5 -9h-469q-37 0 -50 11t-13 42v109q0 49 53 96q127 114 193.5 275t66.5 333v19
q0 483 -405 483q-199 0 -314.5 -117t-115.5 -366v-19q0 -159 79.5 -321t202.5 -287q51 -51 51 -96v-109q0 -31 -12.5 -42t-48.5 -11h-469q-24 0 -33.5 9t-15.5 32l-47 176q-8 35 39 35h231q-134 105 -216.5 267t-82.5 341z" />
    <glyph glyph-name="mu" unicode="&#x3bc;" horiz-adv-x="1204" 
d="M98 -375v1532q0 28 10.5 38.5t38.5 10.5h207q28 0 38.5 -10.5t10.5 -36.5v-719q0 -113 47 -167t152 -54q106 0 154 60q53 63 53 194v686q0 26 10.5 36.5t40.5 10.5h201q53 0 53 -47v-723q0 -226 -120.5 -342.5t-340.5 -116.5q-154 0 -252 66v-383q0 -24 -6 -34t-28 -13
l-228 -27q-22 -3 -31.5 6.5t-9.5 32.5z" />
    <glyph glyph-name="pi" unicode="&#x3c0;" horiz-adv-x="1523" 
d="M39 1030v141q0 35 37 35h1368q22 0 30 -7.5t5 -27.5l-31 -141q-3 -20 -10.5 -27.5t-26.5 -7.5h-192v-641q0 -68 24.5 -98.5t85.5 -30.5q49 0 103 13q18 5 27.5 -6t2.5 -31l-41 -158q-13 -40 -54.5 -53t-119.5 -13q-334 0 -334 340v678h-348v-960q0 -35 -35 -35h-235
q-35 0 -35 35v960h-184q-16 0 -26.5 9t-10.5 26z" />
    <glyph glyph-name="Wgrave" unicode="&#x1e80;" horiz-adv-x="1904" 
d="M35 1548q-3 26 7 36.5t38 10.5h209q35 0 48 -9.5t15 -33.5q58 -634 168 -1284h12l203 1202q4 30 22 43t54 13h283q67 0 75 -56l207 -1202h13q113 647 161 1284q2 23 16.5 33t49.5 10h207q33 0 41.5 -12.5t5.5 -42.5q-46 -382 -114.5 -799.5t-135.5 -681.5
q-14 -59 -92 -59h-285q-72 0 -80 55l-207 1159h-14l-194 -1159q-11 -55 -89 -55h-278q-71 0 -86 61q-71 277 -145 705.5t-115 781.5zM492 2101q7 13 30 13h271q39 0 65 -33l219 -303q14 -19 8 -32t-30 -13h-207q-51 0 -84 36l-264 304q-15 15 -8 28z" />
    <glyph glyph-name="wgrave" unicode="&#x1e81;" horiz-adv-x="1767" 
d="M41 1169q-9 37 31 37h221q25 0 36.5 -6.5t14.5 -25.5q86 -583 162 -930h18l144 884q6 31 22 44.5t49 13.5h269q35 0 51 -13.5t22 -44.5l154 -884h18q80 380 158 930q3 19 15.5 25.5t37.5 6.5h232q39 0 30 -37q-111 -540 -266 -1112q-9 -33 -32 -45t-74 -12h-246
q-42 0 -61.5 14.5t-24.5 46.5l-145 842h-15l-131 -842q-4 -32 -28 -46.5t-72 -14.5h-248q-40 0 -61.5 14.5t-30.5 46.5q-99 352 -250 1108zM402 1732q7 13 30 13h270q40 0 66 -33l219 -303q15 -17 8.5 -31t-30.5 -14h-207q-50 0 -84 37l-264 303q-15 15 -8 28z" />
    <glyph glyph-name="Wacute" unicode="&#x1e82;" horiz-adv-x="1904" 
d="M35 1548q-3 26 7 36.5t38 10.5h209q35 0 48 -9.5t15 -33.5q58 -634 168 -1284h12l203 1202q4 30 22 43t54 13h283q67 0 75 -56l207 -1202h13q113 647 161 1284q2 23 16.5 33t49.5 10h207q33 0 41.5 -12.5t5.5 -42.5q-46 -382 -114.5 -799.5t-135.5 -681.5
q-14 -59 -92 -59h-285q-72 0 -80 55l-207 1159h-14l-194 -1159q-11 -55 -89 -55h-278q-71 0 -86 61q-71 277 -145 705.5t-115 781.5zM813.5 1746q-6.5 13 7.5 32l219 303q26 33 66 33h270q23 0 30.5 -13t-7.5 -28l-264 -304q-33 -36 -84 -36h-207q-24 0 -30.5 13z" />
    <glyph glyph-name="wacute" unicode="&#x1e83;" horiz-adv-x="1767" 
d="M41 1169q-9 37 31 37h221q25 0 36.5 -6.5t14.5 -25.5q86 -583 162 -930h18l144 884q6 31 22 44.5t49 13.5h269q35 0 51 -13.5t22 -44.5l154 -884h18q80 380 158 930q3 19 15.5 25.5t37.5 6.5h232q39 0 30 -37q-111 -540 -266 -1112q-9 -33 -32 -45t-74 -12h-246
q-42 0 -61.5 14.5t-24.5 46.5l-145 842h-15l-131 -842q-4 -32 -28 -46.5t-72 -14.5h-248q-40 0 -61.5 14.5t-30.5 46.5q-99 352 -250 1108zM726.5 1378q-6.5 14 8.5 31l219 303q26 33 66 33h270q23 0 30.5 -13t-7.5 -28l-264 -303q-34 -37 -84 -37h-207q-25 0 -31.5 14z" />
    <glyph glyph-name="Wdieresis" unicode="&#x1e84;" horiz-adv-x="1904" 
d="M35 1548q-3 26 7 36.5t38 10.5h209q35 0 48 -9.5t15 -33.5q58 -634 168 -1284h12l203 1202q4 30 22 43t54 13h283q67 0 75 -56l207 -1202h13q113 647 161 1284q2 23 16.5 33t49.5 10h207q33 0 41.5 -12.5t5.5 -42.5q-46 -382 -114.5 -799.5t-135.5 -681.5
q-14 -59 -92 -59h-285q-72 0 -80 55l-207 1159h-14l-194 -1159q-11 -55 -89 -55h-278q-71 0 -86 61q-71 277 -145 705.5t-115 781.5zM561 1810v226q0 45 53 45h199q29 0 43 -10t14 -35v-226q0 -45 -57 -45h-199q-53 0 -53 45zM1030 1810v226q0 45 55 45h197q29 0 43 -10
t14 -35v-226q0 -45 -57 -45h-197q-55 0 -55 45z" />
    <glyph glyph-name="wdieresis" unicode="&#x1e85;" horiz-adv-x="1767" 
d="M41 1169q-9 37 31 37h221q25 0 36.5 -6.5t14.5 -25.5q86 -583 162 -930h18l144 884q6 31 22 44.5t49 13.5h269q35 0 51 -13.5t22 -44.5l154 -884h18q80 380 158 930q3 19 15.5 25.5t37.5 6.5h232q39 0 30 -37q-111 -540 -266 -1112q-9 -33 -32 -45t-74 -12h-246
q-42 0 -61.5 14.5t-24.5 46.5l-145 842h-15l-131 -842q-4 -32 -28 -46.5t-72 -14.5h-248q-40 0 -61.5 14.5t-30.5 46.5q-99 352 -250 1108zM479 1452v225q0 45 53 45h199q29 0 43 -10t14 -35v-225q0 -45 -57 -45h-199q-53 0 -53 45zM948 1452v225q0 45 56 45h196
q29 0 43 -10t14 -35v-225q0 -45 -57 -45h-196q-56 0 -56 45z" />
    <glyph glyph-name="Ygrave" unicode="&#x1ef2;" horiz-adv-x="1255" 
d="M35 1559q-5 15 2 25.5t24 10.5h238q23 0 34 -7.5t17 -26.5q118 -367 266 -736h15q156 399 262 734q6 21 18.5 28.5t38.5 7.5h240q42 0 29 -36q-178 -501 -437 -1006v-516q0 -18 -10.5 -27.5t-26.5 -9.5h-249q-35 0 -35 37v516q-262 520 -426 1006zM187 2101q7 13 30 13
h270q40 0 66 -33l219 -303q14 -19 8 -32t-30 -13h-207q-51 0 -84 36l-264 304q-15 15 -8 28z" />
    <glyph glyph-name="ygrave" unicode="&#x1ef3;" horiz-adv-x="1163" 
d="M39 1167q-9 39 39 39h217q43 0 51 -35q101 -454 238 -944h14q129 486 215 936q4 26 18.5 34.5t49.5 8.5h202q51 0 39 -43q-182 -723 -334 -1177q-76 -228 -178 -324t-274 -96q-84 0 -146 16q-39 9 -45 37l-36 162q-5 20 2.5 29.5t27.5 5.5q73 -15 146 -15q188 0 237 164
l10 37h-73q-42 0 -63.5 14.5t-35.5 59.5q-188 574 -321 1091zM142 1732q7 13 30 13h270q40 0 66 -33l219 -303q15 -17 8.5 -31t-30.5 -14h-207q-50 0 -84 37l-264 303q-15 15 -8 28z" />
    <glyph glyph-name="endash" unicode="&#x2013;" horiz-adv-x="1024" 
d="M0 621v219q0 26 29 26h968q27 0 27 -26v-219q0 -27 -27 -27h-968q-29 0 -29 27z" />
    <glyph glyph-name="emdash" unicode="&#x2014;" horiz-adv-x="2158" 
d="M4 621v219q0 26 29 26h2093q28 0 28 -26v-219q0 -27 -28 -27h-2093q-29 0 -29 27z" />
    <glyph glyph-name="quoteleft" unicode="&#x2018;" horiz-adv-x="493" 
d="M86 1239v178q0 78 22.5 179.5t53.5 168.5q18 39 63 39h146q27 0 36 -10.5t3 -36.5q-37 -142 -37 -342v-176q0 -47 -56 -47h-172q-59 0 -59 47z" />
    <glyph glyph-name="quoteright" unicode="&#x2019;" horiz-adv-x="493" 
d="M76 1239q37 142 37 342v176q0 47 55 47h172q59 0 59 -47v-178q0 -79 -22 -180t-53 -168q-18 -39 -64 -39h-145q-27 0 -36 10.5t-3 36.5z" />
    <glyph glyph-name="quotesinglbase" unicode="&#x201a;" horiz-adv-x="493" 
d="M76 -276q37 142 37 342v176q0 47 55 47h172q59 0 59 -47v-179q0 -79 -22 -180t-53 -168q-18 -39 -64 -39h-145q-27 0 -36 11t-3 37z" />
    <glyph glyph-name="quotedblleft" unicode="&#x201c;" horiz-adv-x="942" 
d="M86 1239v178q0 78 22.5 179.5t53.5 168.5q18 39 63 39h146q27 0 36 -10.5t3 -36.5q-37 -142 -37 -342v-176q0 -47 -56 -47h-172q-59 0 -59 47zM535 1239v178q0 79 22 180t53 168q18 39 64 39h145q27 0 36 -10.5t3 -36.5q-37 -142 -37 -342v-176q0 -47 -55 -47h-172
q-59 0 -59 47z" />
    <glyph glyph-name="quotedblright" unicode="&#x201d;" horiz-adv-x="942" 
d="M94 1239q37 142 37 342v176q0 47 55 47h172q60 0 60 -47v-178q0 -78 -22.5 -179.5t-53.5 -168.5q-18 -39 -63 -39h-146q-27 0 -36 10.5t-3 36.5zM541 1239q37 142 37 342v176q0 47 55 47h172q59 0 59 -47v-178q0 -78 -22.5 -179.5t-53.5 -168.5q-18 -39 -63 -39h-145
q-27 0 -36 10.5t-3 36.5z" />
    <glyph glyph-name="quotedblbase" unicode="&#x201e;" horiz-adv-x="942" 
d="M76 -276q37 142 37 342v176q0 47 55 47h172q59 0 59 -47v-179q0 -79 -22 -180t-53 -168q-18 -39 -64 -39h-145q-27 0 -36 11t-3 37zM522 -276q37 142 37 342v176q0 47 55 47h172q60 0 60 -47v-179q0 -78 -22.5 -179.5t-53.5 -168.5q-18 -39 -63 -39h-146q-27 0 -36 11
t-3 37z" />
    <glyph glyph-name="dagger" unicode="&#x2020;" horiz-adv-x="1128" 
d="M68 844v213q0 25 11 38t36 9l297 -21l-13 467q-3 47 45 47h240q48 0 45 -47l-12 -467l297 21q25 4 36 -9t11 -38v-213q0 -25 -11 -37.5t-36 -9.5l-297 12l12 -1163q0 -24 -10 -35.5t-35 -11.5h-240q-25 0 -35 11.5t-10 35.5l13 1163l-297 -12q-25 -3 -36 9.5t-11 37.5z
" />
    <glyph glyph-name="daggerdbl" unicode="&#x2021;" horiz-adv-x="1128" 
d="M68 80v213q0 25 11 37.5t36 9.5l305 -16q-33 237 -33 276q0 29 33 274l-305 -16q-25 -3 -36 9.5t-11 37.5v213q0 25 11 38t36 9l297 -20l-13 405q-3 47 45 47h240q48 0 45 -47l-12 -405l297 20q25 4 36 -9t11 -38v-213q0 -25 -11 -37.5t-36 -9.5l-305 16q32 -238 32 -274
q0 -46 -32 -276l305 16q25 3 36 -9.5t11 -37.5v-213q0 -25 -11 -38t-36 -9l-297 20l12 -405q3 -47 -45 -47h-240q-48 0 -45 47l13 405l-297 -20q-25 -4 -36 9t-11 38z" />
    <glyph glyph-name="bullet" unicode="&#x2022;" horiz-adv-x="974" 
d="M96 678q0 87 32.5 159.5t87 118.5t124.5 71.5t147 25.5t147 -25.5t125 -71.5t87.5 -118.5t32.5 -159.5q0 -111 -56 -198.5t-144.5 -132t-191.5 -44.5q-76 0 -146.5 26.5t-125 74t-87 119t-32.5 155.5z" />
    <glyph glyph-name="ellipsis" unicode="&#x2026;" horiz-adv-x="1699" 
d="M137 41v207q0 41 49 41h199q49 0 49 -41v-207q0 -41 -49 -41h-199q-49 0 -49 41zM702 41v207q0 41 48 41h198q49 0 49 -41v-207q0 -41 -49 -41h-198q-48 0 -48 41zM1266 41v207q0 41 47 41h198q52 0 52 -41v-207q0 -41 -52 -41h-198q-47 0 -47 41z" />
    <glyph glyph-name="perthousand" unicode="&#x2030;" horiz-adv-x="2977" 
d="M80 1044v205q0 369 383 369q184 0 284.5 -90t100.5 -279v-205q0 -189 -100.5 -278.5t-284.5 -89.5q-383 0 -383 368zM332 1051q0 -41 4 -67t16.5 -51.5t40 -37.5t70.5 -12q77 0 105 41t28 127v190q0 40 -4 66t-17 51.5t-40.5 38t-71.5 12.5q-75 0 -103 -41t-28 -127v-190
zM559 37l672 1530q6 19 15 24.5t32 5.5h207q23 0 30 -8t1 -28l-668 -1530q-6 -19 -15 -25t-32 -6h-211q-23 0 -30 8.5t-1 28.5zM1237 346v205q0 369 383 369q182 0 283.5 -90.5t101.5 -278.5v-205q0 -188 -101.5 -278.5t-283.5 -90.5q-383 0 -383 369zM1489 352q0 -41 4 -67
t16.5 -51.5t40 -37.5t70.5 -12q77 0 105 41t28 127v191q0 40 -4 66t-17 51.5t-40.5 38t-71.5 12.5q-75 0 -103 -41t-28 -127v-191zM2130 346v205q0 369 383 369q182 0 283.5 -90.5t101.5 -278.5v-205q0 -188 -101.5 -278.5t-283.5 -90.5q-383 0 -383 369zM2382 352
q0 -41 4 -67t16.5 -51.5t40 -37.5t70.5 -12q75 0 104 41.5t29 126.5v191q0 40 -4 66t-17 51.5t-40.5 38t-71.5 12.5q-77 0 -104 -40.5t-27 -127.5v-191z" />
    <glyph glyph-name="guilsinglleft" unicode="&#x2039;" horiz-adv-x="804" 
d="M51 647v53q0 21 27 43l463 387q22 16 41 -6l145 -129q16 -21 -2 -39l-319 -280l325 -281q18 -18 2 -39l-153 -123q-19 -22 -41 -6l-467 377q-21 18 -21 43z" />
    <glyph glyph-name="guilsinglright" unicode="&#x203a;" horiz-adv-x="804" 
d="M72 356q-16 21 2 39l325 281l-319 280q-18 18 -2 39l145 129q19 22 41 6l463 -387q27 -22 27 -43v-53q0 -25 -21 -43l-467 -377q-22 -16 -41 6z" />
    <glyph glyph-name="fraction" unicode="&#x2044;" horiz-adv-x="692" 
d="M-131 37l670 1530q8 19 17 24.5t32 5.5h205q23 0 29.5 -8t0.5 -28l-665 -1530q-8 -19 -17 -25t-32 -6h-209q-23 0 -30 8.5t-1 28.5z" />
    <glyph glyph-name="Euro" unicode="&#x20ac;" horiz-adv-x="1341" 
d="M66 883v174q0 17 9 23.5t31 6.5h150q7 264 161.5 397.5t434.5 133.5q220 0 356 -43q21 -7 28 -19t7 -36v-162q0 -27 -12.5 -34t-46.5 1q-139 27 -289 27q-152 0 -225 -63.5t-84 -201.5h377q18 0 25.5 -6.5t4.5 -23.5l-37 -174q-5 -29 -41 -29h-331v-152h379
q18 0 25.5 -6.5t4.5 -23.5l-37 -172q-5 -27 -41 -27h-325q16 -122 88.5 -175.5t218.5 -53.5q184 0 324 45q18 5 33.5 -4t11.5 -33l-33 -178q-5 -26 -15 -39t-32 -19q-139 -39 -342 -39q-310 0 -451 132q-122 111 -137 364h-139q-41 0 -41 27v172q0 30 41 30h139v152h-150
q-40 0 -40 29z" />
    <glyph glyph-name="litre" unicode="&#x2113;" horiz-adv-x="1167" 
d="M31 389v162q0 44 32 49q97 16 195 45v524q0 212 114 330.5t310 118.5q186 0 295.5 -114t109.5 -306v-27q0 -487 -454 -655l-68 -24v-64q0 -63 11.5 -103.5t37 -62t58.5 -29.5t84 -8q62 0 133 23q20 8 32.5 2t12.5 -25q0 -12 -14 -67l-23 -103q-10 -33 -53 -49
q-89 -29 -195 -29q-94 0 -177 26.5t-126 72.5q-50 55 -69 110.5t-19 163.5v43q-36 -13 -96.5 -26t-91.5 -13q-39 0 -39 35zM565 748l25 10q95 41 142.5 143t47.5 244v14q0 215 -100 215q-115 0 -115 -241v-385z" />
    <glyph glyph-name="numero" unicode="&#x2116;" horiz-adv-x="2215" 
d="M141 35v1526q0 34 33 34h178q52 0 70 -43l592 -1001h10l-23 209v801q0 19 7.5 26.5t25.5 7.5h213q20 0 28.5 -7.5t8.5 -26.5v-1526q0 -35 -39 -35h-158q-60 0 -79 43l-592 1008h-10l18 -168v-848q0 -35 -35 -35h-215q-33 0 -33 35zM1446 598v123q0 159 84 238t256 79
q340 0 340 -317v-123q0 -155 -84 -230t-256 -75q-173 0 -256.5 75t-83.5 230zM1464 27v147q0 27 27 27h577q27 0 27 -27v-147q0 -27 -27 -27h-577q-27 0 -27 27zM1683 625q0 -91 21 -124.5t82 -33.5q60 0 81 33.5t21 124.5v82q0 89 -21 123t-81 34t-81.5 -34.5t-21.5 -122.5
v-82z" />
    <glyph glyph-name="trademark" unicode="&#x2122;" horiz-adv-x="1591" 
d="M37 1442v139q0 23 18 23h584q26 0 20 -23l-30 -139q-3 -14 -8 -18.5t-15 -4.5h-149v-452q0 -19 -23 -19h-188q-23 0 -23 19v452h-168q-18 0 -18 23zM725 973q8 390 27 608q2 13 6.5 18t17.5 5h172q24 0 39 -21l141 -252h11l141 252q15 21 39 21h162q13 0 17.5 -5t6.5 -18
q24 -277 31 -608q0 -25 -27 -25h-172q-28 0 -28 25q-3 139 -13 317h-6l-96 -160q-15 -24 -37 -24h-51q-25 0 -41 24l-98 160h-6q-6 -154 -9 -317q0 -25 -28 -25h-172q-27 0 -27 25z" />
    <glyph glyph-name="estimated" unicode="&#x212e;" horiz-adv-x="1832" 
d="M47 711q0 152 69.5 290.5t187 238t278.5 158t338 58.5q175 0 335 -58.5t276.5 -158t185.5 -238t69 -290.5v-19h-1411q-8 0 -8 -10v-406q0 -30 22 -47q99 -101 239 -160t294 -59q164 0 310 66.5t245 179.5h129q-126 -133 -304.5 -211t-381.5 -78q-236 0 -437 99.5
t-318.5 271t-117.5 373.5zM367 745q0 -10 8 -10h1081q10 0 10 10v410q0 31 -24 49q-106 95 -240 152t-280 57q-149 0 -294 -60.5t-237 -146.5q-24 -18 -24 -61v-400z" />
    <glyph glyph-name="arrowleft" unicode="&#x2190;" horiz-adv-x="1398" 
d="M94 594v24q0 14 6 24.5t31 35.5l377 377q8 10 23 1.5t55 -48.5l14 -15q21 -20 33 -34t16.5 -22.5t4 -13t-4.5 -8.5l-205 -198h836q6 0 9.5 -2t7 -7.5t5 -17t2.5 -29.5t1 -45v-20q0 -34 -1.5 -54t-4.5 -30t-7.5 -13t-11.5 -3h-836l205 -199q10 -10 -5.5 -30t-57.5 -62
q-40 -40 -55 -48.5t-23 1.5l-377 377q-25 25 -31 35t-6 24z" />
    <glyph glyph-name="arrowup" unicode="&#x2191;" horiz-adv-x="1398" 
d="M248.5 794q-8.5 15 1.5 23l377 377q25 25 35 31t24 6h25q14 0 24 -6t35 -31l377 -377q10 -8 1.5 -23t-48.5 -55l-15 -14q-27 -28 -42.5 -40.5t-22.5 -13t-12 4.5l-199 205v-856q0 -7 -3 -11.5t-13.5 -7.5t-30 -4.5t-53.5 -1.5h-21q-34 0 -54 1.5t-30 4.5t-13 7.5t-3 11.5
v856l-199 -205q-3 -3 -8 -3.5t-11.5 3t-13 8.5t-17.5 14.5t-19.5 18l-22.5 22.5q-40 40 -48.5 55z" />
    <glyph glyph-name="arrowright" unicode="&#x2192;" horiz-adv-x="1398" 
d="M94 596v20q0 44 2.5 66t7.5 28.5t15 6.5h835l-204 198q-5 5 -4.5 12.5t13 23t40.5 42.5l14 15q40 40 55 48.5t23 -1.5l377 -377q25 -25 31 -35.5t6 -24.5v-24q0 -14 -6 -24t-31 -35l-377 -377q-10 -10 -30 4.5t-62 56.5q-28 27 -40.5 42.5t-13 23t4.5 12.5l204 199h-835
q-10 0 -15 6t-7.5 28t-2.5 66z" />
    <glyph glyph-name="arrowdown" unicode="&#x2193;" horiz-adv-x="1398" 
d="M250 414q-10 10 4.5 30t56.5 62q27 28 42.5 40.5t23 13t12.5 -4.5l199 -205v856q0 10 6 15t28 7.5t66 2.5h21q44 0 66 -2.5t28 -7.5t6 -15v-856l199 205q5 5 12 4.5t22.5 -13t42.5 -40.5l15 -14q40 -40 48.5 -55t-1.5 -23l-377 -377q-25 -25 -35 -31t-24 -6h-25
q-14 0 -24 6t-35 31z" />
    <glyph glyph-name="partialdiff" unicode="&#x2202;" horiz-adv-x="1273" 
d="M72 500v39q0 119 38.5 211t106 148.5t153 85t185.5 28.5q173 0 276 -47q0 101 -9.5 165.5t-38 118.5t-84 78.5t-142.5 24.5q-128 0 -272 -41q-55 -18 -64 22l-31 158q-12 47 29 61q71 28 172 47t201 19q138 0 236 -32t169 -107q162 -179 162 -648v-86q0 -213 -35 -362
t-105.5 -238t-168.5 -128.5t-232 -39.5q-257 0 -401.5 131.5t-144.5 391.5zM403 494q0 -133 53.5 -191.5t161.5 -58.5q121 0 167 100t46 332v41q-84 43 -217 43q-100 0 -155.5 -61t-55.5 -179v-26z" />
    <glyph glyph-name="product" unicode="&#x220f;" horiz-adv-x="1697" 
d="M43 1370v191q0 34 37 34h1542q22 0 30 -7t5 -27l-35 -191q-3 -20 -10.5 -27.5t-26.5 -7.5h-209v-1525q0 -35 -37 -35h-256q-32 0 -32 35v1525h-430v-1525q0 -35 -37 -35h-256q-35 0 -35 35v1525h-213q-16 0 -26.5 9t-10.5 26z" />
    <glyph glyph-name="summation" unicode="&#x2211;" horiz-adv-x="1286" 
d="M51 -84q0 36 29 72l579 684l-565 659q-35 47 -35 99v124q0 41 50 41h1069q24 0 34.5 -8t8.5 -26l-25 -185q-3 -24 -19 -32.5t-47 -8.5h-651l455 -516q27 -36 36 -57.5t9 -48.5v-47q0 -31 -8.5 -51.5t-28.5 -51.5l-463 -528h711q25 0 35.5 -10.5t7.5 -34.5l-21 -174
q-3 -23 -14 -32t-37 -9h-1067q-24 0 -33.5 9.5t-9.5 31.5v100z" />
    <glyph glyph-name="minus" unicode="&#x2212;" 
d="M141 530v193q0 18 8 25.5t27 7.5h1032q19 0 27 -7.5t8 -25.5v-193q0 -18 -8 -25t-27 -7h-1032q-19 0 -27 7t-8 25z" />
    <glyph glyph-name="radical" unicode="&#x221a;" horiz-adv-x="1568" 
d="M51 784v170q0 21 8.5 30t30.5 9h399q26 0 38 -9.5t20 -33.5l186 -639h17l413 1319q7 26 21.5 34.5t44.5 8.5h256q52 0 35 -49l-574 -1589q-9 -22 -21 -28.5t-38 -6.5h-301q-48 0 -60 33l-254 715h-178q-25 0 -34 7.5t-9 28.5z" />
    <glyph glyph-name="infinity" unicode="&#x221e;" horiz-adv-x="1935" 
d="M35 702v25q0 132 65 236.5t178.5 162.5t253.5 58q283 0 443 -244q159 244 448 244q137 0 243 -50t170.5 -155t64.5 -252v-25q0 -205 -136 -329.5t-364 -124.5q-135 0 -253.5 66.5t-186.5 177.5q-71 -114 -185 -179t-246 -65q-215 0 -355 126.5t-140 327.5zM375 711
q0 -83 55.5 -135t138.5 -52q81 0 144.5 54t97.5 139q-39 91 -105.5 139.5t-142.5 48.5q-83 0 -135.5 -48.5t-52.5 -131.5v-14zM1124 717q34 -85 97.5 -139t144.5 -54t138 52t57 129v14q0 87 -52.5 136.5t-136.5 49.5q-76 0 -142.5 -48.5t-105.5 -139.5z" />
    <glyph glyph-name="integral" unicode="&#x222b;" horiz-adv-x="808" 
d="M22 -196q-1 9 7 13.5t16.5 5.5t22 0t24.5 -2.5t25 -3t22 -1.5q124 0 168.5 47.5t44.5 161.5q0 39 -2 59q-11 105 -47 256t-73 280t-71 288t-42 282q-2 18 -2 55q1 136 60.5 232.5t161 143t236.5 46.5q108 0 177 -16q31 -5 28 -37l-16 -148q-1 -19 -9.5 -25t-27.5 -3
q-78 10 -111 10q-94 0 -144 -49t-50 -139v-39q7 -130 38 -281.5t66 -269.5t71 -268.5t50 -270.5q6 -59 6 -117q0 -140 -50 -234.5t-139.5 -138.5t-215.5 -44q-89 0 -127 10q-15 4 -23 13.5t-14 27.5l-55 133q-4 14 -5 23z" />
    <glyph glyph-name="approxequal" unicode="&#x2248;" 
d="M117 313q43 121 138.5 190.5t207.5 69.5q94 0 219 -57l123 -55q79 -33 123 -33q79 0 127 94q12 22 23.5 26t37.5 -5l133 -54q18 -7 22 -12.5t-1 -25.5q-47 -137 -137 -202t-201 -65q-103 0 -197 41l-125 56q-91 38 -129 38q-80 0 -139 -92q-13 -19 -24 -23.5t-37 3.5
l-142 65q-33 15 -22 41zM117 827q43 121 138.5 190.5t207.5 69.5q94 0 219 -57l123 -55q79 -33 123 -33q79 0 127 94q12 22 23.5 26t37.5 -5l133 -53q17 -7 21.5 -13t-0.5 -26q-47 -137 -137 -202t-201 -65q-103 0 -197 41l-125 56q-93 39 -129 39q-80 0 -139 -93
q-13 -19 -24 -23.5t-37 3.5l-142 65q-33 15 -22 41z" />
    <glyph glyph-name="notequal" unicode="&#x2260;" 
d="M141 279v192q0 18 8 25.5t27 7.5h320l122 252h-442q-19 0 -27 7t-8 25v193q0 18 8 25.5t27 7.5h567l117 239q9 25 41 25h219q38 0 23 -29l-113 -235h178q19 0 27 -7.5t8 -25.5v-193q0 -18 -8 -25t-27 -7h-305l-123 -252h428q19 0 27 -7.5t8 -25.5v-192q0 -18 -8 -25.5
t-27 -7.5h-553l-108 -226q-10 -17 -18 -22.5t-27 -5.5h-221q-15 0 -21 7t0 19l109 228h-193q-19 0 -27 7.5t-8 25.5z" />
    <glyph glyph-name="lessequal" unicode="&#x2264;" 
d="M137 797v204q0 17 7.5 26.5t27.5 16.5l940 357q39 17 51 -19l54 -165q13 -26 -25 -43l-752 -283l744 -264q23 -7 29 -19.5t-1 -34.5l-47 -149q-11 -38 -55 -23l-938 344q-20 7 -27.5 18.5t-7.5 33.5zM150 33v192q0 33 34 33h1033q19 0 26.5 -7t7.5 -26v-192
q0 -19 -7.5 -26t-26.5 -7h-1033q-34 0 -34 33z" />
    <glyph glyph-name="greaterequal" unicode="&#x2265;" 
d="M133 33v192q0 18 8 25.5t27 7.5h1032q35 0 35 -33v-192q0 -33 -35 -33h-1032q-19 0 -27 7.5t-8 25.5zM168 1217l53 165q11 33 51 19l940 -357q20 -7 27.5 -16.5t7.5 -26.5v-204q0 -22 -7.5 -33.5t-27.5 -18.5l-938 -344q-44 -15 -55 23l-47 149q-6 22 0 34.5t29 19.5
l743 264l-751 283q-33 14 -25 43z" />
    <glyph glyph-name="uni22C5" unicode="&#x22c5;" horiz-adv-x="567" 
d="M205 694v207q0 41 47 41h199q49 0 49 -41v-207q0 -41 -49 -41h-199q-47 0 -47 41z" />
    <glyph glyph-name="lozenge" unicode="&#x25ca;" horiz-adv-x="1402" 
d="M25 778q0 22 22 56l432 739q13 29 49 29h346q35 0 50 -29l432 -739q22 -34 22 -56q0 -21 -22 -55l-432 -739q-15 -29 -50 -29h-346q-36 0 -49 29l-432 739q-22 34 -22 55zM371 778l321 -575h19l321 575l-321 576h-19z" />
    <glyph glyph-name="uni266A" unicode="&#x266a;" horiz-adv-x="1413" 
d="M205 143q0 69 62.5 116.5t166.5 47.5q114 0 197 -55v1204q0 11 8 15t39 4h16q31 0 39 -4t8 -15v-51q10 -7 20.5 -14t19.5 -12.5t22 -12t20.5 -10.5t22 -10.5t21 -9t22.5 -9t21 -8t23 -8.5t21 -8q122 -44 164 -72q89 -60 90 -168q0 -64 -41.5 -124.5t-115.5 -102.5
q-12 -6 -37 32q-12 18 -13 23.5t5 9.5q65 46 65 103q0 22 -9 40t-19 29.5t-35.5 24.5t-39.5 18.5t-50 18.5t-50 18q-72 26 -127 68v-967q0 -131 -77.5 -202.5t-221.5 -71.5q-110 0 -173.5 47t-63.5 116z" />
    <glyph glyph-name="uniE000" unicode="&#xe000;" horiz-adv-x="1208" 
d="M0 0v1208h1208v-1208h-1208z" />
    <glyph glyph-name="apple" unicode="&#xf8ff;" horiz-adv-x="1021" 
d="M113 0v1280h796v-125h-663v-1028h147v-127h-280zM377 395v123h401v129h-401v379h532v-125h-397v-125h397v-381h-532z" />
    <glyph glyph-name="grave.cap" horiz-adv-x="868" 
d="M84.5 2101q7.5 13 30.5 13h270q40 0 66 -33l219 -303q14 -19 7.5 -32t-30.5 -13h-207q-51 0 -84 36l-264 304q-15 15 -7.5 28z" />
    <glyph glyph-name="acute.cap" horiz-adv-x="868" 
d="M191 1746q-6 13 8 32l219 303q26 33 65 33h271q23 0 30 -13t-8 -28l-264 -304q-33 -36 -84 -36h-207q-24 0 -30 13z" />
    <glyph glyph-name="dieresis.cap" horiz-adv-x="868" 
d="M45 1810v226q0 45 53 45h199q29 0 43 -10t14 -35v-226q0 -45 -57 -45h-199q-53 0 -53 45zM514 1810v226q0 45 55 45h197q29 0 43 -10t14 -35v-226q0 -45 -57 -45h-197q-55 0 -55 45z" />
    <glyph glyph-name="circumflex.cap" horiz-adv-x="868" 
d="M39.5 1818.5q-0.5 12.5 9.5 24.5l240 262q13 13 30 13h236q17 0 33 -13l231 -262q10 -12 9.5 -24.5t-11.5 -18.5l-141 -76q-19 -9 -29.5 -7.5t-25.5 14.5l-181 176h-12l-180 -172q-15 -13 -26 -14t-29 8l-142 71q-11 6 -11.5 18.5z" />
    <glyph glyph-name="tilde.cap" horiz-adv-x="868" 
d="M-10 1884q40 95 117 156t172 61q88 0 157 -41l41 -24q72 -45 111 -45q56 0 108 86q14 28 43 12l127 -80q13 -8 16 -14.5t-3 -22.5q-38 -93 -113.5 -153t-165.5 -60q-88 0 -166 45l-33 19q-28 17 -42 24.5t-32 14t-34 6.5q-69 0 -115 -80q-14 -28 -43 -12l-133 71
q-24 15 -12 37z" />
    <glyph glyph-name="macron.cap" horiz-adv-x="868" 
d="M78 1839v166q0 29 28 29h656q29 0 29 -29v-166q0 -29 -29 -29h-656q-28 0 -28 29z" />
    <glyph glyph-name="breve.cap" horiz-adv-x="868" 
d="M94 2060q0 23 23 23h166q17 0 20 -17q9 -48 42.5 -77t86.5 -29q54 0 88 29t43 77q3 17 19 17h170q13 0 17.5 -5t4.5 -18q0 -129 -90.5 -210t-251.5 -81q-158 0 -248 81t-90 210z" />
    <glyph glyph-name="dotaccent.cap" horiz-adv-x="868" 
d="M279 1825v227q0 45 55 45h198q58 0 58 -45v-227q0 -45 -58 -45h-198q-55 0 -55 45z" />
    <glyph glyph-name="ring.cap" horiz-adv-x="868" 
d="M182 1942q0 102 69 169.5t185 67.5q115 0 182.5 -67t67.5 -170q0 -102 -67.5 -169t-182.5 -67q-116 0 -185 67.5t-69 168.5zM348 1942q0 -39 24 -64t64 -25t63 25t23 64q0 41 -23 65.5t-63 24.5q-41 0 -64.5 -25t-23.5 -65z" />
    <glyph glyph-name="hungarumlaut.cap" horiz-adv-x="868" 
d="M-6 1767l211 324q20 23 45 23h315q14 0 18 -9.5t-5 -21.5l-283 -322q-17 -22 -62 -22h-215q-45 0 -24 28zM489.5 1744.5q-5.5 5.5 2.5 18.5l213 328q13 23 45 23h313q15 0 19 -9.5t-5 -21.5l-282 -322q-17 -22 -62 -22h-215q-23 0 -28.5 5.5z" />
    <glyph glyph-name="caron.cap" horiz-adv-x="868" 
d="M39.5 2027.5q0.5 12.5 11.5 18.5l142 72q19 9 29.5 7.5t25.5 -14.5l180 -172h12l181 177q15 13 26 14t29 -8l141 -76q11 -6 11.5 -18.5t-9.5 -24.5l-231 -262q-15 -12 -33 -12h-236q-18 0 -30 12l-240 262q-10 12 -9.5 24.5z" />
    <glyph glyph-name="zero.ltab" 
d="M129 590v416q0 313 130 462.5t433 149.5t433 -149.5t130 -462.5v-416q0 -156 -30 -268t-96 -190.5t-174.5 -116.5t-262.5 -38t-262.5 38t-174.5 116.5t-96 190.5t-30 268zM449 614q0 -76 5.5 -129.5t20.5 -101.5t42 -77t70.5 -45.5t104.5 -16.5t104.5 16.5t70 45t42 77
t20.5 102t5 129.5v367q0 76 -5.5 129.5t-20.5 102t-41.5 77.5t-70 45.5t-104.5 16.5q-76 0 -125 -24t-74 -75t-34.5 -114t-9.5 -158v-367z" />
    <glyph glyph-name="one.ltab" 
d="M229 1247q-19 47 29 70q246 128 420 246q30 21 45.5 26.5t42.5 5.5h182q51 0 51 -41v-1513q0 -23 -12 -32t-39 -9h-223q-45 0 -45 43v1194q-155 -109 -291 -180q-55 -28 -78 20z" />
    <glyph glyph-name="two.ltab" 
d="M168 53v129q0 29 6.5 45.5t30.5 38.5l217 213q244 241 347 390.5t103 283.5v10q0 189 -249 189q-77 0 -175 -13.5t-174 -35.5q-31 -8 -42 -1.5t-11 29.5v170q0 21 8.5 31t30.5 18q69 28 183 48t214 20q267 0 403 -105t136 -311v-18q0 -177 -114 -364.5t-339 -397.5
l-170 -162h596q31 0 40.5 -10.5t4.5 -38.5l-28 -170q-6 -41 -51 -41h-906q-36 0 -48.5 11t-12.5 42z" />
    <glyph glyph-name="three.ltab" 
d="M143 268q-4 20 10 31.5t33 5.5q67 -24 176 -42.5t197 -18.5q171 0 266 65.5t95 196.5v10q0 66 -20 109.5t-61.5 66t-92 31t-123.5 8.5h-168q-36 0 -51 11t-15 38v90q0 47 53 107q145 167 357 358h-568q-43 0 -43 37v182q0 22 10 31.5t33 9.5h875q57 0 57 -49v-116
q0 -45 -5 -68t-23 -39q-147 -131 -375 -373q20 2 51 2q201 0 316.5 -111t115.5 -319v-12q0 -168 -84.5 -290t-228 -182.5t-328.5 -60.5q-214 0 -350 46q-27 9 -40 21t-19 34z" />
    <glyph glyph-name="four.ltab" 
d="M84 393v96q0 60 29 123l432 938q20 45 59 45h242q57 0 39 -49l-449 -956h393v434q0 40 33 45l246 29q43 6 43 -31v-477h197q19 0 26 -7.5t4 -25.5l-35 -182q-5 -23 -12 -30t-28 -7h-152v-303q0 -21 -10 -28t-33 -7h-242q-37 0 -37 35v303h-673q-66 0 -72 55z" />
    <glyph glyph-name="five.ltab" 
d="M207 272q-4 24 11.5 31.5t41.5 -2.5q69 -24 168 -40.5t188 -16.5q320 0 320 254v12q0 77 -16 118.5t-46 69.5q-59 56 -212 56q-150 0 -328 -37q-28 -6 -45 3.5t-17 29.5l45 784q2 33 16 47t46 14h749q25 0 34 -10t5 -33l-34 -176q-4 -23 -15.5 -32t-36.5 -9h-497
l-23 -346q123 21 234 21q216 0 329 -107q136 -129 136 -377v-24q0 -250 -161.5 -387.5t-432.5 -137.5q-213 0 -359 48q-23 7 -34 19t-17 36z" />
    <glyph glyph-name="six.ltab" 
d="M162 526v480q0 306 162 459t477 153q161 0 282 -33q41 -12 41 -41v-188q0 -39 -47 -27q-104 23 -256 23q-169 0 -253.5 -68.5t-84.5 -200.5v-90q51 30 137 49t181 19q212 0 332 -123.5t120 -370.5v-59q0 -255 -143.5 -393t-402.5 -138q-267 0 -406 143t-139 406zM483 516
q0 -145 58 -208.5t172 -63.5q108 0 161.5 63.5t53.5 196.5v16q0 145 -45.5 210t-165.5 65q-58 0 -124.5 -15t-109.5 -39v-225z" />
    <glyph glyph-name="seven.ltab" 
d="M158 1378v172q0 25 10 35t37 10h956q30 0 44 -11.5t14 -39.5v-106q0 -84 -23 -131q-373 -719 -606 -1266q-21 -41 -72 -41h-256q-27 0 -35.5 13.5t2.5 35.5q166 350 347 697t323 589h-696q-26 0 -35.5 9t-9.5 34z" />
    <glyph glyph-name="eight.ltab" 
d="M111 430v19q0 147 74 242.5t204 135.5q-104 39 -165.5 134.5t-61.5 228.5v14q0 186 149 300t387 114q243 0 387 -107t144 -292v-15q0 -279 -238 -373q281 -93 281 -380v-19q0 -141 -80 -246t-209.5 -157t-286.5 -52q-268 0 -426.5 120.5t-158.5 332.5zM434 459
q0 -99 73 -162.5t189 -63.5q114 0 184 61.5t70 164.5v8q0 196 -256 242q-121 -19 -190.5 -81t-69.5 -161v-8zM471 1167q0 -171 238 -215q102 30 154 79.5t52 135.5v9q0 85 -57.5 135.5t-157.5 50.5q-103 0 -166 -51t-63 -135v-9z" />
    <glyph glyph-name="nine.ltab" 
d="M150 1049v53q0 252 150.5 384t416.5 132q270 0 399 -128t129 -396v-539q0 -281 -148 -429.5t-407 -148.5q-102 0 -201.5 11t-148.5 26q-38 11 -49 52l-49 190q-4 20 10 31.5t33 5.5q152 -49 344 -49q295 0 295 272v113q-104 -70 -273 -70q-241 0 -371 126t-130 364z
M475 1075q0 -250 215 -250q67 0 132.5 17t101.5 49v196q0 141 -51.5 203t-165.5 62q-111 0 -171.5 -60.5t-60.5 -199.5v-17z" />
    <glyph glyph-name="dollar.ltab" 
d="M207 291q-3 22 11 28.5t40 -4.5q67 -29 163 -50t179 -21q131 0 202.5 51.5t71.5 138.5v10q0 83 -46.5 131t-165.5 93l-97 37q-334 127 -334 454v15q0 210 148 331q80 65 203 92v213q0 23 22 23h195q13 0 17.5 -5t4.5 -18v-194q127 -6 232 -37q26 -8 33.5 -20.5t7.5 -36.5
v-164q0 -48 -62 -35q-131 29 -246 29q-239 0 -239 -174v-9q0 -83 41 -131.5t139 -85.5l107 -41q187 -71 269.5 -167.5t82.5 -276.5v-21q0 -170 -96 -287.5t-269 -158.5v-197q0 -12 -4.5 -17t-17.5 -5h-195q-22 0 -22 22v177q-172 7 -287 49q-26 8 -35 20t-14 35z" />
    <glyph glyph-name="cent.ltab" 
d="M252 436v334q0 188 100 302t285 145v194q0 23 20 23h197q20 0 20 -23v-186q95 -8 189 -31q37 -9 37 -49v-150q0 -43 -62 -30q-104 22 -223 22q-258 0 -258 -248v-282q0 -120 62 -179t194 -59q126 0 256 37q25 8 38 -2.5t9 -34.5l-26 -151q-8 -41 -43 -52
q-73 -25 -173 -34v-172q0 -23 -20 -23h-197q-20 0 -20 23v178q-195 28 -290 139t-95 309z" />
    <glyph glyph-name="Euro.ltab" 
d="M66 883v174q0 17 9 23.5t31 6.5h150q7 264 161.5 397.5t434.5 133.5q220 0 356 -43q21 -7 28 -19t7 -36v-162q0 -27 -12.5 -34t-46.5 1q-139 27 -289 27q-152 0 -225 -63.5t-84 -201.5h377q18 0 25.5 -6.5t4.5 -23.5l-37 -174q-5 -29 -41 -29h-331v-152h379
q18 0 25.5 -6.5t4.5 -23.5l-37 -172q-5 -27 -41 -27h-325q16 -122 88.5 -175.5t218.5 -53.5q184 0 324 45q18 5 33.5 -4t11.5 -33l-33 -178q-5 -26 -15 -39t-32 -19q-139 -39 -342 -39q-310 0 -451 132q-122 111 -137 364h-139q-41 0 -41 27v172q0 30 41 30h139v152h-150
q-40 0 -40 29z" />
    <glyph glyph-name="florin.ltab" 
d="M129 -197q-4 18 5.5 27.5t25.5 7.5q81 -12 110 -12q73 0 107.5 28t46.5 99l141 854h-176q-16 0 -25 6.5t-6 20.5l33 184q3 15 10.5 20.5t24.5 5.5h172l35 211q37 226 133.5 319t296.5 93q84 0 166 -20q26 -7 18 -33l-37 -154q-8 -37 -41 -30q-36 8 -82 8
q-66 0 -101 -40.5t-54 -154.5l-35 -199h223q14 0 21 -7t4 -19l-39 -184q-8 -27 -39 -27h-207l-139 -838q-32 -195 -115.5 -283.5t-234.5 -88.5q-94 0 -164 18q-19 5 -28 13.5t-13 27.5z" />
    <glyph glyph-name="sterling.ltab" 
d="M141 717v149q0 21 9 30t38 9h140q-88 181 -88 322v14q0 180 154 278.5t423 98.5q176 0 348 -47q28 -7 38.5 -20t10.5 -38v-174q0 -23 -13.5 -28.5t-41.5 2.5q-139 39 -305 39q-145 0 -214 -43t-69 -131v-17q0 -108 62 -256h409q26 0 35.5 -9t5.5 -32l-30 -143
q-4 -23 -17.5 -32t-40.5 -9h-313q4 -40 4 -70v-20q0 -98 -36.5 -189t-104.5 -141h655q41 0 35 -35l-39 -184q-5 -22 -15.5 -31.5t-33.5 -9.5h-950q-26 0 -36.5 7t-10.5 26v125q0 26 7.5 38.5t32.5 24.5q91 47 150 138.5t59 207.5v21q0 11 -6 92h-203q-31 0 -40 8t-9 29z" />
    <glyph glyph-name="yen.ltab" 
d="M74 1559q-7 15 0.5 25.5t25.5 10.5h258q23 0 34.5 -7.5t17.5 -26.5q180 -484 274 -695h14q60 137 137.5 338t129.5 355q9 22 20.5 29t36.5 7h258q48 0 29 -36q-178 -434 -361 -783h234q38 0 30 -31l-36 -149q-4 -17 -13.5 -23t-27.5 -6h-283l-2 -6v-125h332q20 0 27 -6.5
t3 -23.5l-36 -150q-4 -17 -13.5 -23t-27.5 -6h-285v-190q0 -18 -10.5 -27.5t-26.5 -9.5h-256q-35 0 -35 37v190h-317q-41 0 -41 29v150q0 17 9.5 23.5t31.5 6.5h317v125l-4 6h-313q-41 0 -41 29v149q0 17 9.5 24t31.5 7h221q-177 338 -352 783z" />
    <glyph glyph-name="percent.ltab" horiz-adv-x="2082" 
d="M80 1044v205q0 369 383 369q182 0 282.5 -90t100.5 -279v-205q0 -189 -100.5 -278.5t-282.5 -89.5q-383 0 -383 368zM330 1051q0 -40 4.5 -66.5t17.5 -52t40.5 -37.5t70.5 -12q75 0 104 41.5t29 126.5v190q0 82 -26 125t-107 43q-77 0 -105 -41t-28 -127v-190zM559 37
l670 1530q7 19 16 24.5t31 5.5h207q23 0 29.5 -8t0.5 -28l-667 -1530q-6 -19 -15 -25t-32 -6h-211q-22 0 -28.5 8.5t-0.5 28.5zM1237 346v205q0 369 381 369q184 0 284.5 -90t100.5 -279v-205q0 -189 -100.5 -279t-284.5 -90q-381 0 -381 369zM1487 352q0 -83 25.5 -125.5
t105.5 -42.5q77 0 106 41t29 127v191q0 40 -4.5 66t-17.5 51.5t-41 38t-72 12.5q-75 0 -103 -41t-28 -127v-191z" />
    <glyph glyph-name="perthousand.ltab" horiz-adv-x="2975" 
d="M80 1044v205q0 369 383 369q184 0 284.5 -90t100.5 -279v-205q0 -189 -100.5 -278.5t-284.5 -89.5q-383 0 -383 368zM332 1051q0 -41 4 -67t16.5 -51.5t40 -37.5t70.5 -12q77 0 105 41t28 127v190q0 40 -4 66t-17 51.5t-40.5 38t-71.5 12.5q-75 0 -103 -41t-28 -127v-190
zM559 37l672 1530q6 19 15 24.5t32 5.5h207q23 0 30 -8t1 -28l-668 -1530q-6 -19 -15 -25t-32 -6h-211q-23 0 -30 8.5t-1 28.5zM1237 346v205q0 369 383 369q182 0 283.5 -90.5t101.5 -278.5v-205q0 -188 -101.5 -278.5t-283.5 -90.5q-383 0 -383 369zM1489 352q0 -41 4 -67
t16.5 -51.5t40 -37.5t70.5 -12q77 0 105 41t28 127v191q0 40 -4 66t-17 51.5t-40.5 38t-71.5 12.5q-75 0 -103 -41t-28 -127v-191zM2130 346v205q0 369 383 369q182 0 283.5 -90.5t101.5 -278.5v-205q0 -188 -101.5 -278.5t-283.5 -90.5q-383 0 -383 369zM2382 352
q0 -41 4 -67t16.5 -51.5t40 -37.5t70.5 -12q75 0 104 41.5t29 126.5v191q0 40 -4 66t-17 51.5t-40.5 38t-71.5 12.5q-77 0 -104 -40.5t-27 -127.5v-191z" />
    </font>
</defs>
</svg>
